<?xml version="1.0" standalone="no"?>
<!DOCTYPE svg PUBLIC "-//W3C//DTD SVG 1.1//EN" "http://www.w3.org/Graphics/SVG/1.1/DTD/svg11.dtd" >
<svg xmlns="http://www.w3.org/2000/svg" xmlns:xlink="http://www.w3.org/1999/xlink" version="1.1">
<metadata>
Created by FontForge 20170731 at Tue Dec 22 11:51:55 2020
 By Aleksey,,,
Copyright (c) 2020 by Typhoon Type - Suthi Srisopha. All rights reserved.
</metadata>
<defs>
<font id="ChristmasBellPersonalUse" horiz-adv-x="727" >
  <font-face 
    font-family="Christmas Bell - Personal Use"
    font-weight="400"
    font-stretch="normal"
    units-per-em="2048"
    panose-1="0 0 0 0 0 0 0 0 0 0"
    ascent="1638"
    descent="-410"
    x-height="877"
    cap-height="1376"
    bbox="-515.105 -516.062 12284.7 1592"
    underline-thickness="102"
    underline-position="-358"
    unicode-range="U+000D-E004"
  />
<missing-glyph horiz-adv-x="512" 
 />
    <glyph glyph-name="l_l" unicode="ll" horiz-adv-x="1054" 
d="M1161 578q12 -2 16.5 -12t3.5 -20l-1 -9q-3 -11 -7.5 -30.5t-21.5 -75.5t-36 -107t-49 -113t-62 -106.5t-74.5 -74.5t-85.5 -30q-225 3 -262 332q-23 -62 -49.5 -116.5t-61 -105t-76.5 -80t-86 -30.5q-73 -2 -125.5 44t-78.5 121.5t-40 167.5t-13.5 185t3.5 169.5
t9 124.5l6 48q1 11 4 29t13 71.5t21.5 102t31 107.5t41 102.5t51.5 73.5t63 32q121 6 164 -123q46 -136 -8 -349q-59 -228 -197 -404q-13 -432 68 -439q6 2 16.5 6.5t41 31t59.5 66t66.5 118.5t67.5 180q-1 81 7.5 168.5t17.5 134.5l8 47q3 18 9 48.5t28 108t47.5 137
t68.5 109.5t91 52q126 6 166 -112q42 -121 -22 -311q-69 -208 -222 -370q-26 -402 84 -414q7 2 18.5 7.5t45.5 37t65.5 78t71.5 140.5t71 215q1 4 2.5 10.5t10 17t20.5 9.5zM922 1167q-34 -61 -63.5 -165t-42.5 -178l-13 -74q-11 -58 -19 -140q45 56 93 150.5t67 177.5
q38 186 -22 229zM854 1231q-22 1 -39 -7.5t-25 -21.5t-13 -26.5t-6 -23.5l-1 -9q11 19 32 41t36 34zM403 1055q13 189 -34 223q-32 -62 -56.5 -175.5t-32.5 -196.5l-8 -83q-8 -80 -14 -186q58 90 98.5 208.5t46.5 209.5zM309 1339h-10t-21.5 -5.5t-27.5 -15.5t-22.5 -33.5
t-12.5 -55.5q51 83 94 110z" />
    <glyph glyph-name="t_t" unicode="tt" horiz-adv-x="886" 
d="M985 578q15 -1 20 -13.5t3 -24.5l-2 -12q-2 -11 -6 -29.5t-18.5 -72t-31 -102t-43.5 -109t-55.5 -104.5t-67 -76t-79.5 -35q-80 -7 -128.5 84.5t-70.5 255.5q-20 -62 -44 -116t-55 -105.5t-69.5 -83t-79.5 -35.5q-43 -4 -78 21.5t-58.5 77t-40.5 116t-26 149.5t-14 167.5
t-4.5 179.5t2.5 175t6 165q-72 0 -139 6q-14 3 -26 13t-13 20q0 1 -1 3.5t-1 8.5t2.5 11t9 8.5t17.5 2.5q52 -6 155 -10q6 129 12 193q3 51 52 67q31 10 63 3t55 -29q15 -15 15 -37q-1 -10 -3.5 -41.5t-5 -71.5t-4.5 -80q44 2 132.5 8.5t132.5 8.5q2 33 5.5 91.5t4.5 80.5
q1 23 15 41t36 26q32 10 65 3t56 -29q16 -16 12 -37q-7 -103 -10 -170q105 0 186 -8q13 -1 24 -10.5t13 -20.5l1 -1q0 -1 0.5 -3.5t1 -5.5t0.5 -6t-0.5 -6t-2.5 -5.5t-5.5 -4.5t-8.5 -3t-12 0q-83 10 -199 10q-49 -1005 37 -1014q5 1 13.5 4.5t35.5 31.5t53 73t62 141
t67 224q1 5 3 12t11.5 18.5t22.5 10.5zM96 1286q29 54 49 66q-3 0 -6.5 -0.5t-14.5 -3.5t-16.5 -9.5t-11.5 -19.5t0 -33zM492 496q-14 232 2 573q-91 -4 -265 -16q-43 -981 39 -990q5 1 13 4.5t33.5 29t51 66.5t60.5 129t66 204zM541 1286q29 54 49 66q-3 0 -6.5 -0.5
t-14.5 -3.5t-16.5 -9.5t-11.5 -19.5t0 -33z" />
    <glyph glyph-name="Bell" unicode="Christmas&#x20;Bell" horiz-adv-x="12341" 
d="M11538 825q-19 -5 -35 6t-20 31q-3 20 7.5 38t29.5 22q20 3 36.5 -8t20.5 -31q3 -21 -8 -38t-31 -20zM11891 510q20 4 36 -7.5t19 -31.5q4 -20 -6.5 -36t-30.5 -21q-19 -4 -34.5 7.5t-20.5 31.5q-3 20 7.5 36t29.5 21zM12268 459q22 -78 15 -130t-34.5 -82.5t-58 -46
t-54.5 -20.5l-24 -4q-29 -4 -54 2t-40 17t-26 22.5t-15 20.5l-4 8q-2 3 -5 9t-7.5 23.5t-4.5 33t8.5 34.5t26.5 33q32 23 64 10q21 -6 34 -39q7 -18 5.5 -28.5t-6.5 -14.5l-5 -4q-19 -13 -35 -4.5t-20 39.5q-2 20 -14 20q-7 0 -13 -6q-12 -11 -12.5 -31t5.5 -35l5 -14
q1 -2 2.5 -6t8.5 -13.5t17 -17t27.5 -13.5t38.5 -5q43 4 60 39q25 60 -6 164q-29 101 -168.5 136t-335.5 -7q-4 -1 -30 -8t-40 -9q52 -4 164 -16q-18 -8 -21 -29.5t5 -35.5q7 -16 25 -32t29 -23.5t42 -25t33 -18.5q-21 -4 -32 -20.5t-11 -38.5q0 -23 10 -115
q-13 26 -35.5 46.5t-46.5 17.5q-18 -3 -43 -17t-35 -28q10 35 -2.5 70t-44.5 46q-63 22 -82 -2q0 135 -55 203l-55 -8q-51 -115 -179 -158q38 -15 50 -59q3 -7 7 -22.5t7 -22.5q15 -40 49 -64q1 -1 3 -2t6 -5t5 -8t-1.5 -10t-10.5 -12q-33 -14 -80 -28q2 -2 2 -9
q0 -12 -9 -21t-21 -9q-24 0 -31 22q-42 -9 -76 -12q-19 -3 -27 7.5t0 27.5q18 37 15 74q-2 16 -10 53q-12 45 20 80h-70q-176 7 -252 147q-14 -53 -31.5 -105.5t-48.5 -123t-64 -122.5t-79 -88.5t-94 -35.5q-220 3 -264 332q-23 -62 -49 -115.5t-60 -104.5t-75.5 -81
t-85.5 -31q-56 -1 -100 25t-72.5 75t-46 107t-27.5 131q-21 -64 -49.5 -118t-71 -106t-103.5 -82.5t-133 -31.5q-77 -3 -136.5 18.5t-96.5 61.5t-61 91t-32 112t-6.5 120t11.5 119q-67 0 -100 -2q5 -34 -5 -82q-20 -110 -101.5 -213t-207.5 -168t-258 -59q-73 3 -115 46
t-41 109.5t46 135.5q-39 48 -59 218.5t-15 352.5q5 144 39 301q6 25 10.5 43.5t8 37t4 31t-0.5 22.5t-5 15t-11 5q-44 -15 -80.5 -58.5t-59.5 -100.5t-39 -122.5t-22 -124.5t-5 -106t9 -68q30 -19 19 -35q-8 -8 -15 -8q-29 1 -52.5 19t-32.5 35l-9 18q-24 74 -15.5 158
t46.5 168t86.5 150t103.5 104t97 30q41 -8 70.5 -36t42.5 -63t20 -69t7 -57l1 -23q0 -17 -1.5 -32t-4.5 -33.5t-4 -32.5q30 58 61 106.5t69.5 95.5t80 70t79.5 13q61 -16 98.5 -72.5t46 -123t-0.5 -129.5t-33 -97q-32 -44 -68 -72.5t-56 -35.5l-21 -7q9 -1 25 -3.5t58 -16.5
t77 -34t71 -59t51 -88q23 2 123 7q5 24 17 55q1 5 4 14.5t14 35.5t25 49t38.5 50t52.5 45t69 27t87 2q2 0 6 -1t17 -5t23.5 -10t27 -17.5t27.5 -26.5t24 -37.5t17.5 -50.5t7.5 -65t-6 -82q-10 -67 -39.5 -121.5t-70 -89.5t-79 -56t-80.5 -34q10 -84 40 -138t79 -60
q10 1 26.5 4.5t63 30t88.5 68.5t91.5 132t82.5 209q-2 82 3 169.5t10 134.5l6 46q1 11 4 29t12.5 71.5t21.5 102t31 107.5t40.5 102.5t51.5 73.5t62 32q132 7 171.5 -140.5t-21 -358t-191.5 -377.5q-13 -431 70 -439q3 1 8.5 3t22.5 13.5t34 28t42 48.5t47.5 72t49 102
t48.5 135q-1 82 6.5 169.5t15.5 133.5l8 47q2 9 5 25.5t14 63t24 89t34 94.5t45 90t56.5 64.5t67.5 28.5q125 6 165 -112q41 -122 -22 -311q-70 -207 -223 -370q-26 -402 84 -414q7 2 19 7.5t46.5 37t66.5 78t71.5 140.5t69.5 215l4 12q0 25 10 27q11 4 23 -2q8 -3 12 -11
q7 -7 10 -16q47 -145 186 -172q-62 44 -90 104q11 -4 21.5 3.5t13.5 19.5q7 26 -18 102q12 -7 24.5 -4.5t20.5 12.5q14 16 45 60q-6 -14 -4 -36t14 -30q10 -7 27 -11t28 -1q-20 -13 -28.5 -34t0.5 -44q22 -39 41 -35q-52 -52 -52 -110q4 -2 15 -2q7 0 19.5 1t46 9t62 20.5
t58.5 39.5t45 63q-5 0 -13.5 0.5t-32 7t-43 17.5t-41 36.5t-32.5 59.5q-2 7 -5.5 19t-7 44.5t1 60.5t24.5 58t57 45q6 2 15.5 5.5t37 7t52 -1.5t52.5 -26t46 -59q15 -33 22 -67t6 -59t-4 -45.5t-6 -30.5l-4 -11q9 1 27.5 4t27.5 4q31 9 82 19q-10 40 -34 190q21 -24 55 0
q27 23 47 121q18 -30 57 -22q18 5 50 16t40 14q-44 -35 -34 -77q10 -29 38 -43q-28 2 -54 -15.5t-29 -46.5q-6 -53 18 -63v-2q-63 -12 -111 -60q12 2 74 17q153 38 240 43q55 4 103.5 -5t81.5 -27t60 -41t43 -46.5t27 -43t15 -31.5zM10574 1169q-34 -61 -63.5 -165
t-42.5 -178l-13 -74q-10 -58 -18 -142q47 59 94.5 153t64.5 175q40 183 -22 231zM10506 1231q-22 1 -39 -7.5t-24.5 -21t-12.5 -26t-6 -22.5v-9q11 19 31.5 40.5t35.5 33.5zM8374 762v-49q128 49 226 201q77 121 88 225q9 84 -37 89q-7 0 -15 -1q-32 -5 -66.5 -43t-62 -88.5
t-56 -118.5t-45 -116.5t-32.5 -98.5zM8262 1223l7 7t12 17t11 24t-1.5 24t-20.5 22q6 -47 -8 -94zM8573 217q78 49 120.5 124.5t51.5 152.5q-231 -47 -363 -158q1 -25 4 -50t3 -28q1 -7 -5.5 -10t-18 -1t-23.5 5t-27 8q-45 -69 -25 -108q14 -25 48 -27.5t73 11.5t76 32
t61 34zM8376 410q139 99 371 143q-3 40 -16 63q-16 26 -65.5 33t-115 -3t-104 -18t-74.5 -18q0 -98 4 -200zM9282 821q-3 1 -8.5 2t-20 0t-27 -7t-26 -23t-21.5 -43q72 61 103 71zM9245 489q-15 -74 -15 -149q63 21 118 73t75 138q10 50 7.5 88t-13.5 65.5t-23.5 45
t-22.5 26.5l-10 8q-27 -1 -56 -74.5t-45 -147.5zM10056 1057q16 188 -35 223q-31 -63 -55 -176.5t-32 -195.5l-9 -83q-9 -79 -13 -188q58 89 98 208.5t46 211.5zM9964 1341q-4 0 -10 -0.5t-21.5 -6t-28 -16t-24 -34t-13.5 -55.5q52 83 97 112zM11264 279q0 6 -1 15.5t-13 24
t-35 11.5q33 -22 49 -51zM11334 563q7 57 0 113q-1 6 -2.5 15.5t-8.5 33t-17 40t-28.5 27t-42.5 3.5q-28 -9 -36 -42t-2 -62l6 -29q6 -29 22 -49.5t34 -29.5t35 -14t28 -5zM815 825q-20 3 -31 20.5t-6 37.5q3 20 20 31t36 8q20 -4 30.5 -21.5t5.5 -38.5q-3 -20 -19.5 -31
t-35.5 -6zM463 510q20 -5 30.5 -21t6.5 -36q-3 -20 -19.5 -31.5t-36.5 -7.5t-30.5 20.5t-5.5 36.5t20.5 31.5t34.5 7.5zM3891 901q-2 1 -4.5 2t-10.5 7t-14.5 13t-13 20.5t-10 29.5t-3 39.5t6.5 50.5q1 3 2.5 9t9 20t16.5 24.5t25 18.5t35 6q48 -6 63.5 -60t-6.5 -112
q-13 -36 -34 -54.5t-36.5 -17t-25.5 3.5zM3928 1112q-28 4 -41 -11t-11 -31l1 -17q4 15 17 29.5t24 21.5zM7533 575q47 11 51 -16q4 -16 -5 -26.5t-19 -13.5l-11 -3q-145 -30 -215 -80q16 -38 23.5 -56.5t22 -59t20.5 -66t11.5 -63t2 -65t-14 -57.5t-30.5 -53
q-42 -50 -96 -72t-101 -16.5t-85.5 31t-53.5 66.5q-17 47 14 144.5t103 186.5q-36 58 -56 105q-9 -44 -20.5 -87.5t-29 -100t-39.5 -103t-48.5 -87t-60.5 -63t-70 -20.5q-169 8 -203 338q-22 -64 -46 -117.5t-55.5 -108t-69.5 -85t-77 -27.5q-66 4 -112.5 68.5t-67.5 169.5
q-39 -108 -90.5 -175t-116.5 -63q-80 4 -129.5 65.5t-68 161.5t-13.5 240q3 1 1.5 152t-15.5 143q-37 -117 -76 -293q-31 -148 -39 -197q-5 -31 -27 -45t-41 -12l-20 2q-39 3 -65 50t-36 112.5t-14 130.5t-3 110l2 46q-33 -41 -62 -191t-42 -279l-13 -130q-3 -18 -12 -33
q-22 -28 -64 -35q-32 -5 -61 10.5t-35 44.5q-23 126 -33 273q-20 -60 -43.5 -111.5t-54 -101t-68.5 -79.5t-78 -34q-52 -4 -91.5 34t-64 111t-39 162t-20.5 201q-110 -28 -176 -72q22 -53 33.5 -81t28 -84.5t19 -94.5t-7 -83t-36.5 -77q-43 -50 -97 -72t-101.5 -16.5t-86 31
t-53.5 66.5q-16 47 15 144t102 187q-34 56 -49 95q-15 -71 -36 -139t-54 -145.5t-79 -123.5t-98 -43q-197 10 -213 424q-53 -47 -129 -47q-68 1 -112 38t-59 89t-20 103.5t-1 87.5l4 36q-49 -83 -96.5 -254t-55.5 -330q1 -11 4.5 -33.5t4.5 -33.5q3 -25 -13 -47
q-22 -28 -61 -35q-34 -5 -63 10.5t-33 44.5q-24 122 -33 254q-19 -62 -40 -112t-49 -97.5t-64 -73.5t-76 -24q-80 4 -129.5 65.5t-68 161.5t-13.5 240q3 1 1 152t-16 143q-7 -13 -19 -36t-44.5 -97.5t-58.5 -151t-52 -188t-35 -217.5h-2q0 -21 -12 -39q-22 -28 -61 -35
q-34 -5 -62.5 10t-34.5 45q-19 94 -30 244q-131 -290 -387 -297q-92 -2 -160.5 32t-108 96.5t-59 136t-23.5 163.5q-80 -95 -221 -100q-28 -2 -69 0q31 -34 22 -80q0 -2 -5.5 -22t-6.5 -31q-3 -33 14 -74q8 -17 1 -27.5t-25 -7.5q-39 3 -76 12q-7 -22 -31 -22q-13 0 -23 9
t-10 21q0 2 1 5t1 4l-80 28q-12 10 -11.5 18.5t6.5 13.5l7 5q38 27 52 64q2 7 6 22.5t6 22.5q12 45 51 59q-127 43 -178 158q-20 2 -55 8q-58 -68 -58 -203q-17 24 -80 2q-33 -11 -45 -45.5t-4 -70.5q-10 14 -34 28t-41 17q-25 3 -47 -17t-35 -47q8 72 10 115q0 21 -12 38
t-33 21q2 1 33 18.5t42 25t29 23.5t25 32q9 14 5.5 35.5t-22.5 29.5q112 12 164 16q-8 2 -67 17q-198 42 -337.5 7t-168.5 -136q-29 -107 -6 -164q17 -35 59 -39q34 -1 58 13t31 28l7 14q23 55 -4 80q-3 6 -12 6q-4 0 -7.5 -5t-4.5 -10l-2 -5q-3 -31 -19 -39.5t-35 4.5
q-2 1 -5 4t-6.5 14.5t5.5 28.5q2 11 11 23t24 16q33 13 61 -10q30 -22 35 -55t-5 -56l-11 -22q-1 -3 -4 -9t-14.5 -19.5t-26 -23.5t-39 -16t-53.5 -2q-5 0 -13.5 1.5t-32 9t-43 18.5t-41 33t-33.5 50t-12 73t17 98q1 5 4 13t15 31t27.5 44t43 45.5t60 41.5t81 26.5
t103.5 5.5q92 -5 239 -43q8 -2 34.5 -8.5t39.5 -8.5q-45 48 -108 60v2q22 9 16 63q-3 29 -28.5 46.5t-53.5 15.5q27 14 37 43q11 38 -33 77q83 -29 88 -30q40 -8 58 22q2 -6 6 -24.5t7 -28.5t8 -25t12 -25.5t16 -17.5q11 -9 25 -10.5t28 10.5q-23 -145 -33 -190l82 -19
q9 -1 27.5 -4t27.5 -4q-4 11 -9.5 30t-2.5 75t27 108q18 38 45 59.5t53.5 25t50.5 2t39 -6.5l15 -6q37 -15 57.5 -44t23.5 -59.5t1 -59t-7 -46.5l-6 -18q-11 -34 -32 -59.5t-43 -36.5t-42.5 -17.5t-33.5 -7.5h-13q15 -36 44.5 -63t61 -40t61 -20.5t48.5 -8.5l19 -1q8 0 14 2
q-3 59 -51 110q22 -5 39 35q9 23 0 44t-29 34q11 -3 29 1.5t26 10.5q23 15 13 66q21 -36 43 -60q8 -10 21.5 -12.5t25.5 4.5q-2 -6 -7 -19.5t-7 -20.5t-5.5 -21.5t-2.5 -21l3 -19.5q3 -12 13 -19.5t22 -3.5q-28 -61 -92 -104q52 9 101.5 44.5t78.5 106.5q6 124 33 244
q23 100 68 219q-50 -9 -86 -18t-80.5 -23.5t-72.5 -34.5t-38 -45q4 -20 -2 -26q-6 -4 -11.5 -3.5t-9.5 3.5l-3 4q-90 97 16 176q31 23 92 39.5t106 23t138 17.5q127 264 282 272q4 -1 19 0t42.5 -8t43.5 -27q55 -55 6 -155q-53 -104 -254 -158q-21 -68 -39.5 -146.5
t-26.5 -122.5l-8 -44q-40 -257 0 -442.5t127 -196.5q6 0 16 1t40.5 8.5t60.5 20t70 40t74 64t68.5 96t57.5 132.5q0 6 -1 20t-1 21q-15 438 76 707q55 173 137 186q36 4 74.5 2.5t71.5 -22.5t39 -56q16 -91 -15 -239q-45 -228 -202 -463q-3 -136 6 -272q114 544 264 544
q45 0 78.5 -22.5t52 -57.5t30.5 -77.5t15 -85t3.5 -77.5t-1.5 -57l-2 -22q-10 -244 -5 -310q7 -93 38 -96q4 1 11.5 5t30.5 30t46.5 67.5t56.5 129t64 203.5q0 184 18 321q3 23 20 41.5t40 24.5q60 16 108 -15q36 -19 29 -63q-19 -105 -29 -219q-8 -71 -8 -125
q100 405 229 405q36 -1 61 -14.5t39 -33.5t22 -52.5t10 -59.5t3 -67q5 -76 -24 -168q-5 -20 21 -28q41 -13 85 26q27 24 47 64q2 96 19 241q7 47 49 60q64 16 102 -2q23 -12 36 -36t10 -50q-11 -88 -19 -171.5t-16.5 -215t2.5 -213.5t43 -85q4 1 12 5t32.5 32.5t49 74
t59 142t66.5 224.5q-10 31 -17 60.5t-8 43.5l-2 14q-7 46 5.5 85t35.5 62t46.5 39.5t40.5 22.5l18 6q4 2 11.5 4.5t29 5.5t40 1t41 -14.5t37.5 -36.5q25 -47 2 -106.5t-79 -113.5q31 -86 43 -114q90 54 196 71q-7 186 6 488q-123 -14 -352 -49q-59 -9 -100.5 1t-60.5 30
t-27 51.5t-7.5 55.5t5.5 50q2 8 10 10t14 -4q12 -14 28.5 -27t47.5 -28.5t71 -23t99 -11.5t131 6q15 2 65 7l80 8q2 39 7 96.5t6 75.5q1 23 15 41t36 26q31 10 64 3t55 -29q14 -14 14 -37q-7 -108 -10 -154q236 36 405 35.5t207 -53.5q56 -83 -20 -183q-7 -11 -15.5 -8.5
t-9.5 15.5q-20 151 -571 112q-8 -164 -12 -316.5t-3.5 -320t14 -270t40.5 -105.5q5 1 13 4.5t33.5 29.5t51 68.5t60 132.5t65.5 210q0 168 20 311q3 23 19 41.5t39 24.5q62 16 108 -15q36 -19 29 -63q-28 -160 -35 -322q-3 -53 0 -106q54 398 156 412q35 6 74.5 -9t56.5 -43
q28 -46 43 -219q13 57 23 97.5t27 91.5t33 82.5t38.5 54t46.5 22.5q45 0 78.5 -22.5t52 -57.5t30.5 -77.5t15 -85t3.5 -77.5t-1.5 -57l-2 -22q-10 -244 -5 -310q7 -93 38 -96q3 1 9.5 4t26 23t39.5 52t49 99t56 156q0 119 31 240q1 5 4 14t14 34.5t25 48.5t38 49.5t52 44
t68.5 26.5t86.5 2q77 -10 129 -88q1 7 7 51q2 20 15.5 37t33.5 23q60 17 102 -5q23 -11 35 -34t8 -49q-11 -87 -19.5 -179t-17.5 -230t2 -227t43 -92q4 1 12 5t32.5 32.5t49 74t59 142t66.5 224.5q3 6 5 12q-8 28 -14 54.5t-8 38.5l-1 13q-7 46 5.5 85t35 62t46 39.5
t40.5 22.5l18 6q4 2 11.5 4.5t29 5.5t40.5 1t41 -14.5t36 -36.5q26 -48 3 -106.5t-79 -113.5q12 -41 43 -114q104 61 224 75zM1976 1315q-73 0 -143 -182q128 27 164 81q20 33 19.5 54.5t-11.5 34.5q-4 6 -11.5 9t-12.5 3h-5zM1913 1343q-37 2 -62.5 -15.5t-32.5 -35.5
l-6 -18q15 16 40 33t43 27zM1022 563q4 0 11.5 0.5t27.5 5.5t36.5 14t33 29.5t22.5 49.5q1 5 3 12.5t3.5 28t-0.5 37.5t-12.5 33t-28.5 22q-37 11 -61.5 -18.5t-30.5 -64.5l-6 -36q-6 -70 2 -113zM1092 279q7 13 19.5 25.5t20.5 19.5l9 6q-24 3 -36 -10t-13 -27v-14z
M2574 1278q-7 6 -24.5 -9.5t-41 -59.5t-38.5 -105q-38 -166 -51 -354q81 159 133.5 331t21.5 197zM2488 1339q-3 1 -8 2t-18.5 1t-24.5 -4t-22 -18t-15 -36q65 55 88 55zM3152 786q35 48 76 66q-3 1 -8 2t-18 0t-23 -6.5t-18 -21t-9 -40.5zM3817 715q15 55 56 90
q-2 1 -6 1.5t-14.5 -2t-18 -10.5t-13 -28t-4.5 -51zM4241 694q3 18 14 44t21 42l10 17q-36 -11 -47 -37t-5 -46zM4383 807q-2 -1 -4 -5.5t1 -36.5t19 -85q43 49 27 96q-5 17 -16 25t-19 7zM4405 66q25 53 -1 120t-62 113q-28 -40 -43.5 -84.5t-17 -79t0.5 -63.5t6 -44l5 -16
q30 -10 58 3.5t41 32.5zM4706 1284q18 48 49 66h-6t-13 -3t-15.5 -9t-11.5 -20t-3 -34zM5165 791q28 47 61 63q-3 1 -7.5 1.5t-15.5 -1t-19.5 -6.5t-14.5 -20t-4 -37zM6402 805q-3 0 -8.5 0.5t-20 -1.5t-25.5 -8t-20 -20.5t-10 -36.5q64 60 84 66zM6388 76q31 3 66.5 59.5
t68 145t51.5 146.5t35 116q-7 58 -21.5 110.5t-37.5 90t-48 36.5q-27 -1 -55 -73.5t-43 -144.5l-14 -73q-14 -91 -19.5 -167t-3 -119.5t7 -74t9.5 -41.5zM7086 694q3 18 14.5 44t21.5 42l11 17q-36 -11 -47.5 -37t-5.5 -46zM7227 807q-2 -1 -4 -5.5t2.5 -36.5t20.5 -85
q39 46 26 96q-5 17 -16.5 25t-19.5 7zM7252 66q13 22 10 52.5t-9 54.5t-20 51.5t-24 44t-21 30.5q-28 -40 -43.5 -84.5t-17 -79t0.5 -63.5t6 -44l5 -16q20 -6 37.5 -3t31.5 12t24 19t15 18z" />
    <glyph glyph-name=".notdef" horiz-adv-x="512" 
 />
    <glyph glyph-name=".null" horiz-adv-x="0" 
 />
    <glyph glyph-name="nonmarkingreturn" horiz-adv-x="682" 
 />
    <glyph glyph-name="NULL" horiz-adv-x="0" 
 />
    <glyph glyph-name="NULL" horiz-adv-x="0" 
 />
    <glyph glyph-name="CR" unicode="&#xd;" horiz-adv-x="512" 
 />
    <glyph glyph-name="space" unicode=" " horiz-adv-x="532" 
 />
    <glyph glyph-name="exclam" unicode="!" horiz-adv-x="258" 
d="M121 156q29 0 49 -19.5t20 -46.5q0 -28 -20 -46.5t-49 -18.5t-49.5 18.5t-20.5 46.5q0 27 20.5 46.5t49.5 19.5zM207 1229q0 -4 1 -11.5t1 -11.5v-22q-2 -18 -2 -56q-2 -8 -2 -34q-2 -14 -2 -47q0 -17 -1 -58.5t-1 -66.5v-148q0 -27 -1 -80t-1 -78q-7 -196 -21 -280
q-16 -124 -47 -127q-13 -4 -25 10q-26 26 -36 107q0 4 -1 14t-1 16q-1 6 -2.5 19.5t-2.5 17.5q0 25 -4 99q-4 148 -4 253q0 187 6 269v33q2 8 2 28q1 12 4 33t3 22q0 20 4 52q5 35 6 41q4 32 12 65q9 28 20 45.5t25 16.5q45 0 60 -54q10 -30 10 -67zM111 1235q15 39 47 78
q-20 7 -31.5 -12.5t-13.5 -42.5z" />
    <glyph glyph-name="quotedbl" unicode="&#x22;" horiz-adv-x="286" 
d="M129 1278q10 -5 10 -23v-26q-5 -29 -10 -41q-6 -22 -23 -35l-6 -6l-8 -4q-10 -3 -16 0q-7 0 -13 4q-1 1 -4 3t-4 3q-4 4 -4 10q0 11 2 19t6 28q3 33 11 56l4 8q8 8 20 10q23 0 35 -6zM80 1241q16 23 26 27q-1 0 -3 0.5t-7 0.5t-8.5 -2.5t-6 -9t-1.5 -16.5zM225 1249
q14 -7 11 -22v-27q-5 -29 -11 -41q-6 -21 -22 -37q-4 -4 -6 -4q-8 -4 -9 -4q-10 -3 -16 0q-6 0 -12 4q-2 0 -8 6q-5 5 -5 11t3 18q1 4 6 29q1 7 4.5 27.5t5.5 27.5l4 8q8 8 20 8q22 3 35 -4zM176 1212q17 23 29 27q-1 0 -3 0.5t-7.5 0.5t-9.5 -2.5t-7 -9t-2 -16.5z" />
    <glyph glyph-name="numbersign" unicode="#" horiz-adv-x="641" 
d="M563 602q29 -12 29 -27q-3 -26 -27 -38q-14 -7 -30 -7h-11h-12h-25q-4 2 -16 2h-20h-7q-3 -27 -6 -57q-4 -42 -8 -61q2 0 4.5 -1t3.5 -1h15q4 -1 12 -2t12 -2q4 0 12.5 -1t12.5 -1q3 -1 9 -2.5t9 -2.5q15 -2 29 -8q14 -5 22 -11.5t7 -14.5q0 -27 -25 -39q-12 -6 -31 -6
h-10h-12h-25q-4 2 -16 2h-23h-16q-8 -50 -19 -99q-16 -72 -32 -75q-5 -4 -11 4q-12 12 -12 57q-2 1 -1 8t1 8v23q0 15 4 55v21h-39h-59q-11 -73 -21 -113q-16 -71 -32 -76q-7 -2 -11 4q-11 11 -14 60q0 10 2 16v21q0 11 4 57q0 23 2 35q-33 0 -73 8q-55 10 -58 31q-2 6 4 14
q12 15 51 23q2 0 6.5 1t6.5 1q3 0 9 1t9 1q12 2 45 2q2 2 6 2q2 8 2 24q2 16 6.5 49t6.5 50q-33 2 -82 10q-55 10 -58 31q-1 6 5 14q11 14 51 22q2 0 6.5 1t7.5 1q2 0 8 1t9 1q18 3 45 3q6 2 20 2v4q2 12 6 32q5 25 6 29q0 9 4 25q5 19 11 37q15 38 26 38q23 3 29 -26
q2 -8 2 -37q-2 -4 -2 -12q0 -11 -2 -15q0 -10 -4 -30q0 -3 -1 -10t-1 -11q-1 -3 -2 -10.5t-2 -11.5h28h70q0 2 1 7t1 7q1 5 3 16.5t3 16.5t3 14t3 14q1 4 2 12.5t2 12.5q5 19 11 37q16 37 26 39q23 3 29 -27q2 -10 2 -39q0 -1 -1 -5.5t-1 -6.5q0 -8 -2 -12q0 -11 -4 -31
q0 -13 -2 -21q-1 -4 -2 -13.5t-2 -14.5v-10h10q4 -1 12 -2.5t12 -2.5q4 0 12.5 -1t12.5 -1q3 -1 9 -2t9 -2q15 -2 31 -8zM283 768q-14 4 -20 -5.5t-5 -21.5v-12zM362 451q3 41 9 84h-47h-50q-5 -58 -6 -70q-1 -8 -3 -24.5t-3 -24.5h39h57q0 11 4 35zM426 737l27 41
q-15 4 -21.5 -6t-5.5 -22v-13z" />
    <glyph glyph-name="dollar" unicode="$" horiz-adv-x="737" 
d="M492 719q78 -85 104 -119q21 -28 40 -63.5t37 -105.5t13 -142q-3 -18 -6 -39q-13 -62 -45 -113q-29 -38 -41 -49q-4 -4 -13.5 -11t-13.5 -11q-25 -15 -30 -17q-29 -18 -66 -24q-22 -7 -55 -11q-6 -43 -13 -45l-4 1q-6 7 -12 40v2q-33 0 -49 2q-38 3 -64 11q-40 11 -61 22
q-17 8 -51 33q-42 31 -70 82q-24 43 -33 88q-8 39 -8 84q0 6 1 19.5t1 19.5q5 30 6 35q3 21 21 65q7 22 24 51q4 6 12 16t11 15h2q23 27 35 33q3 4 14 10q48 31 66 -4q7 -17 7 -27t-12 -23t-24 -22t-29.5 -24t-29.5 -29h-2v-2q-6 -6 -12.5 -18t-13.5 -40t-7 -63v-27l6 -30
q7 -39 20 -72q12 -23 21 -35q12 -18 29 -35q7 -7 39 -30q20 -11 49 -21q11 -4 41 -8l-4 2q6 0 8 -2h30q3 0 9.5 1t9.5 1v29q-6 117 -6 510q-8 8 -28 28.5t-32 32.5q-113 113 -147 211q-22 55 -25 119q-5 129 54 221q14 24 30 43q29 32 68 51q46 20 82 23q4 2 10 2
q7 53 14 53q18 0 27 -51q2 -2 6 -2h10h4l5 -2h2h14q2 -1 6 -2t6 -2h4h2q2 -2 7 -2q1 0 3 -1t3 -1t3 -1t3 -1t3 -1t3 -1t3 -1.5t3 -1.5q2 -1 5.5 -2t4.5 -2q10 -5 11 -6q1 0 3 -1t3 -1q2 -2 4 -2l4 -4q2 0 4 -2q1 -1 3 -2t3 -2q3 -2 8.5 -6t8.5 -6q3 -3 9 -9.5t9 -9.5
q13 -13 33 -49q14 -25 20 -61q0 -2 1 -5.5t1 -5.5q0 -1 1 -10.5t1 -17.5v-35q-2 -35 -15.5 -58t-43.5 -16q-29 6 -35 25q-5 13 1.5 59t0.5 74q-3 27 -20 49q-1 1 -2 3t-2 3t-4 3.5t-5 4.5q-33 29 -53 33q-16 6 -43 6q2 -41 2 -155v-355q24 -27 58 -61zM340 1323
q-1 -1 -7.5 0t-17.5 -3t-22 -9.5t-20.5 -21t-12.5 -36.5q72 64 80 70zM379 1251q0 11 2 27q-60 -29 -72 -123q-6 -27 -8.5 -58.5t5 -84.5t30.5 -94q30 -47 37 -58q4 286 6 391zM424 106q44 25 71 77t27 126q-1 75 -23 133t-65 115q-4 -337 -10 -451z" />
    <glyph glyph-name="percent" unicode="%" horiz-adv-x="591" 
d="M518 1227q33 -9 21 -76q-7 -40 -23 -84q-2 -4 -5 -13.5t-5 -13.5q-2 -8 -10 -28q-9 -24 -27 -64q-1 -3 -16 -43q-1 -2 -23 -57q-2 -5 -24 -60.5t-33 -89.5q-6 -17 -16.5 -43t-22.5 -59q-14 -34 -36 -92t-32 -82q-41 -104 -106 -244q-71 -146 -94 -143h-2.5t-5 3.5
t-5.5 10.5q-8 36 21 137q5 13 12 37q1 4 6 20t8 25q36 106 41 121q35 94 86 225q15 41 29 80.5t24.5 68.5t28.5 73q3 6 8.5 18t8.5 18l14 35q5 13 15 36t14 32q6 12 15.5 34.5t10.5 24.5q4 9 12 25.5t11 23.5q19 39 39 76q45 73 61 68zM463 1126q40 52 67 64l-8 6
q-23 10 -50 -49zM213 1067q35 0 57.5 -30.5t18.5 -73.5q-3 -44 -30 -75.5t-62 -31.5t-58 31t-20 74q3 44 31 75t63 31zM244 963q2 19 -8 33t-27 14q-15 0 -28.5 -14.5t-14.5 -34.5q-3 -20 6.5 -34t26.5 -14q15 0 28.5 15t16.5 35zM414 463q35 0 58 -31t20 -74
q-3 -44 -31 -75t-64 -31q-35 0 -57 30.5t-18 73.5q3 44 30 75.5t62 31.5zM444 358q3 19 -7 33.5t-25 14.5t-28.5 -15t-16.5 -35q-2 -19 7.5 -33t24.5 -14q17 0 30 14.5t15 34.5z" />
    <glyph glyph-name="ampersand" unicode="&#x26;" 
d="M659 383q13 0 15 -4q5 -10 0 -17q-14 -26 -58 -61q-2 -1 -5.5 -2t-4.5 -2q-50 0 -86 10q0 -4 -2 -6q-2 -13 -6.5 -27.5t-19.5 -40.5t-37.5 -45.5t-64 -34.5t-95.5 -16q-49 0 -89.5 9.5t-65 25t-43 34t-27 37.5t-13.5 34.5t-5 25.5l-1 10q-2 59 30.5 109t115.5 108
q-23 41 -39 103q-17 78 15.5 141t100.5 82q56 16 95 -3.5t55 -53.5q8 -11 12.5 -35.5t-4.5 -73.5q-1 -1 -2 -4.5t-2 -5.5q-14 -46 -68 -100q-6 -6 -17 -16.5t-15 -14.5l-4 -4q-1 -1 -3.5 -2t-3.5 -2l-10 -9v0q-8 -8 -14 -10q37 -46 104 -92q1 -1 11 -6q-6 27 -29 84
q-13 27 24 27q24 -3 43.5 -11.5t27.5 -15.5l7 -8q53 -50 56 -121q53 -6 122 4zM322 850q-13 0 -21.5 -5t-10.5 -11l-3 -5q22 5 36.5 3.5t22.5 -5.5l8 -4q0 3 -1 7t-9 11.5t-22 8.5zM244 774q-23 -34 -23 -80q4 -62 37 -119q71 57 100 109q21 37 21 70q-2 26 -23 47
q-2 2 -6 4.5t-17 6.5t-28 3q-40 -6 -61 -41zM403 301q9 27 11 39q-107 47 -178 133l-25 -20q-8 -8 -14 -17q-28 -32 -35 -65l-2 -35q2 -101 86 -115q37 -7 82 8q35 13 59 45q10 15 16 27v0z" />
    <glyph glyph-name="quotesingle" unicode="'" horiz-adv-x="190" 
d="M129 1272q10 -5 10 -23v-26q-5 -29 -10 -41q-6 -22 -23 -35l-6 -6l-8 -4q-10 -3 -16 0q-7 0 -13 4q-1 1 -4 3t-4 3q-4 4 -4 10q0 11 2 19t6 28q3 33 11 56l4 8q8 8 20 10q23 0 35 -6zM80 1235q17 23 29 27q-1 0 -3 0.5t-7.5 0.5t-9.5 -2.5t-7 -9t-2 -16.5z" />
    <glyph glyph-name="parenleft" unicode="(" horiz-adv-x="1601" 
d="M797 825q-19 3 -29.5 20t-7.5 38q4 20 20.5 31t36.5 8q19 -4 29.5 -21.5t5.5 -36.5q-3 -22 -19 -33t-36 -6zM446 510q19 -5 29 -21t6 -36q-3 -20 -19 -31.5t-36 -7.5q-19 5 -29.5 21t-7.5 36q4 22 20.5 33t36.5 6zM225 176q-5 0 -13.5 1.5t-31.5 9t-43 18.5t-41.5 33
t-33 50t-11.5 73t17 98q1 5 4 13t15 31t27 44t43 45.5t60.5 41.5t81 26.5t104.5 5.5q91 -5 238 -43q8 -2 34.5 -8.5t39.5 -8.5q-44 47 -109 60v2q23 9 17 63q-3 29 -28.5 46.5t-53.5 15.5q31 15 37 43q12 41 -33 77q78 -27 90 -30q15 -3 31.5 2.5t23.5 19.5q2 -6 6 -24.5
t7 -28.5t8 -25t12 -25.5t16 -17.5q13 -9 27 -10.5t27 10.5q-23 -145 -33 -190l82 -19q9 -1 27.5 -4t27.5 -4q-2 4 -4.5 11t-6.5 30t-4 46.5t7 58t22 67.5q18 38 45 59.5t53.5 25t50.5 2t39 -6.5l15 -6q37 -15 57.5 -44t24 -59.5t1.5 -59t-7 -46.5l-6 -18q-11 -34 -32 -59.5
t-43 -36.5t-42.5 -17.5t-33.5 -7.5h-13q15 -36 44.5 -63t61 -40t60.5 -20.5t48 -8.5l19 -1q9 0 15 2q-3 59 -51 110q21 -5 38 35q9 23 1 44t-27 34q10 -3 27.5 1.5t25.5 10.5q12 8 15 30t-3 36q31 -44 45 -60q8 -10 20.5 -12.5t24.5 4.5q-1 -4 -6.5 -18.5t-7.5 -22.5
t-4.5 -20t-2.5 -22t3 -19q3 -12 13 -19.5t22 -3.5q-28 -61 -92 -104q139 27 188 172q7 19 20 25.5t25 3.5q10 -2 10 -27q-6 -24 -15.5 -47t-31.5 -56t-51 -57.5t-78 -43.5t-108 -21q-29 -2 -70 0q32 -32 23 -80q-10 -46 -11 -53q-5 -30 13 -74q8 -17 1 -27.5t-26 -7.5
q-39 3 -76 12q-7 -22 -30 -22q-12 0 -21.5 9t-9.5 21v9l-80 28q-12 10 -11.5 18.5t6.5 13.5l7 5q37 26 51 64q0 1 13 45q12 45 51 59q-127 43 -178 158q-21 2 -56 8q-59 -69 -55 -203h-2q-17 24 -80 2q-33 -11 -45 -45.5t-4 -70.5q-10 14 -34 28t-42 17q-24 3 -46.5 -17.5
t-35.5 -46.5q8 72 10 115q0 21 -11.5 38t-31.5 21q6 3 27 15t31.5 18.5t26.5 18t26 23t16 24.5q9 14 6 35.5t-22 29.5q108 12 164 16q-11 2 -35 8.5t-33 8.5q-196 42 -336 7t-168 -136q-31 -104 -6 -164q17 -35 60 -39q21 -1 38.5 4.5t27.5 14t16.5 16.5t9.5 14l2 6
q23 55 -2 80q-6 6 -14 6q-4 0 -8 -5t-6 -10l-1 -5q-3 -31 -18.5 -39.5t-34.5 4.5q-2 1 -5 4t-6.5 14.5t5.5 28.5q2 11 11 23t24 16q33 13 61 -10q30 -22 35.5 -55t-4.5 -56l-10 -22q-2 -3 -5 -9t-15 -19.5t-26.5 -23.5t-39.5 -16t-54 -2zM1128 328q-28 4 -42 -8.5t-14 -26.5
l1 -14q11 15 25 27t22 17zM1001 676q-6 -67 3 -113q4 0 11.5 0.5t27.5 5.5t36.5 14t33 29.5t22.5 49.5q1 5 3 12.5t3.5 28t-0.5 37.5t-11.5 33t-27.5 22q-24 7 -43 -2.5t-29 -28.5t-17 -39t-9 -35z" />
    <glyph glyph-name="parenright" unicode=")" horiz-adv-x="1601" 
d="M807 825q-20 -5 -36.5 6t-20.5 33q-3 19 7.5 36.5t28.5 21.5q20 3 37 -8t21 -31q3 -21 -7.5 -38t-29.5 -20zM1157 510q20 5 36.5 -6t20.5 -33q3 -20 -7 -36.5t-29 -20.5q-20 -4 -36.5 7.5t-21.5 31.5q-3 20 7.5 36t29.5 21zM1534 459q23 -78 16 -130t-34.5 -82.5t-58 -46
t-55.5 -20.5l-24 -4q-29 -4 -53.5 2t-39.5 17t-26 22.5t-15 20.5l-5 8q-2 3 -4.5 9t-7 23.5t-4.5 33t9 34.5t28 33q28 23 61 10q22 -6 35 -39q7 -18 5.5 -28.5t-6.5 -14.5l-5 -4q-19 -13 -35.5 -4.5t-20.5 39.5q-2 20 -14 20q-6 0 -12 -6q-11 -11 -11.5 -31t4.5 -35l5 -14
q1 -2 2.5 -6t8.5 -13.5t17 -17t27.5 -13.5t38.5 -5q42 4 59 39q25 60 -6 164q-29 101 -168.5 136t-335.5 -7q-10 -2 -33 -8.5t-34 -8.5q62 -5 162 -16q-17 -8 -20.5 -29.5t5.5 -35.5q6 -13 16 -24.5t26 -23t26.5 -18t31.5 -18.5t27 -15q-20 -4 -31.5 -21t-11.5 -38
q0 -23 10 -115q-13 26 -35.5 46.5t-46.5 17.5q-18 -3 -41.5 -17t-33.5 -28q8 35 -4.5 70t-44.5 46q-63 22 -82 -2q0 134 -56 203l-55 -8q-51 -115 -178 -158q39 -14 51 -59q1 -3 4.5 -20t7.5 -25q15 -40 52 -64q1 -1 3 -2t5.5 -5t4.5 -8t-1 -10t-10 -12q-35 -14 -80 -28v-9
q0 -12 -9.5 -21t-21.5 -9q-24 0 -31 22q-37 -9 -75 -12q-19 -3 -26 7.5t1 27.5q17 43 12 74q-2 16 -10 53q-12 45 20 80h-67q-59 2 -108 21t-78 43.5t-51.5 57.5t-32 56.5t-15.5 46.5q0 25 10 27q12 3 25 -3.5t20 -25.5q47 -145 189 -172q-64 43 -92 104q11 -4 21.5 3.5
t13.5 19.5l3 19.5t-2.5 21t-5.5 21.5t-7 20.5t-7 19.5q12 -7 24.5 -4.5t20.5 12.5q14 16 45 60q-6 -14 -3.5 -36t16.5 -30q8 -6 25.5 -10.5t27.5 -1.5q-19 -13 -27.5 -34t0.5 -44q17 -40 39 -35q-48 -51 -51 -110q6 -2 14 -2q7 0 19.5 1t47 9t63 20.5t59 39.5t45.5 63
q-5 0 -13.5 0.5t-32.5 7t-44 17.5t-41.5 36.5t-32.5 59.5q-3 7 -6 19t-7 44.5t0.5 60.5t24.5 58t57 45q6 2 15.5 5.5t37 7t52 -1.5t52.5 -26t46 -59q24 -52 28 -105t-4 -81l-9 -27q9 1 27.5 4t27.5 4q33 9 82 19q-21 93 -33 190q19 -24 53 0q9 7 16 17.5t12 25.5t8 25
t7 28.5t6 24.5q7 -14 24 -19.5t32 -2.5q12 3 90 30q-45 -36 -35 -77q9 -28 39 -43q-28 2 -53.5 -15.5t-28.5 -46.5q-6 -54 16 -63v-2q-63 -12 -108 -60q13 2 39.5 8.5t34.5 8.5q148 38 237 43q56 4 104 -5t81 -27t60 -41t43 -46.5t27 -43t15 -31.5zM530 279q0 2 0.5 6
t-1.5 13.5t-7 16t-17 11t-30 2.5q30 -16 55 -49zM600 563q9 46 0 113q-1 6 -2 15.5t-8 33t-17 40t-28.5 27t-42.5 3.5q-28 -9 -36 -42t-2 -62l5 -29q6 -29 22 -49.5t34 -29.5t35 -14t28 -5z" />
    <glyph glyph-name="asterisk" unicode="*" horiz-adv-x="270" 
d="M215 1253q4 -4 4 -10q5 -13 -6 -24q-6 -6 -8 -7q-1 -1 -4 -3t-4 -3q5 -5 8 -14q11 -18 2 -29q-2 -4 -8 -8q-7 -7 -25 -4q-1 1 -4.5 2t-5.5 2q-1 -1 -2 -3t-2 -3q-8 -19 -23 -19h-10q-13 4 -18 17l-5 10v10h-2q-2 -2 -6 -2q-1 0 -3 -1t-3 -1h-10q-14 0 -19 11
q-13 19 -10 30q3 13 21 19q2 2 4 2l-4 4q0 4 -4 4q-3 4 -5 10q-5 10 3 21q12 17 22 20q10 2 23 -4q0 4 4 8q5 9 18 12q22 0 31 -6q10 -7 10 -26v-6q4 2 14 2q22 0 27 -11zM160 1278q-1 0 0 2t-3.5 4.5t-13.5 3.5q-10 2 -16 -2t-7 -9l-1 -5q11 5 21.5 6.5t15.5 0.5z" />
    <glyph glyph-name="plus" unicode="+" horiz-adv-x="368" 
d="M289 520q28 -11 28 -28q2 -7 0 -15q-11 -16 -26 -22q-1 0 -7 -1t-10 -1q-3 -1 -10.5 -2t-11.5 -2h-25q0 -7 -2 -11q0 -18 -2 -24q0 -9 -2 -13q0 -6 -2 -8q0 -8 -4 -14q-7 -14 -25 -17q-26 -3 -38 9q-16 13 -13 39q0 12 -2 20v21h-6q-10 2 -27 2q-4 2 -12 2q-2 2 -8 2
l-16 4q-15 10 -17 24q-3 26 10 39t39 13q3 -1 6 -1t7.5 0.5t7.5 0.5h20q4 16 4 26q1 5 4.5 14.5t4.5 14.5q10 26 30 29q7 -1 15 -3q13 -3 22 -24q4 -8 4 -16q2 -6 2 -23q2 -6 2 -23q5 -1 15 -2t14 -2q22 -4 31 -8zM211 580q4 24 -16 24q-9 0 -14.5 -4t-6.5 -8l-2 -4
q14 4 23 2.5t13 -6.5z" />
    <glyph glyph-name="comma" unicode="," horiz-adv-x="196" 
d="M135 141q12 -6 12 -28q-1 -3 -1 -15t-1 -20q0 -19 -8 -55q-13 -35 -24 -46q-2 -1 -9 -8q-2 -1 -5 -2t-5 -2q-8 -3 -16 0q-6 0 -12 4q-2 1 -9 8q-6 6 -6 15q0 14 2 24q1 6 3 20t3 17q9 62 13 74q0 4 4 10q10 10 22 10q25 3 37 -6zM82 109q3 4 10.5 11t13.5 12l7 5
q-16 3 -23.5 -4t-7.5 -15v-9z" />
    <glyph glyph-name="hyphen" unicode="-" horiz-adv-x="368" 
d="M289 520q28 -11 28 -28q2 -7 0 -15q-11 -16 -26 -22q-1 0 -7 -1t-10 -1q-3 -1 -10.5 -2t-11.5 -2h-29h-30q-12 0 -33 1t-29 1q-10 2 -27 2q-4 2 -12 2q-2 2 -8 2l-16 4q-15 10 -17 24q-3 26 10 39t39 13q3 -1 6 -1t7.5 0.5t7.5 0.5h31q22 0 34 -2q19 0 37 -3q15 0 35 -4
q22 -4 31 -8zM72 494q2 3 13 9.5t21 11.5l11 5q-22 2 -33 -4.5t-12 -13.5v-8z" />
    <glyph glyph-name="period" unicode="." horiz-adv-x="223" 
d="M113 166q25 0 43 -17.5t18 -42.5t-18 -42t-43 -17q-26 0 -44 17t-18 42t18 42.5t44 17.5zM82 135q8 4 20 5t20 0l7 -1q-5 15 -25 15q-8 0 -13.5 -5t-6.5 -9z" />
    <glyph glyph-name="slash" unicode="/" horiz-adv-x="561" 
d="M477 1386q36 -9 33 -73q-2 -28 -16 -84q-4 -18 -9 -27q-3 -16 -8 -28q-17 -56 -20 -66q-7 -18 -13 -41q-5 -12 -18 -57q-21 -64 -45 -150q-7 -23 -25 -83t-28 -95q-8 -27 -28 -90.5t-30 -97.5q-76 -243 -112 -334q-62 -145 -86 -142q-11 -1 -17 15q-12 36 8 137
q4 20 9 35q2 16 10 47q4 19 31 119q71 254 86 305q76 256 98 321q7 25 12 37q2 6 6.5 18.5t6.5 18.5q16 46 24 66q3 11 11 31.5t10 27.5q3 11 20 49q15 39 33 74q16 32 31 51.5t26 15.5zM440 1315q5 7 17.5 19.5t22.5 21.5l9 8q-13 7 -25 -5t-18 -28z" />
    <glyph glyph-name="zero" unicode="0" horiz-adv-x="745" 
d="M387 1360q7 0 20 -2.5t48.5 -18t66.5 -41t67.5 -79t59.5 -125.5q3 -9 8.5 -26.5t16.5 -76t16.5 -122.5t2.5 -163.5t-19 -201.5q-3 -27 -11 -71.5t-39.5 -145t-72.5 -158.5q-3 -4 -8 -11t-24 -25t-40.5 -32.5t-55.5 -28t-71 -16.5q-57 -5 -104 11q-56 29 -97 87.5
t-59 121.5t-28 121.5t-10 96.5l-1 38q-3 96 0 202q3 107 15 215q10 87 14 105q13 66 30 120.5t32.5 85.5t29 52.5t21.5 29.5l8 7q75 65 184 51zM475 1202q1 4 1.5 10t-1 22t-7.5 28t-21 21t-39 7q47 -45 67 -88zM506 782q3 55 0 107q-4 65 -8 102q-2 16 -7.5 44t-5.5 30
q-4 18 -12 41.5t-14 37.5l-6 15q-22 48 -44.5 79.5t-39.5 44t-34 16t-26.5 1t-17.5 -7.5q-5 -4 -13.5 -13t-30.5 -51t-39.5 -98.5t-34.5 -163t-21 -237.5q0 -31 -1 -91t-1 -89q4 -117 10 -172q1 -10 3 -26t10 -59t18.5 -78t30 -68.5t42.5 -43.5q28 -13 54 -1.5t48 40t38 58
t25 52.5l9 23q15 37 27 85.5t17 78.5l5 29q10 76 17 203q0 19 1 56.5t1 55.5z" />
    <glyph glyph-name="one" unicode="1" horiz-adv-x="376" 
d="M211 1358q8 6 19.5 10.5t37 -21t37.5 -98.5q22 -114 21 -499t-27 -568q-1 -6 -2 -17t-6.5 -38t-13 -47.5t-21.5 -37.5t-31 -17q-62 0 -78.5 59.5t-11.5 214.5q1 32 5.5 221.5t12 375t19.5 300.5q-37 -37 -49 -45q-25 -18 -45 0q-45 37 -10 72q88 96 143 135zM203 1303
q18 7 33 4t24 -10l10 -7q-1 2 -2 5.5t-4.5 12t-7 15t-9 12t-9.5 4.5q-7 -1 -16 -10t-14 -17z" />
    <glyph glyph-name="two" unicode="2" horiz-adv-x="655" 
d="M571 1233q26 -51 33 -143q6 -71 -8 -168q-2 -21 -8 -57t-33.5 -135.5t-65.5 -186.5q-57 -127 -69 -150q-95 -171 -195 -280q127 16 246 -13q51 -10 51 -30q1 -3 0.5 -8.5t-12 -16.5t-35.5 -16q-2 -1 -67 -9q-78 -7 -142.5 -6.5t-105.5 4.5l-41 5q-19 3 -25 6
q-58 28 -39 125q6 23 17 34q34 42 77 106.5t69 107.5l26 44q62 115 147 308q71 150 92 278q9 44 9 76q1 41 -10 73t-27 48t-32 26t-27 13l-11 2q-27 3 -51 -3t-39 -17.5t-26 -23.5t-16 -21l-5 -9q-31 -67 -47 -90q-9 -12 -19 -12q-15 3 -24 12q-10 14 -13 35q0 28 7 55
q2 9 6.5 23.5t28.5 50t59 59.5q46 32 110 35q6 1 16.5 1.5t39.5 -4.5t55 -16.5t56 -40.5t48 -71zM309 1315q19 8 45 8t42 -4l16 -4q-1 3 -3 8.5t-14 14t-30 8.5q-19 0 -33 -8t-18 -16z" />
    <glyph glyph-name="three" unicode="3" horiz-adv-x="698" 
d="M580 989q-10 -91 -50 -147q5 -5 14 -15.5t30.5 -47t37.5 -78t27.5 -110t7.5 -142.5q0 -31 -6 -66q-1 -11 -4 -29t-17 -67t-34 -91.5t-58.5 -87.5t-87.5 -69q-71 -32 -151 -25q-103 7 -160 70q-21 24 -38 61t-23 61l-7 25q-15 66 -8 121q3 53 27 56q6 2 16 -2
q19 -9 29 -44q0 -1 18 -65q1 -8 4 -21.5t14 -48t24 -61.5t35.5 -49.5t47.5 -24.5q26 -1 53 19.5t46.5 51t31 51.5t15.5 32q42 96 60.5 190.5t16.5 141.5l-2 47q-16 94 -75 131q-39 -16 -72 -19q-53 -7 -88 10.5t-37 45.5q-2 15 9.5 21.5t23.5 5.5l12 -1q40 -6 72.5 7
t53.5 38.5t33.5 48t20.5 48.5q15 56 17 71q6 43 6 76q2 97 -41 135q-16 18 -41.5 24.5t-42.5 3.5l-18 -3q-38 -8 -71 -42t-47 -64l-14 -29q-9 -17 -16 -27q-9 -12 -18 -12q-16 3 -25 12q-10 13 -10 35q-3 21 6 55q1 4 3 10t9.5 23.5t17 33.5t26 34.5t36.5 31.5q56 32 113 35
q26 3 67 -4q4 -1 11.5 -2.5t27.5 -10.5t37.5 -21.5t37.5 -37t32 -55.5q28 -57 33 -143q4 -60 2 -101zM293 1313q20 8 45.5 8t41.5 -4l15 -4q0 1 -1 3t-4 7.5t-7.5 9.5t-14 7t-20.5 3q-18 0 -32 -7.5t-18 -15.5z" />
    <glyph glyph-name="four" unicode="4" horiz-adv-x="636" 
d="M530 604q55 -10 58 -31q1 -3 0 -8.5t-14 -16.5t-39 -16q-20 -4 -46 -4q-7 -244 -22 -346q-1 -6 -2 -17t-6.5 -38t-13 -47.5t-21.5 -37.5t-31 -17q-62 0 -78.5 59.5t-11.5 214.5q3 60 6 223q-108 -2 -178 4q-35 3 -51 17q-4 0 -10 6q-9 13 -13 26q-14 59 1.5 156t37.5 165
l23 67q35 95 92 190q9 17 25.5 43t61 81.5t81.5 80.5q8 6 19.5 10.5t37 -21t37.5 -98.5t17.5 -259t1.5 -380q20 0 38 -6zM311 618q7 352 27 564q-2 -2 -5.5 -6t-16 -24t-27.5 -49t-40 -84.5t-52 -125.5q-45 -119 -78 -283q11 2 28.5 4.5t71 6.5t92.5 -3zM365 1294q18 7 33 4
t24 -10l10 -6q-1 2 -2 5.5t-5 12t-7.5 15t-9 12t-9.5 4.5q-7 -1 -15.5 -10t-13.5 -18z" />
    <glyph glyph-name="five" unicode="5" horiz-adv-x="700" 
d="M430 1032q7 -4 19 -11.5t43.5 -35t57.5 -60.5t51.5 -88.5t35.5 -117.5q2 -7 4.5 -19.5t6 -53.5t4 -84.5t-7 -110t-23.5 -132.5q-2 -8 -6.5 -22t-20.5 -52t-35 -71.5t-51 -71t-68 -59.5q-53 -33 -151 -29q-35 2 -65.5 12t-49 24t-31.5 27.5t-19 22.5l-5 9q-41 64 -58 149
q-15 75 -8 137q3 61 27 64q6 2 16 -4q19 -9 29 -47q0 -1 18 -74q2 -9 5.5 -24t15.5 -54.5t25.5 -69.5t35 -56t43.5 -28q26 -3 53 19.5t47.5 59t30 57.5t15.5 36q24 51 40.5 117.5t21.5 106.5l5 41q7 56 8 108.5t-1 76.5l-3 24q-13 53 -41 98t-63.5 73.5t-71.5 50t-73.5 33.5
t-60.5 17.5t-40 7.5h-8.5t-17 8.5t-15.5 24.5q-14 57 -12.5 114.5t10.5 101.5l10 44q12 41 91 35q22 -1 64.5 0t97.5 -1t104 -5.5t83 -14.5t36 -28q1 -3 0 -8t-13.5 -15.5t-36.5 -15.5q-37 -8 -151.5 -8.5t-190.5 6.5q8 -88 -10 -166q4 1 12.5 1t35 -2t54.5 -7.5t69.5 -21
t82.5 -38.5zM123 1260q14 20 34.5 37t34.5 25l13 7q-25 3 -43 -3t-25 -17t-11 -22t-4 -19z" />
    <glyph glyph-name="six" unicode="6" horiz-adv-x="710" 
d="M594 711q6 -8 15.5 -23t26.5 -68t21 -114q2 -17 3 -47t-9 -114.5t-35 -160.5q-1 -4 -4 -12t-14.5 -29t-25.5 -39.5t-38 -39t-51 -31.5q-56 -21 -125 -15q-6 0 -17 1.5t-42 12t-59.5 28.5t-64.5 56.5t-62 90.5q-22 45 -36.5 110.5t-19 126t-6 114.5t0.5 87l1 33
q3 118 17.5 218.5t27.5 141.5l13 41q25 68 59.5 122t66.5 82.5t60.5 47t45.5 23.5l17 6q11 4 29 9t64 2.5t82 -25.5q5 -3 13 -8.5t27.5 -26.5t34 -47t24.5 -70.5t7 -95.5q-1 -13 -12 -56q-19 -48 -41 -45q-9 1 -17 7q-1 1 -4.5 6t-5.5 10q-6 18 -6 29q-1 5 -1.5 13.5t-1 22
t-1.5 23.5l-2 22q-1 18 -6 38.5t-16 48t-35.5 45.5t-57.5 18q-84 0 -141 -188q-41 -141 -57 -396q3 4 8.5 10.5t24 22.5t39 28.5t53 22t65.5 8.5q2 -1 11.5 0t29.5 -3t40.5 -10.5t44.5 -23t42 -40.5zM442 1343q-18 0 -32 -7.5t-18 -15.5l-5 -7q20 8 45.5 8t41.5 -4l15 -4
q0 3 -2 8t-14 13.5t-31 8.5zM559 375q4 50 4 78q0 41 -6 82q-7 47 -20 81q-5 8 -9 19q-2 2 -5 7t-5 7q-11 19 -22 27q-12 6 -15 8q-8 4 -14 4l-4 2h-4q-4 2 -10 2l-11 2h-10q-43 3 -72 -14q-11 -4 -30 -18l-27 -27q-2 -4 -6 -8q-1 -1 -3 -4.5t-3 -4.5q-2 -2 -5.5 -7t-5.5 -7
l-4 -8l-4 -8q-2 -4 -6 -8q0 -5 -2 -5q0 -4 -2 -6q-9 -18 -27 -63q0 -4 -2 -6v-8q3 -117 23 -195q14 -51 29 -76q15 -34 36 -55q22 -22 43 -37q30 -17 37 -20q53 -20 97 36q1 1 2 3.5t2 3.5l4 4q0 1 1 3t1 3q6 10 24 51q18 60 23 94q0 2 1 8t1 9q2 4 2 16q2 2 2 8v8q2 6 2 19
z" />
    <glyph glyph-name="seven" unicode="7" horiz-adv-x="733" 
d="M672 1333q2 -2 4.5 -5t5.5 -15.5t-6 -28.5q-25 -51 -62 -102q-47 -64 -102 -166q-29 -50 -57 -131q-32 -97 -45 -156q-32 -139 -50 -328q-4 -48 -9.5 -138.5t-8.5 -123.5q0 -30 -8 -57q-16 -55 -47 -57q-59 -3 -84 36q-6 12 -11 29.5t-6 29.5l-2 11q-11 132 -2 265
t26 234l17 101q20 102 62 207q41 103 98 188q26 39 60 76.5t55 55.5l20 18q-88 -2 -143 -4q-76 -3 -133 -2t-90 4l-33 2q-68 2 -70 29q-2 29 26 43t91 14q31 2 83 3t180.5 -3.5t219.5 -20.5q16 0 21 -8zM86 1300q9 8 30.5 20t38.5 20l17 8q-29 2 -48 -2t-26.5 -11.5
t-10.5 -15.5t-2 -13z" />
    <glyph glyph-name="eight" unicode="8" horiz-adv-x="698" 
d="M492 791q5 -3 14 -8.5t32 -28.5t42 -52t38 -81t25 -113q4 -35 4 -96q-3 -77 -18 -144q-2 -7 -7 -19.5t-23 -46.5t-39.5 -62.5t-57.5 -58.5t-76 -44q-41 -13 -100 -10q-37 1 -70.5 10.5t-55.5 22.5t-39 26t-25 22l-7 9q-33 43 -52 100t-22.5 108.5t-3 97t4.5 72.5l5 27
q1 10 4 26t14.5 59.5t27 79.5t44.5 72.5t64 51.5q-33 16 -55 57.5t-28 75.5l-5 33q-3 12 -5 33.5t6.5 89t35.5 135.5q11 21 29 47q2 3 6 8t18.5 18t30 23.5t41 20.5t51.5 12q5 1 14.5 1t36.5 -2.5t52.5 -9.5t57.5 -24t57 -42.5t46 -68.5t29 -98q1 -6 2.5 -16.5t2.5 -41.5
t-0.5 -59.5t-10.5 -65t-24 -64.5t-43.5 -51t-67.5 -31zM356 1343q-19 0 -33 -7.5t-18 -15.5l-4 -7q20 8 45.5 8t41.5 -4l15 -4q0 1 -1 3t-4 7.5t-7.5 9.5t-14 7t-20.5 3zM471 360q8 65 2 119t-22 96.5t-33 72.5t-30 46l-13 15q-33 42 -74 45q-8 0 -16 -2.5t-15 -6.5t-13 -8
t-11.5 -9t-9 -8.5t-6.5 -7.5l-3 -3q-22 -32 -39 -78q-20 -57 -28 -103q-3 -15 -6.5 -41t-3.5 -90.5t12 -111.5q1 -7 4 -18.5t15.5 -40.5t29.5 -50.5t48.5 -39t70.5 -15.5q16 0 33.5 7.5t41 29t42 74t24.5 128.5zM483 1014q8 84 -4.5 145t-35 87.5t-46.5 41t-41 14.5l-18 1
q-33 -2 -64 -33q-25 -29 -41 -68.5t-19 -64.5l-3 -25q-1 -6 -2.5 -16t-2.5 -38t1.5 -54t11.5 -57t25 -52q1 -2 4 -6.5t14 -14.5t23 -18t33 -14.5t44 -5.5q11 1 21.5 3.5t28 13.5t31 28.5t25 52t15.5 80.5z" />
    <glyph glyph-name="nine" unicode="9" horiz-adv-x="710" 
d="M354 1372q6 0 17 -1.5t42 -11.5t59.5 -28t64 -56.5t61.5 -90.5q36 -72 51 -189.5t11 -199.5l-3 -82q-3 -118 -17 -218.5t-27 -142.5l-13 -41q-25 -68 -59.5 -122t-66 -82.5t-60 -47t-45.5 -23.5l-17 -5q-11 -4 -29 -9t-64.5 -3t-82.5 24q-5 3 -13 8.5t-27.5 27
t-33.5 47.5t-24 70.5t-6 94.5q0 27 12 55q15 50 41 47q6 0 14 -6q9 -9 11 -16q4 -6 8 -29q0 -4 1 -25t1 -36l2 -21q18 -151 117 -151q82 0 139 190q43 139 57 393q-3 -4 -8.5 -10t-23.5 -22t-38.5 -28t-52.5 -21.5t-65 -8.5q-2 1 -11.5 -0.5t-30 3t-41.5 10.5t-45 22.5
t-42 40.5q-6 8 -15.5 23.5t-27 69t-21.5 114.5q-1 6 -1.5 17t0.5 46t4.5 70.5t13.5 86.5t26 99q1 5 4 12.5t14 29.5t25 40.5t38 39.5t52 32q36 14 125 14zM291 1343q-19 0 -33 -7.5t-18 -15.5l-4 -7q19 8 44.5 8t41.5 -4l16 -4q0 1 -1 3t-4 7.5t-7.5 9.5t-14 7t-20.5 3z
M479 885l2 4v10q-3 119 -22 195q-10 35 -27 75q-15 28 -39 56q-14 16 -43 37q-7 4 -20 11t-17 9q-48 18 -96 -37q0 -2 -4 -6q0 -1 -1 -3t-1 -3l-4 -4q-13 -22 -25 -53q-15 -45 -22 -93q0 -3 -1 -8t-1 -8q0 -2 -1 -7.5t-1 -8.5q0 -1 -1 -4.5t-1 -4.5v-8q0 -3 -1 -9t-1 -9
q-5 -62 -5 -78q5 -72 7 -84q6 -40 22 -80q4 -12 8 -18q1 -3 4.5 -8.5t4.5 -8.5q15 -18 24 -24q2 -1 6 -4t6 -4t7.5 -3.5t7.5 -3.5h4h6q2 -2 10 -2l10 -2h9q37 -3 73 13q24 14 31 20q17 17 25 27q1 1 3 4t3 4q4 4 6 8q2 2 5 7t5 7q4 8 4 9q2 4 6 8q0 3 5 8l2 4l2 4
q6 14 15 38t11 28z" />
    <glyph glyph-name="colon" unicode=":" horiz-adv-x="202" 
d="M104 551q20 0 34 -13.5t14 -33.5t-14 -34.5t-34 -14.5t-34.5 14.5t-14.5 34.5t14.5 33.5t34.5 13.5zM78 518q8 5 19.5 6.5t19.5 0.5l8 -1q-5 13 -23 13q-9 0 -15 -4.5t-7 -9.5zM100 401q20 0 33.5 -14.5t13.5 -34.5t-13.5 -33.5t-33.5 -13.5t-34.5 13.5t-14.5 33.5
t14.5 34.5t34.5 14.5z" />
    <glyph glyph-name="semicolon" unicode=";" horiz-adv-x="200" 
d="M102 551q21 0 35.5 -13.5t14.5 -33.5t-15 -34.5t-35 -14.5t-33.5 14.5t-13.5 34.5t13.5 33.5t33.5 13.5zM78 516q7 5 19 6.5t20 0.5l8 -1q-5 13 -25 13q-9 0 -14.5 -4.5t-6.5 -9.5zM119 395q8 -8 8 -28v-35q-5 -38 -8 -51q-6 -26 -21 -45q-1 -1 -3 -3.5t-3 -3.5l-6 -6
q-7 -3 -14 0q-5 2 -11 6q-3 3 -6 9q-4 4 -4 12q0 12 2 22q1 6 2 18.5t2 18.5q10 65 11 70q0 6 4 10q3 9 16 12q22 0 31 -6z" />
    <glyph glyph-name="less" unicode="&#x3c;" horiz-adv-x="1601" 
d="M403 666q91 -5 238 -43l201 -48q9 -1 27.5 -4t27.5 -4q-2 4 -4.5 11t-6.5 30t-4 46.5t7 58t22 67.5q18 38 45 59.5t53.5 25t50.5 2t39 -6.5l15 -6q37 -15 57.5 -44t24 -59.5t1.5 -59t-7 -46.5l-6 -18q-11 -34 -32 -59.5t-43 -36.5t-42.5 -17.5t-33.5 -7.5h-13
q15 -36 44.5 -63t61 -40t60.5 -20.5t48 -8.5l19 -1q25 0 51 5t65.5 21t74 55t53.5 97q7 19 20 25.5t25 3.5q10 -2 10 -27q-6 -24 -15.5 -47t-31.5 -56t-51 -57.5t-78 -43.5t-108 -21q-5 -1 -14.5 -1.5t-38 1t-56 6t-64 16.5t-67 30.5t-60.5 51t-48 74.5q-99 12 -226 43
q-196 42 -336 7t-168 -136q-31 -104 -6 -164q17 -35 60 -39q21 -1 38.5 4.5t27.5 14t16.5 16.5t9.5 14l2 6q23 55 -2 80q-6 6 -14 6q-4 0 -8 -5t-6 -10l-1 -5q-3 -31 -18.5 -39.5t-34.5 4.5q-2 1 -5 4t-6.5 14.5t5.5 28.5q2 11 11 23t24 16q33 13 61 -10q30 -22 35.5 -55
t-4.5 -56l-10 -22q-2 -3 -5 -9t-15 -19.5t-26.5 -23.5t-39.5 -16t-54 -2q-5 0 -13.5 1.5t-31.5 9t-43 18.5t-41.5 33t-33 50t-11.5 73t17 98q1 5 4 13t15 31t27 44t43 45.5t60.5 41.5t81 26.5t104.5 5.5zM1135 662q1 5 3 12.5t3.5 28t-0.5 37.5t-11.5 33t-27.5 22
q-24 7 -43 -2.5t-29 -28.5t-17 -39t-9 -35l-3 -14q-6 -67 3 -113q4 0 11.5 0.5t27.5 5.5t36.5 14t33 29.5t22.5 49.5z" />
    <glyph glyph-name="equal" unicode="=" horiz-adv-x="313" 
d="M240 440q22 -11 22 -28q0 -7 -2 -15q-4 -17 -18 -22q-8 -4 -15 -4q-2 0 -8 -1t-10 -1q-3 0 -11 -1t-12 -1q-16 0 -24 2h-25q-8 0 -12 2h-10q-4 1 -11 2t-10 2h-8q-4 2 -8 2q-6 2 -10 6q-15 10 -15 23q-3 26 6 38q10 13 33 13h17h22q5 0 14.5 -1t14.5 -1t14.5 -1t13.5 -1
q5 -1 14.5 -3.5t14.5 -3.5q4 -1 11.5 -3t11.5 -3zM66 498q-13 9 -15 22q-3 27 6 39q11 15 33 12h16h25h29q4 -1 13.5 -2t14.5 -2q11 0 27 -4q18 -4 23 -8q21 -9 24 -29q0 -6 -2 -14q-4 -15 -20 -23q-1 -1 -6 -2t-7 -2q-12 0 -18 -2h-23h-24q-17 0 -25 2h-12q-8 0 -12 2
q-3 0 -9.5 1t-9.5 1q-2 0 -5 1.5t-5 1.5q-1 0 -3 1t-3 1q-6 0 -12 4zM115 555q-23 3 -34 -3.5t-11 -13.5v-8q2 3 13 9t21 11z" />
    <glyph glyph-name="greater" unicode="&#x3e;" horiz-adv-x="1601" 
d="M963 623q148 38 237 43q56 4 104 -5t81 -27t60 -41t43 -46.5t27 -43t15 -31.5l4 -13q23 -78 16 -130t-34.5 -82.5t-58 -46t-55.5 -20.5l-24 -4q-29 -4 -53.5 2t-39.5 17t-26 22.5t-15 20.5l-5 8q-2 3 -4.5 9t-7 23.5t-4.5 33t9 34.5t28 33q28 23 61 10q22 -6 35 -39
q7 -18 5.5 -28.5t-6.5 -14.5l-5 -4q-19 -13 -35.5 -4.5t-20.5 39.5q-2 20 -14 20q-6 0 -12 -6q-11 -11 -11.5 -31t4.5 -35l5 -14q1 -2 2.5 -6t8.5 -13.5t17 -17t27.5 -13.5t38.5 -5q42 4 59 39q25 60 -6 164q-29 101 -168.5 136t-335.5 -7q-56 -14 -112.5 -24.5t-84.5 -14.5
l-28 -4q-25 -57 -70 -96.5t-91.5 -55t-89.5 -22.5t-70 -6l-27 2q-59 2 -108 21t-78 43.5t-51.5 57.5t-32 56.5t-15.5 46.5q0 25 10 27q12 3 25 -3.5t20 -25.5q19 -58 53 -97t73.5 -55t66 -21t51.5 -5q7 0 19.5 1t47 9t63 20.5t59 39.5t45.5 63q-5 0 -13.5 0.5t-32.5 7
t-44 17.5t-41.5 36.5t-32.5 59.5q-3 7 -6 19t-7 44.5t0.5 60.5t24.5 58t57 45q6 2 15.5 5.5t37 7t52 -1.5t52.5 -26t46 -59q24 -52 28 -105t-4 -81l-9 -27q9 1 27.5 4t27.5 4q88 21 201 48zM502 795q-28 -9 -36 -42t-2 -62l5 -29q6 -29 22 -49.5t34 -29.5t35 -14t28 -5
l12 -1q9 46 0 113q-1 6 -2 15.5t-8 33t-17 40t-28.5 27t-42.5 3.5z" />
    <glyph glyph-name="question" unicode="?" horiz-adv-x="733" 
d="M311 1362q147 8 258.5 -85t114.5 -241q1 -59 -21.5 -130t-63 -145.5t-75 -130t-81.5 -124.5t-58 -86q-72 -116 -63 -189q2 -14 -11.5 -19t-23.5 5q-37 37 -39.5 108.5t37.5 166.5q34 77 87 171.5t84.5 150.5t52 136t11.5 164q0 4 -1.5 12t-7.5 30t-14 42t-24.5 43.5
t-37.5 40t-53.5 26.5t-70.5 7q-7 0 -18 -1t-39.5 -12t-49.5 -30.5t-35.5 -61t-10.5 -98.5t36 -92t74 -45q47 -12 99 4q7 1 12.5 -3.5t5.5 -12.5q-3 -67 -68 -119q-26 -23 -55 -13q-25 6 -44 12t-52 23t-54.5 38t-40 58.5t-20.5 84.5q-3 80 22.5 141.5t64 93t78 51t67.5 24.5
zM526 1198q1 3 2.5 8t2 19t-3 25t-17 21t-35.5 13q47 -45 51 -86zM319 156q29 0 49.5 -19.5t20.5 -46.5q0 -28 -20.5 -46.5t-49.5 -18.5t-49 18.5t-20 46.5q0 27 20 46.5t49 19.5z" />
    <glyph glyph-name="at" unicode="@" horiz-adv-x="890" 
d="M502 903q77 -1 142 -23t107.5 -60t66 -86t22.5 -104t-27 -110q-25 -52 -62 -90.5t-71.5 -56.5t-65.5 -29t-50 -12l-19 -2h-17q-3 0 -7 1.5t-13 8.5t-14.5 17.5t-4.5 30.5t11 46q-6 -16 -20 -36.5t-47 -42t-73 -21.5q-36 3 -56 23.5t-23 50.5q-3 28 4 59q7 29 32 78
q25 43 62 80l8.5 8.5t25 20t40 21t52.5 12.5t64 -5q1 0 2.5 -0.5l6 -2t9 -4t10 -7t9.5 -10t7.5 -14t5 -18t0 -23t-6.5 -28.5q13 -2 17 -10t-0.5 -22.5t-9 -24t-15 -27t-12.5 -20.5v0l-2 -2q-3 -5 -9.5 -16.5t-9.5 -16.5q-7 -16 -10.5 -26t-7 -23t-1 -19t10.5 -6h2q10 0 31 7
q28 8 54 24t51.5 44.5t40 77.5t12.5 112q-3 63 -29 108.5t-61.5 66t-70.5 32t-59 12.5h-24q-55 -1 -101 -19t-76.5 -47t-54 -63.5t-36.5 -68.5t-21.5 -62.5t-10.5 -45.5l-3 -18q-10 -77 -4 -134.5t24.5 -98t42.5 -67t50.5 -42t48.5 -23.5t37 -10l14 -2q209 -31 334 148
q14 19 26 12q10 -7 0 -31q-34 -60 -85.5 -101t-100 -57t-92 -23t-70.5 -5l-26 2q-88 10 -154.5 41t-103 72t-60 88t-29.5 92t-7.5 82t2.5 59l3 23q9 66 40.5 127.5t84 114.5t135.5 84t185 30zM193 756l92 69q-24 1 -47 -16.5t-34 -34.5zM494 492q35 58 71 75q9 32 7.5 47
t-7.5 18l-6 3q-31 5 -73 -30t-85 -113q-54 -94 -21 -113l5 -2q28 0 56.5 33.5t43.5 66.5q4 4 7 10l2 2v3z" />
    <glyph glyph-name="A" unicode="A" horiz-adv-x="1069" 
d="M174 524q-34 18 -60 43t-35 41l-9 15q-18 42 -18 79t9.5 54.5t18.5 15.5q5 -1 6.5 -11t0.5 -20l-1 -10q11 -95 104 -135q41 171 108.5 317t144 242.5t157.5 152.5t154 62q47 4 81 -21t51 -68t26.5 -96t10 -106t-1 -97.5t-5.5 -72.5l-3 -28q-16 -123 -28 -273
q38 -6 63 -23.5t34.5 -37.5t12 -45.5t1 -39t-4.5 -26.5q-3 -9 -7 -12t-7.5 -1t-6.5 5.5t-5 6.5l-2 3q-6 48 -89 64q-29 -432 39 -439q4 1 12 5t33 32.5t50 74t59.5 142t65.5 224.5q1 4 2.5 10.5t10 17t21.5 9.5q11 -2 15.5 -12t3.5 -20l-2 -9q-2 -11 -5.5 -31t-16 -76
t-27 -107.5t-39.5 -113.5t-52 -106.5t-64.5 -74.5t-78.5 -28q-211 7 -219 506q-43 -2 -136.5 -11t-129.5 -12q-92 -8 -170 13q-14 -68 -23.5 -141.5t-12 -114t-5 -104t-2.5 -68.5q0 -3 -0.5 -7t-2.5 -15.5t-5.5 -20t-10.5 -16.5t-16 -9q-18 -3 -28.5 10.5t-11.5 27.5l-1 15
q-6 201 47 471zM782 1284q10 -49 -6 -96q3 2 7 6.5t12 17t11 24t-2 25t-22 23.5zM354 836q-57 -126 -90 -263q62 -12 150 -8q50 3 93.5 8t94 13t80.5 12q2 77 8 156.5t12 119.5l5 41q12 87 26 177q24 160 18 185q-2 8 -6 9q-12 3 -37.5 -6t-66.5 -40t-85.5 -79t-99 -133
t-102.5 -192z" />
    <glyph glyph-name="B" unicode="B" horiz-adv-x="1124" 
d="M162 696q-29 1 -52 19t-32 35l-8 18q-24 74 -15 158t47.5 168t87 149.5t104 103t97.5 29.5q40 -8 69 -37t42 -64t20 -69t8 -57v-23q0 -17 -1.5 -32t-4.5 -33.5t-4 -32.5q30 58 61 107t70 95.5t80.5 68.5t79.5 12q61 -16 98.5 -72.5t45.5 -122.5t-1.5 -129t-33.5 -96
q-33 -44 -70 -73t-58 -36l-20 -6q9 -1 25 -4t58.5 -17t78 -34t71 -59.5t50.5 -88.5q66 5 166 5q5 0 11.5 -1t18 -8.5t11.5 -19.5q0 -14 -11 -21t-23 -8h-11q-105 0 -152 -4q4 -45 -4 -82q-15 -81 -68.5 -161.5t-129.5 -142.5t-175.5 -98.5t-198.5 -31.5q-73 3 -115 46
t-40.5 109.5t47.5 135.5q-39 48 -57.5 218.5t-12.5 352.5q6 152 41 301q6 24 10.5 42.5t8 37t4 31.5t-0.5 23t-5 15t-11 5q-52 -17 -93.5 -75.5t-63.5 -130.5t-37 -150.5t-13 -136t9 -87.5q26 -16 16 -35q-3 -6 -14 -6zM502 764q0 -8 -1 -24.5t-1 -24.5q130 48 228 200
q78 119 89 222q10 85 -37 90q-6 1 -14 0q-39 -6 -81 -58.5t-78.5 -133.5t-60.5 -144t-44 -127zM498 610q0 -98 4 -200q142 101 370 141q-3 42 -16 65q-16 26 -65 33t-114.5 -3t-103.5 -18t-75 -18zM512 258q-3 -13 -23 -10.5t-51 14.5q-22 -33 -28.5 -64t2.5 -44
q14 -25 48 -28t73 11t75.5 32t61.5 33l24 15q80 49 123 123.5t53 153.5q-233 -47 -364 -158q1 -18 2.5 -36t2.5 -28t1 -14zM399 1319q6 -47 -8 -94q3 2 7 6.5t12 17t11 23.5t-1.5 24.5t-20.5 22.5z" />
    <glyph glyph-name="C" unicode="C" horiz-adv-x="974" 
d="M117 846q-6 -4 -12 -3.5t-11 3.5l-4 4q-13 14 -22 29.5t-16 40t7 52.5t50 54q31 23 92 39.5t105.5 23t137.5 17.5q127 264 281 272q4 -1 19 0t42.5 -8t44.5 -27q54 -54 5 -155q-51 -104 -252 -158q-21 -68 -40 -146.5t-28 -122.5l-8 -44q-39 -257 1.5 -442.5
t127.5 -196.5q7 0 18.5 1.5t47 11t69 25.5t77.5 51t80 82t69 123t51 169q1 4 2.5 10.5t9.5 17t20 9.5q12 -2 16.5 -12t3.5 -20l-1 -9q-1 -11 -4 -30t-17.5 -73.5t-34 -104.5t-56 -111.5t-82 -106.5t-114 -77t-149.5 -34t-144 25t-102 74.5t-63.5 112.5t-33 136t-7 148.5
t10.5 145.5t24 132q22 100 67 219q-69 -13 -116.5 -25t-97 -37.5t-62.5 -58.5q4 -20 -2 -26zM764 1315q-73 0 -143 -182q127 27 163 81q18 28 19 54.5t-10 34.5q-4 6 -11.5 9t-12.5 3h-5zM700 1343q-37 2 -62 -15.5t-32 -35.5l-6 -18q15 16 40 33t42 27z" />
    <glyph glyph-name="D" unicode="D" horiz-adv-x="1179" 
d="M162 696q-29 1 -52 19t-32 35l-8 18q-24 74 -15 158t47.5 168t87 149.5t104 103t97.5 29.5q40 -8 69 -37t42 -64t20 -69t8 -57v-23q0 -14 -2.5 -33.5t-3.5 -27.5q55 113 128 185.5t159 60.5q5 -1 13.5 -2.5t34 -10.5t49.5 -23t55.5 -42.5t56 -65t46 -94t32 -126.5
t8.5 -165.5t-21 -208.5q74 5 189 5q5 0 11.5 -1t18 -8.5t11.5 -19.5q0 -14 -11.5 -21t-22.5 -8h-11q-106 0 -195 -6q-57 -235 -224.5 -386.5t-361.5 -127.5q-111 13 -139.5 98t41.5 183q-43 32 -64.5 209t-15.5 372q6 152 41 301q6 24 10.5 42.5t8 37t4 31.5t-0.5 23t-5 15
t-11 5q-52 -17 -93.5 -75.5t-63.5 -130.5t-37 -150.5t-13 -136t9 -87.5q26 -16 16 -35q-3 -6 -14 -6zM502 764q-8 -216 0 -373q148 108 375 154q12 44 19 87.5t8 65.5l1 21q29 389 -76 485q-33 29 -63 23q-39 -6 -81 -58.5t-78.5 -133.5t-60.5 -144t-44 -127zM512 258
q-2 -12 -20 -11t-46 11q-52 -67 -34 -104q19 -35 63 -35.5t85.5 18.5t84.5 49q141 99 211 293q-216 -51 -350 -162q6 -47 6 -59zM403 1319q6 -47 -8 -94q3 2 7 6.5t12 17t11 23.5t-1.5 24.5t-20.5 22.5z" />
    <glyph glyph-name="E" unicode="E" horiz-adv-x="985" 
d="M117 846q-6 -4 -12 -3.5t-11 3.5l-4 4q-13 14 -22 29.5t-16 40t7 52.5t50 54q59 44 258 70q10 26 14 32q33 68 80.5 119t91.5 75t84 38t64 16l24 2q4 -1 19 0t42.5 -8t44.5 -27q54 -54 5 -155q-19 -39 -54.5 -69t-83.5 -50t-88 -31.5t-92 -21.5q-13 -89 12.5 -158.5
t94.5 -89.5q8 2 20 3t41.5 -11t48.5 -41q6 -9 2 -19.5t-14 -13.5q-32 -8 -63.5 -19t-78 -37.5t-81.5 -59t-62 -87t-30 -118.5q-4 -62 7 -111.5t31 -79t45 -50.5t50.5 -29.5t47 -13t35.5 -3.5h13q7 0 18.5 1.5t47 11t69 25.5t77.5 51t80 82t69 123t51 169q1 4 2.5 10.5
t9.5 17t20 9.5q12 -2 16.5 -12t3.5 -20l-1 -9q-1 -11 -4 -30t-17.5 -73.5t-34 -104.5t-56 -111.5t-82 -106.5t-114 -77t-149.5 -34q-86 -2 -159 17t-123.5 53t-86.5 80t-52 98t-15 106.5t20 106.5q22 57 60.5 107.5t77.5 81t75 53t59 31.5l23 9q-18 4 -44.5 22.5t-55 48.5
t-50 75t-24.5 94q-200 -37 -229 -111q4 -20 -2 -26zM680 1343q-37 2 -62 -15.5t-32 -35.5l-6 -18q15 16 40 33t42 27zM584 1192q-26 -37 -39 -72q193 28 239 94q18 28 19 55.5t-10 35.5q-4 5 -12.5 7.5t-14.5 2.5h-6q-4 0 -10.5 -1t-27 -8t-40.5 -19t-47 -37t-51 -58z" />
    <glyph glyph-name="F" unicode="F" horiz-adv-x="882" 
d="M180 842q-28 -2 -51 7.5t-36 24.5t-21.5 30t-11.5 26l-3 10q-6 52 -5.5 95.5t13 79t28 64t41 51t50.5 38.5t57 28t60 19.5t60 12t58 6t52 1.5q6 9 23 21q65 29 118 22q36 -2 54 -16q14 -10 10 -25q0 -1 -1 -4.5t-1 -5.5q230 -5 272 33q0 14 6 16q5 2 8 0.5t4 -4.5l1 -4
q3 -11 4.5 -22.5t1.5 -29t-7 -32t-20 -27.5t-39.5 -19t-62.5 -3q-46 3 -100.5 11.5t-77.5 10.5q-33 -274 -41 -487q118 0 137 59q-4 21 2 25q6 3 10 2t6 -4l2 -4q5 -14 9 -27.5t5 -20.5l1 -7q3 -42 -16.5 -62.5t-59 -23.5t-98.5 2q0 -27 -1.5 -76t-1.5 -70q-2 -409 37 -543
q4 -14 -12 -18q-38 -4 -53 -2q-46 1 -80.5 31.5t-42.5 74.5q-31 185 -41 615q-66 -5 -86 -25q-4 -7 -8 2q-8 37 18.5 56t73.5 24q-2 246 33 488q-72 -7 -126.5 -33t-84 -64t-48 -78t-22.5 -85.5t-4 -76t4 -59.5q21 -4 23 -14q0 -7 -4.5 -10.5t-9.5 -3.5h-5zM543 1343
q-26 1 -38.5 -11.5t-11.5 -25.5l1 -12q10 14 22.5 26t19.5 18z" />
    <glyph glyph-name="G" unicode="G" horiz-adv-x="1101" 
d="M90 850q-13 14 -22 29.5t-16 40t7 52.5t50 54q31 23 92 39.5t105.5 23t137.5 17.5q127 264 281 272q4 -1 19 0t42.5 -8t44.5 -27q54 -54 5 -155q-51 -104 -252 -158q-21 -68 -40 -146.5t-28 -122.5l-8 -44q-33 -187 -15 -331.5t66.5 -233t106.5 -95.5h26q85 11 137 130
q61 138 62 401q0 21 -4 71l-27 5q-45 9 -77 6t-51 -7t-31.5 -15.5t-17 -20.5t-7.5 -21q4 -20 -6 -24q-5 -3 -9 -1.5t-6 5.5l-2 4l-12 55q-3 33 6.5 53t24.5 29.5t49 11t62 -1.5t81 -10q146 -20 178 18q3 3 6 0q1 0 1 -2q11 -50 -33 -71q27 -160 20 -293q-15 -311 -55 -354
q-3 -4 -10 -9.5t-36 -12t-67 -1.5q-11 4 -8 16q25 45 35 164q-61 -185 -221 -182q-113 -3 -194 47t-121.5 132t-56.5 186.5t-8 208t34 200.5q22 100 67 219q-69 -13 -116.5 -25t-97 -37.5t-62.5 -58.5q4 -20 -2 -26q-6 -4 -12 -3.5t-11 3.5zM764 1315q-73 0 -143 -182
q127 27 163 81q18 28 19 54.5t-10 34.5q-4 6 -11.5 9t-12.5 3h-5zM715 1343q-37 2 -62.5 -15.5t-32.5 -35.5l-6 -18q14 16 39 33t43 27z" />
    <glyph glyph-name="H" unicode="H" horiz-adv-x="1058" 
d="M240 498q-56 16 -98.5 47.5t-57.5 54.5l-14 23q-18 42 -18 79t9.5 54.5t18.5 15.5q5 -1 6.5 -11t0.5 -20l-1 -10q13 -116 154 -153q4 625 -43 784q-2 6 2 11.5t10 4.5q36 -6 62 -19t38.5 -28t19.5 -29t8 -23l1 -9q2 -95 -19 -705q54 -3 95 0q69 4 164.5 18.5t113.5 16.5
q-10 323 31 746q2 14 12 23t23 9q79 -2 120 -26.5t37 -89.5q-31 -338 -43 -652q35 -4 60 -16.5t37.5 -30.5t19.5 -36t6.5 -38t-1.5 -31.5t-3 -21.5q-3 -9 -7 -12t-7.5 -1t-6.5 5.5t-5 6.5l-2 3q-6 51 -95 64q-11 -434 45 -439q4 1 12 5t33 32.5t50 74t59.5 142t65.5 224.5
q1 4 2.5 10.5t10 17t21.5 9.5q11 -2 15.5 -12t3.5 -20l-2 -9q-2 -11 -5.5 -30.5t-16 -74.5t-27 -105.5t-39.5 -112.5t-52 -106.5t-64.5 -75.5t-78.5 -32q-49 -1 -86.5 38t-61 111t-37.5 160t-20 197q-79 -4 -280 -23q-56 -6 -99 0l-14 -411q0 -3 -0.5 -8t-2.5 -17
t-5.5 -21.5t-10.5 -17.5t-16 -8q-18 -1 -28 13.5t-10 28.5l-1 15q7 202 11 441zM799 1346q-2 1 -6 1t-13 -3t-16 -10.5t-11 -26.5t-1 -47q18 59 47 86z" />
    <glyph glyph-name="I" unicode="I" horiz-adv-x="600" 
d="M166 696q-29 1 -52.5 19t-32.5 35l-9 18q-25 74 -18 158t44 168t84.5 149.5t102 103t96.5 29.5q36 -7 64 -29.5t43.5 -53t24 -58.5t11.5 -57l2 -52q-14 -127 -18 -233q-2 -27 -4 -74.5t-5 -199t5 -283.5q4 -93 -5 -159.5t-28 -102t-46 -56.5t-59 -22.5t-67 0.5
q-14 2 -20.5 14.5t0.5 24.5q43 99 34 297q-5 105 -5.5 237.5t1.5 212.5l2 80q2 130 35 301q6 24 10.5 42.5t8 37t4 31.5t-0.5 23t-5 15t-11 5q-52 -17 -93 -75t-63 -131t-34 -149.5t-11 -137t11 -87.5q28 -16 18 -35q-6 -6 -14 -6zM399 1319q6 -47 -8 -94q3 2 7 6.5t12 17
t11 23.5t-1.5 24.5t-20.5 22.5z" />
    <glyph glyph-name="J" unicode="J" horiz-adv-x="759" 
d="M371 0q-71 1 -127 32.5t-90.5 79.5t-57.5 115.5t-32.5 132t-12.5 136.5q0 41 19 77q44 77 118 82q23 3 23 -22q0 -6 -5.5 -14.5t-11.5 -13.5l-6 -5q0 -43 2 -87t7.5 -112t19 -124.5t32.5 -109t52 -81.5t74 -27q40 2 68 48.5t39.5 112t17 130.5t4.5 110v46q-3 83 -4 172
t0 136v48q0 144 30 301q9 39 13.5 65t7 51.5t-1.5 38t-14 11.5q-44 -9 -91 -95.5t-45 -143.5q0 -6 -4.5 -9.5t-9.5 -1.5q-53 16 -59 107q0 24 8 43q21 50 52 83.5t60.5 45.5t56 17t42.5 3l16 -2q31 -6 56.5 -24t40.5 -40t26.5 -50.5t16.5 -50.5t8 -44l2 -41
q-13 -171 -15 -233q-10 -180 -10 -393q0 -6 0.5 -17.5t-1.5 -46t-6 -68t-14 -78.5t-24.5 -84t-39 -78.5t-55.5 -67t-76 -44.5t-99 -16zM580 1319q5 -47 -9 -94q3 2 7 6.5t12 17t11.5 23.5t-1 24.5t-20.5 22.5z" />
    <glyph glyph-name="K" unicode="K" horiz-adv-x="1124" 
d="M166 696q-29 1 -52.5 18.5t-32.5 34.5l-9 17q-25 75 -18 159t44 168t84.5 149.5t102 102.5t96.5 29q36 -6 64 -28.5t43.5 -53.5t24 -59t11.5 -57l2 -50q-14 -133 -18 -233q-8 -90 -12 -213q75 35 136.5 77.5t103 84.5t74.5 88.5t50.5 89t31 85t15.5 78t4 67.5t-2 53
q-3 1 -6.5 4t-10.5 13t1 21q4 9 14 9.5t17 -3.5l8 -4q168 -101 121 -274q-31 -120 -167.5 -246t-299.5 -198q62 2 113 -27.5t84.5 -75t59.5 -110.5t39.5 -122t22.5 -120q5 -34 13.5 -58t17.5 -33t17 -13.5t13 -3.5l5 1q4 1 12 5t32.5 32.5t49 74t59 142t66.5 224.5l2.5 10
t10.5 15.5t22 8.5q11 -1 15 -11t2 -20l-1 -9q-2 -11 -5.5 -31t-16 -76t-27 -107.5t-39.5 -113.5t-52 -106.5t-64.5 -74.5t-78.5 -28q-5 0 -14 1t-35 7.5t-51 18t-57 35.5t-58.5 56t-50.5 84t-37 115q-12 58 -39 107q-68 113 -127 127q-12 -430 41 -522q5 -9 -0.5 -18.5
t-15.5 -10.5q-95 -10 -137 70q-48 100 -64.5 298.5t-8.5 347.5l7 148q2 125 35 301q6 24 10.5 42.5t8 37t4 31.5t-0.5 23t-5 15t-11 5q-52 -17 -93 -75t-63 -131t-34 -149.5t-11 -137t11 -87.5q28 -16 18 -35q-6 -6 -14 -6zM401 1319q8 -47 -8 -94q3 2 7 6.5t12 17t11 23.5
t-1.5 24.5t-20.5 22.5z" />
    <glyph glyph-name="L" unicode="L" horiz-adv-x="974" 
d="M117 844q-6 -4 -12 -3t-11 5l-4 4q-13 13 -22 28.5t-16 40t7 53t50 54.5q21 16 51.5 28t78.5 21t77.5 13.5t96.5 12.5t89 11q75 259 223 264q4 -1 19 0.5t42.5 -7t44.5 -26.5q54 -58 5 -155q-45 -92 -193 -141q-8 -73 -11.5 -159t-3.5 -136l1 -50v-39t-5 -96
t-13.5 -136.5t-29 -145.5t-49.5 -138q55 -18 110.5 -31.5t128.5 -23t137 3t104 49.5q8 6 15.5 2.5t6.5 -12.5q-1 -22 -4.5 -43.5t-15.5 -48t-30 -45t-50 -31t-74 -10.5q-111 4 -198 34.5t-177 80.5q-64 -77 -153 -74q-5 0 -14 0.5t-31 6.5t-38 17.5t-27.5 36t-8.5 58.5
q0 4 1.5 10.5t9 23t19 28.5t35 20.5t54.5 5.5q48 -8 84 -19q18 88 22 324l11 252q1 115 26 244q-8 -2 -47.5 -8.5t-61 -11t-60.5 -13t-64 -17.5t-53 -21.5t-45.5 -28.5t-24.5 -34q4 -22 -2 -28zM340 80q35 2 55 39q-95 42 -100 -6q0 -4 0.5 -9.5t11.5 -14.5t33 -9zM764 1315
q-73 0 -105 -172q93 23 125 71q18 28 19 54.5t-10 34.5q-4 5 -11.5 8t-12.5 3zM725 1343q-37 2 -62 -15.5t-31 -35.5l-7 -18q14 16 39 33t43 27z" />
    <glyph glyph-name="M" unicode="M" horiz-adv-x="1507" 
d="M162 698q-31 1 -56.5 24t-35.5 52q-25 64 -15.5 141.5t36.5 145.5t69 131q22 33 47.5 64t61 64.5t76 48.5t77.5 3q72 -23 101 -100t20 -158q-4 -34 -16.5 -112t-16.5 -117q-18 -171 -21 -242q31 111 62.5 209.5t71 201.5t80 162.5t73.5 55.5q4 -1 11.5 -3t27.5 -10
t36.5 -18.5t32 -29t21.5 -40.5q17 -57 23.5 -287t-6.5 -335q3 23 10.5 76t24.5 156.5t41 202.5t52 192t65 148.5t75 51.5q64 -7 103.5 -61t50.5 -125.5t13 -142t-3 -119.5l-6 -49l-27 -240q-51 -560 27 -576q4 1 12 5t33 32.5t49.5 74t59 142t65.5 224.5l2.5 10t10.5 15.5
t22 8.5q11 -1 15 -11t3 -20l-2 -9q-2 -11 -5.5 -31t-16 -76t-27 -107.5t-39 -113.5t-51.5 -106.5t-64.5 -74.5t-77.5 -28q-67 3 -113.5 55t-68 133t-32 178.5t-8 194.5t7.5 176.5t11 129.5l7 50q12 87 26 177q32 164 15 192q-47 -78 -91.5 -252t-69.5 -320.5t-65 -404.5
q-2 -12 -11.5 -21t-22.5 -10q-47 0 -107 31q-40 19 -37 64q4 166 1.5 342.5t-7.5 314.5l-6 137q-51 -66 -95 -194t-70.5 -253.5t-48 -268t-29 -215t-11.5 -117.5q9 -47 33 -84q6 -9 1 -19t-16 -12q-43 -8 -81.5 7t-59.5 52q-54 94 -71 212.5t-19 273.5q-3 146 14 317
q10 130 52 281l11.5 34.5t13.5 44t9.5 40t1 35.5t-15.5 18q-130 -31 -199 -268q-59 -209 -26 -308q25 -18 16 -36q-7 -7 -14 -7zM434 1319q8 -47 -8 -94q3 2 7 6.5t12 17t11 23.5t-1.5 24.5t-20.5 22.5z" />
    <glyph glyph-name="N" unicode="N" horiz-adv-x="1236" 
d="M1333 575q12 -1 16.5 -11t2.5 -20l-2 -9q-2 -11 -5.5 -31t-16 -76t-27 -107.5t-39 -113.5t-51.5 -106.5t-64.5 -74.5t-77.5 -28q-67 3 -113.5 55t-68 133t-32.5 178.5t-8.5 194.5t7.5 176.5t12 129.5l6 50q13 87 27 177q32 163 14 192q-36 15 -74.5 -17t-86.5 -136.5
t-97 -280.5q-42 -149 -72 -339t-38.5 -287t-12.5 -171q1 -2 13 -20q6 -9 1 -19t-16 -12q-43 -8 -81.5 7t-59.5 52q-54 94 -71 212.5t-19 273.5q-3 146 14 317q10 130 52 281l11.5 34.5t13.5 44t9.5 40t1 35.5t-15.5 18q-130 -31 -199 -268q-59 -209 -26 -308q25 -18 16 -36
q-7 -7 -14 -7q-31 1 -56.5 24t-35.5 52q-25 64 -15.5 141.5t36.5 145.5t69 131q22 33 47.5 64t61 64.5t76 48.5t77.5 3q72 -23 101 -100t20 -158q-4 -34 -16.5 -112t-16.5 -117q-25 -256 -25 -375q-3 -52 0 -104q11 84 25 164.5t36 182t47 187.5t60 170t73.5 142t88.5 91
t105 27q47 -5 81 -35t51 -73.5t26.5 -95t10 -102t-1 -92t-5.5 -67.5l-3 -26l-27 -240q-51 -560 27 -576q4 1 12 5t33 32.5t49.5 74t59.5 142t67 224.5q0 4 1.5 10t10 15.5t21.5 8.5zM424 1225q3 2 7 6.5t12 17t11 23.5t-1.5 24.5t-20.5 22.5q6 -47 -8 -94z" />
    <glyph glyph-name="O" unicode="O" horiz-adv-x="927" 
d="M1063 524q-99 -157 -256 -221q-22 -65 -53.5 -117t-64.5 -83t-68.5 -53.5t-66 -32t-55 -14.5t-39.5 -5h-14q-76 6 -131.5 46t-82.5 89t-42.5 112t-18 100.5t-1.5 68.5q-38 46 -64 104.5t-36.5 109t-15.5 94t-4 68.5l1 25q7 107 32 195.5t58.5 145t75 100t78.5 65.5t72 36
t52 17.5t23 3.5h2q138 7 237 -100t142.5 -303.5t24.5 -450.5q-4 -51 -21 -143q117 57 195 166q4 6 10 12q19 23 31 16q11 -4 11 -17t-6 -24zM586 1266q0 2 0.5 4.5t0.5 11t-2.5 14.5t-7 14.5t-13.5 11.5t-22.5 4.5t-33.5 -5.5l17.5 -5t32 -17.5t28.5 -32.5zM465 70q6 0 12 1
t24.5 11t34.5 28t36.5 57.5t35.5 94.5q-53 -5 -137 2q-70 5 -135 31q8 -95 47.5 -155.5t79.5 -69.5h2zM653 555q25 371 -29 558t-169 198h-4q-8 -3 -19.5 -8.5t-38.5 -24.5t-51 -44t-54 -69.5t-52 -98t-39 -133t-21 -171.5q-10 -97 25 -199q38 97 123 182q30 23 61 23
q29 -2 62.5 -19t50.5 -49q3 -6 -1 -12t-12 -8q-19 -3 -34 -18q-102 -107 -115 -285q65 -38 145 -49q72 -8 144 -2q20 96 28 229z" />
    <glyph glyph-name="P" unicode="P" horiz-adv-x="1105" 
d="M162 737q28 -16 18 -35q-6 -6 -14 -6q-29 1 -52.5 19t-32.5 35l-9 18q-25 74 -18 158t44 168t84.5 149.5t102 103t96.5 29.5q41 -8 70.5 -37t43.5 -64t21.5 -69t8.5 -57l1 -23q0 -34 -7.5 -100t-8.5 -86q21 77 46.5 142.5t61 128.5t82.5 101t99 42q62 4 109.5 -27
t74.5 -85.5t44 -120.5t21.5 -135.5t2.5 -127t-9 -98.5q-12 -80 -49 -182q76 4 232 0q5 0 13 -1.5t20 -10t10 -23.5q-2 -14 -16 -20.5t-27 -6.5h-13q-127 0 -247 -6q-51 -113 -132 -184t-194 -68q-5 0 -13 0.5t-29.5 6t-40.5 14.5t-39 28.5t-30 46.5q4 -263 43 -325
q5 -9 -0.5 -19.5t-15.5 -11.5q-97 -7 -137 70q-48 100 -64.5 298.5t-8.5 347.5l7 148q2 130 35 301q6 24 10.5 42.5t8 37t4 31.5t-0.5 23t-5 15t-11 5q-52 -17 -93 -75t-63 -131t-34 -149.5t-11 -137t11 -87.5zM641 330q93 0 158 166q-77 -10 -134 -25t-89 -34.5t-31 -41.5
q1 -29 25 -45.5t48 -17.5zM489 510q0 -11 -1 -34t-1 -36q54 92 336 125q16 51 27 108t14 89l4 31q11 116 8.5 199.5t-15 137.5t-26.5 85.5t-25 44.5l-11 12q-50 -13 -97.5 -84t-80.5 -159t-62.5 -200t-44.5 -184.5t-25 -134.5zM393 1315q8 -47 -6 -94q3 3 6.5 7t11.5 17
t11 24t-2 24t-21 22z" />
    <glyph glyph-name="Q" unicode="Q" horiz-adv-x="1134" 
d="M1071 600q2 -113 -13.5 -206t-41 -153.5t-61.5 -106.5t-68 -70t-68 -39q104 8 151.5 -16.5t43.5 -102.5q-3 -31 -17 -76q-1 -2 -2.5 -4.5t-8 -7t-13.5 1.5q-4 4 -5 12.5t0 15.5l1 7q-36 106 -299 65l-81 -9q-200 -14 -223 68q-5 19 -1 41q0 3 3.5 4.5t6.5 -1.5
q62 -48 266 -21q-92 11 -159 65t-102.5 131t-51.5 175t-12.5 194t20.5 191q18 100 57 219q-107 -23 -181 -52.5t-91 -76.5q6 -23 0 -27q-6 -5 -11.5 -4.5t-9.5 3.5l-4 3q-96 96 8 178q41 33 120.5 52.5t209.5 38.5q115 270 268 280q8 1 20 1.5t41 -6.5t46 -24
q58 -54 14 -155q-31 -69 -116 -117q38 4 80.5 -4t93 -37.5t90.5 -79.5t68.5 -140.5t31.5 -209.5zM743 1313q-73 -5 -135 -189q128 34 162 88q32 53 2 88q-4 5 -11.5 8.5t-12.5 3.5zM694 1335q-38 1 -63.5 -16.5t-32.5 -34.5l-6 -18q15 16 40.5 33t43.5 27zM709 57
q5 0 13.5 0.5t33 9.5t47 26t50 55.5t48.5 92t36.5 142.5t18.5 199q2 83 -12 151t-38.5 112t-56.5 76.5t-66 48.5t-65.5 22.5t-55.5 4t-37 -11.5q-3 -1 -6 -0.5t-3 2.5q0 28 21 53q-47 -16 -59 -18q-17 -69 -31.5 -148.5t-20.5 -123.5l-6 -45q-19 -138 -8 -255.5t41 -203.5
t71.5 -135.5t84.5 -53.5z" />
    <glyph glyph-name="R" unicode="R" horiz-adv-x="1124" 
d="M616 422q-69 116 -127 127q-12 -430 39 -520q6 -9 1.5 -19t-15.5 -12q-97 -7 -137 70q-48 100 -64.5 298.5t-8.5 347.5l7 148q2 130 35 301q6 24 10.5 42.5t8 37t4 31.5t-0.5 23t-5 15t-11 5q-52 -17 -93 -75t-63 -131t-34 -149.5t-11 -137t11 -87.5q30 -17 16 -35
q-3 -6 -12 -6q-29 1 -52.5 19t-32.5 35l-9 18q-25 74 -17.5 158.5t44.5 168.5t84.5 149.5t101.5 103t96 28.5q45 -10 77 -39.5t44.5 -64t19 -68t5.5 -56.5l-1 -22q-8 -89 -8 -94q20 53 41.5 100t51 94.5t60.5 80.5t69.5 52.5t78.5 16.5q4 0 11 -1t26.5 -8.5t37 -20.5t38 -42
t33.5 -68t19.5 -102.5t0.5 -142.5q0 -6 -1 -16.5t-8 -41.5t-18.5 -61t-35 -70t-55 -73t-82 -65t-111.5 -52q177 -70 231 -440q5 -35 13.5 -59t17.5 -33.5t17 -14t13 -3.5l5 1q4 1 12 5t32.5 32.5t49 74t59 142t66.5 224.5q1 4 2.5 10.5t10.5 17t22 9.5q11 -2 15 -12t2 -20
l-1 -9q-2 -11 -5.5 -31t-16 -76t-27 -107.5t-39.5 -113.5t-52 -106.5t-64.5 -74.5t-78.5 -28q-10 0 -26.5 2t-61 20t-82.5 48t-76.5 94.5t-56.5 152.5q-12 58 -39 105zM496 707q0 -10 -1 -31t-1 -33q75 25 181 132t126 216q21 139 19 206.5t-14 82.5l-13 16
q-53 -5 -105.5 -78.5t-93 -187.5t-61 -184t-37.5 -139zM391 1221l7 7t12 17t11 24t-1.5 24t-20.5 22q6 -47 -8 -94z" />
    <glyph glyph-name="S" unicode="S" horiz-adv-x="1030" 
d="M1100 518q-108 0 -199 -12q71 -117 68 -195q-7 -157 -118 -240t-294 -69q-5 0 -12.5 1t-30.5 6t-43.5 14t-45 28t-41 44.5t-27 66t-7.5 90.5q6 96 91.5 162.5t220.5 105.5q-32 36 -69 73t-58 56l-21 19q-164 150 -168 309q-200 -41 -227 -111q4 -20 -2 -26
q-5 -4 -10.5 -3.5t-10.5 3.5l-4 4q-91 98 14 176q57 44 256 70q8 21 15 32q32 68 79 119t91.5 75t84 38t63.5 16l24 2q4 -1 18.5 0t41.5 -8t44 -27q58 -53 8 -155q-57 -118 -296 -168q16 -72 108 -189q39 -47 96 -110q84 -97 123 -152q151 18 242 15q5 0 12.5 -1t20 -8.5
t12.5 -21.5t-12.5 -21t-24.5 -8h-12zM684 1341q-8 2 -20 3.5t-40.5 -9t-45.5 -37.5q102 43 106 43zM580 1186q-24 -34 -41 -72q195 28 241 94q18 33 17.5 55t-11.5 35q-4 5 -12 8t-14 3h-6q-4 0 -10.5 -1t-27 -8t-40 -19t-46.5 -37t-50 -58zM559 55q98 -17 172.5 58.5
t67.5 185.5q-6 64 -88 164q-108 -36 -174 -88t-78 -107q-8 -36 -1.5 -68t23 -58.5t34 -46t31.5 -29.5z" />
    <glyph glyph-name="T" unicode="T" horiz-adv-x="899" 
d="M989 1368q4 -15 5.5 -28.5t-2 -35.5t-15.5 -37t-40.5 -25t-72.5 -7q-45 3 -100 11.5t-76 10.5q-36 -293 -43 -565q-13 -510 35 -672q4 -14 -12 -18q-40 -4 -54 -2q-46 1 -80 31.5t-42 74.5q-32 175 -43 631q-4 235 30 531q-73 -7 -129 -30.5t-89 -58.5t-54.5 -72
t-29.5 -79.5t-10 -71t-1 -57.5q20 -4 20 -14q0 -8 -4.5 -11.5t-9.5 -3.5h-4q-28 1 -50 12t-33.5 27t-19.5 32t-10 27l-2 11q-6 69 7.5 125t40 93t66.5 65t81 43t90 24t87 11t77 1q5 8 16 15q65 29 119 22q30 -2 53 -16q10 -10 10 -25q-2 -2 -2 -8q233 -5 271 31q0 14 6 16
t9 0.5t4 -4.5zM522 1290q10 15 22.5 27.5t19.5 18.5l7 5q-25 1 -37.5 -12t-11.5 -26v-13z" />
    <glyph glyph-name="U" unicode="U" horiz-adv-x="1236" 
d="M1067 -2q-148 -3 -195 364q-137 -349 -327 -362q-69 -5 -119 40.5t-75 121t-39 168.5t-14.5 187t2.5 171.5t8 126.5l5 49q10 130 52 281l11.5 34.5t13.5 44t9.5 40t1 35.5t-15.5 18q-129 -30 -199 -266q-59 -211 -26 -310q26 -18 16 -34q-6 -9 -14 -9q-30 1 -56 24.5
t-36 51.5q-26 64 -16 142t37 146t69 132q22 33 47.5 64t61 64.5t76 48.5t77.5 3q50 -15 80 -62t38.5 -97t2.5 -99q-4 -36 -16.5 -113t-16.5 -116l-21 -206q-43 -523 38 -598q12 -10 26 -11q10 0 27.5 6t63.5 57.5t84.5 140t77.5 282t56 456.5q10 199 25 332q2 14 12 22.5
t23 7.5q79 -2 120 -25.5t37 -88.5l-27 -356q-53 -825 25 -843q4 1 12 5t33 32.5t49.5 74t59 142t65.5 224.5l2.5 10t10.5 15.5t22 8.5q11 -1 15.5 -11t3.5 -20l-2 -9q-2 -11 -5.5 -30.5t-16 -74.5t-27 -105.5t-39 -112.5t-51.5 -106.5t-64.5 -75.5t-77.5 -32zM422 1221l7 7
t12 17t11 24t-1.5 24t-20.5 22q6 -47 -8 -94z" />
    <glyph glyph-name="V" unicode="V" horiz-adv-x="1189" 
d="M860 961q1 81 10 147t23 107.5t30.5 72t32.5 45.5t29.5 23.5t22.5 9.5l8 2l22 1q64 -9 90 -117q14 -59 15 -144q0 -160 -82 -481q46 -43 110 -54q3 0 5 -3.5t0 -6.5q-13 -29 -46 -41t-59 -4q-14 5 -37 19q-80 -280 -160 -492q-3 -14 -18 -20q-24 -13 -50 -21.5t-54.5 -9
t-44.5 13.5q-25 23 -63 94t-60 129q-86 240 -131 461q-55 279 -37 561q-66 -30 -112.5 -68.5t-70.5 -76t-35 -80t-10 -78.5t9.5 -73t18 -61t20.5 -46q20 4 24 -6q2 -8 0 -12.5t-6 -6.5l-4 -2q-47 -14 -80.5 -2t-51.5 34l-18 22q-39 71 -46 136.5t10 114.5t55 94t77.5 74.5
t90.5 56t80 38.5t59 22q65 48 141 45q28 0 49 -12q18 -11 15 -29q-32 -335 22 -653q21 -133 68.5 -287.5t103.5 -281.5q66 245 119 508q-87 127 -84 338zM442 1237q27 75 52 102q-3 0 -7 -1.5t-15 -8t-18 -16.5t-11.5 -30t-0.5 -46zM975 786q80 456 6 488q-2 -11 -6 -31.5
t-11 -80t-10 -116t1.5 -129.5t19.5 -131z" />
    <glyph glyph-name="W" unicode="W" horiz-adv-x="1503" 
d="M1296 1380l21 2q62 -4 94 -102q19 -62 25 -154q8 -159 -56 -483q48 -41 111 -47q9 -4 6 -10q-11 -30 -43.5 -43.5t-58.5 -5.5q-15 2 -35 14q-65 -292 -135 -504q-3 -13 -17 -20q-37 -20 -89 -27t-85 12q-66 64 -116 211q-5 -23 -11.5 -46.5t-12 -43.5t-7.5 -27
q-5 -18 -21 -34q-78 -74 -200 -74q-27 3 -41 20q-39 41 -73 109.5t-55 138t-36.5 132.5t-22.5 103l-6 40q-26 121 -28 341t12 371q-66 -30 -112.5 -68.5t-70.5 -76t-35 -80t-10 -78.5t9.5 -73t18 -61t20.5 -46q20 4 24 -6q2 -8 0 -12.5t-6 -6.5l-4 -2q-47 -14 -80.5 -2
t-51.5 34l-18 22q-39 71 -46 136.5t10 114.5t55 94t77.5 74.5t90.5 56t80 38.5t59 22q65 48 141 45q18 0 33 -12q21 -14 18 -41q-19 -183 -22 -403t18 -402q2 -14 7 -37t20 -86.5t31 -117t40.5 -110t49.5 -83.5q2 1 5 3.5t12.5 15t18 31t19 55t19 83t14.5 119.5t8 160
q-18 206 -2 479q3 33 23 53q66 75 151 66q17 -3 17 -21q-3 -70 -5.5 -146.5t-0.5 -231.5t13 -274.5t41 -227t76 -137.5q52 251 93 520q-95 119 -103 334q-3 81 2.5 147.5t17 108t26.5 73t30.5 47t28.5 24.5t22 11zM444 1233q27 75 52 102q-3 0 -7 -1.5t-16 -8t-18 -17
t-12 -29.5t1 -46zM1286 797q54 460 -20 489q-2 -12 -4.5 -32t-7 -80t-4.5 -117t9 -130t27 -130z" />
    <glyph glyph-name="X" unicode="X" horiz-adv-x="1179" 
d="M532 1374q54 0 70 -20q20 -199 92 -480q152 304 281 459q9 14 29 21q34 15 76.5 8.5t58.5 -41.5q7 -10 -4 -14q-19 -15 -48 -50q-32 -36 -133.5 -205t-208.5 -366q5 -18 15.5 -52t15.5 -52q87 -253 118 -325q72 -167 134 -194q4 1 12 5t32.5 32.5t49 74t59 142
t66.5 224.5q1 4 2.5 10.5t10 17t20.5 9.5q12 -2 16 -12t2 -20l-2 -9q-2 -11 -5.5 -31t-16 -76t-27 -107.5t-38.5 -113.5t-51 -106.5t-64.5 -74.5t-77.5 -28q-59 -1 -119.5 43t-112.5 120.5t-88.5 145t-72.5 148.5q-183 -355 -189 -451q0 -3 -3.5 -5t-6.5 -1
q-27 9 -46.5 34.5t-10.5 74.5q81 226 200 493q-51 137 -94 314t-63 331q-73 -33 -122.5 -76.5t-69.5 -89.5t-28 -90t0.5 -88.5t18 -73.5t22.5 -55q21 4 25 -6q3 -7 0 -12t-8 -6l-4 -2q-47 -13 -80 -0.5t-50 34.5l-18 23q-37 69 -43 133.5t10.5 112.5t53 91.5t75.5 72.5
t88.5 54.5t81.5 38t64 23.5q54 40 106 43zM451 1208q7 66 34 121l-7.5 -2.5t-15 -10t-16 -20.5t-5.5 -35.5t10 -52.5z" />
    <glyph glyph-name="Y" unicode="Y" horiz-adv-x="1161" 
d="M467 -47q7 91 110.5 231t260.5 244q1 20 4 58.5t4 56.5q-119 -218 -295 -226q-63 -3 -110.5 25t-72.5 75.5t-41 105t-19 116t-3 106.5t3 79l3 30q15 149 54 291l11.5 34.5t13.5 44t9.5 40t1 35.5t-15.5 18q-129 -30 -199 -266q-59 -211 -26 -310q26 -18 16 -34
q-6 -9 -14 -9q-30 1 -56 24.5t-36 51.5q-26 64 -16 142t37 146t69 132q22 33 47.5 64t61 64.5t76 48.5t77.5 3q50 -15 80 -62t38.5 -97t2.5 -99q-4 -36 -16.5 -113t-16.5 -116l-13 -144q-20 -340 59 -354h3q6 0 15.5 1.5t38 13.5t55 32.5t60 66.5t59.5 108t47 163t28 225
q4 96 11.5 190t12.5 141l5 46q36 1 61.5 -1t52 -8.5t42 -18.5t25 -34t7.5 -52q-16 -183 -30 -406q4 -140 -2 -326q113 42 229 48q5 0 13.5 -0.5t22.5 -8.5t15 -24q0 -15 -12.5 -23.5t-25.5 -9.5l-13 -2q-127 -15 -234 -59q-10 -164 -31 -302t-60 -271t-108 -195t-161 -31
q-9 4 -24.5 11.5t-54 34.5t-67.5 58.5t-51 84.5t-18 112zM641 -227q38 -6 70 39t54 129.5t37.5 180.5t26.5 212q-134 -101 -206.5 -233t-64.5 -225t83 -103zM420 1221l7 7t12 17t11 24t-1.5 24t-20.5 22q6 -47 -8 -94z" />
    <glyph glyph-name="Z" unicode="Z" horiz-adv-x="825" 
d="M166 12q-36 11 -60.5 31.5t-35 41.5t-15.5 40.5t-5 32.5l1 12q-6 37 41 170t135 326q-42 4 -69.5 15t-38.5 26t-14.5 26.5t-2.5 22.5q0 10 9 6q39 -22 149 -25q16 37 27 56q109 234 278 491l-76 4q-328 20 -354 -98q12 -31 0 -39q-9 -5 -16 -3t-11 6l-4 5
q-12 21 -20 41.5t-10 30.5l-2 10q-8 39 -1.5 67t33.5 44t55.5 24.5t87.5 10t105.5 0t132.5 -6.5q77 -5 146 -2q0 2 14 -2t39.5 -21t50.5 -44q21 -19 23.5 -69t-17.5 -83q-136 -210 -247 -416q93 7 110 7q46 -2 68 -76q2 -6 -3 -12t-12 -5q-80 11 -204 11
q-190 -359 -260 -559q62 -2 128.5 -3t169.5 1t180.5 14.5t102.5 34.5q0 18 8 22q7 3 12.5 0t7.5 -8l1 -4q7 -17 11.5 -37t1 -48.5t-19 -50t-57.5 -35.5t-106 -11q-78 4 -223 14.5t-244 13.5zM109 1268q24 57 61 84q-36 -4 -51.5 -25t-12.5 -40z" />
    <glyph glyph-name="bracketleft" unicode="[" horiz-adv-x="473" 
d="M254 1292v-2v-2v0v0l-2 -2q0 -2 -2 -4v-2q-2 -2 -2 -4q-7 -21 -8 -25q-9 -46 -11 -69q-4 -28 -4 -49v-17q0 -3 -1 -9t-1 -9q0 -23 -2 -35q-1 -17 -4 -77.5t-4 -98.5q0 -16 -1 -51t-1 -54q-1 -18 -2 -54t-2 -54q-3 -111 -6 -225q-2 -18 -2 -56q0 -9 -1 -27t-1 -26v-53
q0 -9 -1 -27.5t-1 -26.5q0 -33 -2 -49q0 -26 -3 -47v-4v-4v-8q0 -4 3 -4v-4v-4h2v-3q3 -12 14 -20q3 -3 12 -6q5 -4 15 -8q5 -1 17.5 -4.5t20.5 -4.5q15 -3 39.5 -6.5t32.5 -5.5q28 -2 51 -10q21 -7 21 -10q8 -9 -17 -19q-19 -8 -69 -14q-36 -4 -68 -4q-29 0 -47 2
q-6 1 -26 6t-33 8q-11 4 -33 19q-14 7 -33 26q-15 18 -20 37q-9 27 -9 37q0 2 -1 5t-1 5v8v15q-2 12 -2 35q-1 12 -2 37t-2 38q0 27 -2 39v43q-2 14 -2 45v45v48v47q2 33 2 96q2 33 2 98q1 16 2 49t2 49q4 66 4 97q0 4 1.5 11.5t1.5 10.5q0 17 2 25q0 7 1 22.5t1 22.5
q4 30 8 86q0 14 2 20v21q4 28 4 39q8 52 16 76q3 17 13 34q13 27 20 35l2 2q2 2 6 10q1 1 3 3.5t3 3.5t4.5 3t4.5 3q2 2 10 6q1 1 4.5 3.5t5.5 4.5q6 0 14 4q1 0 4.5 1t4.5 1t4 1t4 1q3 0 9 1t9 1h4l2 2h2h7h53q55 -3 92 -12q39 -9 39 -20q-3 -17 -29 -29q-28 -11 -76 -16
q-20 -5 -24 -5q-20 -4 -29 -4q-2 -1 -6 -2t-6 -2zM152 1292q8 11 26 27.5t32 27.5l13 11q-31 0 -49 -16.5t-20 -33.5z" />
    <glyph glyph-name="backslash" unicode="\" horiz-adv-x="561" 
d="M489 205q5 -15 9 -35q20 -101 8 -137q-3 -7 -7 -11t-7 -4h-3q-24 -3 -86 142q-36 91 -112 334q-10 34 -30 97.5t-28 90.5q-10 35 -28 95t-25 83q-24 86 -45 150q-14 45 -18 57q-6 23 -13 41q-3 10 -20 66q-5 12 -8 28q-2 5 -8 27q-15 62 -17 84q-3 64 33 73
q11 4 26 -15.5t31 -51.5l33 -74l21 -49q1 -4 8.5 -25.5t11.5 -33.5q16 -39 25 -66q2 -6 6 -18.5t6 -18.5q5 -12 12 -37q22 -65 98 -321q28 -91 87 -305q20 -73 30 -119q8 -31 10 -47zM82 1280q8 66 12 82h-1q-1 -1 -3.5 -2.5t-4.5 -4t-4.5 -6t-4.5 -8t-3 -11t-0.5 -13.5
t3 -16.5t6.5 -20.5z" />
    <glyph glyph-name="bracketright" unicode="]" horiz-adv-x="473" 
d="M424 977v-47v-47q0 -7 -1 -23t-1 -24v-97q-1 -16 -2 -48.5t-2 -49.5q0 -17 -1 -49t-1 -49l-3 -48t-3 -49v-22q0 -4 -1 -12t-1 -11q-1 -8 -2.5 -23.5t-2.5 -23.5q-1 -14 -3 -42.5t-3 -43.5q0 -3 -1 -9.5t-1 -10.5q0 -13 -2 -19q0 -17 -4 -41q-2 -24 -14 -75
q-2 -6 -6.5 -17.5t-6.5 -17.5q-11 -21 -20 -33q0 -2 -2 -4l-8 -8l-2 -3q-2 -2 -4 -3l-7 -7q-2 -1 -5 -4t-5 -4t-5 -3t-5 -3q-6 -2 -14 -6q-7 0 -9 -2h-8q-3 -1 -9 -2t-9 -2h-4h-2h-2h-9q-27 -3 -53 0q-54 3 -90 12q-39 6 -39 21q3 14 27 26q20 9 76 19q10 0 26 4q11 0 27 4
q2 0 6.5 1t5.5 1l2 2v2v0v0v2q2 2 2 6q2 0 2 2t2 2q3 12 9 27q8 38 10 70q1 7 2 24t2 25v16v16q2 12 2 37q8 98 8 176q4 66 4 103q1 18 2 54t2 54q4 152 6 226q0 9 1 27.5t1 27.5v55q3 27 3 54v51q2 18 2 51q1 8 2 23.5t2 23.5v4v4q0 1 -1 4t-1 4v5v2l-2 4v2v2q-6 12 -15 18
q-2 1 -6 4t-6 4q-10 5 -16 7q-5 2 -18.5 5t-18.5 5q-58 9 -74 10q-11 2 -28 5.5t-21 4.5q-20 7 -23 13q1 1 -0.5 2.5t3.5 6.5t16 9q29 10 69 14q32 4 66 4q15 0 47 -4q33 -4 59 -14q15 -6 35 -16q25 -20 31 -29q9 -9 22 -35q6 -18 9 -39v-8q0 -2 1 -4.5t1 -3.5v-17
q0 -5 1 -16.5t1 -17.5q0 -11 1 -35.5t1 -38.5q2 -14 2 -41q2 -14 2 -43t2 -43zM313 1233q2 4 4.5 10t6 21.5t1 27.5t-16.5 21.5t-40 9.5q6 -2 14 -7.5t21 -28.5t10 -54z" />
    <glyph glyph-name="grave" unicode="`" horiz-adv-x="296" 
d="M236 1163q6 -6 10 -14q0 -2 1 -6t1 -6l-4 -15q-2 -7 -13 -14q-2 -1 -6 -2t-6 -2h-12q-23 -3 -60 12q-26 11 -55 31q-9 6 -16.5 15.5t-11.5 15.5l-3 6q-9 16 -9.5 30t3.5 20l4 5q12 12 25 8l12 -4q16 -5 76 -41q5 -3 19 -11t20 -11q24 -16 25 -17zM72 1217q5 6 15 6.5
t17 -1.5l7 -3q-9 14 -25 14q-7 0 -10.5 -4t-3.5 -8v-4z" />
    <glyph glyph-name="a" unicode="a" horiz-adv-x="864" 
d="M696 0q-62 3 -106.5 52t-65.5 120t-30 166q-22 -64 -46 -117.5t-56 -108t-70.5 -85t-77.5 -27.5q-62 4 -108 63t-66.5 149.5t-18 203.5t30.5 221q3 10 8.5 27t28.5 58.5t52.5 71.5t83 50.5t116.5 11.5q77 -10 129 -88q4 40 4 51q3 21 17 37.5t34 22.5q60 17 102 -5
q23 -10 34.5 -33t8.5 -50q-11 -89 -19.5 -179.5t-17.5 -229.5t2 -227.5t44 -91.5q4 1 12 5t32.5 32.5t49 74t59 142t66.5 224.5q1 4 2.5 10.5t10 17t20.5 9.5q12 -2 16.5 -12t2.5 -20l-1 -9q-2 -11 -5.5 -31t-16 -76.5t-27 -108t-39.5 -113.5t-52 -106.5t-64.5 -74
t-78.5 -27.5zM272 805q-3 0 -8.5 0.5t-20 -1.5t-26 -8t-21 -20.5t-10.5 -36.5q63 60 86 66zM256 76q31 3 67.5 59.5t69 145t51.5 146.5t35 116q-8 58 -22 110.5t-36.5 90t-47.5 36.5q-27 -1 -56 -73.5t-44 -144.5l-15 -73q-14 -91 -19 -167t-3 -119.5t6.5 -74t9.5 -41.5z
" />
    <glyph glyph-name="b" unicode="b" horiz-adv-x="733" 
d="M487 809q122 5 183 -131t18 -361q-1 -7 -3.5 -19.5t-13 -48t-24 -67.5t-36.5 -70t-50.5 -63.5t-67.5 -40t-85 -8.5q-5 0 -14 1.5t-33 11.5t-45.5 27.5t-45 55t-37.5 88.5q0 -34 1.5 -77t1.5 -48q0 -28 -17 -45q-22 -25 -65 -28q-24 -1 -42.5 5t-27 15.5t-14 19t-6.5 16.5
l-1 7q-2 26 -4 71t-5.5 175t-2.5 250t10 269t27 259.5t54 193.5t85 99q6 2 17 4.5t40 4.5t53 -2t48.5 -21t34.5 -47q4 -13 8 -37.5t4.5 -102t-13.5 -157.5t-61.5 -198t-124.5 -230q-2 -53 -2 -156q23 67 49.5 127.5t60 122t72 98t74.5 37.5zM362 1280q-97 -17 -124 -555
q50 88 81 177t40 154t10.5 117.5t-3.5 79.5zM190 1284q66 55 89 55q-3 1 -8 2t-19 1t-25 -4t-22 -18t-15 -36zM512 352q13 83 15 151t-5 105t-15.5 62.5t-16.5 33.5l-7 9q-83 7 -213 -400q7 -53 26 -106t49.5 -89.5t62.5 -29.5q25 4 51 70t39 130z" />
    <glyph glyph-name="c" unicode="c" horiz-adv-x="667" 
d="M770 578q11 -2 15 -12t3 -20l-2 -9q-1 -11 -4 -30.5t-15.5 -74.5t-30 -105.5t-49.5 -112.5t-71.5 -106.5t-100 -75.5t-130.5 -32q-78 -3 -138 19.5t-97 62t-61 94t-31.5 113.5t-5.5 122.5t12 120t26 105.5q2 6 5 16t15 38.5t26.5 54t40 55.5t54 50t69.5 30.5t87 3.5
q254 -50 141 -301q-6 -11 -18.5 -9t-15.5 15q-7 55 -21.5 103.5t-37 82.5t-46.5 33q-26 -1 -56.5 -81t-47.5 -160l-17 -79q-16 -101 -13 -192.5t35.5 -157.5t86.5 -73q5 0 14 2t37 12.5t55 28t64 54t69 84t64 124.5t55 170q1 4 2.5 10.5t10.5 17t22 9.5zM299 821q-3 1 -8 2
t-19 0t-26.5 -7t-25.5 -23t-21 -43q71 61 100 71z" />
    <glyph glyph-name="d" unicode="d" horiz-adv-x="866" 
d="M696 0q-170 5 -204 338q-21 -63 -44.5 -117.5t-55.5 -108.5t-70.5 -84.5t-77.5 -27.5q-62 4 -108 63t-66.5 149.5t-18 203.5t30.5 221q3 10 8.5 27t28.5 58.5t52.5 71.5t83 50.5t116.5 11.5q77 -10 129 -88l10 92q1 11 4 30t12.5 73t21.5 103.5t31 109.5t40.5 103
t51.5 71.5t62 27.5q51 -2 89 -41t52 -107t4 -151.5t-58 -186t-130 -198.5q-11 -97 -18.5 -190t-11 -199.5t8.5 -172.5t40 -69q6 2 15.5 7.5t39 37t57.5 78t65 140.5t68 215q1 4 2.5 10.5t10 17t20.5 9.5q12 -2 16.5 -12t3.5 -20l-1 -9q-2 -11 -6 -31t-18 -76t-30.5 -107.5
t-44 -113.5t-57 -106.5t-70.5 -74.5t-84 -28zM774 1245q-12 0 -67 -405q41 68 65.5 133t31.5 112.5t5 84.5t-12 55.5t-23 19.5zM752 1343q-28 11 -47.5 -4t-24.5 -36l-6 -21q11 14 30.5 29t33.5 23zM256 76q31 3 67.5 59.5t69 145t51.5 146.5t35 116q-8 58 -22 110.5
t-36.5 90t-47.5 36.5q-27 -1 -56 -73.5t-44 -144.5l-15 -73q-14 -91 -19 -167t-3 -119.5t6.5 -74t9.5 -41.5z" />
    <glyph glyph-name="e" unicode="e" horiz-adv-x="671" 
d="M385 0q-78 -3 -138 19.5t-97 62t-61 94t-31.5 113.5t-5.5 122.5t12 120t26 105.5q1 5 4 14.5t14.5 35.5t26 49t39 50t53 45t69.5 27t87 2q2 0 6 -1t16.5 -5t23.5 -10t27 -17.5t27 -26.5t24 -37.5t17.5 -50.5t7.5 -65t-6 -82q-10 -67 -39 -121.5t-70 -89.5t-79 -56
t-80 -34q10 -84 40 -138t79 -60q5 0 14 2t37 12.5t55 28t64 54t69 84t64 124.5t55 170q1 4 2.5 10.5t10.5 17t22 9.5q11 -2 15 -12t3 -20l-2 -9q-1 -11 -4 -30.5t-15.5 -74.5t-30 -105.5t-49.5 -112.5t-71.5 -106.5t-100 -75.5t-130.5 -32zM305 821q-3 1 -8 2t-19.5 0
t-27 -7t-26 -23t-21.5 -43q71 61 102 71zM268 489q-14 -69 -14 -149q63 21 117.5 73t74.5 138q14 82 0.5 134t-37.5 75l-24 24q-27 -1 -56.5 -74.5t-44.5 -147.5z" />
    <glyph glyph-name="f" unicode="f" horiz-adv-x="514" 
d="M614 528q-15 -8 -39.5 -20t-89 -29t-114.5 -12q57 -134 57 -317q0 -287 -57 -347q-17 -19 -47.5 -23.5t-51.5 0.5l-22 5q-49 12 -86 64t-57.5 126t-34 160t-16.5 170t-4 153t1 112l2 42q48 711 209 754q6 2 17 4t40 2.5t52.5 -4.5t47 -23t32.5 -49q3 -12 6 -34t1.5 -93
t-16 -144t-58.5 -180.5t-114 -209.5q9 -18 22 -34t41 -34t62.5 -25t90.5 -0.5t122 31.5q25 13 29 -12q1 -10 -5.5 -18.5t-13.5 -11.5zM397 1274q-99 -10 -151 -547q51 85 85.5 172t46.5 151.5t16.5 116.5t3.5 79zM328 1339q-3 1 -8.5 2t-19 1t-25 -4t-22.5 -18t-15 -36
q65 55 90 55zM303 -152q21 2 36.5 57t18.5 140.5t-5.5 179t-39 185.5t-77.5 147q-3 -69 -1.5 -189.5t5 -237t20 -201t43.5 -81.5z" />
    <glyph glyph-name="g" unicode="g" horiz-adv-x="776" 
d="M887 563q6 -21 -25 -37q-95 -49 -180 -108q9 -99 2.5 -219t-22.5 -228t-58.5 -203t-105.5 -145q-33 -26 -74 -20q-24 2 -47 8.5t-48.5 20.5t-45.5 41.5t-29 66.5q-1 7 -2.5 19.5t-1 52t6 80.5t23 101t45 117t77.5 124.5t116 127.5q2 53 2 148q-15 -43 -31.5 -83.5
t-44.5 -94t-57 -91.5t-67 -64.5t-76 -24.5q-62 4 -108 54.5t-66.5 127t-18 172.5t30.5 188q3 9 8.5 23t28.5 49.5t52.5 61t83 43.5t116.5 10q70 -9 111.5 -56t60.5 -106q52 16 88 2q11 -6 24.5 -73.5t22.5 -164.5q67 42 164 90q35 17 45 -10zM152 713q12 20 24.5 37
t30.5 38.5t22 26.5q-4 0 -9.5 -1.5t-20 -8.5t-25 -17t-18 -30t-4.5 -45zM256 217q25 2 55.5 37.5t54 79.5t49.5 107.5t38.5 97.5t25.5 73q-12 79 -40.5 141.5t-65.5 61.5q-27 -1 -56 -63t-44 -124l-15 -61q-14 -76 -19 -140t-3 -101t6.5 -63.5t9.5 -36.5zM385 -279
q111 74 131 543q-33 -39 -61 -90q-47 -83 -71.5 -160t-26 -128t4 -90t14.5 -57z" />
    <glyph glyph-name="h" unicode="h" horiz-adv-x="866" 
d="M983 537q-2 -11 -5.5 -31t-16 -76.5t-27 -108t-39.5 -113.5t-52 -106.5t-64.5 -74t-78.5 -27.5q-80 4 -129.5 65.5t-68 161.5t-13.5 240q3 1 1.5 152t-15.5 143q-7 -13 -19 -36t-44.5 -97.5t-58.5 -151t-52 -188t-35 -217.5h-2q0 -21 -12 -39q-22 -29 -62 -35
q-34 -5 -62 10t-34 45q-34 169 -41 428q-15 438 76 707q36 100 64 136q33 43 73 50q36 4 74.5 2.5t71.5 -22.5t39 -56q16 -91 -15 -239q-45 -226 -203 -463q-3 -125 7 -272q114 544 264 544q45 0 78.5 -22.5t52 -57.5t30.5 -77.5t15 -85t3.5 -77.5t-1.5 -57l-2 -22
q-10 -244 -5 -310q8 -92 38 -96q4 1 12 5t32.5 32.5t49 74t59 142t66.5 224.5q1 4 2.5 10.5t10.5 17t22 9.5q11 -2 15 -12t2 -20zM393 1278q-7 6 -24.5 -9.5t-41 -59.5t-38.5 -105q-38 -166 -51 -354q81 159 133.5 331t21.5 197zM307 1339q-3 1 -8 2t-18.5 1t-24.5 -4
t-22 -18t-15 -36q65 55 88 55z" />
    <glyph glyph-name="i" unicode="i" horiz-adv-x="423" 
d="M530 578q11 -2 15.5 -12t2.5 -20l-1 -9q-2 -11 -5.5 -31t-16 -76.5t-27 -108t-39.5 -113.5t-52 -106.5t-64.5 -74t-78.5 -27.5q-55 2 -96.5 38.5t-64 90.5t-35 129.5t-15.5 144.5t0 149t7 128t10 96q7 47 49 60q64 16 102 -2q24 -12 36 -35.5t9 -50.5q-11 -88 -19 -171.5
t-16.5 -215t2.5 -213.5t43 -85q4 1 12 5t32.5 32.5t49.5 74t59.5 142t66.5 224.5q1 4 2.5 10.5t10 17t21.5 9.5zM94 715q15 55 56 90q-2 1 -6 1.5t-14.5 -2t-18 -10.5t-13 -28t-4.5 -51zM119 1063q1 3 2.5 9t9 20t16.5 24.5t25 18.5t35 6q49 -6 65 -60t-8 -112
q-13 -36 -34 -54.5t-36.5 -17t-25.5 3.5q-2 1 -4.5 2t-10.5 7t-14.5 13t-13 20.5t-10 29.5t-3 39.5t6.5 50.5zM154 1053q5 15 18 29.5t23 21.5l10 8q-28 4 -40.5 -11t-11.5 -31z" />
    <glyph glyph-name="j" unicode="j" horiz-adv-x="354" 
d="M45 1059l2.5 7.5t7 16.5t13 21t21 16t28.5 6q40 -3 54.5 -47.5t-1.5 -93.5q-10 -30 -27.5 -46t-30 -15t-20.5 2q-3 1 -7 3t-15.5 11t-16.5 23t-10.5 38.5t2.5 57.5zM72 1036q18 46 34 62h-4.5t-9.5 -3t-11.5 -8.5t-7.5 -19t-1 -31.5zM248 313q8 -573 -182 -702
q-17 -10 -33 -10q-55 0 -78 6q-54 13 -82 61t-14 101q54 223 211 438q9 292 -17 620q0 19 17 33q27 27 69 27q37 -3 47 -37q43 -152 58 -442q84 81 190 159q1 1 3.5 2.5t9.5 5t13 5t13.5 -0.5t11.5 -8q7 -14 2.5 -26.5t-13.5 -21.5l-9 -9q-127 -101 -217 -201zM-33 -281
q73 51 94 334q-46 -88 -69.5 -171.5t-23.5 -123.5zM84 766q11 68 16 84q-1 0 -3.5 -0.5t-7.5 -5t-8 -12.5t-3 -25t6 -41z" />
    <glyph glyph-name="k" unicode="k" horiz-adv-x="839" 
d="M942 578q11 -2 15 -12t3 -20l-2 -9q-1 -11 -4 -29.5t-14 -72.5t-24.5 -103.5t-37.5 -111t-51.5 -106t-67.5 -77.5t-85 -37q-6 -1 -17 -1t-43.5 3t-63.5 10.5t-71.5 27t-73 48.5t-62.5 78.5t-46 112.5q-23 -107 -31 -207h-2q0 -21 -12 -39q-22 -29 -62 -35q-34 -5 -62 10
t-34 45q-34 169 -41 428q-15 438 76 707q36 100 64 136q33 43 73 50q36 4 74.5 2.5t71.5 -22.5t39 -56q16 -91 -15 -239q-45 -226 -203 -463q-3 -120 7 -260q14 72 30.5 137.5t41.5 137.5t52.5 125t64 90t75.5 42q6 1 16 1t38 -3.5t51.5 -13t49 -32.5t39.5 -56.5t14 -90.5
t-20 -130q-42 -156 -243 -203q77 -42 120 -156q14 -39 31.5 -65.5t32.5 -35.5t27.5 -12t19.5 -1l8 2q4 1 12 4.5t33 30t49.5 71t59 140t65.5 223.5q1 4 2.5 10.5t10.5 17t22 9.5zM393 1278q-7 6 -24.5 -10t-41 -60t-38.5 -104q-37 -151 -51 -354q81 159 133.5 331t21.5 197z
M303 1343q-3 1 -8 2t-18.5 0.5t-24.5 -5t-22 -18.5t-15 -36q65 57 88 57zM332 406q30 5 59 18t65 50.5t56 94.5q57 165 -9 190q-14 6 -28 3q-82 -145 -143 -356z" />
    <glyph glyph-name="l" unicode="l" horiz-adv-x="522" 
d="M309 0q-73 -2 -125.5 44t-78.5 121.5t-40 167.5t-13.5 185t3.5 169.5t9 124.5l6 48q1 11 4 29t13 71.5t21.5 102t31 107.5t41 102.5t51.5 73.5t63 32q121 6 164 -123q46 -136 -8 -349q-59 -228 -197 -404q-13 -432 68 -439q7 2 18.5 7.5t46 37t66.5 78t71.5 140.5
t69.5 215q1 4 2.5 10.5t10.5 17t22 9.5q11 -2 15 -12t2 -20l-1 -9q-3 -11 -7.5 -30t-21.5 -74.5t-36 -106t-49 -112t-62 -106t-74.5 -76t-85.5 -32.5zM403 1055q13 189 -34 223q-32 -62 -56.5 -175.5t-32.5 -196.5l-8 -83q-8 -80 -14 -186q58 90 98.5 208.5t46.5 209.5z
M319 1343q-18 7 -31.5 3.5t-22 -14t-14 -22t-7.5 -20.5l-2 -8q11 14 30.5 29t33.5 23z" />
    <glyph glyph-name="m" unicode="m" horiz-adv-x="1089" 
d="M1192 578q11 -2 15 -12t3 -20l-2 -9q-2 -11 -5.5 -31t-16 -76.5t-27 -108t-39 -113.5t-51.5 -106.5t-64.5 -74t-78.5 -27.5q-80 4 -129.5 65.5t-68 161.5t-13.5 240q3 1 1 152t-16 143q-36 -117 -75 -293q-31 -148 -39 -197q-5 -31 -27 -45t-41 -12l-20 2q-39 3 -65.5 50
t-36 112.5t-14 130.5t-2.5 110l1 46q-34 -41 -63.5 -191t-42.5 -279l-13 -130q0 -18 -12 -33q-22 -29 -62 -35q-34 -5 -62 10t-34 45q-34 169 -41 428q-4 168 19 338q3 23 19.5 41.5t39.5 24.5q61 16 109 -15q35 -18 28 -63q-28 -160 -35 -322q-3 -53 0 -106q54 398 156 412
q35 6 74.5 -9t56.5 -43q28 -46 43 -219q15 69 29 122t35 109t47.5 86.5t56.5 30.5q45 0 78.5 -22.5t52 -57.5t30.5 -77.5t15 -85t3.5 -77.5t-1.5 -57l-2 -22q-10 -244 -5 -310q8 -92 38 -96q4 1 12 5t32.5 32.5t49 74t59 142t66.5 224.5q1 4 2.5 10.5t10.5 17t22 9.5z
M102 791q29 47 60 63q-3 1 -7.5 1.5t-15.5 -1t-19 -6.5t-14 -20t-4 -37z" />
    <glyph glyph-name="n" unicode="n" horiz-adv-x="860" 
d="M965 578q11 -2 15 -12t2 -20l-1 -9q-2 -11 -5.5 -31t-16 -76.5t-27 -108t-39.5 -113.5t-52 -106.5t-64.5 -74t-78.5 -27.5q-80 4 -129.5 65.5t-68 161.5t-13.5 240q3 1 1.5 152t-15.5 143q-7 -13 -19 -36t-44.5 -97.5t-58.5 -151t-52 -188t-35 -217.5h-2q0 -21 -12 -39
q-22 -29 -62 -35q-34 -5 -62 10t-34 45q-34 169 -41 428q-4 168 19 338q3 23 19.5 41.5t39.5 24.5q61 16 109 -15q35 -18 28 -63q-28 -160 -35 -322q-2 -67 5 -176q20 99 43 185t56 176.5t76.5 144t90.5 53.5q45 0 78.5 -22.5t52 -57.5t30.5 -77.5t15 -85t3.5 -77.5
t-1.5 -57l-2 -22q-10 -244 -5 -310q8 -92 38 -96q4 1 12 5t32.5 32.5t49 74t59 142t66.5 224.5q1 4 2.5 10.5t10.5 17t22 9.5zM109 795q26 49 59 63q-3 1 -7.5 1.5t-15.5 -1t-19 -6.5t-13.5 -20t-3.5 -37z" />
    <glyph glyph-name="o" unicode="o" 
d="M850 578q13 -4 14 -19.5t-4 -28.5l-6 -14q-17 -37 -40.5 -75t-74 -89t-108.5 -80q-40 -264 -244 -272q-68 -3 -124 15t-91 49.5t-62 70.5t-39.5 78.5t-20.5 72.5t-10 54l-1 20q-5 221 111 332q14 56 41 96.5t54.5 58.5t53.5 28t43 11l16 1q46 0 85 -18.5t66 -48
t48.5 -65.5t34 -72t21 -65.5t11.5 -47.5l3 -19q2 -10 4 -27t5 -67t1 -95q106 67 164 183q2 5 6 11.5t17 16t26 5.5zM279 819q-3 0 -7.5 -1t-17 -6t-19 -14t-13 -25.5t0.5 -39.5q19 43 56 86zM381 53l11 5.5t26.5 18.5t36.5 34t37.5 53t33.5 74q-42 -8 -104 -5
q-103 11 -176 70q25 -239 135 -250zM547 317q13 90 -4 207q-2 11 -5.5 29t-17.5 63.5t-31 80t-46.5 62.5t-63.5 27q-4 -2 -10 -7t-21 -26t-25.5 -49.5t-17 -81t-2.5 -116.5q1 -7 2.5 -18.5t10.5 -42.5t21.5 -56.5t37 -49t55.5 -30.5q56 -13 117 8z" />
    <glyph glyph-name="p" unicode="p" 
d="M205 -506q-67 21 -104.5 164t-44 332.5t-3.5 375.5t13 314l10 129q0 3 1 7.5t7 15.5t15 19.5t27 15t42 5.5q41 -2 65 -26q18 -22 15 -47q-8 -148 -10 -287q130 355 245 360q122 3 182.5 -132.5t16.5 -360.5q-1 -7 -3.5 -19.5t-13 -48t-23.5 -67.5t-36.5 -70t-51 -63.5
t-67.5 -40t-86 -7.5q-5 0 -13 1.5t-31.5 12t-43.5 27.5t-43 54t-37 86v-78q62 -84 105.5 -163.5t63.5 -139.5t29.5 -113t6.5 -89.5t-8 -62.5t-12 -38l-6 -13q-11 -27 -36.5 -43t-53.5 -18.5t-55 -1t-45 5.5zM344 -420q4 5 9.5 14.5t11 47.5t-0.5 84.5t-37.5 127.5t-88.5 173
q18 -434 106 -447zM479 774q-83 9 -213 -397q12 -88 51 -161.5t86 -65.5q24 5 50 71t39 129l14 64q14 83 16 151t-4.5 105t-15 62t-16.5 34zM102 766q4 7 14 24t19 28.5t23 23.5q-3 0 -7 0.5t-15 -2t-19 -9.5t-13 -23.5t-2 -41.5z" />
    <glyph glyph-name="q" unicode="q" horiz-adv-x="823" 
d="M924 578q11 -3 15 -12.5t3 -17.5l-2 -9q-24 -125 -92 -228q-37 -52 -89.5 -96t-109.5 -45l2 -4q62 -84 105.5 -163.5t63 -139.5t28.5 -113t6 -89.5t-8.5 -62.5t-11.5 -38l-7 -13q-11 -27 -36 -43t-53 -18.5t-54.5 -1t-43.5 5.5l-17 4q-48 15 -81.5 92.5t-49 199
t-20.5 248t-3 271.5q-111 -263 -225 -258q-62 4 -108 61t-66.5 142.5t-18 191.5t30.5 207q1 5 4 13.5t14 32.5t25 45.5t38 46.5t52 42t69 25t87 2q71 -8 121 -72l2 25q0 3 1 7.5t6.5 15.5t14.5 19.5t27.5 15t42.5 5.5q42 -3 65 -26q18 -22 15 -47q-17 -251 -17 -563
q10 2 41 18q136 76 203 297q1 4 2.5 9t9.5 13t19 5zM252 803q-4 -1 -9.5 -2t-20.5 -8t-25.5 -17t-18 -29.5t-4.5 -44.5q12 19 25.5 36.5t30 37.5t22.5 27zM477 551v20q-7 53 -21.5 100.5t-36.5 80.5t-46 32q-27 -1 -56 -69.5t-44 -136.5l-15 -68q-14 -85 -19 -156t-3 -112.5
t6.5 -70.5t9.5 -39l4 -11q90 6 221 430zM762 -420q4 5 9 14.5t10.5 47.5t-1 84.5t-38.5 127.5t-89 173q18 -434 109 -447z" />
    <glyph glyph-name="r" unicode="r" horiz-adv-x="665" 
d="M772 575q14 -4 18 -16.5t1 -23.5l-3 -11q-15 -57 -68.5 -102.5t-125.5 -44.5q-68 1 -112 38t-59 89t-20 103.5t-1 87.5l4 36q-49 -83 -96.5 -254t-55.5 -330q1 -12 4 -34t4 -33q3 -26 -12 -47q-22 -29 -62 -35q-34 -5 -62 10t-34 45q-34 169 -41 428q-4 168 19 338
q3 23 19.5 41.5t39.5 24.5q61 16 109 -15q35 -18 28 -63q-18 -95 -28 -219q-4 -58 -9 -125q100 405 230 405q30 0 52.5 -9t37 -26.5t23.5 -36.5t14 -48t7 -51t3 -56q2 -76 -25 -168q-6 -19 19 -27q40 -14 84 23q30 24 51 68q2 5 6 12.5t16 18.5t25 7zM100 786q35 48 78 66
q-3 1 -8 2t-18.5 0t-23.5 -6.5t-18.5 -21t-9.5 -40.5z" />
    <glyph glyph-name="s" unicode="s" horiz-adv-x="485" 
d="M393 16q-42 -50 -96 -72t-101 -16.5t-85.5 31t-53.5 66.5q-19 46 13 143.5t104 187.5q-44 70 -71.5 146t-33.5 116l-6 41q-7 46 5.5 85t35.5 62t46.5 39.5t41.5 22.5l17 6q4 2 11.5 4.5t29 5.5t40.5 1t41 -14.5t36 -36.5q26 -48 3 -106.5t-79 -113.5q6 -21 41 -114
q104 61 225 75q47 11 51 -16q4 -16 -5 -26.5t-19 -13.5l-11 -3q-144 -30 -215 -80q16 -38 23.5 -56.5t22 -59t20.5 -66t11.5 -63t2 -65t-14 -57.5t-30.5 -53zM111 694q3 18 14.5 44t22.5 42l10 17q-36 -11 -47.5 -37t-5.5 -46zM252 807q-2 -1 -4 -5.5t1 -36.5t19 -85
q42 47 29 96q-5 17 -16.5 25t-20.5 7zM213 299q-28 -40 -43.5 -84.5t-17.5 -79t0.5 -63.5t7.5 -44l4 -16q29 -10 57 3.5t41 32.5l14 18q13 22 10.5 52t-9 54.5t-20 52t-24 44t-20.5 30.5z" />
    <glyph glyph-name="t" unicode="t" horiz-adv-x="438" 
d="M258 0q-43 -4 -78 21.5t-58.5 77t-40.5 116t-26 149.5t-14 167.5t-4.5 179.5t2.5 175t6 165q-94 -4 -156 6q-8 2 -15 11.5t-7 21.5q-1 4 -2 10t3 15t15 7q77 -11 166 -8q7 133 12 193q3 51 52 67q70 20 118 -28q15 -12 15 -37q-1 -14 -3 -38.5t-5 -65t-5 -72.5
q165 15 259 0q20 -3 24 -33q0 -2 1 -4t1 -8.5t-1 -11t-5 -7.5t-12 -2q-99 15 -269 0q-8 -165 -12 -316t-4 -317t13.5 -267t39.5 -104q5 1 14 4.5t35.5 31.5t53 73t62.5 141t67 224q1 5 3 11.5t11.5 18t22.5 11.5q15 -1 20 -13.5t3 -24.5l-3 -12q-2 -11 -6 -29.5t-18.5 -72
t-31 -102t-43 -109t-55 -104.5t-67 -76t-78.5 -35zM92 1282q29 56 47 66h-6t-14.5 -3t-16 -9.5t-11 -19.5t0.5 -34z" />
    <glyph glyph-name="u" unicode="u" horiz-adv-x="862" 
d="M961 578q12 -2 16.5 -12t2.5 -20l-1 -9q-2 -11 -5.5 -31t-16 -76.5t-27 -108t-39.5 -113.5t-52 -106.5t-64.5 -74t-78.5 -27.5q-189 8 -209 424q-120 -414 -206 -424q-94 -13 -163 106.5t-67 292.5q2 176 35 414q3 20 16.5 34t32.5 19q66 17 117 -8q41 -20 31 -63
q-41 -240 -45 -377q-4 -131 10 -226.5t33 -103.5q10 -6 54.5 109t93.5 277.5t67 268.5q3 37 6 62q2 23 15.5 43t35.5 29q66 28 129 -15q13 -7 21 -22.5t6 -30.5q-13 -95 -22.5 -185.5t-20 -234.5t-0.5 -233.5t43 -92.5q4 1 12 5t32.5 32.5t49 74t59 142t66.5 224.5
q1 4 2.5 10.5t10 17t20.5 9.5zM115 778q26 48 59 64q-3 1 -7.5 1.5t-15.5 -1t-19 -7t-13.5 -20.5t-3.5 -37z" />
    <glyph glyph-name="v" unicode="v" horiz-adv-x="606" 
d="M274 4q-58 25 -101.5 99t-66.5 163.5t-36.5 198t-16.5 190t-2 152.5q0 47 45 67q63 31 131 -10q34 -21 31 -57q-3 -85 -4 -179.5t3 -227.5t23 -220t52 -90q4 3 11 8.5t26.5 29t37 53.5t37.5 83.5t33 116.5q-49 16 -77 67.5t-32 94.5l-3 43q-3 91 8 155.5t29 91.5t37 41
t33 14l13 -1q39 -4 62 -44t28 -95t4.5 -109t-5.5 -91l-5 -38q-2 -13 -12 -76q44 -10 41 -35q0 -28 -53 -28q-57 -242 -176 -351q-19 -17 -44.5 -21.5t-50.5 5.5zM442 600q0 -117 47 -149q1 13 3.5 36.5t3.5 36.5q6 265 -17 269q-4 -5 -10 -16t-16.5 -60t-10.5 -117zM84 768
q19 54 49 88q-3 0 -7 -1t-15 -5.5t-16.5 -13.5t-11.5 -26t1 -42z" />
    <glyph glyph-name="w" unicode="w" horiz-adv-x="952" 
d="M893 373q-26 -143 -81 -257t-97 -116q-66 -4 -135 43q-34 28 -43 66q-14 54 -24.5 155.5t-14.5 176.5l-4 75q-13 -86 -29 -164t-39 -161t-54.5 -135t-66.5 -56q-93 -13 -167.5 106.5t-82.5 292.5q-11 227 11 410q3 22 17 37t34 20q74 17 127 -10q36 -19 30 -61
q-28 -199 -26 -377q3 -145 18 -233.5t33 -96.5q12 -5 34.5 78.5t46.5 224t36 275.5q3 53 53 69q57 20 109 2q38 -9 45 -55q12 -153 39.5 -342t58.5 -223q1 -1 4.5 4t10 15.5t14.5 25.5t17.5 38t18.5 50t18.5 64t16.5 77q-107 55 -114 244q-6 206 59 246q11 7 20 6
q75 7 104 -98t19 -291q0 -2 -2 -24.5t-4 -33.5q15 -4 23.5 -7.5t16.5 -11t7 -18.5q0 -35 -57 -30zM791 608q3 -80 43 -131q0 15 2 23q1 11 2 30t1 68t-2.5 87.5t-11 73.5t-22.5 42q-2 -9 -4.5 -24.5t-6 -66t-1.5 -102.5zM92 764q19 43 60 80h-7.5t-15.5 -3.5t-19 -11
t-14 -24.5t-4 -41z" />
    <glyph glyph-name="x" unicode="x" horiz-adv-x="688" 
d="M795 578q12 -2 16 -12t2 -20l-2 -9q-2 -11 -5 -30t-14.5 -74t-25.5 -105.5t-38.5 -112t-51.5 -106.5t-65.5 -76t-80.5 -33q-163 -14 -311 190q-82 -105 -174 -182q-14 -11 -27 -4q-27 9 -34 45q-7 18 8 33q76 76 172 199l-23 45q-95 218 -149 446q-10 39 20 66
q60 55 131 43q42 -7 52 -50q49 -206 102 -358q120 196 186 393q1 7 9.5 13t17.5 6q35 0 61 -23q20 -20 9 -45q-93 -227 -240 -455q28 -65 59 -124t73 -113t69 -49q4 0 12 3.5t33 29.5t49.5 70t59.5 139t67 223q1 4 2.5 10.5t10 17t20.5 9.5zM35 743q8 52 31 93q-3 -1 -7 -3
t-14 -9.5t-15.5 -17t-5 -26.5t10.5 -37z" />
    <glyph glyph-name="y" unicode="y" horiz-adv-x="778" 
d="M893 571q8 -14 3.5 -26.5t-14.5 -21.5l-10 -9q-111 -86 -200 -172q-2 -164 -19 -300.5t-63 -259t-117 -171.5q-17 -10 -31 -10q-38 -2 -100 29t-96 87q-26 46 -10 95q80 226 264 442q6 92 6 268q-134 -425 -225 -434q-61 -8 -115 38.5t-85 132t-30 187.5q2 156 33 367
q5 21 19.5 36t35.5 19q67 13 113 -8q17 -7 25.5 -23.5t5.5 -35.5q-40 -190 -45 -338q-4 -118 10 -203.5t33 -93.5q10 -5 55.5 100.5t95 253.5t66.5 242q-4 46 -4 55q-3 34 26 47q32 17 72 13q39 -6 49 -46q28 -126 31 -401q80 71 170 137q1 1 3.5 2.5t9.5 5t13 5t13.5 -0.5
t11.5 -8zM113 774q26 50 59 66q-3 1 -7 1.5t-15 -1.5t-19 -8t-14 -21t-4 -37zM315 -279q140 19 177 418q-52 -71 -89.5 -140t-53.5 -117t-25 -86t-9 -56v-19z" />
    <glyph glyph-name="z" unicode="z" horiz-adv-x="624" 
d="M748 567q7 -14 1.5 -26t-15.5 -19l-11 -8q-107 -68 -197 -139q49 -79 54 -176q6 -122 -18.5 -226t-72.5 -177.5t-113.5 -123t-144.5 -71.5q-48 -2 -122.5 43t-96.5 127q1 11 4.5 30t23.5 78.5t50.5 120t94.5 146t147 163.5q-72 78 -193 119q-45 15 -65 66q-13 42 -15 63
q-3 17 6.5 30.5t26.5 16.5q119 19 250.5 50t128.5 42q-5 12 -59.5 22t-139.5 13q-99 3 -213 -16q-21 -3 -38 7t-23 30q-12 44 -6 79q3 36 41 43q165 19 262 13q106 -8 174 -65t55 -130q-12 -70 -278 -121q15 -4 40 -12t88 -43.5t107 -81.5q87 64 213 135q40 21 54 -2z
M18 805q6 12 23.5 24.5t32.5 19.5l14 7q-36 2 -53.5 -11t-16.5 -27v-13zM104 -279q7 1 18.5 3.5t44 15t62 30t65 51.5t59.5 76t39 106.5t11 141.5q-3 53 -26 101q-89 -86 -149.5 -171.5t-84 -146.5t-34 -109.5t-7.5 -72.5z" />
    <glyph glyph-name="exclamdown" unicode="&#xa1;" horiz-adv-x="276" 
d="M162 852q28 0 47 -20t18 -48q-2 -26 -23 -44t-50 -17q-28 0 -47.5 20t-18.5 48q2 26 23.5 44t50.5 17zM111 782q29 41 43 49q-2 -2 -12 0.5t-21.5 -10.5t-9.5 -39zM162 668q30 -3 43 -127q8 -96 4 -281q-5 -132 -6 -158q-3 -71 -6 -149q-4 -94 -4 -123q-3 -27 -3 -49v-35
v-53q0 -4 -1 -12.5t-1 -12.5q0 -14 -2 -22q-3 -41 -12 -68q-17 -51 -63 -51q-25 0 -41 63l-11 66q-1 6 -2 21t-2 22q0 31 -2 49q0 9 -1 27.5t-1 27.5v31v31q0 148 8 268q4 96 17 254q9 83 10 98q4 28 4 39q5 25 6 29q12 81 41 106z" />
    <glyph glyph-name="cent" unicode="&#xa2;" horiz-adv-x="667" 
d="M604 848q9 -23 12 -47q2 -14 2 -41q-3 -38 -24 -41q-6 -2 -14 2q-17 3 -31 29q-7 14 -17 47q-1 2 -6 13t-8 17q-6 19 -16 35q-15 25 -21 31q-8 10 -24 22q-5 5 -6 5q-4 4 -7 4v0q-15 6 -34 0q2 -14 2 -45v-50q0 -23 -0.5 -187.5t-3 -319.5t-9.5 -238q2 -1 6.5 -3t6.5 -3
q2 0 4 2q10 3 20 10q14 7 23 16q3 2 20 25q13 17 19 31l4 8l4 8q3 10 8 17q5 12 13.5 31.5t9.5 21.5q0 2 2 4q4 8 8 12q13 17 28 15q27 -3 37 -19q10 -20 -2 -49q-4 -22 -20 -59q-12 -27 -23 -43q-21 -29 -37 -43q-28 -24 -57 -33q-9 -4 -31 -8q-2 0 -6.5 -1t-7.5 -1h-12
q-19 0 -25 2q-3 -23 -10 -23l-5 1q-5 6 -9 22q-6 -2 -21 -2q-6 2 -14 2q-11 0 -17 2q-2 0 -7.5 1t-8.5 1q-2 1 -7.5 2t-8.5 2l-4 2h-7q-1 1 -4 2t-4 2q-2 0 -10 4q-2 0 -10 4q-3 0 -11 4q-1 1 -4.5 2t-5.5 2q-18 12 -22 15q-6 3 -11 8q-2 1 -6 4t-6 4l-10 10q-2 2 -6 5t-6 5
q-13 13 -39 52q-22 33 -31 59q-8 20 -20 66q-10 58 -11 69q-4 46 -4 72v37v35q4 97 12 145q10 79 35 145q18 42 35 66q9 18 21 33q4 4 12.5 13.5t13.5 14.5q35 31 64 45q32 19 69 29h6q2 2 9 2q1 0 4.5 1t5.5 1q6 2 24 2h3q3 35 12 35q15 0 24 -33h2q5 0 7 2h6h12
q6 -2 14 -2q4 0 4 -2h5q1 0 3.5 -1t4.5 -1h4q0 -2 4 -2q2 0 10 -4q21 -7 23 -8q24 -12 47 -35q22 -19 35 -45q16 -26 22 -49zM287 942q-3 0 -7.5 0.5t-16.5 -2t-21.5 -8t-19.5 -19.5t-13 -34zM352 102q2 0 4 -2v6q-6 70 -6.5 309t2.5 402q1 12 2 36.5t2 35.5
q-42 -38 -47 -49q-20 -20 -37 -58q-22 -50 -34 -112q-8 -62 -15 -148q0 -14 -1 -41.5t-1 -40.5v-78q4 -46 8 -73q4 -22 17 -66q15 -38 28 -53q10 -16 35 -41q17 -12 43 -27z" />
    <glyph glyph-name="sterling" unicode="&#xa3;" horiz-adv-x="749" 
d="M696 1130q2 -8 2 -26q3 -52 -6 -107q-7 -33 -14 -53q-8 -22 -25 -49q-15 -22 -37 -37q-21 -15 -43 -18q-19 -5 -36 -2q-22 4 -27 6q-21 12 -21 22v4q1 1 4 5t5 6l6 6q1 0 3 1t3 1q2 2 6 2q28 14 31 16q12 4 20 15q14 10 23 32l4 12t4 15q1 5 3 15.5t3 15.5q4 23 4 73
q0 6 -1 19.5t-1 19.5l-2 11v8q0 4 -2 8q0 4 -2 8q-7 34 -22 58q-9 16 -29 32v0v2q-10 8 -21.5 9.5t-22 -4.5t-20.5 -15t-20 -23t-18 -26t-16 -27.5t-12.5 -25t-8.5 -19.5q-2 -6 -9 -20q-17 -44 -30 -123q-14 -92 -17 -168q-2 -18 -2 -53q150 -8 152 -29q1 -2 0.5 -6
t-11.5 -11.5t-34 -11.5q-36 -4 -109 -4v-55q146 -4 152 -29q1 -2 0.5 -5t-12 -10t-35.5 -11q-23 -3 -107 -6v-13v-55q-1 -18 -2 -53.5t-2 -53.5q-6 -106 -18 -188q-2 -30 -13 -65h13q9 -3 16 -3q6 -2 18 -2q40 -3 78 -6q46 -4 66 -4q37 0 53 2h6q4 0 6 2h13q14 0 20 -2
q16 0 27 -14q0 -2 2 -4q2 -4 2 -17q0 -28 -39 -53q-1 -1 -5.5 -4t-8.5 -4q-4 -4 -9 -4q-8 -4 -12 -4q-29 -12 -55 -15q-20 -4 -66 -4q-12 0 -34 1t-33 1q-6 2 -17 2h-10l-8 2q-6 0 -17.5 1.5t-17.5 1.5q-60 6 -61 6q-36 4 -50 4h-20h-14l-2 -2h-7h-2h-4h-6q-12 0 -18 2h-11
q-8 4 -10 6q-18 9 -24 24q-2 4 -2 17q1 3 3 10t3 10q11 20 39 37q15 7 28 10q25 5 33 5q6 2 25 2q-4 24 -4 36q-3 29 -7 170q-2 74 -6 220q-75 5 -82 6q-51 2 -51 20q0 20 20 28.5t66 8.5q10 -2 45 -2v33v20q-51 3 -78 6q-49 5 -51 23q0 38 86 35h43q1 13 2 39t2 39
q6 118 29 217q10 45 31 102q4 8 11 24.5t11 24.5q19 34 27 43q20 28 33 41q2 2 7.5 8t8.5 9q3 2 9 7t9 7t9.5 6t9.5 6q8 4 10 6l4 2q1 1 3 2t3 2q4 0 9 5q6 0 10 4l18 6h6q2 2 7 2q2 0 5 1t5 1q20 3 47 0q1 0 3 -1t3 -1q26 -5 33 -8q17 -6 37 -19q32 -21 49 -43
q30 -33 47 -80q5 -15 14 -53v-8q0 -4 2 -6v-13zM401 1282q72 47 103 55q-3 1 -8 1.5t-19 0t-26.5 -5t-26.5 -17.5t-23 -34z" />
    <glyph glyph-name="dieresis" unicode="&#xa8;" horiz-adv-x="376" 
d="M102 1210q22 2 39.5 -12.5t18.5 -36.5q2 -22 -13 -38t-38 -17q-22 -2 -39.5 12.5t-18.5 36.5q-2 22 13 38t38 17zM82 1176q8 5 19.5 6.5t19.5 0.5l8 -1q-5 12 -23 12q-9 0 -15 -4.5t-7 -9.5zM268 1202q22 0 39.5 -14t18.5 -35q1 -22 -14 -37.5t-38 -17.5q-22 -2 -39 12
t-18 35q-2 22 13 39t38 18zM256 1167q8 5 19.5 6t19.5 -1l8 -1q-4 15 -24 15q-8 0 -13.5 -5t-7.5 -9z" />
    <glyph glyph-name="acute" unicode="&#xb4;" horiz-adv-x="296" 
d="M213 1247q15 4 27 -8q18 -18 -2 -55q-13 -23 -31 -37q-36 -23 -57 -31q-37 -15 -60 -12h-12q-2 1 -5 2t-5 2q-11 7 -13 14q-4 7 -4 15t2 12q4 8 8 14q2 2 11 7.5t14 9.5q4 2 39 22q72 40 76 41q6 4 12 4zM229 1206q6 13 0 23q-4 5 -11 5t-12 -2l-5 -3q11 0 18 -5.5
t9 -11.5z" />
    <glyph glyph-name="questiondown" unicode="&#xbf;" horiz-adv-x="731" 
d="M481 39q25 -7 43 -13.5t50.5 -24.5t53.5 -40t37.5 -59.5t16.5 -83.5q0 -59 -15 -107.5t-39.5 -79t-53.5 -54.5t-58 -36t-53.5 -19.5t-39.5 -9.5l-15 -1q-147 -5 -254 90t-103 243q2 73 46 172t86.5 163.5t114.5 163.5t79 110q77 119 72 186q0 14 12.5 19t21.5 -5
q35 -33 35 -109t-43 -165q-37 -75 -94.5 -168.5t-91.5 -149t-58 -135.5t-20 -164q0 -9 2 -23t14.5 -50.5t31.5 -64t59.5 -49t93.5 -19.5q7 0 18 1t39.5 11t50 28.5t38.5 59.5t15 98q-1 58 -31.5 94t-72.5 48q-47 12 -100 -2q-6 -2 -11.5 3.5t-5.5 12.5q8 69 74 119
q26 20 55 10zM389 782q2 28 22.5 46.5t49.5 17.5q29 0 48 -19.5t17 -46.5q0 -28 -21 -46.5t-50 -16.5q-29 0 -48.5 19.5t-17.5 45.5zM416 780q29 39 43 49q-2 -2 -12 0.5t-21.5 -10.5t-9.5 -39z" />
    <glyph glyph-name="Agrave" unicode="&#xc0;" horiz-adv-x="1069" 
d="M174 524q-34 18 -60 43t-35 41l-9 15q-18 42 -18 79t9.5 54.5t18.5 15.5q5 -1 6.5 -11t0.5 -20l-1 -10q11 -95 104 -135q41 171 108.5 317t144 242.5t157.5 152.5t154 62q47 4 81 -21t51 -68t26.5 -96t10 -106t-1 -97.5t-5.5 -72.5l-3 -28q-16 -123 -28 -273
q38 -6 63 -23.5t34.5 -37.5t12 -45.5t1 -39t-4.5 -26.5q-3 -9 -7 -12t-7.5 -1t-6.5 5.5t-5 6.5l-2 3q-6 48 -89 64q-29 -432 39 -439q4 1 12 5t33 32.5t50 74t59.5 142t65.5 224.5q1 4 2.5 10.5t10 17t21.5 9.5q11 -2 15.5 -12t3.5 -20l-2 -9q-2 -11 -5.5 -31t-16 -76
t-27 -107.5t-39.5 -113.5t-52 -106.5t-64.5 -74.5t-78.5 -28q-211 7 -219 506q-43 -2 -136.5 -11t-129.5 -12q-92 -8 -170 13q-14 -68 -23.5 -141.5t-12 -114t-5 -104t-2.5 -68.5q0 -3 -0.5 -7t-2.5 -15.5t-5.5 -20t-10.5 -16.5t-16 -9q-18 -3 -28.5 10.5t-11.5 27.5l-1 15
q-6 201 47 471zM782 1284q10 -49 -6 -96q3 2 7 6.5t12 17t11 24t-2 25t-22 23.5zM354 836q-57 -126 -90 -263q62 -12 150 -8q50 3 93.5 8t94 13t80.5 12q2 77 8 156.5t12 119.5l5 41q12 87 26 177q24 160 18 185q-2 8 -6 9q-12 3 -37.5 -6t-66.5 -40t-85.5 -79t-99 -133
t-102.5 -192zM848 1495q6 -6 10 -14q0 -2 1 -6.5t1 -6.5l-4 -14q-3 -8 -12 -14q-2 -1 -6.5 -2t-6.5 -2h-12q-22 -3 -59 12q-26 11 -55 31q-9 6 -16.5 15.5t-10.5 15.5l-4 6q-9 16 -9.5 30t3.5 20l4 5q12 12 24 8l13 -4q13 -4 75 -41q14 -8 39 -23q5 -3 10.5 -6.5t9 -5.5
t5.5 -4zM684 1548q5 6 15 6.5t17 -2.5l7 -2q-9 15 -25 15q-7 0 -10.5 -4.5t-3.5 -8.5v-4z" />
    <glyph glyph-name="Aacute" unicode="&#xc1;" horiz-adv-x="1069" 
d="M174 524q-34 18 -60 43t-35 41l-9 15q-18 42 -18 79t9.5 54.5t18.5 15.5q5 -1 6.5 -11t0.5 -20l-1 -10q11 -95 104 -135q41 171 108.5 317t144 242.5t157.5 152.5t154 62q47 4 81 -21t51 -68t26.5 -96t10 -106t-1 -97.5t-5.5 -72.5l-3 -28q-16 -123 -28 -273
q38 -6 63 -23.5t34.5 -37.5t12 -45.5t1 -39t-4.5 -26.5q-3 -9 -7 -12t-7.5 -1t-6.5 5.5t-5 6.5l-2 3q-6 48 -89 64q-29 -432 39 -439q4 1 12 5t33 32.5t50 74t59.5 142t65.5 224.5q1 4 2.5 10.5t10 17t21.5 9.5q11 -2 15.5 -12t3.5 -20l-2 -9q-2 -11 -5.5 -31t-16 -76
t-27 -107.5t-39.5 -113.5t-52 -106.5t-64.5 -74.5t-78.5 -28q-211 7 -219 506q-43 -2 -136.5 -11t-129.5 -12q-92 -8 -170 13q-14 -68 -23.5 -141.5t-12 -114t-5 -104t-2.5 -68.5q0 -3 -0.5 -7t-2.5 -15.5t-5.5 -20t-10.5 -16.5t-16 -9q-18 -3 -28.5 10.5t-11.5 27.5l-1 15
q-6 201 47 471zM782 1284q10 -49 -6 -96q3 2 7 6.5t12 17t11 24t-2 25t-22 23.5zM354 836q-57 -126 -90 -263q62 -12 150 -8q50 3 93.5 8t94 13t80.5 12q2 77 8 156.5t12 119.5l5 41q12 87 26 177q24 160 18 185q-2 8 -6 9q-12 3 -37.5 -6t-66.5 -40t-85.5 -79t-99 -133
t-102.5 -192zM846 1581q14 4 26 -8q18 -18 -2 -55q-12 -23 -30 -37q-35 -22 -58 -31q-36 -15 -59 -12h-12q-2 1 -5.5 2t-5.5 2q-9 6 -12 14q-4 6 -4 14q0 9 2 13q4 8 8 14q2 2 11 7t14 9q7 3 20.5 11.5t18.5 11.5q72 40 76 41q6 4 12 4zM862 1540q6 13 0 23q-4 5 -11 5
t-12 -2l-5 -3q11 0 18 -5.5t8 -11.5z" />
    <glyph glyph-name="Acircumflex" unicode="&#xc2;" horiz-adv-x="1069" 
d="M174 524q-34 18 -60 43t-35 41l-9 15q-18 42 -18 79t9.5 54.5t18.5 15.5q5 -1 6.5 -11t0.5 -20l-1 -10q11 -95 104 -135q41 171 108.5 317t144 242.5t157.5 152.5t154 62q47 4 81 -21t51 -68t26.5 -96t10 -106t-1 -97.5t-5.5 -72.5l-3 -28q-16 -123 -28 -273
q38 -6 63 -23.5t34.5 -37.5t12 -45.5t1 -39t-4.5 -26.5q-3 -9 -7 -12t-7.5 -1t-6.5 5.5t-5 6.5l-2 3q-6 48 -89 64q-29 -432 39 -439q4 1 12 5t33 32.5t50 74t59.5 142t65.5 224.5q1 4 2.5 10.5t10 17t21.5 9.5q11 -2 15.5 -12t3.5 -20l-2 -9q-2 -11 -5.5 -31t-16 -76
t-27 -107.5t-39.5 -113.5t-52 -106.5t-64.5 -74.5t-78.5 -28q-211 7 -219 506q-43 -2 -136.5 -11t-129.5 -12q-92 -8 -170 13q-14 -68 -23.5 -141.5t-12 -114t-5 -104t-2.5 -68.5q0 -3 -0.5 -7t-2.5 -15.5t-5.5 -20t-10.5 -16.5t-16 -9q-18 -3 -28.5 10.5t-11.5 27.5l-1 15
q-6 201 47 471zM782 1284q10 -49 -6 -96q3 2 7 6.5t12 17t11 24t-2 25t-22 23.5zM354 836q-57 -126 -90 -263q62 -12 150 -8q50 3 93.5 8t94 13t80.5 12q2 77 8 156.5t12 119.5l5 41q12 87 26 177q24 160 18 185q-2 8 -6 9q-12 3 -37.5 -6t-66.5 -40t-85.5 -79t-99 -133
t-102.5 -192zM635 1452v8q5 10 6 13q2 2 9.5 5.5t11.5 6.5q30 18 32 20q28 20 64 35q2 2 4 2q4 2 14 2q9 0 15 -2l2 -2q9 -4 30 -19.5t31 -21.5q4 -3 15.5 -10.5t15.5 -11.5q13 -7 20 -15q4 -8 4 -10v-10l-4 -10q-7 -6 -14 -9h-10h-11q-23 3 -51 17q-27 15 -45 30h-2
q-21 -17 -47 -26q-20 -10 -51 -14h-12q-1 0 -4.5 1t-4.5 1q-6 2 -14 10q-2 4 -4 10zM745 1516q15 3 29 2.5t24 -2.5l9 -3q-2 2 -5 4.5t-11 7t-15 3.5q-6 0 -14 -3t-12 -6z" />
    <glyph glyph-name="Atilde" unicode="&#xc3;" horiz-adv-x="1069" 
d="M174 524q-34 18 -60 43t-35 41l-9 15q-18 42 -18 79t9.5 54.5t18.5 15.5q5 -1 6.5 -11t0.5 -20l-1 -10q11 -95 104 -135q41 171 108.5 317t144 242.5t157.5 152.5t154 62q47 4 81 -21t51 -68t26.5 -96t10 -106t-1 -97.5t-5.5 -72.5l-3 -28q-16 -123 -28 -273
q38 -6 63 -23.5t34.5 -37.5t12 -45.5t1 -39t-4.5 -26.5q-3 -9 -7 -12t-7.5 -1t-6.5 5.5t-5 6.5l-2 3q-6 48 -89 64q-29 -432 39 -439q4 1 12 5t33 32.5t50 74t59.5 142t65.5 224.5q1 4 2.5 10.5t10 17t21.5 9.5q11 -2 15.5 -12t3.5 -20l-2 -9q-2 -11 -5.5 -31t-16 -76
t-27 -107.5t-39.5 -113.5t-52 -106.5t-64.5 -74.5t-78.5 -28q-211 7 -219 506q-43 -2 -136.5 -11t-129.5 -12q-92 -8 -170 13q-14 -68 -23.5 -141.5t-12 -114t-5 -104t-2.5 -68.5q0 -3 -0.5 -7t-2.5 -15.5t-5.5 -20t-10.5 -16.5t-16 -9q-18 -3 -28.5 10.5t-11.5 27.5l-1 15
q-6 201 47 471zM782 1284q10 -49 -6 -96q3 2 7 6.5t12 17t11 24t-2 25t-22 23.5zM354 836q-57 -126 -90 -263q62 -12 150 -8q50 3 93.5 8t94 13t80.5 12q2 77 8 156.5t12 119.5l5 41q12 87 26 177q24 160 18 185q-2 8 -6 9q-12 3 -37.5 -6t-66.5 -40t-85.5 -79t-99 -133
t-102.5 -192zM754 1513q19 7 40 10.5t45 2.5t41.5 -16t22.5 -42q9 -32 -14 -36q-9 -1 -21.5 12t-29.5 12q-4 0 -32 -8t-54 -12t-57 8.5t-48 46.5q-3 5 -7.5 13t-3.5 24t17 20q17 4 47.5 -20t53.5 -15zM653 1522q9 1 18 0t14 -2l5 -2q-10 14 -22 14q-6 0 -10 -2.5t-4 -5.5z
" />
    <glyph glyph-name="Adieresis" unicode="&#xc4;" horiz-adv-x="1069" 
d="M174 524q-34 18 -60 43t-35 41l-9 15q-18 42 -18 79t9.5 54.5t18.5 15.5q5 -1 6.5 -11t0.5 -20l-1 -10q11 -95 104 -135q41 171 108.5 317t144 242.5t157.5 152.5t154 62q47 4 81 -21t51 -68t26.5 -96t10 -106t-1 -97.5t-5.5 -72.5l-3 -28q-16 -123 -28 -273
q38 -6 63 -23.5t34.5 -37.5t12 -45.5t1 -39t-4.5 -26.5q-3 -9 -7 -12t-7.5 -1t-6.5 5.5t-5 6.5l-2 3q-6 48 -89 64q-29 -432 39 -439q4 1 12 5t33 32.5t50 74t59.5 142t65.5 224.5q1 4 2.5 10.5t10 17t21.5 9.5q11 -2 15.5 -12t3.5 -20l-2 -9q-2 -11 -5.5 -31t-16 -76
t-27 -107.5t-39.5 -113.5t-52 -106.5t-64.5 -74.5t-78.5 -28q-211 7 -219 506q-43 -2 -136.5 -11t-129.5 -12q-92 -8 -170 13q-14 -68 -23.5 -141.5t-12 -114t-5 -104t-2.5 -68.5q0 -3 -0.5 -7t-2.5 -15.5t-5.5 -20t-10.5 -16.5t-16 -9q-18 -3 -28.5 10.5t-11.5 27.5l-1 15
q-6 201 47 471zM782 1284q10 -49 -6 -96q3 2 7 6.5t12 17t11 24t-2 25t-22 23.5zM354 836q-57 -126 -90 -263q62 -12 150 -8q50 3 93.5 8t94 13t80.5 12q2 77 8 156.5t12 119.5l5 41q12 87 26 177q24 160 18 185q-2 8 -6 9q-12 3 -37.5 -6t-66.5 -40t-85.5 -79t-99 -133
t-102.5 -192zM711 1542q22 2 39 -12.5t18 -36.5q2 -22 -13 -38t-38 -17q-22 -2 -39.5 12.5t-18.5 36.5t14 37.5t38 17.5zM690 1507q8 5 20 6.5t20 0.5l7 -1q-4 13 -22 13q-9 0 -15 -5t-8 -9zM877 1534q22 0 39 -14t18 -35q2 -22 -13 -38t-38 -17q-22 -2 -39.5 12t-18.5 35
q-2 22 13.5 39t38.5 18zM864 1499q8 5 20 6t20 -1l7 -1q-4 15 -24 15q-8 0 -13.5 -5t-7.5 -9z" />
    <glyph glyph-name="Aring" unicode="&#xc5;" horiz-adv-x="1069" 
d="M174 524q-34 18 -60 43t-35 41l-9 15q-18 42 -18 79t9.5 54.5t18.5 15.5q5 -1 6.5 -11t0.5 -20l-1 -10q11 -95 104 -135q41 171 108.5 317t144 242.5t157.5 152.5t154 62q47 4 81 -21t51 -68t26.5 -96t10 -106t-1 -97.5t-5.5 -72.5l-3 -28q-16 -123 -28 -273
q38 -6 63 -23.5t34.5 -37.5t12 -45.5t1 -39t-4.5 -26.5q-3 -9 -7 -12t-7.5 -1t-6.5 5.5t-5 6.5l-2 3q-6 48 -89 64q-29 -432 39 -439q4 1 12 5t33 32.5t50 74t59.5 142t65.5 224.5q1 4 2.5 10.5t10 17t21.5 9.5q11 -2 15.5 -12t3.5 -20l-2 -9q-2 -11 -5.5 -31t-16 -76
t-27 -107.5t-39.5 -113.5t-52 -106.5t-64.5 -74.5t-78.5 -28q-211 7 -219 506q-43 -2 -136.5 -11t-129.5 -12q-92 -8 -170 13q-14 -68 -23.5 -141.5t-12 -114t-5 -104t-2.5 -68.5q0 -3 -0.5 -7t-2.5 -15.5t-5.5 -20t-10.5 -16.5t-16 -9q-18 -3 -28.5 10.5t-11.5 27.5l-1 15
q-6 201 47 471zM782 1284q10 -49 -6 -96q3 2 7 6.5t12 17t11 24t-2 25t-22 23.5zM354 836q-57 -126 -90 -263q62 -12 150 -8q50 3 93.5 8t94 13t80.5 12q2 77 8 156.5t12 119.5l5 41q12 87 26 177q24 160 18 185q-2 8 -6 9q-12 3 -37.5 -6t-66.5 -40t-85.5 -79t-99 -133
t-102.5 -192zM791 1559q26 0 44.5 -19t18.5 -45t-18.5 -43.5t-44.5 -17.5q-28 0 -47 17.5t-19 43.5t19 45t47 19zM793 1544q-8 1 -14.5 -1t-8.5 -5l-2 -2q13 1 24.5 0t17.5 -2l5 -2q-2 12 -22 12zM791 1470q11 0 18.5 7.5t7.5 17.5q0 11 -8 19t-18 8q-11 0 -19 -8t-8 -19
q0 -10 8 -17.5t19 -7.5z" />
    <glyph glyph-name="AE" unicode="&#xc6;" horiz-adv-x="1634" 
d="M416 483q-92 -8 -170 13q-14 -68 -23.5 -141.5t-12 -114t-5 -104t-2.5 -68.5q0 -3 -0.5 -7t-2.5 -15.5t-5.5 -20t-10.5 -16.5t-16 -9q-18 -3 -28.5 10.5t-11.5 27.5l-1 15q-6 201 47 471q-34 18 -60 43t-35 41l-9 15q-18 42 -18 79t9.5 54.5t18.5 15.5q5 -1 6.5 -11
t0.5 -20l-1 -10q11 -95 104 -135q41 171 108.5 317t144 242.5t157.5 152.5t154 62q64 6 101 -40t54 -126q34 48 78 83t81.5 52t70.5 26.5t52 10.5l19 2q4 -1 19 0t42.5 -8t43.5 -27q55 -55 6 -155q-20 -39 -56 -69t-84 -50t-88 -31.5t-92 -21.5q-13 -89 12.5 -158.5
t94.5 -89.5q8 2 20.5 3t42 -11t48.5 -41q7 -9 2.5 -19.5t-15.5 -13.5q-31 -8 -62 -19t-78 -37.5t-81.5 -59t-62 -87t-31.5 -118.5q-4 -62 7 -111.5t31 -79t45 -50.5t50.5 -29.5t47 -13t34.5 -3.5h14q7 0 19 1.5t47.5 11t69 25.5t77.5 51t80 82t68.5 123t50.5 169
q1 4 2.5 10.5t10.5 17t22 9.5q11 -2 15 -12t2 -20l-1 -9q-1 -11 -4 -30t-17 -73.5t-33.5 -104.5t-56 -111.5t-81.5 -106.5t-113.5 -77t-149.5 -34q-87 -3 -161 16q-31 -19 -66 -16q-143 5 -194 248q-14 42 -17 94q-8 106 -8 164q-43 -2 -136.5 -11t-129.5 -12zM1165 1343
q-37 2 -62 -15.5t-31 -35.5l-7 -18q14 16 39 33t43 27zM1067 1192q-19 -27 -39 -72q197 28 240 94q19 27 19.5 55.5t-9.5 35.5q-4 5 -13 7.5t-15 2.5h-7q-4 0 -10.5 -1t-27 -8t-40.5 -19t-47 -37t-51 -58zM905 815q-2 -16 -6.5 -61.5t-7.5 -73.5q28 20 56.5 35.5t43.5 21.5
l15 6q-17 3 -46 23t-55 49zM782 1284q10 -49 -6 -96q3 2 7 6.5t12 17t11 24t-2 25t-22 23.5zM354 836q-57 -126 -90 -263q62 -12 150 -8q50 3 93.5 8t94 13t80.5 12q2 77 8 156.5t12 119.5l5 41q12 87 26 177q24 160 18 185q-2 8 -6 9q-12 3 -37.5 -6t-66.5 -40t-85.5 -79
t-99 -133t-102.5 -192z" />
    <glyph glyph-name="Ccedilla" unicode="&#xc7;" horiz-adv-x="974" 
d="M90 850q-13 14 -22 29.5t-16 40t7 52.5t50 54q31 23 92 39.5t105.5 23t137.5 17.5q127 264 281 272q4 -1 19 0t42.5 -8t44.5 -27q54 -54 5 -155q-51 -104 -252 -158q-21 -68 -40 -146.5t-28 -122.5l-8 -44q-39 -257 1.5 -442.5t127.5 -196.5q7 0 18.5 1.5t47 11t69 25.5
t77.5 51t80 82t69 123t51 169l2.5 10t9.5 16.5t20 10.5q12 -1 16.5 -11t3.5 -20l-1 -10q-1 -10 -4 -27.5t-15.5 -69t-30 -99t-50.5 -107t-73.5 -105t-102.5 -81.5t-134 -46q3 -8 0 -16q0 -9 -2 -13q16 -22 14 -49q0 -6 -2 -10q0 -4 -3 -12.5t-13 -21t-25 -17.5
q-16 -4 -24 -4h-6q-24 3 -33 12q-16 16 -16 25q-4 13 -2 20q5 18 16 21q2 0 8 -3q8 0 14 -12q0 -4 2 -6v-2l3 -2q0 -12 6 -12q7 0 10 10l10 33v2q-1 0 -4 -1t-4 -1q-14 -2 -24.5 4t-10.5 16q-2 7 4 14q7 7 19 7q10 0 14 8l2 4v4q-81 -2 -144 25t-102 74.5t-63.5 112.5
t-33 136t-7 148.5t10.5 145.5t24 132q22 100 67 219q-69 -13 -116.5 -25t-97 -37.5t-62.5 -58.5q4 -20 -2 -26q-6 -4 -12 -3.5t-11 3.5zM621 1133q127 27 163 81q18 28 19 54.5t-10 34.5q-4 6 -11.5 9t-12.5 3h-5q-73 0 -143 -182zM700 1343q-37 2 -62 -15.5t-32 -35.5
l-6 -18q15 16 40 33t42 27z" />
    <glyph glyph-name="Egrave" unicode="&#xc8;" horiz-adv-x="985" 
d="M117 846q-6 -4 -12 -3.5t-11 3.5l-4 4q-13 14 -22 29.5t-16 40t7 52.5t50 54q59 44 258 70q10 26 14 32q33 68 80.5 119t91.5 75t84 38t64 16l24 2q4 -1 19 0t42.5 -8t44.5 -27q54 -54 5 -155q-19 -39 -54.5 -69t-83.5 -50t-88 -31.5t-92 -21.5q-13 -89 12.5 -158.5
t94.5 -89.5q8 2 20 3t41.5 -11t48.5 -41q6 -9 2 -19.5t-14 -13.5q-32 -8 -63.5 -19t-78 -37.5t-81.5 -59t-62 -87t-30 -118.5q-4 -62 7 -111.5t31 -79t45 -50.5t50.5 -29.5t47 -13t35.5 -3.5h13q7 0 18.5 1.5t47 11t69 25.5t77.5 51t80 82t69 123t51 169q1 4 2.5 10.5
t9.5 17t20 9.5q12 -2 16.5 -12t3.5 -20l-1 -9q-1 -11 -4 -30t-17.5 -73.5t-34 -104.5t-56 -111.5t-82 -106.5t-114 -77t-149.5 -34q-86 -2 -159 17t-123.5 53t-86.5 80t-52 98t-15 106.5t20 106.5q22 57 60.5 107.5t77.5 81t75 53t59 31.5l23 9q-18 4 -44.5 22.5t-55 48.5
t-50 75t-24.5 94q-200 -37 -229 -111q4 -20 -2 -26zM680 1343q-37 2 -62 -15.5t-32 -35.5l-6 -18q15 16 40 33t42 27zM584 1192q-26 -37 -39 -72q193 28 239 94q18 28 19 55.5t-10 35.5q-4 5 -12.5 7.5t-14.5 2.5h-6q-4 0 -10.5 -1t-27 -8t-40.5 -19t-47 -37t-51 -58z
M791 1489q6 -6 10 -14q0 -2 1 -6.5t1 -6.5l-4 -14q-2 -7 -13 -14q-2 -1 -6 -2t-6 -2h-12q-23 -3 -60 12q-26 11 -55 31q-9 6 -16.5 15t-10.5 15l-4 6q-9 16 -9.5 30t3.5 20l4 6q12 12 25 8l12 -4q16 -5 76 -41q14 -8 39 -23q5 -3 10.5 -6.5t9 -5.5t5.5 -4zM627 1542
q5 6 15 6.5t17 -2.5l7 -2q-9 15 -25 15q-7 0 -10.5 -4.5t-3.5 -8.5v-4z" />
    <glyph glyph-name="Eacute" unicode="&#xc9;" horiz-adv-x="985" 
d="M117 846q-6 -4 -12 -3.5t-11 3.5l-4 4q-13 14 -22 29.5t-16 40t7 52.5t50 54q59 44 258 70q10 26 14 32q33 68 80.5 119t91.5 75t84 38t64 16l24 2q4 -1 19 0t42.5 -8t44.5 -27q54 -54 5 -155q-19 -39 -54.5 -69t-83.5 -50t-88 -31.5t-92 -21.5q-13 -89 12.5 -158.5
t94.5 -89.5q8 2 20 3t41.5 -11t48.5 -41q6 -9 2 -19.5t-14 -13.5q-32 -8 -63.5 -19t-78 -37.5t-81.5 -59t-62 -87t-30 -118.5q-4 -62 7 -111.5t31 -79t45 -50.5t50.5 -29.5t47 -13t35.5 -3.5h13q7 0 18.5 1.5t47 11t69 25.5t77.5 51t80 82t69 123t51 169q1 4 2.5 10.5
t9.5 17t20 9.5q12 -2 16.5 -12t3.5 -20l-1 -9q-1 -11 -4 -30t-17.5 -73.5t-34 -104.5t-56 -111.5t-82 -106.5t-114 -77t-149.5 -34q-86 -2 -159 17t-123.5 53t-86.5 80t-52 98t-15 106.5t20 106.5q22 57 60.5 107.5t77.5 81t75 53t59 31.5l23 9q-18 4 -44.5 22.5t-55 48.5
t-50 75t-24.5 94q-200 -37 -229 -111q4 -20 -2 -26zM680 1343q-37 2 -62 -15.5t-32 -35.5l-6 -18q15 16 40 33t42 27zM584 1192q-26 -37 -39 -72q193 28 239 94q18 28 19 55.5t-10 35.5q-4 5 -12.5 7.5t-14.5 2.5h-6q-4 0 -10.5 -1t-27 -8t-40.5 -19t-47 -37t-51 -58z
M788 1579q15 4 27 -8q18 -18 -2 -55q-13 -23 -31 -37q-36 -23 -57 -31q-36 -15 -59 -12h-13q-2 1 -5 2t-5 2q-9 6 -12 14q-4 6 -4 14q0 9 2 13q4 8 8 14q2 2 11 7t14 9q7 3 19.5 11.5t18.5 11.5q72 40 76 41q6 4 12 4zM805 1538q6 13 0 23q-4 5 -11 5t-12 -2l-6 -3
q11 0 18.5 -5.5t9.5 -11.5z" />
    <glyph glyph-name="Ecircumflex" unicode="&#xca;" horiz-adv-x="985" 
d="M117 846q-6 -4 -12 -3.5t-11 3.5l-4 4q-13 14 -22 29.5t-16 40t7 52.5t50 54q59 44 258 70q10 26 14 32q33 68 80.5 119t91.5 75t84 38t64 16l24 2q4 -1 19 0t42.5 -8t44.5 -27q54 -54 5 -155q-19 -39 -54.5 -69t-83.5 -50t-88 -31.5t-92 -21.5q-13 -89 12.5 -158.5
t94.5 -89.5q8 2 20 3t41.5 -11t48.5 -41q6 -9 2 -19.5t-14 -13.5q-32 -8 -63.5 -19t-78 -37.5t-81.5 -59t-62 -87t-30 -118.5q-4 -62 7 -111.5t31 -79t45 -50.5t50.5 -29.5t47 -13t35.5 -3.5h13q7 0 18.5 1.5t47 11t69 25.5t77.5 51t80 82t69 123t51 169q1 4 2.5 10.5
t9.5 17t20 9.5q12 -2 16.5 -12t3.5 -20l-1 -9q-1 -11 -4 -30t-17.5 -73.5t-34 -104.5t-56 -111.5t-82 -106.5t-114 -77t-149.5 -34q-86 -2 -159 17t-123.5 53t-86.5 80t-52 98t-15 106.5t20 106.5q22 57 60.5 107.5t77.5 81t75 53t59 31.5l23 9q-18 4 -44.5 22.5t-55 48.5
t-50 75t-24.5 94q-200 -37 -229 -111q4 -20 -2 -26zM680 1343q-37 2 -62 -15.5t-32 -35.5l-6 -18q15 16 40 33t42 27zM584 1192q-26 -37 -39 -72q193 28 239 94q18 28 19 55.5t-10 35.5q-4 5 -12.5 7.5t-14.5 2.5h-6q-4 0 -10.5 -1t-27 -8t-40.5 -19t-47 -37t-51 -58z
M567 1466v9l6 12q2 2 9.5 5.5t11.5 6.5q30 18 33 21q26 18 63 34q2 2 4 2q6 3 15 3q5 0 14 -3l2 -2q9 -4 30 -19.5t31 -21.5q4 -3 15.5 -10.5t15.5 -11.5q17 -11 21 -14q4 -8 4 -11v-10l-4 -10q-4 -4 -15 -8h-10h-10q-25 3 -51 16q-23 13 -45 31h-2q-22 -18 -48 -27
q-20 -10 -51 -14h-12q-1 0 -4 1t-4 1q-8 2 -15 10q-2 4 -4 10zM678 1530q15 3 28.5 3t23.5 -3l9 -2l-4.5 4.5t-10.5 6.5t-15 3q-6 0 -14 -3t-13 -6z" />
    <glyph glyph-name="Edieresis" unicode="&#xcb;" horiz-adv-x="985" 
d="M117 846q-6 -4 -12 -3.5t-11 3.5l-4 4q-13 14 -22 29.5t-16 40t7 52.5t50 54q59 44 258 70q10 26 14 32q33 68 80.5 119t91.5 75t84 38t64 16l24 2q4 -1 19 0t42.5 -8t44.5 -27q54 -54 5 -155q-19 -39 -54.5 -69t-83.5 -50t-88 -31.5t-92 -21.5q-13 -89 12.5 -158.5
t94.5 -89.5q8 2 20 3t41.5 -11t48.5 -41q6 -9 2 -19.5t-14 -13.5q-32 -8 -63.5 -19t-78 -37.5t-81.5 -59t-62 -87t-30 -118.5q-4 -62 7 -111.5t31 -79t45 -50.5t50.5 -29.5t47 -13t35.5 -3.5h13q7 0 18.5 1.5t47 11t69 25.5t77.5 51t80 82t69 123t51 169q1 4 2.5 10.5
t9.5 17t20 9.5q12 -2 16.5 -12t3.5 -20l-1 -9q-1 -11 -4 -30t-17.5 -73.5t-34 -104.5t-56 -111.5t-82 -106.5t-114 -77t-149.5 -34q-86 -2 -159 17t-123.5 53t-86.5 80t-52 98t-15 106.5t20 106.5q22 57 60.5 107.5t77.5 81t75 53t59 31.5l23 9q-18 4 -44.5 22.5t-55 48.5
t-50 75t-24.5 94q-200 -37 -229 -111q4 -20 -2 -26zM680 1343q-37 2 -62 -15.5t-32 -35.5l-6 -18q15 16 40 33t42 27zM584 1192q-26 -37 -39 -72q193 28 239 94q18 28 19 55.5t-10 35.5q-4 5 -12.5 7.5t-14.5 2.5h-6q-4 0 -10.5 -1t-27 -8t-40.5 -19t-47 -37t-51 -58z
M645 1544q22 2 39 -12.5t18 -36.5q2 -22 -13 -38t-38 -17q-22 -2 -39 12.5t-18 36.5q-2 22 13 38t38 17zM625 1509q8 5 20 7t19 1l8 -1q-5 12 -23 12q-9 0 -15 -5t-8 -9zM811 1536q22 0 39 -14t18 -35q2 -22 -13 -38t-38 -17q-22 -2 -39 12t-18 35q-2 22 13 39t38 18z
M799 1501q8 5 19.5 6t19.5 -1l8 -1q-5 15 -25 15q-8 0 -13.5 -5t-7.5 -9z" />
    <glyph glyph-name="Igrave" unicode="&#xcc;" horiz-adv-x="600" 
d="M166 696q-29 1 -52.5 19t-32.5 35l-9 18q-25 74 -18 158t44 168t84.5 149.5t102 103t96.5 29.5q36 -7 64 -29.5t43.5 -53t24 -58.5t11.5 -57l2 -52q-14 -127 -18 -233q-2 -27 -4 -74.5t-5 -199t5 -283.5q4 -93 -5 -159.5t-28 -102t-46 -56.5t-59 -22.5t-67 0.5
q-14 2 -20.5 14.5t0.5 24.5q43 99 34 297q-5 105 -5.5 237.5t1.5 212.5l2 80q2 130 35 301q6 24 10.5 42.5t8 37t4 31.5t-0.5 23t-5 15t-11 5q-52 -17 -93 -75t-63 -131t-34 -149.5t-11 -137t11 -87.5q28 -16 18 -35q-6 -6 -14 -6zM399 1319q6 -47 -8 -94q3 2 7 6.5t12 17
t11 23.5t-1.5 24.5t-20.5 22.5zM465 1497q6 -6 10 -14q0 -2 1 -6.5t1 -6.5l-4 -14q-3 -8 -12 -14q-2 -1 -6 -2t-6 -2h-13q-22 -3 -59 12q-26 11 -55 31q-9 6 -16.5 15.5t-11.5 15.5l-3 6q-9 16 -9.5 30t3.5 20l4 5q12 12 24 8l13 -4q13 -4 75 -41q14 -8 39 -23
q5 -3 10.5 -6.5t9 -5.5t5.5 -4zM301 1550q5 6 15 6.5t17 -2.5l7 -2q-9 15 -25 15q-7 0 -10.5 -4.5t-3.5 -8.5v-4z" />
    <glyph glyph-name="Iacute" unicode="&#xcd;" horiz-adv-x="600" 
d="M166 696q-29 1 -52.5 19t-32.5 35l-9 18q-25 74 -18 158t44 168t84.5 149.5t102 103t96.5 29.5q36 -7 64 -29.5t43.5 -53t24 -58.5t11.5 -57l2 -52q-14 -127 -18 -233q-2 -27 -4 -74.5t-5 -199t5 -283.5q4 -93 -5 -159.5t-28 -102t-46 -56.5t-59 -22.5t-67 0.5
q-14 2 -20.5 14.5t0.5 24.5q43 99 34 297q-5 105 -5.5 237.5t1.5 212.5l2 80q2 130 35 301q6 24 10.5 42.5t8 37t4 31.5t-0.5 23t-5 15t-11 5q-52 -17 -93 -75t-63 -131t-34 -149.5t-11 -137t11 -87.5q28 -16 18 -35q-6 -6 -14 -6zM399 1319q6 -47 -8 -94q3 2 7 6.5t12 17
t11 23.5t-1.5 24.5t-20.5 22.5zM453 1579q14 4 26 -8q18 -18 -2 -55q-13 -23 -31 -37q-36 -23 -57 -31q-36 -15 -59 -12h-13q-2 1 -5 2t-5 2q-9 6 -12 14q-4 6 -4 14q0 9 2 13q4 8 8 14q2 2 11 7t14 9q7 3 20.5 11.5t18.5 11.5q10 5 27 15.5t28.5 16.5t19.5 9q7 4 13 4z
M469 1538q6 13 0 23q-4 5 -11 5t-12 -2l-6 -3q11 0 18.5 -5.5t9.5 -11.5z" />
    <glyph glyph-name="Icircumflex" unicode="&#xce;" horiz-adv-x="600" 
d="M166 696q-29 1 -52.5 19t-32.5 35l-9 18q-25 74 -18 158t44 168t84.5 149.5t102 103t96.5 29.5q36 -7 64 -29.5t43.5 -53t24 -58.5t11.5 -57l2 -52q-14 -127 -18 -233q-2 -27 -4 -74.5t-5 -199t5 -283.5q4 -93 -5 -159.5t-28 -102t-46 -56.5t-59 -22.5t-67 0.5
q-14 2 -20.5 14.5t0.5 24.5q43 99 34 297q-5 105 -5.5 237.5t1.5 212.5l2 80q2 130 35 301q6 24 10.5 42.5t8 37t4 31.5t-0.5 23t-5 15t-11 5q-52 -17 -93 -75t-63 -131t-34 -149.5t-11 -137t11 -87.5q28 -16 18 -35q-6 -6 -14 -6zM399 1319q6 -47 -8 -94q3 2 7 6.5t12 17
t11 23.5t-1.5 24.5t-20.5 22.5zM250 1466v9l6 12q2 2 9 5.5t11 6.5q30 18 33 21q25 17 64 34q2 2 4 2q6 3 14 3q6 0 15 -3l2 -2q9 -4 30 -19.5t31 -21.5q4 -3 15.5 -10.5t15.5 -11.5q15 -9 20 -14q4 -8 4 -11v-10l-4 -10q-5 -5 -14 -8h-10h-11q-25 3 -51 16q-23 13 -45 31
h-2q-23 -19 -47 -27q-20 -10 -51 -14h-13q-1 0 -4 1t-4 1q-6 2 -14 10q-2 4 -4 10zM360 1530q15 3 29 3t23 -3l10 -2q-2 2 -5 4.5t-11 6.5t-15 3q-6 0 -14 -3t-13 -6z" />
    <glyph glyph-name="Idieresis" unicode="&#xcf;" horiz-adv-x="600" 
d="M166 696q-29 1 -52.5 19t-32.5 35l-9 18q-25 74 -18 158t44 168t84.5 149.5t102 103t96.5 29.5q36 -7 64 -29.5t43.5 -53t24 -58.5t11.5 -57l2 -52q-14 -127 -18 -233q-2 -27 -4 -74.5t-5 -199t5 -283.5q4 -93 -5 -159.5t-28 -102t-46 -56.5t-59 -22.5t-67 0.5
q-14 2 -20.5 14.5t0.5 24.5q43 99 34 297q-5 105 -5.5 237.5t1.5 212.5l2 80q2 130 35 301q6 24 10.5 42.5t8 37t4 31.5t-0.5 23t-5 15t-11 5q-52 -17 -93 -75t-63 -131t-34 -149.5t-11 -137t11 -87.5q28 -16 18 -35q-6 -6 -14 -6zM399 1319q6 -47 -8 -94q3 2 7 6.5t12 17
t11 23.5t-1.5 24.5t-20.5 22.5zM338 1550q22 2 39 -12.5t18 -36.5q2 -22 -13 -38t-38 -17q-22 -2 -39 12.5t-18 36.5q-2 22 13 38t38 17zM317 1516q8 5 20 6.5t20 0.5l8 -1q-5 12 -23 12q-9 0 -15 -4.5t-8 -9.5zM504 1542q22 0 39 -14t18 -35q2 -22 -13 -38t-38 -17
q-22 -2 -39 12t-18 35q-2 22 13 39t38 18zM492 1507q8 5 19.5 6t19.5 -1l8 -1q-5 15 -25 15q-8 0 -13.5 -5t-6.5 -9z" />
    <glyph glyph-name="Ntilde" unicode="&#xd1;" horiz-adv-x="1236" 
d="M1333 575q12 -1 16.5 -11t2.5 -20l-2 -9q-2 -11 -5.5 -31t-16 -76t-27 -107.5t-39 -113.5t-51.5 -106.5t-64.5 -74.5t-77.5 -28q-67 3 -113.5 55t-68 133t-32.5 178.5t-8.5 194.5t7.5 176.5t12 129.5l6 50q13 87 27 177q32 163 14 192q-36 15 -74.5 -17t-86.5 -136.5
t-97 -280.5q-42 -149 -72 -339t-38.5 -287t-12.5 -171q1 -2 13 -20q6 -9 1 -19t-16 -12q-43 -8 -81.5 7t-59.5 52q-54 94 -71 212.5t-19 273.5q-3 146 14 317q10 130 52 281l11.5 34.5t13.5 44t9.5 40t1 35.5t-15.5 18q-130 -31 -199 -268q-59 -209 -26 -308q25 -18 16 -36
q-7 -7 -14 -7q-31 1 -56.5 24t-35.5 52q-25 64 -15.5 141.5t36.5 145.5t69 131q22 33 47.5 64t61 64.5t76 48.5t77.5 3q72 -23 101 -100t20 -158q-4 -34 -16.5 -112t-16.5 -117q-25 -256 -25 -375q-3 -52 0 -104q11 84 25 164.5t36 182t47 187.5t60 170t73.5 142t88.5 91
t105 27q47 -5 81 -35t51 -73.5t26.5 -95t10 -102t-1 -92t-5.5 -67.5l-3 -26l-27 -240q-51 -560 27 -576q4 1 12 5t33 32.5t49.5 74t59.5 142t67 224.5q0 4 1.5 10t10 15.5t21.5 8.5zM424 1225q3 2 7 6.5t12 17t11 23.5t-1.5 24.5t-20.5 22.5q6 -47 -8 -94zM692 1516
q19 7 40 10.5t45 2t42 -16.5t23 -42q8 -32 -15 -36q-9 -1 -21.5 12t-29.5 12q-4 0 -32 -8t-54 -12t-56.5 8.5t-47.5 46.5q-3 5 -7.5 13t-3.5 24t17 20q17 4 47 -19.5t53 -14.5zM592 1524q9 1 18 0t14 -2l5 -2q-11 14 -23 14q-6 0 -9.5 -2.5t-4.5 -5.5v-2z" />
    <glyph glyph-name="Ograve" unicode="&#xd2;" horiz-adv-x="927" 
d="M1063 524q-99 -157 -256 -221q-22 -65 -53.5 -117t-64.5 -83t-68.5 -53.5t-66 -32t-55 -14.5t-39.5 -5h-14q-76 6 -131.5 46t-82.5 89t-42.5 112t-18 100.5t-1.5 68.5q-38 46 -64 104.5t-36.5 109t-15.5 94t-4 68.5l1 25q7 107 32 195.5t58.5 145t75 100t78.5 65.5t72 36
t52 17.5t23 3.5h2q138 7 237 -100t142.5 -303.5t24.5 -450.5q-4 -51 -21 -143q117 57 195 166q4 6 10 12q19 23 31 16q11 -4 11 -17t-6 -24zM586 1266q0 2 0.5 4.5t0.5 11t-2.5 14.5t-7 14.5t-13.5 11.5t-22.5 4.5t-33.5 -5.5l17.5 -5t32 -17.5t28.5 -32.5zM465 70q6 0 12 1
t24.5 11t34.5 28t36.5 57.5t35.5 94.5q-53 -5 -137 2q-70 5 -135 31q8 -95 47.5 -155.5t79.5 -69.5h2zM653 555q25 371 -29 558t-169 198h-4q-8 -3 -19.5 -8.5t-38.5 -24.5t-51 -44t-54 -69.5t-52 -98t-39 -133t-21 -171.5q-10 -97 25 -199q38 97 123 182q30 23 61 23
q29 -2 62.5 -19t50.5 -49q3 -6 -1 -12t-12 -8q-19 -3 -34 -18q-102 -107 -115 -285q65 -38 145 -49q72 -8 144 -2q20 96 28 229zM588 1491q6 -6 10 -14q0 -2 1 -6.5t1 -6.5l-4 -14q-3 -8 -12 -14q-2 -1 -6.5 -2t-6.5 -2h-12q-22 -3 -59 12q-29 11 -56 31q-9 6 -16.5 15
t-10.5 15l-3 6q-9 16 -9.5 30t3.5 20l4 6q12 12 24 8l13 -4q13 -4 75 -41q14 -8 39 -23q5 -3 10.5 -6.5t9 -5.5t5.5 -4zM424 1544q5 6 15 6.5t17 -2.5l7 -2q-9 15 -25 15q-7 0 -10.5 -4.5t-3.5 -8.5v-4z" />
    <glyph glyph-name="Oacute" unicode="&#xd3;" horiz-adv-x="927" 
d="M1063 524q-99 -157 -256 -221q-22 -65 -53.5 -117t-64.5 -83t-68.5 -53.5t-66 -32t-55 -14.5t-39.5 -5h-14q-76 6 -131.5 46t-82.5 89t-42.5 112t-18 100.5t-1.5 68.5q-38 46 -64 104.5t-36.5 109t-15.5 94t-4 68.5l1 25q7 107 32 195.5t58.5 145t75 100t78.5 65.5t72 36
t52 17.5t23 3.5h2q138 7 237 -100t142.5 -303.5t24.5 -450.5q-4 -51 -21 -143q117 57 195 166q4 6 10 12q19 23 31 16q11 -4 11 -17t-6 -24zM586 1266q0 2 0.5 4.5t0.5 11t-2.5 14.5t-7 14.5t-13.5 11.5t-22.5 4.5t-33.5 -5.5l17.5 -5t32 -17.5t28.5 -32.5zM465 70q6 0 12 1
t24.5 11t34.5 28t36.5 57.5t35.5 94.5q-53 -5 -137 2q-70 5 -135 31q8 -95 47.5 -155.5t79.5 -69.5h2zM653 555q25 371 -29 558t-169 198h-4q-8 -3 -19.5 -8.5t-38.5 -24.5t-51 -44t-54 -69.5t-52 -98t-39 -133t-21 -171.5q-10 -97 25 -199q38 97 123 182q30 23 61 23
q29 -2 62.5 -19t50.5 -49q3 -6 -1 -12t-12 -8q-19 -3 -34 -18q-102 -107 -115 -285q65 -38 145 -49q72 -8 144 -2q20 96 28 229zM567 1573q15 4 27 -8q18 -19 -2 -56q-13 -22 -31 -36q-36 -23 -57 -31q-37 -15 -60 -12h-12q-2 1 -5 2t-5 2q-9 6 -12 14q-4 6 -4 14q0 9 2 13
q4 8 8 14q2 2 10.5 7t13.5 9q7 3 20.5 11.5t18.5 11.5q72 40 76 41q6 4 12 4zM584 1532q6 12 0 22q-4 5 -11 5t-13 -3l-5 -2q11 0 18.5 -5.5t8.5 -10.5z" />
    <glyph glyph-name="Ocircumflex" unicode="&#xd4;" horiz-adv-x="927" 
d="M1063 524q-99 -157 -256 -221q-22 -65 -53.5 -117t-64.5 -83t-68.5 -53.5t-66 -32t-55 -14.5t-39.5 -5h-14q-76 6 -131.5 46t-82.5 89t-42.5 112t-18 100.5t-1.5 68.5q-38 46 -64 104.5t-36.5 109t-15.5 94t-4 68.5l1 25q7 107 32 195.5t58.5 145t75 100t78.5 65.5t72 36
t52 17.5t23 3.5h2q138 7 237 -100t142.5 -303.5t24.5 -450.5q-4 -51 -21 -143q117 57 195 166q4 6 10 12q19 23 31 16q11 -4 11 -17t-6 -24zM586 1266q0 2 0.5 4.5t0.5 11t-2.5 14.5t-7 14.5t-13.5 11.5t-22.5 4.5t-33.5 -5.5l17.5 -5t32 -17.5t28.5 -32.5zM465 70q6 0 12 1
t24.5 11t34.5 28t36.5 57.5t35.5 94.5q-53 -5 -137 2q-70 5 -135 31q8 -95 47.5 -155.5t79.5 -69.5h2zM653 555q25 371 -29 558t-169 198h-4q-8 -3 -19.5 -8.5t-38.5 -24.5t-51 -44t-54 -69.5t-52 -98t-39 -133t-21 -171.5q-10 -97 25 -199q38 97 123 182q30 23 61 23
q29 -2 62.5 -19t50.5 -49q3 -6 -1 -12t-12 -8q-19 -3 -34 -18q-102 -107 -115 -285q65 -38 145 -49q72 -8 144 -2q20 96 28 229zM365 1460v8q5 10 6 13q2 2 9 5.5t11 6.5q33 19 33 20q30 21 63 35q3 2 5 2q4 2 14 2q8 0 14 -2l2 -2q9 -4 30.5 -19.5t31.5 -21.5q4 -3 15 -10
t15 -12q15 -9 21 -15q4 -8 4 -10v-10l-4 -10q-5 -5 -14 -8h-11h-10q-25 3 -51 16q-23 13 -45 31h-2q-23 -19 -47 -27q-20 -10 -52 -14h-12q-1 0 -4 1t-4 1q-6 2 -14 10q-2 4 -4 10zM475 1524q15 3 29 3t24 -3l9 -2q-2 2 -5 4.5t-11 6.5t-15 3q-6 0 -14 -3t-12 -6z" />
    <glyph glyph-name="Otilde" unicode="&#xd5;" horiz-adv-x="927" 
d="M1063 524q-99 -157 -256 -221q-22 -65 -53.5 -117t-64.5 -83t-68.5 -53.5t-66 -32t-55 -14.5t-39.5 -5h-14q-76 6 -131.5 46t-82.5 89t-42.5 112t-18 100.5t-1.5 68.5q-38 46 -64 104.5t-36.5 109t-15.5 94t-4 68.5l1 25q7 107 32 195.5t58.5 145t75 100t78.5 65.5t72 36
t52 17.5t23 3.5h2q138 7 237 -100t142.5 -303.5t24.5 -450.5q-4 -51 -21 -143q117 57 195 166q4 6 10 12q19 23 31 16q11 -4 11 -17t-6 -24zM586 1266q0 2 0.5 4.5t0.5 11t-2.5 14.5t-7 14.5t-13.5 11.5t-22.5 4.5t-33.5 -5.5l17.5 -5t32 -17.5t28.5 -32.5zM465 70q6 0 12 1
t24.5 11t34.5 28t36.5 57.5t35.5 94.5q-53 -5 -137 2q-70 5 -135 31q8 -95 47.5 -155.5t79.5 -69.5h2zM653 555q25 371 -29 558t-169 198h-4q-8 -3 -19.5 -8.5t-38.5 -24.5t-51 -44t-54 -69.5t-52 -98t-39 -133t-21 -171.5q-10 -97 25 -199q38 97 123 182q30 23 61 23
q29 -2 62.5 -19t50.5 -49q3 -6 -1 -12t-12 -8q-19 -3 -34 -18q-102 -107 -115 -285q65 -38 145 -49q72 -8 144 -2q20 96 28 229zM481 1513q19 7 40 10.5t45 2.5t42 -16t23 -42q8 -32 -15 -36q-9 -1 -21.5 12t-29.5 12q-4 0 -32 -8t-54 -12t-56.5 8.5t-47.5 46.5
q-3 5 -7.5 13t-3.5 24t17 20q17 4 47 -20t53 -15zM381 1522q9 1 18 0t14 -2l5 -2q-11 14 -23 14q-6 0 -9.5 -2.5t-3.5 -5.5z" />
    <glyph glyph-name="Odieresis" unicode="&#xd6;" horiz-adv-x="927" 
d="M1063 524q-99 -157 -256 -221q-22 -65 -53.5 -117t-64.5 -83t-68.5 -53.5t-66 -32t-55 -14.5t-39.5 -5h-14q-76 6 -131.5 46t-82.5 89t-42.5 112t-18 100.5t-1.5 68.5q-38 46 -64 104.5t-36.5 109t-15.5 94t-4 68.5l1 25q7 107 32 195.5t58.5 145t75 100t78.5 65.5t72 36
t52 17.5t23 3.5h2q138 7 237 -100t142.5 -303.5t24.5 -450.5q-4 -51 -21 -143q117 57 195 166q4 6 10 12q19 23 31 16q11 -4 11 -17t-6 -24zM586 1266q0 2 0.5 4.5t0.5 11t-2.5 14.5t-7 14.5t-13.5 11.5t-22.5 4.5t-33.5 -5.5l17.5 -5t32 -17.5t28.5 -32.5zM465 70q6 0 12 1
t24.5 11t34.5 28t36.5 57.5t35.5 94.5q-53 -5 -137 2q-70 5 -135 31q8 -95 47.5 -155.5t79.5 -69.5h2zM653 555q25 371 -29 558t-169 198h-4q-8 -3 -19.5 -8.5t-38.5 -24.5t-51 -44t-54 -69.5t-52 -98t-39 -133t-21 -171.5q-10 -97 25 -199q38 97 123 182q30 23 61 23
q29 -2 62.5 -19t50.5 -49q3 -6 -1 -12t-12 -8q-19 -3 -34 -18q-102 -107 -115 -285q65 -38 145 -49q72 -8 144 -2q20 96 28 229zM420 1546q22 2 39 -12.5t18 -36.5q2 -22 -13 -38t-38 -17q-22 -2 -39 12.5t-18 36.5q-2 22 13 38t38 17zM399 1511q8 5 19.5 7t19.5 1l8 -1
q-4 12 -22 12q-9 0 -15 -5t-8 -9zM586 1538q22 0 39 -14t18 -35q2 -22 -13 -38t-38 -17q-22 -2 -39 12t-18 35q-2 22 13 39t38 18zM573 1503q8 5 20 6t20 -1l8 -1q-5 15 -25 15q-8 0 -14 -5t-8 -9z" />
    <glyph glyph-name="multiply" unicode="&#xd7;" horiz-adv-x="319" 
d="M256 584q6 -5 10 -13q6 -18 -2 -32q-6 -12 -8 -15q-10 -10 -14 -16q-13 -13 -17 -19q1 -2 8 -9.5t9 -12.5q8 -10 16 -27q13 -23 0 -39q-4 -6 -12 -10q-16 -5 -33 2q-12 6 -14 8q-12 8 -19 15q-6 4 -18 16q-1 -1 -4 -3t-4 -3q-3 -2 -10.5 -8t-10.5 -8q-1 -1 -4 -3.5
t-4 -3.5q-4 -2 -8 -6q-7 -4 -15 -6q-18 -4 -28 4q-23 20 -23 35q0 17 21 35l14 14q1 1 5.5 7t8.5 8l-6 6q-4 8 -16 20q-1 1 -3 4t-3 4t-3 4.5t-3 4.5q-5 6 -7 12q-5 18 4 29q17 20 35 20q18 3 39 -18l15 -15l14 -14q20 15 22 16q16 12 27 15q27 13 41 2zM80 557
q7 4 18.5 7.5t19.5 5.5l7 1q-18 12 -28 9t-13 -13z" />
    <glyph glyph-name="Oslash" unicode="&#xd8;" horiz-adv-x="927" 
d="M170 414q-38 46 -64 104.5t-36.5 109t-15.5 94t-4 68.5l1 25q7 107 32 195.5t58.5 145t75 100t78.5 65.5t72 36t52 17.5t23 3.5h2q184 12 299 -184q0 6 35 70q14 26 28.5 43.5t20.5 13.5q21 -15 7 -76q-6 -28 -25 -78q-2 -4 -5 -12t-5 -12t-5.5 -13.5t-5.5 -13.5
q0 -2 -4 -10q91 -234 64 -582q-4 -51 -21 -143q117 57 195 166q4 6 10 12q19 23 31 16q10 -5 10 -18t-5 -23l-5 -10q-99 -157 -256 -221q-22 -65 -53.5 -117t-64.5 -83t-68.5 -53.5t-66 -32t-55 -14.5t-39.5 -5h-14q-63 6 -114 35q-19 -41 -33.5 -64.5t-21.5 -29.5t-13 -5
q-8 1 -8 17q0 35 27 119q-38 36 -63.5 88.5t-35 105t-12.5 88t-2 62.5zM176 762q-10 -97 25 -199q38 97 123 182q26 23 61 23q27 0 61.5 -18t51.5 -50q3 -6 -1 -12t-12 -8q-19 -3 -34 -18q-102 -107 -115 -285q48 -24 51 -25q4 10 102 260q61 148 123 295l15 35q2 5 7 15.5
t7 15.5q4 12 8 18q-42 308 -198 320q-8 -3 -19.5 -8.5t-38.5 -24.5t-51 -44t-54 -69.5t-52 -98t-39 -133t-21 -171.5zM461 332q3 -1 10 -2t10 -2q12 -3 25 -5t23.5 -2.5t25.5 0t23 1t24.5 2.5t22.5 2q20 96 28 229q11 178 9 262q-17 -35 -21 -51q-10 -31 -36 -89.5
t-32 -74.5q-93 -225 -112 -270zM379 145q39 -65 84 -75h2q6 0 12 1t24.5 11t34.5 28t36.5 57.5t35.5 94.5q-53 -5 -137 2q-6 1 -18.5 2t-18.5 2q-30 -71 -55 -123zM344 242q2 4 5 12t5 12q5 15 8 21q-17 3 -26 8q4 -35 8 -53z" />
    <glyph glyph-name="Ugrave" unicode="&#xd9;" horiz-adv-x="1236" 
d="M1067 -2q-148 -3 -195 364q-137 -349 -327 -362q-69 -5 -119 40.5t-75 121t-39 168.5t-14.5 187t2.5 171.5t8 126.5l5 49q10 130 52 281l11.5 34.5t13.5 44t9.5 40t1 35.5t-15.5 18q-129 -30 -199 -266q-59 -211 -26 -310q26 -18 16 -34q-6 -9 -14 -9q-30 1 -56 24.5
t-36 51.5q-26 64 -16 142t37 146t69 132q22 33 47.5 64t61 64.5t76 48.5t77.5 3q50 -15 80 -62t38.5 -97t2.5 -99q-4 -36 -16.5 -113t-16.5 -116l-21 -206q-43 -523 38 -598q12 -10 26 -11q10 0 27.5 6t63.5 57.5t84.5 140t77.5 282t56 456.5q10 199 25 332q2 14 12 22.5
t23 7.5q79 -2 120 -25.5t37 -88.5l-27 -356q-53 -825 25 -843q4 1 12 5t33 32.5t49.5 74t59 142t65.5 224.5l2.5 10t10.5 15.5t22 8.5q11 -1 15.5 -11t3.5 -20l-2 -9q-2 -11 -5.5 -30.5t-16 -74.5t-27 -105.5t-39 -112.5t-51.5 -106.5t-64.5 -75.5t-77.5 -32zM422 1221l7 7
t12 17t11 24t-1.5 24t-20.5 22q6 -47 -8 -94zM801 1491q6 -6 10 -14q0 -2 1 -6.5t1 -6.5l-4 -14q-3 -8 -12 -14q-2 -1 -6.5 -2t-6.5 -2h-12q-22 -3 -59 12q-29 11 -56 31q-9 6 -16.5 15t-10.5 15l-3 6q-9 16 -9.5 30t3.5 20l4 6q12 12 24 8l13 -4q13 -4 75 -41q14 -8 39 -23
q5 -3 10.5 -6.5t9 -5.5t5.5 -4zM637 1544q5 6 15 6.5t17 -2.5l7 -2q-9 15 -25 15q-7 0 -10.5 -4.5t-3.5 -8.5v-4z" />
    <glyph glyph-name="Uacute" unicode="&#xda;" horiz-adv-x="1236" 
d="M1067 -2q-148 -3 -195 364q-137 -349 -327 -362q-69 -5 -119 40.5t-75 121t-39 168.5t-14.5 187t2.5 171.5t8 126.5l5 49q10 130 52 281l11.5 34.5t13.5 44t9.5 40t1 35.5t-15.5 18q-129 -30 -199 -266q-59 -211 -26 -310q26 -18 16 -34q-6 -9 -14 -9q-30 1 -56 24.5
t-36 51.5q-26 64 -16 142t37 146t69 132q22 33 47.5 64t61 64.5t76 48.5t77.5 3q50 -15 80 -62t38.5 -97t2.5 -99q-4 -36 -16.5 -113t-16.5 -116l-21 -206q-43 -523 38 -598q12 -10 26 -11q10 0 27.5 6t63.5 57.5t84.5 140t77.5 282t56 456.5q10 199 25 332q2 14 12 22.5
t23 7.5q79 -2 120 -25.5t37 -88.5l-27 -356q-53 -825 25 -843q4 1 12 5t33 32.5t49.5 74t59 142t65.5 224.5l2.5 10t10.5 15.5t22 8.5q11 -1 15.5 -11t3.5 -20l-2 -9q-2 -11 -5.5 -30.5t-16 -74.5t-27 -105.5t-39 -112.5t-51.5 -106.5t-64.5 -75.5t-77.5 -32zM422 1221l7 7
t12 17t11 24t-1.5 24t-20.5 22q6 -47 -8 -94zM770 1581q15 4 27 -8q18 -18 -2 -55q-13 -23 -31 -37q-36 -23 -57 -31q-37 -15 -60 -12h-12q-2 1 -5 2t-5 2q-11 7 -13 14q-4 6 -4 14q0 9 2 13q4 8 8 14q2 2 11 7t14 9q7 3 20.5 11.5t18.5 11.5q72 40 76 41q6 4 12 4z
M786 1540q6 13 0 23q-4 5 -11 5t-12 -2l-5 -3q11 0 18 -5.5t8 -11.5z" />
    <glyph glyph-name="Ucircumflex" unicode="&#xdb;" horiz-adv-x="1236" 
d="M1067 -2q-148 -3 -195 364q-137 -349 -327 -362q-69 -5 -119 40.5t-75 121t-39 168.5t-14.5 187t2.5 171.5t8 126.5l5 49q10 130 52 281l11.5 34.5t13.5 44t9.5 40t1 35.5t-15.5 18q-129 -30 -199 -266q-59 -211 -26 -310q26 -18 16 -34q-6 -9 -14 -9q-30 1 -56 24.5
t-36 51.5q-26 64 -16 142t37 146t69 132q22 33 47.5 64t61 64.5t76 48.5t77.5 3q50 -15 80 -62t38.5 -97t2.5 -99q-4 -36 -16.5 -113t-16.5 -116l-21 -206q-43 -523 38 -598q12 -10 26 -11q10 0 27.5 6t63.5 57.5t84.5 140t77.5 282t56 456.5q10 199 25 332q2 14 12 22.5
t23 7.5q79 -2 120 -25.5t37 -88.5l-27 -356q-53 -825 25 -843q4 1 12 5t33 32.5t49.5 74t59 142t65.5 224.5l2.5 10t10.5 15.5t22 8.5q11 -1 15.5 -11t3.5 -20l-2 -9q-2 -11 -5.5 -30.5t-16 -74.5t-27 -105.5t-39 -112.5t-51.5 -106.5t-64.5 -75.5t-77.5 -32zM422 1221l7 7
t12 17t11 24t-1.5 24t-20.5 22q6 -47 -8 -94zM586 1462v8q5 10 6 13q2 2 9 5.5t11 6.5q30 18 33 21q25 17 64 34q2 2 4 2q4 2 14 2q8 0 14 -2l2 -2q9 -4 30.5 -19.5t31.5 -21.5q4 -3 15.5 -10.5t15.5 -11.5q15 -9 20 -14q4 -8 4 -11v-10l-4 -10q-5 -5 -14 -8h-11h-10
q-25 3 -51 16q-23 13 -45 31h-2q-23 -19 -47 -27q-20 -10 -51 -14h-13q-1 0 -4 1t-4 1q-6 2 -14 10q-2 4 -4 10zM696 1526q15 3 29 3t23 -3l10 -2q-2 2 -5 4.5t-11 6.5t-15 3q-6 0 -14 -3t-13 -6z" />
    <glyph glyph-name="Udieresis" unicode="&#xdc;" horiz-adv-x="1236" 
d="M1067 -2q-148 -3 -195 364q-137 -349 -327 -362q-69 -5 -119 40.5t-75 121t-39 168.5t-14.5 187t2.5 171.5t8 126.5l5 49q10 130 52 281l11.5 34.5t13.5 44t9.5 40t1 35.5t-15.5 18q-129 -30 -199 -266q-59 -211 -26 -310q26 -18 16 -34q-6 -9 -14 -9q-30 1 -56 24.5
t-36 51.5q-26 64 -16 142t37 146t69 132q22 33 47.5 64t61 64.5t76 48.5t77.5 3q50 -15 80 -62t38.5 -97t2.5 -99q-4 -36 -16.5 -113t-16.5 -116l-21 -206q-43 -523 38 -598q12 -10 26 -11q10 0 27.5 6t63.5 57.5t84.5 140t77.5 282t56 456.5q10 199 25 332q2 14 12 22.5
t23 7.5q79 -2 120 -25.5t37 -88.5l-27 -356q-53 -825 25 -843q4 1 12 5t33 32.5t49.5 74t59 142t65.5 224.5l2.5 10t10.5 15.5t22 8.5q11 -1 15.5 -11t3.5 -20l-2 -9q-2 -11 -5.5 -30.5t-16 -74.5t-27 -105.5t-39 -112.5t-51.5 -106.5t-64.5 -75.5t-77.5 -32zM422 1221l7 7
t12 17t11 24t-1.5 24t-20.5 22q6 -47 -8 -94zM629 1544q22 2 39 -12.5t18 -36.5q2 -22 -13 -38t-38 -17q-22 -2 -39 12.5t-18 36.5q-2 22 13 38t38 17zM608 1509q8 5 20 7t20 1l7 -1q-4 12 -22 12q-9 0 -15 -5t-8 -9zM795 1536q22 0 39 -14t18 -35q2 -22 -13 -38t-38 -17
q-22 -2 -39.5 12t-18.5 35q-2 22 13.5 39t38.5 18zM782 1501q8 5 20 6t20 -1l7 -1q-4 15 -24 15q-8 0 -13.5 -5t-7.5 -9z" />
    <glyph glyph-name="Yacute" unicode="&#xdd;" horiz-adv-x="1161" 
d="M467 -47q7 91 110.5 231t260.5 244q1 20 4 58.5t4 56.5q-119 -218 -295 -226q-63 -3 -110.5 25t-72.5 75.5t-41 105t-19 116t-3 106.5t3 79l3 30q15 149 54 291l11.5 34.5t13.5 44t9.5 40t1 35.5t-15.5 18q-129 -30 -199 -266q-59 -211 -26 -310q26 -18 16 -34
q-6 -9 -14 -9q-30 1 -56 24.5t-36 51.5q-26 64 -16 142t37 146t69 132q22 33 47.5 64t61 64.5t76 48.5t77.5 3q50 -15 80 -62t38.5 -97t2.5 -99q-4 -36 -16.5 -113t-16.5 -116l-13 -144q-20 -340 59 -354h3q6 0 15.5 1.5t38 13.5t55 32.5t60 66.5t59.5 108t47 163t28 225
q4 96 11.5 190t12.5 141l5 46q36 1 61.5 -1t52 -8.5t42 -18.5t25 -34t7.5 -52q-16 -183 -30 -406q4 -140 -2 -326q113 42 229 48q5 0 13.5 -0.5t22.5 -8.5t15 -24q0 -15 -12.5 -23.5t-25.5 -9.5l-13 -2q-127 -15 -234 -59q-10 -164 -31 -302t-60 -271t-108 -195t-161 -31
q-9 4 -24.5 11.5t-54 34.5t-67.5 58.5t-51 84.5t-18 112zM641 -227q38 -6 70 39t54 129.5t37.5 180.5t26.5 212q-134 -101 -206.5 -233t-64.5 -225t83 -103zM420 1221l7 7t12 17t11 24t-1.5 24t-20.5 22q6 -47 -8 -94zM786 1591q15 4 27 -8q18 -18 -2 -55q-13 -23 -31 -37
q-36 -23 -57 -31q-36 -15 -59 -12h-13q-2 1 -5 2t-5 2q-9 6 -12 14q-4 7 -4 15t2 12q4 8 8 14q2 2 10.5 7.5t13.5 9.5q4 2 39 22q72 40 76 41q6 4 12 4zM803 1550q6 13 0 23q-4 5 -11 5t-12 -2l-6 -3q11 0 18.5 -5.5t9.5 -11.5z" />
    <glyph glyph-name="germandbls" unicode="&#xdf;" horiz-adv-x="878" 
d="M137 -2q-34 0 -53.5 51t-21.5 103l-3 51q-11 353 -8 796q0 8 0.5 21.5t6.5 52t16 74t32 79t51.5 74.5t78 53t108.5 23q71 1 125.5 -21t84.5 -58t49.5 -80t25 -88.5t6.5 -81t-1 -59.5l-3 -23l-1 -7q-2 -8 -4 -17.5t-6 -24.5t-8.5 -31t-12.5 -35t-17 -37.5t-21.5 -38.5
t-27 -38t-33 -36t-39.5 -32q8 1 22 2t53.5 -1.5t75 -10.5t78.5 -29.5t73 -54t49 -88.5t15 -128q-9 -195 -180 -299q-47 -29 -96 -43.5t-75 -13.5h-25q-7 0 -18 0.5t-39.5 8.5t-50.5 23.5t-41 49.5t-21 82v7.5t1 16.5t4 21t10.5 16.5t18.5 8.5q17 1 25.5 -17t11.5 -44t6 -32
q14 -32 37 -42t45.5 -1.5t43 21t33.5 25.5l13 12q52 49 79 105.5t29 102t-3.5 84.5t-14.5 60l-10 22q-19 30 -49 40.5t-63 2t-58 -20t-49 -26.5q-25 -15 -52 -7t-40 34q-9 21 -18 47q-4 11 6 21q22 20 45 51t56 87t55 138.5t24 175.5q-2 2 0.5 23.5t-4 55.5t-16 65.5t-35 54
t-62.5 20.5q-31 -1 -53 -32.5t-32 -75.5t-16 -88t-7 -74v-31q-17 -527 -17 -788q0 -8 -0.5 -22t-5 -50t-12.5 -63t-26.5 -49.5t-43.5 -22.5zM217 1303q-29 1 -47 -20.5t-22 -43.5l-3 -22q45 62 72 86z" />
    <glyph glyph-name="agrave" unicode="&#xe0;" horiz-adv-x="864" 
d="M696 0q-62 3 -106.5 52t-65.5 120t-30 166q-22 -64 -46 -117.5t-56 -108t-70.5 -85t-77.5 -27.5q-62 4 -108 63t-66.5 149.5t-18 203.5t30.5 221q3 10 8.5 27t28.5 58.5t52.5 71.5t83 50.5t116.5 11.5q77 -10 129 -88q4 40 4 51q3 21 17 37.5t34 22.5q60 17 102 -5
q23 -10 34.5 -33t8.5 -50q-11 -89 -19.5 -179.5t-17.5 -229.5t2 -227.5t44 -91.5q4 1 12 5t32.5 32.5t49 74t59 142t66.5 224.5q1 4 2.5 10.5t10 17t20.5 9.5q12 -2 16.5 -12t2.5 -20l-1 -9q-2 -11 -5.5 -31t-16 -76.5t-27 -108t-39.5 -113.5t-52 -106.5t-64.5 -74
t-78.5 -27.5zM272 805q-3 0 -8.5 0.5t-20 -1.5t-26 -8t-21 -20.5t-10.5 -36.5q63 60 86 66zM256 76q31 3 67.5 59.5t69 145t51.5 146.5t35 116q-8 58 -22 110.5t-36.5 90t-47.5 36.5q-27 -1 -56 -73.5t-44 -144.5l-15 -73q-14 -91 -19 -167t-3 -119.5t6.5 -74t9.5 -41.5z
M528 1001q8 -8 11 -14q0 -2 1 -6t1 -6l-4 -14q-3 -8 -13 -15q-2 -1 -6 -2t-6 -2h-12q-23 -3 -60 12q-26 11 -55 31q-9 6 -16.5 15.5t-10.5 15.5l-4 6q-9 16 -9.5 30t3.5 20l4 5q12 12 25 8l12 -4q16 -5 76 -41q5 -3 19 -11t20 -11q21 -14 24 -17zM365 1055q5 6 14.5 6.5
t16.5 -1.5l7 -3q-8 14 -24 14q-7 0 -10.5 -4t-3.5 -8v-4z" />
    <glyph glyph-name="aacute" unicode="&#xe1;" horiz-adv-x="864" 
d="M696 0q-62 3 -106.5 52t-65.5 120t-30 166q-22 -64 -46 -117.5t-56 -108t-70.5 -85t-77.5 -27.5q-62 4 -108 63t-66.5 149.5t-18 203.5t30.5 221q3 10 8.5 27t28.5 58.5t52.5 71.5t83 50.5t116.5 11.5q77 -10 129 -88q4 40 4 51q3 21 17 37.5t34 22.5q60 17 102 -5
q23 -10 34.5 -33t8.5 -50q-11 -89 -19.5 -179.5t-17.5 -229.5t2 -227.5t44 -91.5q4 1 12 5t32.5 32.5t49 74t59 142t66.5 224.5q1 4 2.5 10.5t10 17t20.5 9.5q12 -2 16.5 -12t2.5 -20l-1 -9q-2 -11 -5.5 -31t-16 -76.5t-27 -108t-39.5 -113.5t-52 -106.5t-64.5 -74
t-78.5 -27.5zM272 805q-3 0 -8.5 0.5t-20 -1.5t-26 -8t-21 -20.5t-10.5 -36.5q63 60 86 66zM256 76q31 3 67.5 59.5t69 145t51.5 146.5t35 116q-8 58 -22 110.5t-36.5 90t-47.5 36.5q-27 -1 -56 -73.5t-44 -144.5l-15 -73q-14 -91 -19 -167t-3 -119.5t6.5 -74t9.5 -41.5z
M518 1083q15 4 27 -8q18 -18 -2 -55q-13 -23 -31 -37q-36 -23 -57 -31q-37 -15 -60 -12h-12q-2 1 -5 2t-5 2q-11 7 -13 14q-4 7 -4 15t2 12q1 2 9 14q2 2 10.5 7.5t13.5 9.5q4 2 39 22q72 40 76 41q6 4 12 4zM535 1042q6 13 0 23q-4 5 -11 5t-12 -2l-6 -3q11 0 18.5 -5.5
t9.5 -11.5z" />
    <glyph glyph-name="acircumflex" unicode="&#xe2;" horiz-adv-x="864" 
d="M696 0q-62 3 -106.5 52t-65.5 120t-30 166q-22 -64 -46 -117.5t-56 -108t-70.5 -85t-77.5 -27.5q-62 4 -108 63t-66.5 149.5t-18 203.5t30.5 221q3 10 8.5 27t28.5 58.5t52.5 71.5t83 50.5t116.5 11.5q77 -10 129 -88q4 40 4 51q3 21 17 37.5t34 22.5q60 17 102 -5
q23 -10 34.5 -33t8.5 -50q-11 -89 -19.5 -179.5t-17.5 -229.5t2 -227.5t44 -91.5q4 1 12 5t32.5 32.5t49 74t59 142t66.5 224.5q1 4 2.5 10.5t10 17t20.5 9.5q12 -2 16.5 -12t2.5 -20l-1 -9q-2 -11 -5.5 -31t-16 -76.5t-27 -108t-39.5 -113.5t-52 -106.5t-64.5 -74
t-78.5 -27.5zM272 805q-3 0 -8.5 0.5t-20 -1.5t-26 -8t-21 -20.5t-10.5 -36.5q63 60 86 66zM256 76q31 3 67.5 59.5t69 145t51.5 146.5t35 116q-8 58 -22 110.5t-36.5 90t-47.5 36.5q-27 -1 -56 -73.5t-44 -144.5l-15 -73q-14 -91 -19 -167t-3 -119.5t6.5 -74t9.5 -41.5z
M303 993v8q5 10 6 13q2 2 9.5 5.5t11.5 6.5q28 16 32 21q25 17 64 34q2 2 4 2q4 2 14 2q9 0 15 -2l2 -2q9 -4 30 -19.5t31 -21.5q4 -3 15.5 -10.5t15.5 -11.5q15 -9 20 -14q5 -10 5 -11v-10l-5 -10q-5 -5 -14 -8h-10h-10q-27 3 -52 16q-23 13 -45 31h-2q-23 -19 -47 -27
q-20 -10 -51 -14h-12q-1 0 -4 1t-4 1q-7 3 -15 10q-2 4 -4 10zM414 1057q15 3 28.5 3t23.5 -2l9 -3q-2 2 -5 4.5t-11 6.5t-15 3q-6 0 -13.5 -3t-12.5 -6z" />
    <glyph glyph-name="atilde" unicode="&#xe3;" horiz-adv-x="864" 
d="M696 0q-62 3 -106.5 52t-65.5 120t-30 166q-22 -64 -46 -117.5t-56 -108t-70.5 -85t-77.5 -27.5q-62 4 -108 63t-66.5 149.5t-18 203.5t30.5 221q3 10 8.5 27t28.5 58.5t52.5 71.5t83 50.5t116.5 11.5q77 -10 129 -88q4 40 4 51q3 21 17 37.5t34 22.5q60 17 102 -5
q23 -10 34.5 -33t8.5 -50q-11 -89 -19.5 -179.5t-17.5 -229.5t2 -227.5t44 -91.5q4 1 12 5t32.5 32.5t49 74t59 142t66.5 224.5q1 4 2.5 10.5t10 17t20.5 9.5q12 -2 16.5 -12t2.5 -20l-1 -9q-2 -11 -5.5 -31t-16 -76.5t-27 -108t-39.5 -113.5t-52 -106.5t-64.5 -74
t-78.5 -27.5zM272 805q-3 0 -8.5 0.5t-20 -1.5t-26 -8t-21 -20.5t-10.5 -36.5q63 60 86 66zM256 76q31 3 67.5 59.5t69 145t51.5 146.5t35 116q-8 58 -22 110.5t-36.5 90t-47.5 36.5q-27 -1 -56 -73.5t-44 -144.5l-15 -73q-14 -91 -19 -167t-3 -119.5t6.5 -74t9.5 -41.5z
M432 1034q19 7 40 10.5t45 2.5t42 -16t23 -42q8 -33 -15 -37q-9 -1 -21.5 12.5t-29.5 12.5q-4 0 -32 -8t-54 -12t-56.5 8.5t-47.5 46.5q-3 5 -7.5 13t-3.5 24t17 20q17 4 47 -20t53 -15zM332 1042q9 1 18 0t14 -2l5 -2q-11 15 -23 15q-6 0 -9.5 -2.5t-4.5 -5.5v-3z" />
    <glyph glyph-name="adieresis" unicode="&#xe4;" horiz-adv-x="864" 
d="M696 0q-62 3 -106.5 52t-65.5 120t-30 166q-22 -64 -46 -117.5t-56 -108t-70.5 -85t-77.5 -27.5q-62 4 -108 63t-66.5 149.5t-18 203.5t30.5 221q3 10 8.5 27t28.5 58.5t52.5 71.5t83 50.5t116.5 11.5q77 -10 129 -88q4 40 4 51q3 21 17 37.5t34 22.5q60 17 102 -5
q23 -10 34.5 -33t8.5 -50q-11 -89 -19.5 -179.5t-17.5 -229.5t2 -227.5t44 -91.5q4 1 12 5t32.5 32.5t49 74t59 142t66.5 224.5q1 4 2.5 10.5t10 17t20.5 9.5q12 -2 16.5 -12t2.5 -20l-1 -9q-2 -11 -5.5 -31t-16 -76.5t-27 -108t-39.5 -113.5t-52 -106.5t-64.5 -74
t-78.5 -27.5zM272 805q-3 0 -8.5 0.5t-20 -1.5t-26 -8t-21 -20.5t-10.5 -36.5q63 60 86 66zM256 76q31 3 67.5 59.5t69 145t51.5 146.5t35 116q-8 58 -22 110.5t-36.5 90t-47.5 36.5q-27 -1 -56 -73.5t-44 -144.5l-15 -73q-14 -91 -19 -167t-3 -119.5t6.5 -74t9.5 -41.5z
M360 1073q22 2 39.5 -12.5t18.5 -36.5q2 -22 -13 -38t-38 -17q-22 -2 -39.5 12.5t-18.5 36.5q-2 22 13 38t38 17zM340 1038q8 5 19.5 6.5t19.5 0.5l8 -1q-4 13 -22 13q-9 0 -15 -4.5t-8 -9.5zM526 1065q22 0 39.5 -14t18.5 -35q1 -22 -14 -37.5t-38 -17.5q-22 -2 -39 12
t-18 35q-2 22 13 39t38 18zM514 1030q8 5 20 6t20 0l7 -2q-4 15 -24 15q-8 0 -13.5 -4.5t-7.5 -9.5z" />
    <glyph glyph-name="aring" unicode="&#xe5;" horiz-adv-x="864" 
d="M696 0q-62 3 -106.5 52t-65.5 120t-30 166q-22 -64 -46 -117.5t-56 -108t-70.5 -85t-77.5 -27.5q-62 4 -108 63t-66.5 149.5t-18 203.5t30.5 221q3 10 8.5 27t28.5 58.5t52.5 71.5t83 50.5t116.5 11.5q77 -10 129 -88q4 40 4 51q3 21 17 37.5t34 22.5q60 17 102 -5
q23 -10 34.5 -33t8.5 -50q-11 -89 -19.5 -179.5t-17.5 -229.5t2 -227.5t44 -91.5q4 1 12 5t32.5 32.5t49 74t59 142t66.5 224.5q1 4 2.5 10.5t10 17t20.5 9.5q12 -2 16.5 -12t2.5 -20l-1 -9q-2 -11 -5.5 -31t-16 -76.5t-27 -108t-39.5 -113.5t-52 -106.5t-64.5 -74
t-78.5 -27.5zM272 805q-3 0 -8.5 0.5t-20 -1.5t-26 -8t-21 -20.5t-10.5 -36.5q63 60 86 66zM256 76q31 3 67.5 59.5t69 145t51.5 146.5t35 116q-8 58 -22 110.5t-36.5 90t-47.5 36.5q-27 -1 -56 -73.5t-44 -144.5l-15 -73q-14 -91 -19 -167t-3 -119.5t6.5 -74t9.5 -41.5z
M440 1069q26 0 45 -18.5t19 -44.5t-19 -44t-45 -18q-28 0 -46.5 18t-18.5 44t18.5 44.5t46.5 18.5zM442 1055q-8 1 -14 -1t-8 -4l-2 -3q13 1 24.5 -0.5t17.5 -2.5l5 -2q-3 13 -23 13zM440 981q11 0 19 7.5t8 17.5t-8 18t-19 8q-10 0 -18 -8t-8 -18t7.5 -17.5t18.5 -7.5z" />
    <glyph glyph-name="ae" unicode="&#xe6;" horiz-adv-x="1282" 
d="M1214 578q11 -2 15.5 -12t2.5 -20l-1 -9q-1 -11 -4 -30.5t-15.5 -74.5t-30 -105.5t-50 -112.5t-72 -106.5t-100 -75.5t-130.5 -32q-49 -3 -92 6q-18 -9 -41 -6q-62 3 -106.5 52t-65.5 120t-30 166q-22 -64 -46 -117.5t-56 -108t-70.5 -85t-77.5 -27.5q-62 4 -108 63
t-66.5 149.5t-18 203.5t30.5 221q3 10 8.5 27t28.5 58.5t52.5 71.5t83 50.5t116.5 11.5q77 -10 129 -88q4 40 4 51q3 21 17 37.5t34 22.5q60 17 102 -5q24 -10 33 -32q60 29 137 18q7 -1 19.5 -4t42 -22t49.5 -47.5t32 -87t1 -134.5q-10 -67 -39.5 -121.5t-70 -89.5t-79 -56
t-80.5 -34q10 -84 40 -138t79 -60q5 0 14 2t37 12.5t55 28t64 54t69 84t64.5 124.5t55.5 170q1 4 2.5 10.5t10 17t21.5 9.5zM272 805q-3 0 -8.5 0.5t-20 -1.5t-26 -8t-21 -20.5t-10.5 -36.5q63 60 86 66zM256 76q31 3 67.5 59.5t69 145t51.5 146.5t35 116q-8 58 -22 110.5
t-36.5 90t-47.5 36.5q-27 -1 -56 -73.5t-44 -144.5l-15 -73q-14 -91 -19 -167t-3 -119.5t6.5 -74t9.5 -41.5zM647 750q72 61 101 71q-3 1 -8 2t-19.5 0t-26.5 -7t-25.5 -23t-21.5 -43zM698 340q63 22 118 74t73 137q11 50 8.5 88t-13.5 65.5t-24 45t-23 26.5l-10 8
q-26 -1 -54.5 -74.5t-44.5 -147.5l-15 -73q-15 -73 -15 -149z" />
    <glyph glyph-name="ccedilla" unicode="&#xe7;" horiz-adv-x="667" 
d="M360 0q-100 1 -168.5 47t-99 116t-39 157.5t2.5 167.5t34 149q2 6 5 16t15 38.5t26.5 54t40 55.5t54 50t69.5 30.5t87 3.5q254 -50 141 -301q-6 -11 -18.5 -9t-15.5 15q-10 47 -19 79t-22.5 68t-29.5 54.5t-34 17.5q-26 -1 -56.5 -81t-47.5 -160l-17 -79
q-16 -101 -13 -192.5t35.5 -157.5t86.5 -73q5 0 14 2t37 12.5t55 28t64 54t69 84t64 124.5t55 170l2.5 10t10.5 16.5t22 10.5q11 -1 15 -11t3 -20l-2 -10q-1 -7 -2.5 -18t-8 -46t-15.5 -69.5t-25.5 -81.5t-36 -87.5t-49 -83t-64 -73.5t-81 -52.5t-98.5 -25.5q0 -1 1 -2t1 -2
v-14q-1 -2 -2.5 -6.5t-2.5 -6.5q17 -23 15 -45q0 -6 -2 -8q0 -4 -2.5 -12t-12.5 -19.5t-26 -15.5q-6 -4 -23 -4h-6q-21 0 -31 10q-16 16 -16 23q-2 6 -2 20q0 16 16 16q3 3 9 0q8 -4 12 -10l4 -8v-2l6 -12q5 0 12 10q9 14 9 31h-7q-34 -3 -34 18q-4 8 4 12q10 7 16 7
q14 0 14 6q2 2 2 6l2 4l-2 2v2zM299 821q-3 1 -8 2t-19 0t-26.5 -7t-25.5 -23t-21 -43q71 61 100 71z" />
    <glyph glyph-name="egrave" unicode="&#xe8;" horiz-adv-x="671" 
d="M385 0q-78 -3 -138 19.5t-97 62t-61 94t-31.5 113.5t-5.5 122.5t12 120t26 105.5q1 5 4 14.5t14.5 35.5t26 49t39 50t53 45t69.5 27t87 2q2 0 6 -1t16.5 -5t23.5 -10t27 -17.5t27 -26.5t24 -37.5t17.5 -50.5t7.5 -65t-6 -82q-10 -67 -39 -121.5t-70 -89.5t-79 -56
t-80 -34q10 -84 40 -138t79 -60q5 0 14 2t37 12.5t55 28t64 54t69 84t64 124.5t55 170q1 4 2.5 10.5t10.5 17t22 9.5q11 -2 15 -12t3 -20l-2 -9q-1 -11 -4 -30.5t-15.5 -74.5t-30 -105.5t-49.5 -112.5t-71.5 -106.5t-100 -75.5t-130.5 -32zM305 821q-3 1 -8 2t-19.5 0
t-27 -7t-26 -23t-21.5 -43q71 61 102 71zM268 489q-14 -69 -14 -149q63 21 117.5 73t74.5 138q14 82 0.5 134t-37.5 75l-24 24q-27 -1 -56.5 -74.5t-44.5 -147.5zM444 1006q7 -7 11 -15q0 -2 1 -6t1 -6l-4 -14q-3 -8 -13 -15q-2 -1 -6 -2t-6 -2h-12q-23 -3 -60 12
q-26 11 -55 31q-9 6 -16.5 15.5t-10.5 15.5l-4 6q-9 16 -9.5 30t3.5 20l4 5q13 13 25 9l12 -5q16 -5 76 -41q5 -3 19 -11t20 -11zM281 1059q5 6 14.5 6.5t16.5 -1.5l7 -3q-8 14 -24 14q-7 0 -10.5 -4t-3.5 -8v-4z" />
    <glyph glyph-name="eacute" unicode="&#xe9;" horiz-adv-x="671" 
d="M385 0q-78 -3 -138 19.5t-97 62t-61 94t-31.5 113.5t-5.5 122.5t12 120t26 105.5q1 5 4 14.5t14.5 35.5t26 49t39 50t53 45t69.5 27t87 2q2 0 6 -1t16.5 -5t23.5 -10t27 -17.5t27 -26.5t24 -37.5t17.5 -50.5t7.5 -65t-6 -82q-10 -67 -39 -121.5t-70 -89.5t-79 -56
t-80 -34q10 -84 40 -138t79 -60q5 0 14 2t37 12.5t55 28t64 54t69 84t64 124.5t55 170q1 4 2.5 10.5t10.5 17t22 9.5q11 -2 15 -12t3 -20l-2 -9q-1 -11 -4 -30.5t-15.5 -74.5t-30 -105.5t-49.5 -112.5t-71.5 -106.5t-100 -75.5t-130.5 -32zM305 821q-3 1 -8 2t-19.5 0
t-27 -7t-26 -23t-21.5 -43q71 61 102 71zM268 489q-14 -69 -14 -149q63 21 117.5 73t74.5 138q14 82 0.5 134t-37.5 75l-24 24q-27 -1 -56.5 -74.5t-44.5 -147.5zM432 1092q14 4 27 -9q18 -18 -2 -55q-13 -23 -31 -37q-32 -20 -57 -30q-38 -15 -60 -13h-12q-2 1 -5 2t-5 2
q-10 7 -13 15q-4 6 -4 14t2 12q3 6 9 15q2 2 10.5 7t13.5 9q7 3 20.5 11.5t18.5 11.5q67 37 76 40q6 5 12 5zM449 1051q6 12 0 22q-4 5 -11 5t-12 -2l-6 -3q11 0 18.5 -5.5t9.5 -11.5z" />
    <glyph glyph-name="ecircumflex" unicode="&#xea;" horiz-adv-x="671" 
d="M385 0q-78 -3 -138 19.5t-97 62t-61 94t-31.5 113.5t-5.5 122.5t12 120t26 105.5q1 5 4 14.5t14.5 35.5t26 49t39 50t53 45t69.5 27t87 2q2 0 6 -1t16.5 -5t23.5 -10t27 -17.5t27 -26.5t24 -37.5t17.5 -50.5t7.5 -65t-6 -82q-10 -67 -39 -121.5t-70 -89.5t-79 -56
t-80 -34q10 -84 40 -138t79 -60q5 0 14 2t37 12.5t55 28t64 54t69 84t64 124.5t55 170q1 4 2.5 10.5t10.5 17t22 9.5q11 -2 15 -12t3 -20l-2 -9q-1 -11 -4 -30.5t-15.5 -74.5t-30 -105.5t-49.5 -112.5t-71.5 -106.5t-100 -75.5t-130.5 -32zM305 821q-3 1 -8 2t-19.5 0
t-27 -7t-26 -23t-21.5 -43q71 61 102 71zM268 489q-14 -69 -14 -149q63 21 117.5 73t74.5 138q14 82 0.5 134t-37.5 75l-24 24q-27 -1 -56.5 -74.5t-44.5 -147.5zM223 975v8q1 1 2 3l2 4t2 5q2 2 9.5 6t11.5 7q3 2 10 5.5t13 7t10 7.5q30 21 63 35q2 2 4 2q4 2 15 2
q8 0 14 -2l2 -2q9 -4 30 -19.5t31 -21.5q4 -3 15 -10.5t16 -12.5q18 -11 21 -14q4 -8 4 -10v-10l-4 -11q-4 -4 -15 -8h-10h-10q-23 3 -51 17q-30 17 -46 30h-2q-21 -17 -47 -26q-23 -11 -51 -15h-12q-1 0 -4 1t-4 1q-6 2 -15 11q-2 4 -4 10zM334 1038q15 3 28.5 3t23.5 -3
l9 -2l-4.5 4.5t-10.5 7t-15 3.5q-6 0 -14 -3.5t-13 -6.5z" />
    <glyph glyph-name="edieresis" unicode="&#xeb;" horiz-adv-x="671" 
d="M385 0q-78 -3 -138 19.5t-97 62t-61 94t-31.5 113.5t-5.5 122.5t12 120t26 105.5q1 5 4 14.5t14.5 35.5t26 49t39 50t53 45t69.5 27t87 2q2 0 6 -1t16.5 -5t23.5 -10t27 -17.5t27 -26.5t24 -37.5t17.5 -50.5t7.5 -65t-6 -82q-10 -67 -39 -121.5t-70 -89.5t-79 -56
t-80 -34q10 -84 40 -138t79 -60q5 0 14 2t37 12.5t55 28t64 54t69 84t64 124.5t55 170q1 4 2.5 10.5t10.5 17t22 9.5q11 -2 15 -12t3 -20l-2 -9q-1 -11 -4 -30.5t-15.5 -74.5t-30 -105.5t-49.5 -112.5t-71.5 -106.5t-100 -75.5t-130.5 -32zM305 821q-3 1 -8 2t-19.5 0
t-27 -7t-26 -23t-21.5 -43q71 61 102 71zM268 489q-14 -69 -14 -149q63 21 117.5 73t74.5 138q14 82 0.5 134t-37.5 75l-24 24q-27 -1 -56.5 -74.5t-44.5 -147.5zM270 1069q22 2 39.5 -12.5t18.5 -36.5t-14 -37.5t-38 -17.5q-22 -2 -39 12.5t-18 36.5q-2 22 13 38t38 17z
M250 1034q8 5 19.5 6.5t19.5 0.5l8 -1q-5 13 -23 13q-9 0 -15 -4.5t-7 -9.5zM436 1061q22 0 39.5 -14t18.5 -35q2 -22 -13.5 -38.5t-38.5 -17.5q-22 -2 -39 12t-18 36q-2 22 13 39t38 18zM424 1026q8 5 19.5 6t19.5 0l8 -2q-5 14 -25 14q-8 0 -13.5 -4.5t-6.5 -9.5z" />
    <glyph glyph-name="igrave" unicode="&#xec;" horiz-adv-x="423" 
d="M530 578q11 -2 15.5 -12t2.5 -20l-1 -9q-2 -11 -5.5 -31t-16 -76.5t-27 -108t-39.5 -113.5t-52 -106.5t-64.5 -74t-78.5 -27.5q-55 2 -96.5 38.5t-64 90.5t-35 129.5t-15.5 144.5t0 149t7 128t10 96q7 47 49 60q64 16 102 -2q24 -12 36 -35.5t9 -50.5q-11 -88 -19 -171.5
t-16.5 -215t2.5 -213.5t43 -85q4 1 12 5t32.5 32.5t49.5 74t59.5 142t66.5 224.5q1 4 2.5 10.5t10 17t21.5 9.5zM94 715q15 55 56 90q-2 1 -6 1.5t-14.5 -2t-18 -10.5t-13 -28t-4.5 -51zM270 969q7 -7 11 -15q0 -2 1 -6t1 -6l-4 -14q-3 -8 -13 -15q-2 -1 -6 -2t-6 -2h-12
q-21 -3 -60 13q-30 12 -55 30q-9 6 -16.5 15.5t-10.5 15.5l-4 6q-9 16 -9.5 30t3.5 19l4 6q13 13 25 9l12 -4q16 -5 76 -41q14 -8 39 -23zM106 1022q5 6 15 6.5t17 -2.5l7 -2q-8 14 -24 14q-7 0 -11 -4t-4 -8v-4z" />
    <glyph glyph-name="iacute" unicode="&#xed;" horiz-adv-x="423" 
d="M530 578q11 -2 15.5 -12t2.5 -20l-1 -9q-2 -11 -5.5 -31t-16 -76.5t-27 -108t-39.5 -113.5t-52 -106.5t-64.5 -74t-78.5 -27.5q-55 2 -96.5 38.5t-64 90.5t-35 129.5t-15.5 144.5t0 149t7 128t10 96q7 47 49 60q64 16 102 -2q24 -12 36 -35.5t9 -50.5q-11 -88 -19 -171.5
t-16.5 -215t2.5 -213.5t43 -85q4 1 12 5t32.5 32.5t49.5 74t59.5 142t66.5 224.5q1 4 2.5 10.5t10 17t21.5 9.5zM94 715q15 55 56 90q-2 1 -6 1.5t-14.5 -2t-18 -10.5t-13 -28t-4.5 -51zM252 1065q15 4 27 -8q17 -19 -3 -56q-12 -22 -30 -36q-35 -22 -58 -31
q-36 -15 -59 -12h-12q-2 1 -5.5 2t-5.5 2q-9 6 -12 14q-4 6 -4 14q0 9 2 13q4 8 8 14q2 2 11 7t14 9q7 3 20.5 11.5t18.5 11.5q72 40 76 41q6 4 12 4zM268 1024q6 13 0 23q-4 5 -11 5t-12 -2l-5 -3q11 0 18 -5.5t8 -11.5z" />
    <glyph glyph-name="icircumflex" unicode="&#xee;" horiz-adv-x="423" 
d="M530 578q11 -2 15.5 -12t2.5 -20l-1 -9q-2 -11 -5.5 -31t-16 -76.5t-27 -108t-39.5 -113.5t-52 -106.5t-64.5 -74t-78.5 -27.5q-55 2 -96.5 38.5t-64 90.5t-35 129.5t-15.5 144.5t0 149t7 128t10 96q7 47 49 60q64 16 102 -2q24 -12 36 -35.5t9 -50.5q-11 -88 -19 -171.5
t-16.5 -215t2.5 -213.5t43 -85q4 1 12 5t32.5 32.5t49.5 74t59.5 142t66.5 224.5q1 4 2.5 10.5t10 17t21.5 9.5zM94 715q15 55 56 90q-2 1 -6 1.5t-14.5 -2t-18 -10.5t-13 -28t-4.5 -51zM49 932v8l6 12q2 2 9.5 6t11.5 7q3 2 10 5.5t13 7t10 7.5q30 21 63 35q2 2 4 2
q4 2 14 2q9 0 15 -2l2 -2q9 -4 30 -19.5t31 -21.5q4 -3 15 -10.5t16 -12.5q15 -9 20 -14l5 -10v-10l-5 -11q-5 -5 -14 -8h-10h-10q-24 3 -52 17q-27 15 -45 30h-2q-21 -17 -47 -26q-23 -12 -51 -15h-12q-1 0 -4 1t-4 1q-6 2 -15 11q-2 4 -4 10zM160 995q15 3 28.5 3t23.5 -2
l9 -3q-2 2 -5 4.5t-11 7t-15 3.5q-6 0 -13.5 -3t-12.5 -7z" />
    <glyph glyph-name="idieresis" unicode="&#xef;" horiz-adv-x="423" 
d="M530 578q11 -2 15.5 -12t2.5 -20l-1 -9q-2 -11 -5.5 -31t-16 -76.5t-27 -108t-39.5 -113.5t-52 -106.5t-64.5 -74t-78.5 -27.5q-55 2 -96.5 38.5t-64 90.5t-35 129.5t-15.5 144.5t0 149t7 128t10 96q7 47 49 60q64 16 102 -2q24 -12 36 -35.5t9 -50.5q-11 -88 -19 -171.5
t-16.5 -215t2.5 -213.5t43 -85q4 1 12 5t32.5 32.5t49.5 74t59.5 142t66.5 224.5q1 4 2.5 10.5t10 17t21.5 9.5zM94 715q15 55 56 90q-2 1 -6 1.5t-14.5 -2t-18 -10.5t-13 -28t-4.5 -51zM106 1026q22 2 39.5 -12.5t18.5 -36.5q2 -22 -13 -38t-38 -17q-22 -2 -39.5 12.5
t-18.5 36.5q-2 22 13 38t38 17zM86 991q8 5 19.5 6.5t19.5 0.5l8 -1q-4 13 -22 13q-9 0 -15 -5t-8 -9zM272 1018q22 0 39.5 -14t18.5 -35q2 -22 -13 -38.5t-38 -17.5q-22 -2 -39.5 12t-18.5 36q-2 22 13 39t38 18zM260 983q8 5 20 6t20 -1l7 -1q-4 14 -24 14
q-8 0 -13.5 -4.5t-7.5 -8.5z" />
    <glyph glyph-name="ntilde" unicode="&#xf1;" horiz-adv-x="860" 
d="M965 578q11 -2 15 -12t2 -20l-1 -9q-2 -11 -5.5 -31t-16 -76.5t-27 -108t-39.5 -113.5t-52 -106.5t-64.5 -74t-78.5 -27.5q-80 4 -129.5 65.5t-68 161.5t-13.5 240q3 1 1.5 152t-15.5 143q-7 -13 -19 -36t-44.5 -97.5t-58.5 -151t-52 -188t-35 -217.5h-2q0 -21 -12 -39
q-22 -29 -62 -35q-34 -5 -62 10t-34 45q-34 169 -41 428q-4 168 19 338q3 23 19.5 41.5t39.5 24.5q61 16 109 -15q35 -18 28 -63q-28 -160 -35 -322q-2 -67 5 -176q20 99 43 185t56 176.5t76.5 144t90.5 53.5q45 0 78.5 -22.5t52 -57.5t30.5 -77.5t15 -85t3.5 -77.5
t-1.5 -57l-2 -22q-10 -244 -5 -310q8 -92 38 -96q4 1 12 5t32.5 32.5t49 74t59 142t66.5 224.5q1 4 2.5 10.5t10.5 17t22 9.5zM109 795q26 49 59 63q-3 1 -7.5 1.5t-15.5 -1t-19 -6.5t-13.5 -20t-3.5 -37zM408 1044q19 7 40 10.5t45 2.5t41.5 -16t22.5 -42q9 -32 -14 -36
q-9 -1 -21.5 12t-29.5 12q-4 0 -32 -8t-54 -12t-57 8.5t-48 46.5q-3 5 -7.5 13t-3.5 24t17 20q17 4 47.5 -20t53.5 -15zM307 1053q9 1 18 0t14 -3l5 -1q-10 14 -22 14q-6 0 -10 -2.5t-4 -4.5z" />
    <glyph glyph-name="ograve" unicode="&#xf2;" 
d="M850 578q13 -4 14 -19.5t-4 -28.5l-6 -14q-17 -37 -40.5 -75t-74 -89t-108.5 -80q-40 -264 -244 -272q-68 -3 -124 15t-91 49.5t-62 70.5t-39.5 78.5t-20.5 72.5t-10 54l-1 20q-5 221 111 332q14 56 41 96.5t54.5 58.5t53.5 28t43 11l16 1q46 0 85 -18.5t66 -48
t48.5 -65.5t34 -72t21 -65.5t11.5 -47.5l3 -19q2 -10 4 -27t5 -67t1 -95q106 67 164 183q2 5 6 11.5t17 16t26 5.5zM279 819q-3 0 -7.5 -1t-17 -6t-19 -14t-13 -25.5t0.5 -39.5q19 43 56 86zM381 53l11 5.5t26.5 18.5t36.5 34t37.5 53t33.5 74q-42 -8 -104 -5
q-103 11 -176 70q25 -239 135 -250zM547 317q13 90 -4 207q-2 11 -5.5 29t-17.5 63.5t-31 80t-46.5 62.5t-63.5 27q-4 -2 -10 -7t-21 -26t-25.5 -49.5t-17 -81t-2.5 -116.5q1 -7 2.5 -18.5t10.5 -42.5t21.5 -56.5t37 -49t55.5 -30.5q56 -13 117 8zM453 1032q6 -6 10 -14
q0 -2 1 -6t1 -6l-4 -15q-3 -8 -12 -14q-2 -1 -6.5 -2t-6.5 -2h-12q-22 -3 -59 12q-29 11 -56 31q-9 6 -16.5 15.5t-10.5 15.5l-3 6q-9 16 -9.5 30t2.5 19l4 6q12 12 25 8l12 -4q16 -5 76 -41q5 -3 19 -11t20 -11q24 -16 25 -17zM289 1085q5 6 15 6.5t17 -1.5l7 -3
q-9 15 -25 15q-7 0 -10.5 -4t-3.5 -8v-5z" />
    <glyph glyph-name="oacute" unicode="&#xf3;" 
d="M850 578q13 -4 14 -19.5t-4 -28.5l-6 -14q-17 -37 -40.5 -75t-74 -89t-108.5 -80q-40 -264 -244 -272q-68 -3 -124 15t-91 49.5t-62 70.5t-39.5 78.5t-20.5 72.5t-10 54l-1 20q-5 221 111 332q14 56 41 96.5t54.5 58.5t53.5 28t43 11l16 1q46 0 85 -18.5t66 -48
t48.5 -65.5t34 -72t21 -65.5t11.5 -47.5l3 -19q2 -10 4 -27t5 -67t1 -95q106 67 164 183q2 5 6 11.5t17 16t26 5.5zM279 819q-3 0 -7.5 -1t-17 -6t-19 -14t-13 -25.5t0.5 -39.5q19 43 56 86zM381 53l11 5.5t26.5 18.5t36.5 34t37.5 53t33.5 74q-42 -8 -104 -5
q-103 11 -176 70q25 -239 135 -250zM547 317q13 90 -4 207q-2 11 -5.5 29t-17.5 63.5t-31 80t-46.5 62.5t-63.5 27q-4 -2 -10 -7t-21 -26t-25.5 -49.5t-17 -81t-2.5 -116.5q1 -7 2.5 -18.5t10.5 -42.5t21.5 -56.5t37 -49t55.5 -30.5q56 -13 117 8zM424 1098q15 4 27 -8
q18 -19 -2 -56q-13 -23 -31 -37q-30 -19 -58 -30q-38 -15 -59 -13h-12q-2 1 -5 2t-5 2q-10 7 -13 15q-4 6 -4 14t2 12q6 12 8 15q2 2 11 7t14 9q7 3 20.5 11.5t18.5 11.5q72 40 76 41q6 4 12 4zM440 1057q6 12 0 22q-4 5 -11 5t-12 -2l-5 -3q11 0 18 -5.5t8 -11.5z" />
    <glyph glyph-name="ocircumflex" unicode="&#xf4;" 
d="M850 578q13 -4 14 -19.5t-4 -28.5l-6 -14q-17 -37 -40.5 -75t-74 -89t-108.5 -80q-40 -264 -244 -272q-68 -3 -124 15t-91 49.5t-62 70.5t-39.5 78.5t-20.5 72.5t-10 54l-1 20q-5 221 111 332q14 56 41 96.5t54.5 58.5t53.5 28t43 11l16 1q46 0 85 -18.5t66 -48
t48.5 -65.5t34 -72t21 -65.5t11.5 -47.5l3 -19q2 -10 4 -27t5 -67t1 -95q106 67 164 183q2 5 6 11.5t17 16t26 5.5zM279 819q-3 0 -7.5 -1t-17 -6t-19 -14t-13 -25.5t0.5 -39.5q19 43 56 86zM381 53l11 5.5t26.5 18.5t36.5 34t37.5 53t33.5 74q-42 -8 -104 -5
q-103 11 -176 70q25 -239 135 -250zM547 317q13 90 -4 207q-2 11 -5.5 29t-17.5 63.5t-31 80t-46.5 62.5t-63.5 27q-4 -2 -10 -7t-21 -26t-25.5 -49.5t-17 -81t-2.5 -116.5q1 -7 2.5 -18.5t10.5 -42.5t21.5 -56.5t37 -49t55.5 -30.5q56 -13 117 8zM227 987v8q5 10 6 13
q2 2 9.5 5.5t11.5 6.5q33 19 33 20q30 21 63 35q2 2 4 2q4 2 15 2q8 0 14 -2l2 -2q9 -4 30 -19.5t31 -21.5q4 -3 15.5 -10.5t15.5 -11.5q15 -9 21 -15q4 -8 4 -10v-10l-4 -10q-6 -6 -15 -9h-10h-10q-23 3 -51 17q-23 13 -45 31h-2q-22 -18 -48 -27q-20 -10 -51 -14h-12
q-1 0 -4 1t-4 1q-8 3 -15 10q-2 4 -4 10zM338 1051q15 3 28.5 3t23.5 -2l9 -3l-4.5 4.5t-10.5 6.5t-15 3q-6 0 -14 -3t-13 -6z" />
    <glyph glyph-name="otilde" unicode="&#xf5;" 
d="M850 578q13 -4 14 -19.5t-4 -28.5l-6 -14q-17 -37 -40.5 -75t-74 -89t-108.5 -80q-40 -264 -244 -272q-68 -3 -124 15t-91 49.5t-62 70.5t-39.5 78.5t-20.5 72.5t-10 54l-1 20q-5 221 111 332q14 56 41 96.5t54.5 58.5t53.5 28t43 11l16 1q46 0 85 -18.5t66 -48
t48.5 -65.5t34 -72t21 -65.5t11.5 -47.5l3 -19q2 -10 4 -27t5 -67t1 -95q106 67 164 183q2 5 6 11.5t17 16t26 5.5zM279 819q-3 0 -7.5 -1t-17 -6t-19 -14t-13 -25.5t0.5 -39.5q19 43 56 86zM381 53l11 5.5t26.5 18.5t36.5 34t37.5 53t33.5 74q-42 -8 -104 -5
q-103 11 -176 70q25 -239 135 -250zM547 317q13 90 -4 207q-2 11 -5.5 29t-17.5 63.5t-31 80t-46.5 62.5t-63.5 27q-4 -2 -10 -7t-21 -26t-25.5 -49.5t-17 -81t-2.5 -116.5q1 -7 2.5 -18.5t10.5 -42.5t21.5 -56.5t37 -49t55.5 -30.5q56 -13 117 8zM360 1042q19 7 40 10.5
t45 2.5t42 -16t23 -42q9 -32 -14 -36q-9 -1 -22 12t-30 12q-4 0 -32 -8t-54 -12t-56.5 8.5t-47.5 46.5q-3 5 -7.5 13t-3.5 24t17 20q17 4 47 -20t53 -15zM260 1051q9 1 18 0t14 -3l5 -1q-11 14 -23 14q-6 0 -9.5 -2.5t-4.5 -4.5v-3z" />
    <glyph glyph-name="odieresis" unicode="&#xf6;" 
d="M850 578q13 -4 14 -19.5t-4 -28.5l-6 -14q-17 -37 -40.5 -75t-74 -89t-108.5 -80q-40 -264 -244 -272q-68 -3 -124 15t-91 49.5t-62 70.5t-39.5 78.5t-20.5 72.5t-10 54l-1 20q-5 221 111 332q14 56 41 96.5t54.5 58.5t53.5 28t43 11l16 1q46 0 85 -18.5t66 -48
t48.5 -65.5t34 -72t21 -65.5t11.5 -47.5l3 -19q2 -10 4 -27t5 -67t1 -95q106 67 164 183q2 5 6 11.5t17 16t26 5.5zM279 819q-3 0 -7.5 -1t-17 -6t-19 -14t-13 -25.5t0.5 -39.5q19 43 56 86zM381 53l11 5.5t26.5 18.5t36.5 34t37.5 53t33.5 74q-42 -8 -104 -5
q-103 11 -176 70q25 -239 135 -250zM547 317q13 90 -4 207q-2 11 -5.5 29t-17.5 63.5t-31 80t-46.5 62.5t-63.5 27q-4 -2 -10 -7t-21 -26t-25.5 -49.5t-17 -81t-2.5 -116.5q1 -7 2.5 -18.5t10.5 -42.5t21.5 -56.5t37 -49t55.5 -30.5q56 -13 117 8zM276 1081q22 2 39.5 -12.5
t18.5 -36.5q2 -22 -13 -38t-38 -17q-22 -2 -39.5 12.5t-18.5 36.5q-2 22 13 38t38 17zM256 1047q8 5 19.5 6.5t19.5 0.5l8 -1q-4 12 -22 12q-9 0 -15 -4.5t-8 -8.5zM442 1073q22 0 39.5 -14t18.5 -35q2 -22 -13 -38t-38 -17q-22 -2 -39.5 12t-18.5 35q-2 22 13 39t38 18z
M430 1038q8 5 19.5 6t19.5 0l8 -2q-4 15 -24 15q-8 0 -13.5 -4.5t-7.5 -9.5z" />
    <glyph glyph-name="divide" unicode="&#xf7;" horiz-adv-x="368" 
d="M289 520q28 -11 28 -28q2 -7 0 -15q-11 -16 -26 -22q-1 0 -7 -1t-10 -1q-3 -1 -10.5 -2t-11.5 -2h-29h-30q-12 0 -33 1t-29 1q-10 2 -27 2q-4 2 -12 2q-2 2 -8 2l-16 4q-15 10 -17 24q-3 26 10 39t39 13q3 -1 6 -1t7.5 0.5t7.5 0.5h31q22 0 34 -2q19 0 37 -3q15 0 35 -4
q22 -4 31 -8zM180 424q17 0 30 -12t13 -29t-13 -29t-30 -12q-19 0 -31 12t-12 29t12 29t31 12zM186 561q-17 0 -29 12t-12 29t12 29t29 12q19 0 31 -12t12 -29t-12 -29t-31 -12zM188 627q-8 0 -13 -4.5t-6 -9.5l-1 -5q8 4 19.5 4t19.5 -2l8 -2q-7 19 -27 19z" />
    <glyph glyph-name="oslash" unicode="&#xf8;" 
d="M39 360q-5 221 111 332q14 56 41 96.5t54.5 58.5t53.5 28t43 11l16 1q101 0 174 -94q3 0 3 4q10 23 24 43q11 18 20.5 29t16.5 10q19 -5 16 -48q-4 -24 -14 -49q0 -6 -4 -14q-1 -3 -3 -8t-3 -8q-2 -5 -3.5 -13t-4.5 -16q0 -1 -1 -3.5t-1 -4.5q16 -36 28.5 -77t16.5 -64
l4 -23q2 -10 4 -27t5 -67t1 -95q106 67 164 183q2 5 6 11.5t17 16t26 5.5t14 -19.5t-4 -28.5l-6 -14q-17 -37 -40.5 -75t-74 -89t-108.5 -80q-40 -264 -244 -272q-51 -3 -94 6q-14 -28 -17 -33q-7 -11 -15.5 -27t-13.5 -24t-10.5 -16.5t-9 -12t-6.5 -2.5q-6 1 -10 11
q-6 16 10 80q4 12 6 20q5 15 9 23q-52 24 -91.5 67t-58.5 87.5t-31 86t-14 68.5zM379 786q-4 -2 -10 -7t-21 -26t-25.5 -49.5t-17 -81t-2.5 -116.5q8 -93 55 -152q13 34 33.5 84.5t34 83.5t18.5 47q3 5 23 58t22 59q0 1 1.5 3t1.5 3q-51 97 -113 94zM326 80q28 -25 55 -27
l11 5.5t26.5 18.5t36.5 34t37.5 53t33.5 74q-42 -8 -104 -5q-25 5 -31 5q-2 -5 -6 -16.5t-6 -16.5q-7 -20 -12.5 -28t-12.5 -25q-19 -51 -28 -72zM420 311q2 -2 10 -2q56 -13 117 8q13 90 -4 207q-5 29 -15 68q-76 -194 -108 -281zM246 303q12 -98 35 -153q2 6 9 24t11 33
q1 3 5 11.5t8 19t8 20.5q-39 16 -76 45zM279 819q-3 0 -7.5 -1t-17 -6t-19 -14t-13 -25.5t0.5 -39.5q19 43 56 86z" />
    <glyph glyph-name="ugrave" unicode="&#xf9;" horiz-adv-x="862" 
d="M961 578q12 -2 16.5 -12t2.5 -20l-1 -9q-2 -11 -5.5 -31t-16 -76.5t-27 -108t-39.5 -113.5t-52 -106.5t-64.5 -74t-78.5 -27.5q-189 8 -209 424q-120 -414 -206 -424q-94 -13 -163 106.5t-67 292.5q2 176 35 414q3 20 16.5 34t32.5 19q66 17 117 -8q41 -20 31 -63
q-41 -240 -45 -377q-4 -131 10 -226.5t33 -103.5q10 -6 54.5 109t93.5 277.5t67 268.5q3 37 6 62q2 23 15.5 43t35.5 29q66 28 129 -15q13 -7 21 -22.5t6 -30.5q-13 -95 -22.5 -185.5t-20 -234.5t-0.5 -233.5t43 -92.5q4 1 12 5t32.5 32.5t49 74t59 142t66.5 224.5
q1 4 2.5 10.5t10 17t20.5 9.5zM115 778q26 48 59 64q-3 1 -7.5 1.5t-15.5 -1t-19 -7t-13.5 -20.5t-3.5 -37zM516 1040q6 -6 10 -14q0 -2 1 -6t1 -6l-4 -15q-3 -8 -12 -14q-2 -1 -6 -2t-6 -2h-13q-22 -3 -59 12q-26 11 -55 31q-9 6 -16.5 15.5t-10.5 15.5l-4 6q-9 16 -9.5 30
t3.5 19l4 6q12 12 25 8l12 -4q16 -5 76 -41q5 -3 19 -11t20 -11q21 -14 24 -17zM352 1094q5 6 15 6.5t17 -2.5l7 -2q-8 14 -24 14q-7 0 -11 -4t-4 -8v-4z" />
    <glyph glyph-name="uacute" unicode="&#xfa;" horiz-adv-x="862" 
d="M961 578q12 -2 16.5 -12t2.5 -20l-1 -9q-2 -11 -5.5 -31t-16 -76.5t-27 -108t-39.5 -113.5t-52 -106.5t-64.5 -74t-78.5 -27.5q-189 8 -209 424q-120 -414 -206 -424q-94 -13 -163 106.5t-67 292.5q2 176 35 414q3 20 16.5 34t32.5 19q66 17 117 -8q41 -20 31 -63
q-41 -240 -45 -377q-4 -131 10 -226.5t33 -103.5q10 -6 54.5 109t93.5 277.5t67 268.5q3 37 6 62q2 23 15.5 43t35.5 29q66 28 129 -15q13 -7 21 -22.5t6 -30.5q-13 -95 -22.5 -185.5t-20 -234.5t-0.5 -233.5t43 -92.5q4 1 12 5t32.5 32.5t49 74t59 142t66.5 224.5
q1 4 2.5 10.5t10 17t20.5 9.5zM115 778q26 48 59 64q-3 1 -7.5 1.5t-15.5 -1t-19 -7t-13.5 -20.5t-3.5 -37zM494 1120q14 4 26 -8q18 -18 -2 -55q-13 -23 -31 -37q-36 -23 -57 -31q-36 -15 -59 -12h-13q-2 1 -5 2t-5 2q-9 6 -12 14q-4 7 -4 15t2 12q4 8 8 14q2 2 11 7.5
t14 9.5q4 2 39 22q10 5 27 15.5t28.5 16.5t19.5 9q7 4 13 4zM510 1079q6 13 0 23q-4 5 -11 5t-13 -3l-5 -2q11 0 18.5 -6t8.5 -12z" />
    <glyph glyph-name="ucircumflex" unicode="&#xfb;" horiz-adv-x="862" 
d="M961 578q12 -2 16.5 -12t2.5 -20l-1 -9q-2 -11 -5.5 -31t-16 -76.5t-27 -108t-39.5 -113.5t-52 -106.5t-64.5 -74t-78.5 -27.5q-189 8 -209 424q-120 -414 -206 -424q-94 -13 -163 106.5t-67 292.5q2 176 35 414q3 20 16.5 34t32.5 19q66 17 117 -8q41 -20 31 -63
q-41 -240 -45 -377q-4 -131 10 -226.5t33 -103.5q10 -6 54.5 109t93.5 277.5t67 268.5q3 37 6 62q2 23 15.5 43t35.5 29q66 28 129 -15q13 -7 21 -22.5t6 -30.5q-13 -95 -22.5 -185.5t-20 -234.5t-0.5 -233.5t43 -92.5q4 1 12 5t32.5 32.5t49 74t59 142t66.5 224.5
q1 4 2.5 10.5t10 17t20.5 9.5zM115 778q26 48 59 64q-3 1 -7.5 1.5t-15.5 -1t-19 -7t-13.5 -20.5t-3.5 -37zM289 1022v8l6 12q2 2 9 6t11 7q33 19 33 20q28 20 64 35q2 2 4 2q4 2 14 2q8 0 14 -2l2 -2q9 -4 30.5 -19.5t31.5 -21.5q4 -3 15.5 -10.5t15.5 -11.5q12 -8 20 -15
q4 -8 4 -10v-10l-4 -11q-5 -5 -14 -8h-10h-11q-23 3 -51 17q-27 15 -45 30h-2q-21 -17 -47 -26q-23 -12 -51 -15h-13q-1 0 -4 1t-4 1q-4 1 -14 11q-2 4 -4 10zM399 1085q15 3 29 3t24 -2l9 -3q-2 2 -5 4.5t-11 7t-15 3.5q-6 0 -14 -3t-12 -7z" />
    <glyph glyph-name="udieresis" unicode="&#xfc;" horiz-adv-x="862" 
d="M961 578q12 -2 16.5 -12t2.5 -20l-1 -9q-2 -11 -5.5 -31t-16 -76.5t-27 -108t-39.5 -113.5t-52 -106.5t-64.5 -74t-78.5 -27.5q-189 8 -209 424q-120 -414 -206 -424q-94 -13 -163 106.5t-67 292.5q2 176 35 414q3 20 16.5 34t32.5 19q66 17 117 -8q41 -20 31 -63
q-41 -240 -45 -377q-4 -131 10 -226.5t33 -103.5q10 -6 54.5 109t93.5 277.5t67 268.5q3 37 6 62q2 23 15.5 43t35.5 29q66 28 129 -15q13 -7 21 -22.5t6 -30.5q-13 -95 -22.5 -185.5t-20 -234.5t-0.5 -233.5t43 -92.5q4 1 12 5t32.5 32.5t49 74t59 142t66.5 224.5
q1 4 2.5 10.5t10 17t20.5 9.5zM115 778q26 48 59 64q-3 1 -7.5 1.5t-15.5 -1t-19 -7t-13.5 -20.5t-3.5 -37zM336 1083q22 2 39 -12.5t18 -36.5q2 -22 -13 -38t-38 -17q-22 -2 -39 12.5t-18 36.5q-2 22 13 38t38 17zM315 1049q8 5 19.5 6.5t19.5 0.5l8 -1q-4 12 -22 12
q-9 0 -15 -4.5t-8 -8.5zM502 1075q22 0 39 -14t18 -35q2 -22 -13 -38t-38 -17q-22 -2 -39 12t-18 35q-2 22 13 39t38 18zM489 1040q8 5 20 6t20 0l8 -2q-5 15 -25 15q-8 0 -14 -4.5t-8 -9.5z" />
    <glyph glyph-name="yacute" unicode="&#xfd;" horiz-adv-x="778" 
d="M893 571q8 -14 3.5 -26.5t-14.5 -21.5l-10 -9q-111 -86 -200 -172q-2 -164 -19 -300.5t-63 -259t-117 -171.5q-17 -10 -31 -10q-38 -2 -100 29t-96 87q-26 46 -10 95q80 226 264 442q6 92 6 268q-134 -425 -225 -434q-61 -8 -115 38.5t-85 132t-30 187.5q2 156 33 367
q5 21 19.5 36t35.5 19q67 13 113 -8q17 -7 25.5 -23.5t5.5 -35.5q-40 -190 -45 -338q-4 -118 10 -203.5t33 -93.5q10 -5 55.5 100.5t95 253.5t66.5 242q-4 46 -4 55q-3 34 26 47q32 17 72 13q39 -6 49 -46q28 -126 31 -401q80 71 170 137q1 1 3.5 2.5t9.5 5t13 5t13.5 -0.5
t11.5 -8zM113 774q26 50 59 66q-3 1 -7 1.5t-15 -1.5t-19 -8t-14 -21t-4 -37zM315 -279q140 19 177 418q-52 -71 -89.5 -140t-53.5 -117t-25 -86t-9 -56v-19zM463 1110q14 4 26 -8q18 -18 -2 -55q-12 -23 -30 -37q-35 -22 -58 -31q-36 -15 -59 -12h-12q-2 1 -5.5 2t-5.5 2
q-9 6 -12 14q-4 6 -4 14q0 9 2 13q4 8 8 14q2 2 11 7t14 9q7 3 20.5 11.5t18.5 11.5q72 40 76 41q6 4 12 4zM479 1069q6 13 0 23q-4 5 -11 5t-12 -3l-5 -2q11 0 18 -6t9 -12z" />
    <glyph glyph-name="ydieresis" unicode="&#xff;" horiz-adv-x="778" 
d="M893 571q8 -14 3.5 -26.5t-14.5 -21.5l-10 -9q-111 -86 -200 -172q-2 -164 -19 -300.5t-63 -259t-117 -171.5q-17 -10 -31 -10q-38 -2 -100 29t-96 87q-26 46 -10 95q80 226 264 442q6 92 6 268q-134 -425 -225 -434q-61 -8 -115 38.5t-85 132t-30 187.5q2 156 33 367
q5 21 19.5 36t35.5 19q67 13 113 -8q17 -7 25.5 -23.5t5.5 -35.5q-40 -190 -45 -338q-4 -118 10 -203.5t33 -93.5q10 -5 55.5 100.5t95 253.5t66.5 242q-4 46 -4 55q-3 34 26 47q32 17 72 13q39 -6 49 -46q28 -126 31 -401q80 71 170 137q1 1 3.5 2.5t9.5 5t13 5t13.5 -0.5
t11.5 -8zM113 774q26 50 59 66q-3 1 -7 1.5t-15 -1.5t-19 -8t-14 -21t-4 -37zM315 -279q140 19 177 418q-52 -71 -89.5 -140t-53.5 -117t-25 -86t-9 -56v-19zM301 1087q22 2 39 -12.5t18 -36.5q2 -22 -13 -38t-38 -17q-22 -2 -39 12.5t-18 36.5q-2 22 13 38t38 17zM281 1053
q8 5 19.5 6.5t19.5 0.5l8 -1q-5 12 -23 12q-9 0 -15 -4.5t-8 -8.5zM467 1079q22 0 39 -14t18 -35q2 -22 -13 -38t-38 -17q-22 -2 -39 12t-18 35q-2 22 13 39t38 18zM455 1044q8 5 19.5 6.5t19.5 -0.5l8 -1q-5 14 -25 14q-8 0 -13.5 -4.5t-7.5 -9.5z" />
    <glyph glyph-name="OE" unicode="&#x152;" horiz-adv-x="1574" 
d="M446 -2q-76 6 -131.5 46t-82.5 89t-42.5 112t-18 100.5t-1.5 68.5q-38 46 -64 104.5t-36.5 109t-15.5 94t-4 68.5l1 25q7 107 32 195.5t58.5 145t75 100t78.5 65.5t72 36t52 17.5t23 3.5h2q117 6 206 -69.5t141 -218.5l2 6q1 4 12 32q33 68 81 119t92.5 75t84.5 38t64 16
l24 2q4 -1 19 0t42 -8t43 -27q56 -56 7 -155q-19 -39 -54.5 -69t-84 -50t-89 -31.5t-92.5 -21.5q-5 -57 0 -106.5t32.5 -88.5t74.5 -53q8 2 20 3t42 -11t50 -41q6 -9 2 -19.5t-14 -13.5q-32 -8 -63.5 -19t-78.5 -37.5t-82 -59t-62.5 -87t-31.5 -118.5q-4 -62 7 -111.5
t31 -79t45 -50.5t51 -29.5t47.5 -13t35.5 -3.5h13q7 0 19 1.5t47.5 11t69 25.5t77.5 51t80 82t68.5 123t50.5 169q1 4 2.5 10.5t10 17t21.5 9.5q11 -2 15.5 -12t3.5 -20l-2 -9q-1 -11 -4 -30t-17 -73.5t-33.5 -104.5t-56 -111.5t-81.5 -106.5t-113.5 -77t-149.5 -34
q-233 -6 -356 131q-33 -39 -72.5 -67.5t-72.5 -40.5t-61.5 -18.5t-44.5 -6.5h-16zM1106 1343q-37 2 -62 -15.5t-32 -35.5l-6 -18q15 16 40 33t42 27zM1010 1192q-23 -29 -39 -72q193 28 239 94q18 28 19 55.5t-10 35.5q-4 5 -12.5 7.5t-14.5 2.5h-6q-4 0 -10.5 -1t-27 -8
t-40.5 -19t-47 -37t-51 -58zM948 743q-18 3 -45.5 22.5t-54.5 49.5q6 -58 6 -121q24 16 47.5 28t34.5 16zM465 70q6 0 12 1t24.5 11t34.5 28t36.5 57.5t35.5 94.5q-53 -5 -137 2q-70 5 -135 31q8 -95 47.5 -155.5t79.5 -69.5h2zM586 1266q0 2 0.5 4.5t0.5 11t-2.5 14.5
t-7 14.5t-13.5 11.5t-22.5 4.5t-33.5 -5.5l17.5 -5t32 -17.5t28.5 -32.5zM176 762q-10 -97 25 -199q38 97 123 182q30 23 61 23q29 -2 62.5 -19t50.5 -49q3 -6 -1 -12t-12 -8q-19 -3 -34 -18q-102 -107 -115 -285q65 -38 145 -49q72 -8 144 -2q1 4 4 22.5t4 28.5q1 6 3 18.5
t3 18.5q12 80 14 141q25 371 -29 558t-169 198h-2q-8 -3 -20.5 -8.5t-39 -24.5t-51.5 -44t-54 -69.5t-51.5 -98t-39.5 -133t-21 -171.5z" />
    <glyph glyph-name="oe" unicode="&#x153;" horiz-adv-x="1353" 
d="M1286 578q11 -2 15.5 -12t2.5 -20l-1 -9q-1 -11 -4 -30.5t-15.5 -74.5t-30 -105.5t-50 -112.5t-72 -106.5t-100 -75.5t-130.5 -32q-208 -8 -289 158q-62 -153 -213 -158q-68 -3 -124 15t-91 49.5t-62 70.5t-39.5 78.5t-20.5 72.5t-10 54l-1 20q-5 221 111 332
q14 56 41 96.5t55 58.5t54 28t42 11l17 1q163 0 241 -232q8 23 19.5 47.5t36 58t54.5 57.5t77 37t100 5q2 0 6 -1t16.5 -5t23.5 -10t27 -17.5t27 -26.5t24 -37.5t17.5 -50.5t7.5 -65t-6 -82q-10 -67 -39 -121.5t-70 -89.5t-79 -56t-80 -34q10 -84 40 -138t79 -60q5 0 14 2
t37 12.5t55 28t64 54t69 84t64 124.5t55 170q1 4 2.5 10.5t10.5 17t22 9.5zM291 819q-3 0 -7.5 -1t-16.5 -6t-18.5 -14t-13 -25.5t0.5 -39.5q21 46 55 86zM393 53l11 5.5t26.5 18.5t37 34t38 53t33.5 74q-42 -8 -105 -5q-103 11 -176 70q25 -239 135 -250zM559 317
q13 90 -4 207q-2 11 -5.5 29t-17.5 63.5t-31 80t-46.5 62.5t-63.5 27q-4 -2 -10 -7t-21 -26t-25.5 -49.5t-17 -81t-2.5 -116.5q1 -7 2.5 -18.5t10.5 -42.5t21.5 -56.5t37 -49t55.5 -30.5q56 -13 117 8zM819 821q-3 1 -8 2t-19 0t-26.5 -7t-25.5 -23t-21 -43q71 61 100 71z
M784 489q-14 -69 -14 -149q63 22 118 74t73 137q11 50 8.5 88t-13.5 65.5t-24 45t-23 26.5l-10 8q-26 -1 -55 -74.5t-44 -147.5z" />
    <glyph glyph-name="Ydieresis" unicode="&#x178;" horiz-adv-x="1161" 
d="M467 -47q7 91 110.5 231t260.5 244q1 20 4 58.5t4 56.5q-119 -218 -295 -226q-63 -3 -110.5 25t-72.5 75.5t-41 105t-19 116t-3 106.5t3 79l3 30q15 149 54 291l11.5 34.5t13.5 44t9.5 40t1 35.5t-15.5 18q-129 -30 -199 -266q-59 -211 -26 -310q26 -18 16 -34
q-6 -9 -14 -9q-30 1 -56 24.5t-36 51.5q-26 64 -16 142t37 146t69 132q22 33 47.5 64t61 64.5t76 48.5t77.5 3q50 -15 80 -62t38.5 -97t2.5 -99q-4 -36 -16.5 -113t-16.5 -116l-13 -144q-20 -340 59 -354h3q6 0 15.5 1.5t38 13.5t55 32.5t60 66.5t59.5 108t47 163t28 225
q4 96 11.5 190t12.5 141l5 46q36 1 61.5 -1t52 -8.5t42 -18.5t25 -34t7.5 -52q-16 -183 -30 -406q4 -140 -2 -326q113 42 229 48q5 0 13.5 -0.5t22.5 -8.5t15 -24q0 -15 -12.5 -23.5t-25.5 -9.5l-13 -2q-127 -15 -234 -59q-10 -164 -31 -302t-60 -271t-108 -195t-161 -31
q-9 4 -24.5 11.5t-54 34.5t-67.5 58.5t-51 84.5t-18 112zM641 -227q38 -6 70 39t54 129.5t37.5 180.5t26.5 212q-134 -101 -206.5 -233t-64.5 -225t83 -103zM420 1221l7 7t12 17t11 24t-1.5 24t-20.5 22q6 -47 -8 -94zM666 1550q22 2 39 -12.5t18 -36.5q2 -22 -13 -38
t-38 -17q-22 -2 -39.5 12.5t-18.5 36.5t14 37.5t38 17.5zM645 1516q8 5 19.5 6.5t19.5 0.5l8 -1q-4 12 -22 12q-9 0 -15 -4.5t-8 -9.5zM831 1542q22 0 39.5 -14t18.5 -35q2 -22 -13 -38t-38 -17q-22 -2 -39.5 12t-18.5 35q-2 22 13 39t38 18zM819 1507q8 5 19.5 6t19.5 -1
l8 -1q-4 15 -24 15q-8 0 -14 -5t-8 -9z" />
    <glyph glyph-name="circumflex" unicode="&#x2c6;" horiz-adv-x="376" 
d="M51 1122v8q5 10 6 13q2 2 9.5 5.5t11.5 6.5q30 18 33 21q26 18 63 34q2 2 4 2q4 2 15 2q8 0 14 -2l2 -2q9 -4 30 -19.5t31 -21.5q4 -3 15.5 -10.5t15.5 -11.5q18 -10 21 -14q4 -8 4 -11v-10l-4 -10q-4 -4 -15 -8h-10h-10q-25 3 -51 16q-26 15 -46 31h-2q-23 -19 -47 -27
q-20 -10 -51 -14h-12q-1 0 -4 1t-4 1q-7 2 -15 10q-2 4 -4 10zM162 1186q15 3 28.5 3t23.5 -3l9 -2l-4.5 4.5t-10.5 6.5t-15 3q-6 0 -14 -3t-13 -6z" />
    <glyph glyph-name="ring" unicode="&#x2da;" horiz-adv-x="231" 
d="M117 1227q26 0 44.5 -19t18.5 -45t-18.5 -43.5t-44.5 -17.5q-28 0 -47 17.5t-19 43.5t19 45t47 19zM119 1212q-8 1 -14 -1t-9 -5l-2 -2q13 1 24.5 0t17.5 -2l5 -2q-2 12 -22 12zM117 1139q11 0 18.5 7t7.5 17q0 11 -8 19t-18 8q-11 0 -19 -8t-8 -19q0 -10 8 -17t19 -7z
" />
    <glyph glyph-name="tilde" unicode="&#x2dc;" horiz-adv-x="370" 
d="M170 1192q19 7 40 10.5t45 2.5t41.5 -16t22.5 -42q9 -33 -14 -37q-9 -1 -21.5 12.5t-29.5 12.5q-4 0 -32 -8t-54 -12.5t-57 8t-48 46.5q-3 5 -7 13.5t-3 24.5t17 20q17 4 47 -20t53 -15zM70 1200q9 1 18 0t14 -2l4 -2q-10 14 -22 14q-6 0 -9.5 -2.5t-4.5 -5.5v-2z" />
    <glyph glyph-name="Euro" unicode="&#x20ac;" horiz-adv-x="784" 
d="M725 360q6 -24 10 -75q0 -37 -6 -80q0 -6 -2 -10q0 -7 -2 -11v-2v-2v-2l-2 -4q0 -2 -1 -5.5t-1 -4.5q-3 -14 -8 -23q-4 -12 -8 -18q-9 -21 -21 -39q-14 -21 -29 -33q-16 -16 -32 -24q-11 -9 -31 -17q-17 -7 -53 -12q-52 -7 -103 10h-2l-18 6q-1 0 -2 1t-2 1q-4 0 -4 2
q-2 1 -5.5 2.5t-5.5 2.5q-1 1 -4.5 2t-5.5 2q-1 1 -4 3t-4 3q-8 4 -10 6q-9 5 -11 8q-4 2 -11.5 9.5t-10.5 9.5q-2 2 -6 5t-6 5q-10 9 -11 14l-12 12q-9 13 -10 17q-23 29 -41 69q-15 35 -29 84q-16 56 -20 93q-4 23 -13 98q-1 17 -2 50t-2 50v6q-75 5 -82 6q-51 5 -51 21
q0 40 88 37h47v31v22q-55 4 -77 6q-54 5 -54 23q0 38 88 35h45q3 55 9 120q9 104 36 203q11 45 33 94q5 11 23 43q4 8 13 23t11 18q26 36 64 66q43 30 69 39q3 0 7 2q6 0 8 2q6 0 10 2q6 2 25 2h14h10q11 0 17 -2q19 0 32 -8q17 -6 37 -19q32 -21 49 -43q29 -32 47 -82
q10 -27 13 -53v-8q2 -2 2 -6v-15q2 -8 2 -24q0 -62 -8 -109q-7 -33 -17 -55q-12 -32 -24 -49q-25 -29 -39 -39q-20 -14 -45 -18q-20 -6 -37 -3q-19 4 -27 9q-20 9 -20 20v4q4 8 8 10q6 6 8 7l4 4q1 0 3 1t3 1q4 2 15.5 6.5t17.5 7.5q17 11 21 17q14 10 22 32q8 15 10 27
q1 3 3.5 14.5t3.5 18.5q6 35 6 73q0 27 -2 39v11l-2 8v8q0 2 -1 4.5t-1 3.5q-6 32 -23 60q-7 12 -29 34v0h-2q-58 48 -143 -135q-7 -17 -18 -49q-20 -59 -33 -160q-10 -85 -13 -159q151 -4 154 -29q1 -2 0.5 -6t-12 -11.5t-35.5 -11.5q-36 -4 -109 -4q-2 -18 -2 -55
q150 -7 152 -31q1 -2 0.5 -5.5t-12 -10.5t-35.5 -11q-23 -3 -107 -6v-88q4 -69 8 -104q5 -41 19 -92q6 -30 27 -78q16 -32 36 -55q17 -20 41 -37q1 -1 8 -5t9 -6q3 -2 7.5 -4t18 -6t23.5 0q2 2 6 2q1 1 3 2t3 2q1 0 3 1t3 1q2 2 7.5 5.5t7.5 5.5l16 16q1 1 6.5 8t7.5 12
q7 14 13 29q1 2 6 17q0 4 2 8v4v0l2 2q0 3 1 9t1 9q2 6 2 21q1 6 2 18.5t2 18.5q0 49 -4 69q-4 18 -8 27q0 4 -4 12q-1 1 -2 4t-2 4q-6 10 -16 20.5t-16 18t-5 13.5v6q0 4 6 10q4 0 8 4q1 0 3 1t3 1h8h7h4q8 0 12 -2q2 -1 6 -2t6 -2t7.5 -4t7.5 -4q20 -16 34 -37
q15 -24 25 -62zM494 1337q-3 1 -8 1.5t-19 0t-26.5 -5t-26.5 -17.5t-23 -34q72 47 103 55z" />
    <glyph glyph-name="minus" unicode="&#x2212;" horiz-adv-x="368" 
d="M289 520q28 -11 28 -28q2 -7 0 -15q-11 -16 -26 -22q-1 0 -7 -1t-10 -1q-3 -1 -10.5 -2t-11.5 -2h-29h-30q-12 0 -33 1t-29 1q-10 2 -27 2q-4 2 -12 2q-2 2 -8 2l-16 4q-15 10 -17 24q-3 26 10 39t39 13q3 -1 6 -1t7.5 0.5t7.5 0.5h31q22 0 34 -2q19 0 37 -3q15 0 35 -4
q22 -4 31 -8zM72 494q2 3 13 9.5t21 11.5l11 5q-22 2 -33 -4.5t-12 -13.5v-8z" />
    <glyph glyph-name="t.alt" unicode="&#xe001;" horiz-adv-x="438" 
d="M225 1157q236 36 405 35.5t206 -53.5q56 -81 -21 -183q-7 -11 -15 -8.5t-9 15.5q-20 151 -572 112q-8 -164 -12 -316.5t-3.5 -320t14 -270t40.5 -105.5q5 1 13.5 4.5t35 31.5t52.5 73t62 141t68 224q1 5 3 12t11 18.5t21 10.5q15 -1 20.5 -13.5t3.5 -24.5l-1 -12
q-2 -11 -6.5 -29.5t-19 -72t-31 -102t-43.5 -109t-55.5 -104.5t-67 -76t-78.5 -35q-43 -4 -78 22t-58.5 77.5t-41 118t-26 151.5t-13.5 169t-4.5 180.5t3 176t7.5 164.5q-118 -13 -352 -49q-60 -9 -102 1t-61 30t-27.5 51.5t-7.5 55.5t5 50q2 8 10.5 10t14.5 -4
q99 -116 376 -84q16 2 67 7t81 8q2 33 5.5 91.5t4.5 80.5q1 23 15 41t36 26q32 10 65 3t56 -29q15 -19 12 -37q-6 -90 -8 -154zM76 1284q18 48 47 66h-6t-13 -3t-15.5 -9t-10.5 -20t-2 -34z" />
    </font>
</defs>
</svg>
