<?xml version="1.0" standalone="no"?>
<!DOCTYPE svg PUBLIC "-//W3C//DTD SVG 1.1//EN" "http://www.w3.org/Graphics/SVG/1.1/DTD/svg11.dtd" >
<svg xmlns="http://www.w3.org/2000/svg" xmlns:xlink="http://www.w3.org/1999/xlink" version="1.1">
<metadata>
Created by FontForge 20170731 at Tue Oct 13 19:07:17 2020
 By Aleksey,,,
Copyright (c) 2020 by Seemly Fonts. All Rights Reserved.
</metadata>
<defs>
<font id="ChristmasLove" horiz-adv-x="839" >
  <font-face 
    font-family="Christmas Love"
    font-weight="400"
    font-stretch="normal"
    units-per-em="2048"
    panose-1="2 0 5 0 0 0 0 0 0 0"
    ascent="1638"
    descent="-410"
    x-height="1364"
    cap-height="1388"
    bbox="-53.129 -494.129 1666.91 1812"
    underline-thickness="150"
    underline-position="-442"
    unicode-range="U+001D-F002"
  />
<missing-glyph horiz-adv-x="1024" 
 />
    <glyph glyph-name=".notdef" horiz-adv-x="1024" 
 />
    <glyph glyph-name=".null" horiz-adv-x="0" 
 />
    <glyph glyph-name=".null" horiz-adv-x="0" 
 />
    <glyph glyph-name="nonmarkingreturn" horiz-adv-x="508" 
 />
    <glyph glyph-name="space" unicode=" " horiz-adv-x="435" 
 />
    <glyph glyph-name="space" unicode="&#xa0;" horiz-adv-x="435" 
 />
    <glyph glyph-name="exclam" unicode="!" horiz-adv-x="318" 
d="M254 1325q0 44 -30 70q-28 24 -67 24t-67 -24q-30 -26 -30 -70v-810q0 -44 30 -70q28 -23 67 -23t67 23q30 26 30 70v810zM93 242q-29 -29 -29 -68v-77q0 -40 29 -68q29 -29 68 -29q40 0 68 29q29 28 29 68v77q0 39 -29 68q-28 29 -68 29q-39 0 -68 -29z" />
    <glyph glyph-name="quotedbl" unicode="&#x22;" horiz-adv-x="618" 
d="M66 1185l1 -149q0 -44 30 -70q28 -24 67 -24t67 24q30 26 30 70l-1 149q-1 82 -6 148q-3 44 -35 70q-29 23 -68 23q-40 0 -65 -23q-29 -26 -26 -70q5 -66 6 -148zM369 1277l5 -72q4 -87 -5 -143q-7 -43 18 -77q22 -30 60 -41q38 -10 68 5q34 18 41 61q12 71 9 170l-3 84
q-2 54 -3 85q0 44 -31 70q-27 24 -67 24q-39 0 -66 -24q-30 -26 -29 -70q0 -28 3 -72z" />
    <glyph glyph-name="numbersign" unicode="#" horiz-adv-x="1264" 
d="M469 561q-1 133 12 316h345q-9 -142 -11 -316h-346zM1008 231l-1 137h106q44 0 70 30q24 27 24 66q0 40 -24 67q-26 30 -70 30h-105q1 177 10 316h95q44 0 70 30q24 28 24 67t-24 67q-26 30 -70 30h-77q17 145 45 271q10 43 -14 77q-21 30 -59 40q-38 11 -69 -5
q-35 -17 -45 -60q-33 -152 -52 -323h-346q15 178 20 274q2 44 -27 70q-26 23 -65 23t-68 -23q-32 -26 -34 -70q-5 -94 -19 -274h-149q-45 0 -71 -30q-23 -28 -23 -67t23 -67q26 -30 71 -30h135q-12 -181 -11 -316h-124q-45 0 -71 -30q-23 -27 -23 -67q0 -39 23 -66
q26 -30 71 -30h133q11 -134 39 -254q10 -43 45 -60q31 -16 69 -5q38 10 59 40q23 34 14 77q-22 95 -33 202h334l1 -137v-137q0 -45 30 -71q28 -23 67 -23t67 23q30 26 30 71z" />
    <glyph glyph-name="dollar" unicode="$" horiz-adv-x="920" 
d="M696 646q-50 44 -144 110q-23 16 -67 44l-34 21l-33 22q-79 54 -118 107q-24 31 -35 58q-16 36 -10 66q8 40 59 67q41 21 89 25q101 9 171 -90q22 -31 54 -92l25 -46q14 -26 25 -43q24 -37 64 -44q36 -6 70 14t45 53q12 38 -12 75q-19 29 -50 85l-24 42l-25 42
q-60 94 -131 143q-38 26 -84 40q3 58 3 94q0 40 -29 68q-28 29 -68 29t-68 -29q-29 -28 -29 -68q0 -34 -3 -87q-105 -22 -178 -87q-150 -131 -73 -319q65 -158 234 -268q10 -7 44 -28q19 -12 30 -18q17 -11 32 -21q84 -53 137 -98q162 -138 87 -229q-37 -44 -104 -62
q-65 -17 -131 -3q-69 13 -110 54q-46 45 -44 112q2 44 -27 70q-26 24 -65 24q-40 -1 -68 -24q-32 -26 -33 -70q-6 -130 81 -227q79 -87 207 -122l-1 -14q0 -42 -5 -125q-2 -39 29 -68q29 -29 68 -29q40 0 68 29q27 27 29 68l3 63l2 62v3q86 13 159 60q71 45 112 113
q94 152 -5 312q-42 69 -119 136z" />
    <glyph glyph-name="percent" unicode="%" horiz-adv-x="1664" 
d="M417 90q-13 -43 9 -76q20 -29 58 -40q38 -10 71 5q36 17 49 59q236 802 706 1473q25 37 14 73q-10 33 -44 53t-71 14q-41 -6 -67 -42q-480 -685 -725 -1519zM1215 227q-52 14 -81 74q-28 59 -20 127q9 73 57 119q14 6 26 16q120 100 189 -45q29 -61 18 -136
q-12 -80 -62 -119q-68 -52 -127 -36zM1122 745q-12 -4 -23 -11q-133 -85 -169 -233q-36 -143 29 -289q65 -148 218 -177q147 -28 274 69q117 91 141 243q22 142 -44 280q-63 132 -198 166q-109 28 -228 -48zM302 1406q51 57 105 58q32 0 63 -30q29 -29 41 -69q14 -46 -7 -86
q-22 -42 -75 -64q-66 -24 -114 -11q-59 15 -62 84q-2 61 49 118zM496 1035q117 53 172 147q59 99 33 223q-22 109 -114 183q-94 77 -202 69q-136 -10 -234 -130q-97 -117 -91 -254q7 -155 140 -227q125 -68 271 -21l10 3q7 3 15 7z" />
    <glyph glyph-name="ampersand" unicode="&#x26;" horiz-adv-x="1283" 
d="M252 289q0 46 11 98q10 46 25 78q54 118 207 277q99 -123 263 -274q-23 -45 -48 -85q-63 -102 -158 -170q-115 -84 -217 -62q-81 17 -83 138zM578 1494q57 9 104 -17q54 -29 46 -104q-7 -59 -46 -127q-51 -88 -159 -199q-52 96 -66 192q-19 118 28 196q29 50 93 59z
M1059 197q32 -30 72 -26q37 3 64 31q28 27 31 63q2 39 -30 69q-43 41 -101 92l-104 91q25 63 57 154l26 77l27 77q14 42 -6 74q-19 30 -57 40t-72 -5q-38 -16 -52 -58l-38 -110q-23 -68 -38 -110q-126 119 -207 225q76 77 123 133q67 78 107 148q101 178 44 332
q-33 91 -109 142q-70 47 -161 50q-88 4 -171 -33q-85 -39 -139 -110q-52 -68 -62 -175q-7 -81 10 -189q21 -131 108 -276q-181 -188 -253 -330q-105 -205 -47 -399q61 -207 274 -214q189 -6 352 129q115 95 199 246q97 -86 153 -138z" />
    <glyph glyph-name="quotesingle" unicode="'" horiz-adv-x="313" 
d="M66 1185l1 -149q0 -44 30 -70q28 -24 67 -24t67 24q30 26 30 70l-1 149q-1 82 -6 148q-3 44 -35 70q-29 23 -68 23q-40 0 -65 -23q-29 -26 -26 -70q5 -66 6 -148z" />
    <glyph glyph-name="parenleft" unicode="(" horiz-adv-x="803" 
d="M381 226q-114 223 -129 474q-15 263 86 457q114 215 348 290q42 13 58 50q16 34 5 72q-10 38 -40 57q-33 21 -75 8q-294 -94 -445 -355q-137 -237 -129 -555q8 -306 146 -579q143 -285 376 -430q38 -23 75 -11q34 12 54 46t13 69q-6 40 -44 64q-180 111 -299 343z" />
    <glyph glyph-name="parenright" unicode=")" horiz-adv-x="758" 
d="M164 1626q-36 -5 -62 -35q-26 -29 -27 -65q0 -39 34 -68q184 -158 288 -359q110 -212 115 -444q6 -231 -112 -440q-111 -199 -308 -336q-37 -25 -41 -65q-4 -36 17 -69q22 -33 56 -42q39 -10 75 15q232 162 364 395q134 239 143 517q8 273 -125 538q-124 247 -343 435
q-34 28 -74 23z" />
    <glyph glyph-name="asterisk" unicode="*" horiz-adv-x="932" 
d="M716 745q39 -22 77 -9q34 13 54 47t13 69q-8 38 -46 60q-75 42 -212 103q80 77 144 122q36 26 42 67q5 37 -14 71q-20 34 -53 44q-36 11 -73 -14q-62 -45 -133 -110q-3 86 -11 148q-5 41 -29 68q-26 28 -67 28q-38 0 -69 -28q-33 -31 -28 -68q9 -75 12 -191
q-66 38 -117 78q-30 23 -73 10q-40 -12 -60 -45q-20 -35 -9 -73q11 -34 44 -59q69 -53 162 -103q-63 -51 -122 -76q-39 -16 -58 -46q-21 -33 -10 -73q10 -36 46 -59q38 -23 73 -8q74 30 147 83q15 -86 43 -156q16 -41 55 -57q35 -14 73 -4q38 11 56 39q19 32 3 73
q-29 71 -43 159q113 -51 183 -90z" />
    <glyph glyph-name="plus" unicode="+" horiz-adv-x="908" 
d="M545 807l3 99l3 100q0 44 -30 70q-27 23 -67 23q-39 0 -66 -23q-31 -26 -31 -70q0 -41 -3 -100l-3 -51l-3 -53l-103 4l-103 6q-44 3 -70 -26q-23 -26 -23 -65q0 -40 23 -68q26 -32 70 -35q124 -7 203 -9q8 -176 73 -287q22 -38 62 -45q35 -7 69 13t46 54q13 37 -10 76
q-38 65 -41 193q120 9 223 33q43 10 60 45q16 32 5 70q-10 38 -40 58q-34 24 -77 14q-79 -19 -170 -26z" />
    <glyph glyph-name="comma" unicode="," horiz-adv-x="299" 
d="M69 -156q-21 -81 -93 -171q-27 -33 -29 -69q-2 -39 27 -68q26 -27 68 -30q45 -2 69 27q278 349 63 629q-27 35 -65 35q-33 -1 -62 -28q-28 -28 -33 -65q-6 -42 21 -77q61 -79 34 -183z" />
    <glyph glyph-name="hyphen" unicode="-" horiz-adv-x="742" 
d="M160 808q-45 -2 -71 -33q-23 -28 -23 -67q0 -40 23 -66q26 -30 71 -28q278 9 432 -5q44 -3 70 24q23 26 23 65t-24 69q-25 32 -69 36q-154 14 -432 5z" />
    <glyph glyph-name="hyphen" unicode="&#xad;" horiz-adv-x="742" 
d="M160 808q-45 -2 -71 -33q-23 -28 -23 -67q0 -40 23 -66q26 -30 71 -28q278 9 432 -5q44 -3 70 24q23 26 23 65t-24 69q-25 32 -69 36q-154 14 -432 5z" />
    <glyph glyph-name="period" unicode="." horiz-adv-x="299" 
d="M214 30q23 28 23 67t-23 67q-26 30 -70 30q-45 0 -71 -30q-23 -28 -23 -67t23 -67q26 -30 71 -30q44 0 70 30z" />
    <glyph glyph-name="slash" unicode="/" horiz-adv-x="908" 
d="M600 1420l-56 -192q-65 -217 -126 -381q-155 -423 -360 -709q-26 -36 -15 -71q10 -32 43 -52q34 -19 70 -14q41 6 66 41q211 295 372 731q62 170 130 393l58 198l56 196q12 42 -10 74q-19 30 -56 40t-70 -5q-35 -17 -47 -58z" />
    <glyph glyph-name="zero" unicode="0" horiz-adv-x="1184" 
 />
    <glyph glyph-name="one" unicode="1" horiz-adv-x="637" 
 />
    <glyph glyph-name="two" unicode="2" horiz-adv-x="1014" 
 />
    <glyph glyph-name="three" unicode="3" horiz-adv-x="970" 
 />
    <glyph glyph-name="four" unicode="4" horiz-adv-x="1136" 
 />
    <glyph glyph-name="five" unicode="5" horiz-adv-x="922" 
 />
    <glyph glyph-name="six" unicode="6" horiz-adv-x="884" 
 />
    <glyph glyph-name="seven" unicode="7" horiz-adv-x="970" 
 />
    <glyph glyph-name="eight" unicode="8" horiz-adv-x="922" 
 />
    <glyph glyph-name="nine" unicode="9" horiz-adv-x="930" 
 />
    <glyph glyph-name="colon" unicode=":" horiz-adv-x="299" 
d="M214 30q23 28 23 67t-23 67q-26 30 -70 30q-45 0 -71 -30q-23 -28 -23 -67t23 -67q26 -30 71 -30q44 0 70 30zM214 1110q23 28 23 67t-23 67q-26 30 -70 30q-45 0 -71 -30q-23 -28 -23 -67t23 -67q26 -30 71 -30q44 0 70 30z" />
    <glyph glyph-name="semicolon" unicode=";" horiz-adv-x="299" 
d="M214 1110q23 28 23 67t-23 67q-26 30 -70 30q-45 0 -71 -30q-23 -28 -23 -67t23 -67q26 -30 71 -30q44 0 70 30zM69 -156q-21 -81 -93 -171q-27 -33 -29 -69q-2 -39 27 -68q26 -27 68 -30q45 -2 69 27q278 349 63 629q-27 35 -65 35q-33 -1 -62 -28q-28 -28 -33 -65
q-6 -42 21 -77q61 -79 34 -183z" />
    <glyph glyph-name="semicolon" unicode="&#x37e;" horiz-adv-x="299" 
d="M214 1110q23 28 23 67t-23 67q-26 30 -70 30q-45 0 -71 -30q-23 -28 -23 -67t23 -67q26 -30 71 -30q44 0 70 30zM69 -156q-21 -81 -93 -171q-27 -33 -29 -69q-2 -39 27 -68q26 -27 68 -30q45 -2 69 27q278 349 63 629q-27 35 -65 35q-33 -1 -62 -28q-28 -28 -33 -65
q-6 -42 21 -77q61 -79 34 -183z" />
    <glyph glyph-name="less" unicode="&#x3c;" horiz-adv-x="818" 
d="M596 519l-56 24l-56 24q-133 61 -202 126q70 66 205 152l55 34l54 35q61 40 105 73q33 26 44 60q11 37 -10 73q-19 32 -59 45q-43 13 -73 -11q-52 -40 -134 -92l-69 -44l-69 -44q-165 -108 -248 -210q-21 -26 -27 -56q-7 -35 12 -61q84 -114 245 -203q54 -29 144 -71
l73 -33l73 -35q40 -19 78 -5q35 14 55 47q20 34 12 68q-8 38 -47 57q-37 18 -105 47z" />
    <glyph glyph-name="equal" unicode="=" horiz-adv-x="1027" 
d="M695 1002l-90 3l-90 3q-212 5 -358 -10q-43 -5 -69 -38q-23 -30 -24 -69q0 -39 23 -64q26 -28 70 -23q146 15 358 10l90 -3l90 -3q110 -4 179 -4q44 -1 70 29q24 28 24 67t-24 67q-26 30 -70 31q-69 0 -179 4zM153 637q-44 3 -70 -26q-23 -26 -23 -65q0 -40 23 -68
q26 -32 70 -35q248 -14 699 -14q44 0 70 30q24 28 24 67t-24 66q-26 31 -70 31q-451 0 -699 14z" />
    <glyph glyph-name="greater" unicode="&#x3e;" horiz-adv-x="851" 
d="M614 948l-71 28l-71 28q-181 70 -276 130q-37 24 -75 12q-33 -11 -53 -45t-14 -71q7 -40 44 -63q78 -50 194 -98q38 -15 101 -40l102 -39q-217 -140 -394 -332q-29 -33 -26 -74q4 -36 31 -64q28 -28 63 -30q39 -2 69 31q225 243 515 396q48 25 47 84q0 58 -47 83
q-58 32 -139 64z" />
    <glyph glyph-name="question" unicode="?" horiz-adv-x="727" 
d="M229 1557q-85 -44 -152 -142q-25 -37 -13 -74q10 -33 44 -53q34 -19 71 -14q41 6 65 43q49 72 99 68q43 -3 80 -59q33 -51 48 -123t4 -122q-15 -71 -74 -161l-25 -38l-26 -37q-34 -49 -50 -73q-114 -179 -112 -354q1 -44 31 -70q28 -23 67 -23q40 0 67 23q30 26 29 70
q-1 99 57 207q21 39 57 93l31 46l30 45q144 221 109 438q-17 103 -79 190q-65 91 -157 129q-101 42 -201 -9zM205 164q-23 -28 -23 -67t23 -67q26 -30 70 -30q45 0 71 30q23 28 23 67t-23 67q-26 30 -71 30q-44 0 -70 -30z" />
    <glyph glyph-name="at" unicode="@" horiz-adv-x="1725" 
d="M928 661q-48 -58 -130 -53q-135 30 -107 161q34 158 175 251q36 24 57 12q16 -10 31 -53q24 -68 21 -176q-4 -89 -47 -142zM206 1197q-145 -210 -155 -459q-10 -227 104 -425q104 -183 297 -312q184 -125 407 -174q226 -49 435 -9q43 9 61 43q15 30 5 68q-11 38 -41 60
q-33 24 -77 16q-215 -42 -437 32q-216 72 -373 232q-162 166 -182 393t109 420q131 195 360 283q237 92 453 18q163 -57 246 -254q77 -182 42 -360q-25 -127 -111 -188q-68 -48 -126 -32q-60 17 -85 96l-1 2q34 98 31 211q-3 111 -39 203q-39 96 -104 141q-71 49 -160 26
q-125 -33 -227 -152q-96 -114 -128 -254q-34 -147 22 -253q63 -120 226 -150l15 -2l11 -2q136 -16 231 55q59 -75 141 -104q88 -31 185 -4q102 29 180 114q71 77 110 183q67 185 9 410q-55 215 -194 364q-155 165 -418 175q-229 9 -452 -96q-229 -109 -370 -315z" />
    <glyph glyph-name="A" unicode="A" 
d="M259 530q14 187 39 349q16 98 35 178l4 19l5 20q5 24 11 41q15 47 37 72l1 -1l3 -2q10 -10 22 -27q24 -37 45 -91q77 -206 104 -558h-306zM767 371q23 30 20 71t-31 66q-9 108 -18 185l-9 74l-10 76q-12 85 -27 151q-38 170 -109 282q-100 159 -254 117
q-87 -24 -138 -138q-19 -42 -35 -101q-5 -22 -12 -50l-5 -23l-5 -23q-83 -384 -84 -964q0 -45 30 -71q27 -23 67 -23q39 0 66 23q31 26 31 71q0 122 5 243h329q9 -146 19 -234q5 -44 38 -69q30 -24 69 -24q40 0 64 23q28 26 23 70q-11 93 -24 268z" />
    <glyph glyph-name="B" unicode="B" horiz-adv-x="1011" 
d="M267 631q163 -77 269 -163q68 -55 101 -99q36 -47 46 -89q-2 9 -3 8t-1 -7t1 -9q1 -5 2 -2l-2 -7q2 5 -1 1l-2 -5l-2 -5q0 1 -5 -3q-3 -3 -6 -5l-7 -5q-18 -11 -49 -21q-126 -41 -341 -23v434zM267 1198q218 38 384 -56q63 -35 88 -95q29 -68 -20 -116q-37 -37 -114 -54
q-28 -7 -66 -12l-32 -4l-15 -1l-14 -2q-36 -4 -105 -8l-53 -3l-53 -5v356zM73 162q-19 -44 3 -91q25 -51 82 -57q49 -5 89 -8q58 -4 110 -6q137 -3 239 16q285 52 280 266q-2 78 -52 158q-39 62 -109 128q-60 57 -137 110l17 2q245 41 319 193q56 116 7 239
q-45 112 -156 188q-130 88 -310 101q-159 12 -326 -35q-50 -14 -64 -59q-13 -42 8 -82v-1063z" />
    <glyph glyph-name="C" unicode="C" horiz-adv-x="809" 
d="M570 303l-37 -31q-49 -41 -77 -59q-66 -45 -120 41q-49 77 -67 215q-7 51 -10 118q-1 24 -2 56l-1 27l-1 26q-10 295 117 440q69 79 146 60q25 -6 33 -53q2 -16 2 -38l1 -30q0 -44 31 -70q27 -24 67 -24q39 0 66 23q30 27 29 71q-2 167 -82 253q-48 51 -131 63
q-74 10 -146 -14q-158 -53 -244 -235q-67 -142 -81 -338q-10 -137 25 -383q25 -176 91 -281q45 -71 114 -109q75 -41 153 -28q67 11 139 65l31 24l30 25q37 32 61 48q36 25 42 66q5 37 -14 71q-20 34 -53 44q-37 12 -73 -14q-18 -12 -39 -29z" />
    <glyph glyph-name="D" unicode="D" horiz-adv-x="1093" 
d="M264 1154q156 -45 289 -115q107 -57 173 -117q86 -80 110 -173q25 -100 -44 -216q-58 -98 -152 -166q-141 -100 -376 -153v940zM769 223q132 100 204 241q79 156 55 307q-39 240 -319 409q-209 125 -507 190q-23 5 -45 -1q-37 -3 -61 -26q-26 -26 -26 -67v-1129
q-24 -49 11 -101q37 -55 102 -44q379 64 586 221z" />
    <glyph glyph-name="E" unicode="E" horiz-adv-x="910" 
d="M164 1361q-50 -5 -76 -46q-23 -38 -15 -81q-10 -389 -12 -602q-2 -156 0 -321l2 -146v-34q0 -20 2 -34q5 -38 28 -60q39 -39 127 -37q29 1 72 6l17 3l17 2q19 3 30 4q79 8 186 22l186 25q42 5 68 29q28 26 28 68q0 38 -28 69q-31 33 -68 28l-160 -21l-159 -20
q-82 -10 -147 -15l-8 -1q2 18 1 25l-1 146q-1 113 1 273q64 -1 167 6l84 5l83 4q45 2 71 33q23 28 23 67t-23 66q-26 30 -71 28l-83 -4l-82 -5q-103 -7 -166 -6l8 340q268 22 464 -6q42 -6 74 10q35 18 46 57q10 37 -10 75q-20 39 -58 45q-275 39 -618 3z" />
    <glyph glyph-name="F" unicode="F" horiz-adv-x="794" 
d="M254 635q60 13 149 23l76 7l75 9q42 5 68 29q29 26 29 68q0 37 -29 69q-30 32 -68 28l-75 -9l-75 -7q-92 -10 -150 -20v328q200 28 393 13q44 -4 70 25q23 25 23 64q0 40 -24 69q-26 32 -69 36q-237 19 -515 -31q-76 -13 -70 -89q-2 -10 -2 -21v-1132q0 -45 30 -71
q28 -23 67 -23t67 23q30 26 30 71v541z" />
    <glyph glyph-name="G" unicode="G" horiz-adv-x="930" 
d="M832 273q65 193 18 377q-12 49 -55 64q-40 13 -80 -7q-71 -7 -181 3q-39 3 -69 -29q-28 -30 -28 -68q0 -41 29 -68q27 -26 68 -29q70 -6 141 -3q4 -106 -28 -190q-38 -101 -116 -127q-43 -14 -92 26q-18 16 -37 39q-14 16 -30 38q-65 92 -100 241q-30 133 -16 266
q16 141 80 252q52 89 132 124q95 42 128 -66q13 -43 50 -60q34 -15 72 -4q38 10 57 40q21 33 8 75q-64 208 -253 223q-78 6 -163 -39q-73 -40 -132 -106q-128 -140 -162 -358q-31 -190 12 -398q43 -205 164 -349q148 -176 334 -131q176 44 249 264z" />
    <glyph glyph-name="H" unicode="H" horiz-adv-x="913" 
d="M254 637q164 9 411 9v-552q0 -45 30 -71q27 -23 67 -23q39 0 66 23q31 26 31 71v1219q0 45 -31 71q-27 23 -66 23q-40 0 -67 -23q-30 -26 -30 -71v-473q-247 0 -411 -9v460q0 45 -30 71q-28 23 -67 23t-67 -23q-30 -26 -30 -71v-1184q0 -44 30 -70q28 -24 67 -24t67 24
q30 26 30 70v530z" />
    <glyph glyph-name="I" unicode="I" horiz-adv-x="334" 
d="M253 1365q-26 23 -65 23q-40 0 -68 -23q-32 -26 -35 -70q-44 -789 0 -1202q5 -44 38 -70q30 -23 69 -23q40 0 64 23q28 26 23 70q-45 413 0 1202q3 44 -26 70z" />
    <glyph glyph-name="J" unicode="J" horiz-adv-x="763" 
d="M648 1354q-27 23 -66 23t-67 -23q-30 -26 -30 -71q-1 -83 5 -199l5 -100l5 -99q13 -245 -2 -399q-6 -60 -23 -118q-20 -70 -49 -113q-78 -112 -196 -18q-34 28 -75 22q-38 -4 -66 -32t-29 -62q-1 -37 33 -65q160 -128 318 -92q86 19 152 100q52 65 88 164q37 103 46 245
q6 90 2 251q-1 55 -5 129l-7 129q-9 160 -9 257q1 45 -30 71z" />
    <glyph glyph-name="K" unicode="K" horiz-adv-x="935" 
d="M254 386q26 -27 61 -68l30 -36l31 -37q77 -93 128 -139q157 -143 324 -92q43 13 60 50q15 33 4 71q-10 38 -40 57q-33 22 -75 9q-61 -18 -133 40q-26 20 -57 54q-10 10 -25 27l-11 13l-11 12l-40 46l-40 46q-49 58 -81 91q258 250 463 711q18 40 3 79q-14 35 -48 55
t-67 12q-37 -8 -55 -49q-192 -430 -421 -660v615q0 44 -30 70q-28 24 -67 24t-67 -24q-30 -26 -30 -70v-1198q0 -44 30 -71q28 -23 67 -23t67 23q30 27 30 71v291z" />
    <glyph glyph-name="L" unicode="L" horiz-adv-x="827" 
d="M249 204q-21 192 12 553l12 138q7 79 10 139q8 155 -1 277q-3 43 -35 69q-29 24 -68 24q-40 0 -65 -23q-29 -26 -26 -70q10 -135 1 -311q-4 -65 -11 -155l-12 -154q-31 -393 7 -619q5 -29 34 -52q30 -23 59 -20l60 8l61 8q71 8 122 12q139 10 243 -10q44 -8 77 16
q30 22 41 60t-5 69q-18 34 -61 42q-172 33 -455 -1z" />
    <glyph glyph-name="M" unicode="M" horiz-adv-x="1416" 
d="M814 424q45 15 61 63q81 256 193 462q-14 -273 8 -451q29 -243 128 -420q22 -39 61 -46q35 -7 69 13t46 54q13 38 -8 76q-105 187 -112 551q-2 118 7 293l8 146l7 147q1 41 -24 66q-23 23 -59 27q-35 3 -65 -14q-32 -18 -42 -53q-201 -263 -334 -600q-98 144 -260 331
l-69 79l-70 79q-93 104 -140 158q-23 27 -56 30t-62 -17q-39 -29 -48 -91q-3 -22 -3 -54v-26l1 -26v-135v-135v-837q0 -45 30 -71q27 -23 67 -23q39 0 66 23q30 26 30 71v971q318 -356 442 -581q6 -19 20 -34q41 -54 108 -26z" />
    <glyph glyph-name="N" unicode="N" horiz-adv-x="905" 
d="M254 998q106 -175 214 -454l45 -118l43 -119q55 -148 90 -233q8 -39 43 -58q35 -24 77 -12q17 5 33 17q23 15 32 41q11 25 6 49v1193q0 44 -30 71q-28 23 -67 23t-67 -23q-30 -27 -30 -71v-683q-182 464 -393 713q-11 34 -42 51q-29 16 -64 12t-58 -27q-26 -25 -26 -66
v-1210q0 -44 30 -70q28 -23 67 -23t67 23q30 26 30 70v904z" />
    <glyph glyph-name="O" unicode="O" horiz-adv-x="1006" 
d="M514 1191q34 1 68 -19q67 -38 113 -166q98 -274 13 -575q-47 -165 -161 -226q-97 -51 -175 60q-29 41 -53 101q-19 45 -31 93q-52 200 -34 381q22 239 167 322q51 27 93 29zM633 34q112 53 186 169q174 273 97 721q-31 181 -120 303q-107 149 -271 158q-83 4 -191 -49
l-11 -6q-7 -3 -14 -9q-188 -117 -235 -393q-35 -213 17 -476q30 -151 94 -257q79 -134 201 -177q123 -43 247 16z" />
    <glyph glyph-name="P" unicode="P" horiz-adv-x="637" 
d="M256 1174q125 -43 128 -153q5 -123 -128 -235v388zM256 551q147 85 233 205q100 140 88 291q-14 159 -147 252q-116 81 -286 89q-59 4 -83 -47q-23 -46 2 -94v-1153q0 -45 30 -71q27 -23 67 -23q39 0 66 23q30 26 30 71v457z" />
    <glyph glyph-name="Q" unicode="Q" horiz-adv-x="1011" 
d="M703 414q-56 82 -88 141q-22 39 -61 46q-35 7 -69 -13t-46 -54q-13 -38 8 -77q28 -49 70 -112l38 -55l38 -54q-21 -18 -46 -31q-97 -52 -175 59q-29 41 -53 101q-19 45 -31 93q-52 200 -34 382q22 239 167 322q51 26 93 28q34 2 68 -18q67 -39 113 -166q98 -274 13 -575z
M916 923q-31 182 -120 304q-107 149 -271 157q-83 4 -191 -49l-11 -6q-7 -3 -14 -8q-188 -117 -235 -393q-35 -214 17 -477q30 -151 94 -257q79 -133 201 -176q160 -56 312 54q62 -111 81 -212q8 -43 42 -61q30 -15 68 -5q38 11 60 41q25 34 17 77q-27 141 -135 312
q159 271 85 699z" />
    <glyph glyph-name="R" unicode="R" horiz-adv-x="758" 
d="M264 1207q125 -43 128 -154q4 -122 -128 -233v387zM656 3q32 10 52 44t15 71q-6 42 -41 68q-98 74 -166 236q-26 62 -50 145q-10 32 -20 72l-10 35l-9 34q174 173 158 372q-13 158 -146 251q-116 81 -285 91q-58 3 -82 -45q-23 -45 -2 -93v-1157q0 -44 31 -70
q27 -24 66 -24q40 0 67 24q30 26 30 70v445q118 -402 320 -553q36 -27 72 -16z" />
    <glyph glyph-name="S" unicode="S" horiz-adv-x="920" 
d="M485 780l-34 22l-33 22q-79 53 -118 106q-24 32 -35 59q-16 36 -10 65q8 41 59 67q41 22 89 26q101 8 171 -91q22 -30 54 -91l25 -46q14 -26 25 -43q24 -37 64 -44q36 -6 70 14t45 53q12 37 -12 74q-19 30 -50 86l-24 42l-25 41q-60 94 -131 143q-99 68 -234 55
q-131 -14 -222 -94q-150 -132 -73 -320q65 -157 234 -268q10 -7 44 -28q19 -11 30 -18q17 -11 32 -20q84 -54 137 -99q162 -137 87 -228q-37 -45 -104 -62q-65 -17 -131 -4q-69 14 -110 54q-46 46 -44 112q2 45 -27 71q-26 23 -65 23q-40 0 -68 -23q-32 -26 -33 -71
q-8 -174 142 -281q139 -98 316 -82q90 9 167 54t122 113q47 72 49 152q2 87 -49 170q-42 68 -119 136q-50 44 -144 110q-23 16 -67 43z" />
    <glyph glyph-name="T" unicode="T" horiz-adv-x="910" 
d="M154 1389q-45 0 -71 -31q-23 -27 -23 -67q0 -39 23 -66q26 -30 71 -30q130 1 197 0v-1101q0 -45 30 -71q28 -23 67 -23t67 23q30 26 30 71v1093q102 -7 185 -20q43 -7 77 18q30 23 41 61q10 38 -6 68q-17 33 -61 40q-229 37 -627 35z" />
    <glyph glyph-name="U" unicode="U" horiz-adv-x="849" 
d="M757 1327q-9 44 -43 61q-32 16 -70 5q-38 -10 -59 -40q-24 -34 -15 -77q58 -271 -11 -670q-35 -202 -100 -319l-3 -6l-3 -6l-10 -16q-13 -21 -26 -34q-36 -41 -58 -16q-10 10 -18 28l-6 16l-6 15q-10 29 -21 75q-29 114 -43 315q-10 137 -11 318v159l1 159q0 44 -30 70
q-27 24 -67 24q-39 0 -66 -24q-31 -26 -31 -70l-1 -179l1 -180q2 -202 16 -358l3 -35l4 -38q4 -46 8 -81q13 -98 34 -170q57 -195 191 -243q67 -25 145 13q66 31 115 93q97 123 152 354q100 430 35 825z" />
    <glyph glyph-name="V" unicode="V" horiz-adv-x="1107" 
d="M902 1391q-40 -20 -46 -58q-68 -461 -386 -998q-22 95 -53 252l-25 127l-26 126q-64 298 -149 493q-18 40 -55 49q-32 7 -66 -13t-49 -55q-15 -39 2 -79q91 -206 161 -578l28 -148q17 -88 29 -148q35 -168 75 -291q19 -61 81 -69q61 -8 96 46q173 264 314 578
q169 375 210 657q7 41 -10 73q-18 35 -57 46q-37 10 -74 -10z" />
    <glyph glyph-name="W" unicode="W" horiz-adv-x="1562" 
d="M368 4q52 -15 93 24q102 97 170 264q45 109 93 303q18 72 37 166l15 -82q76 -389 202 -575q23 -33 60 -45q41 -13 73 10q119 85 199 249q57 116 106 304q94 360 82 681q-2 44 -33 70q-28 23 -67 23q-40 0 -66 -23q-29 -26 -28 -70q10 -258 -61 -573l-6 -24l-6 -26
q-7 -29 -13 -53q-15 -62 -32 -112q-42 -130 -101 -206q-42 88 -74 207q-21 77 -48 215q-24 117 -50 298l-22 150l-23 149q-6 39 -32 57q-25 17 -58 13q-32 -3 -58 -24q-28 -22 -37 -54q-4 -9 -6 -17q-30 -114 -68 -308l-30 -154q-17 -89 -32 -154l-11 -47l-11 -47
q-13 -55 -26 -97q-32 -111 -72 -189q-114 400 -173 985q-4 44 -37 70q-29 23 -69 23q-39 0 -64 -23q-28 -26 -23 -70q75 -754 238 -1221q18 -53 69 -67z" />
    <glyph glyph-name="X" unicode="X" horiz-adv-x="951" 
d="M699 465l-92 135q-55 79 -92 135q154 270 343 492q29 33 24 74q-4 38 -32 65q-28 28 -62 30q-38 1 -67 -32q-173 -204 -319 -441q-111 201 -152 384q-10 43 -45 60q-31 16 -69 5q-38 -10 -59 -40q-24 -34 -14 -77q54 -240 228 -524q-185 -343 -228 -619q-7 -43 18 -77
q23 -30 61 -41q38 -10 68 5q33 18 40 61q35 222 163 484l76 -112l76 -111q85 -128 141 -226q22 -39 61 -46q35 -7 69 13t46 54q13 38 -9 77q-62 109 -174 272z" />
    <glyph glyph-name="Y" unicode="Y" horiz-adv-x="915" 
d="M232 737q48 -74 107 -105v-538q0 -45 31 -71q27 -23 66 -23q40 0 67 23q30 26 30 71v545q63 37 120 124q22 33 45 76q14 28 35 72q110 227 131 398q5 38 -28 68q-31 29 -69 29q-41 0 -68 -29q-24 -26 -29 -68q2 16 -2 -3l-1 -8l-2 -8q-2 -9 -2 -11q-7 -28 -22 -76
q-26 -83 -61 -163q-38 -89 -86 -163q-13 -20 -29 -38l-11 -14q-7 -8 -13 -13q-26 -21 -62 48q-11 23 -24 55q-3 10 -8 22l-1 5l-2 4q-1 4 -2 6l-14 40q-22 67 -47 168l-20 85l-20 85q-11 43 -47 60q-32 15 -70 5t-59 -40q-22 -34 -11 -77l24 -101l25 -101q30 -118 61 -199
q32 -84 68 -140z" />
    <glyph glyph-name="Z" unicode="Z" horiz-adv-x="915" 
d="M51 165q8 -115 126 -155q43 -15 106 -7q24 2 55 9l26 5l25 6q162 35 342 -16q43 -12 76 10q30 20 40 58q11 38 -5 70q-17 37 -59 49q-206 58 -503 4q-22 -4 -39 -3l1 4q9 39 35 87q10 17 25 41l12 20l13 19q47 76 131 203l67 100l67 101q154 240 237 422l3 9q28 42 16 86
q-13 49 -66 60q-127 28 -304 17q-61 -3 -154 -13l-76 -9l-75 -8q-43 -4 -69 -37q-23 -29 -24 -69q0 -39 23 -64q26 -28 70 -24q38 4 105 12l54 7l55 6q130 14 218 11q-53 -102 -134 -234l-71 -114l-73 -114q-22 -36 -56 -85l-57 -84q-71 -103 -108 -172q-62 -115 -55 -208z
" />
    <glyph glyph-name="bracketleft" unicode="[" horiz-adv-x="903" 
d="M542 -91l-108 -3q-62 -2 -107 -2q14 297 -19 782l-14 196l-13 195q-14 225 -17 391q145 9 337 -24q44 -7 77 18q31 22 41 60q11 38 -5 68q-17 34 -61 41q-302 51 -532 14q-55 -8 -68 -56q-11 -44 17 -86q2 -179 17 -423l15 -211l14 -212q35 -522 11 -846q-3 -40 29 -68
q28 -26 68 -29q59 -5 133 -4l67 2l67 2q177 7 266 0q44 -3 70 25q23 25 23 65q0 39 -23 68q-26 32 -70 36q-83 6 -215 1z" />
    <glyph glyph-name="backslash" unicode="\" horiz-adv-x="927" 
d="M193 1682q-33 16 -71 5q-38 -10 -58 -40q-22 -33 -10 -76l29 -100l29 -100q33 -115 59 -202q69 -228 132 -400q165 -446 380 -746q25 -36 67 -42q37 -5 71 15q34 19 44 52q11 36 -15 72q-209 293 -368 724q-61 167 -128 388q-25 84 -57 196l-56 195q-12 42 -48 59z" />
    <glyph glyph-name="bracketright" unicode="]" horiz-adv-x="758" 
d="M558 1684q-11 -1 -21 -5q-148 -60 -365 -14q-44 9 -77 -15q-30 -21 -41 -59q-10 -38 5 -69q18 -35 61 -44q216 -46 370 -15q-72 -511 -85 -787q-20 -443 60 -782q-140 3 -277 -10q-43 -4 -69 -36q-23 -30 -23 -69q-1 -40 23 -65q25 -28 69 -23q207 19 418 3q68 -5 88 56
q20 58 -20 104q-1 9 -3 16q-89 322 -63 847q15 305 92 858q6 41 -10 73q-18 35 -58 46q-36 10 -74 -10z" />
    <glyph glyph-name="asciicircum" unicode="^" horiz-adv-x="780" 
d="M639 1131q-55 109 -165 266q-27 38 -74 44q-50 5 -79 -31q-205 -253 -267 -561q-8 -43 16 -75q22 -29 60 -38q39 -9 70 8q35 19 43 63q40 197 147 369q135 -206 146 -350q4 -44 36 -69q29 -22 69 -20q39 2 64 26q28 28 25 72q-11 136 -91 296z" />
    <glyph glyph-name="underscore" unicode="_" horiz-adv-x="922" 
d="M94 -56q-45 -1 -71 -32q-23 -28 -23 -68q0 -39 23 -66q26 -29 71 -28q480 13 736 1q44 -2 70 27q23 26 23 65q0 40 -23 68q-26 31 -70 34q-256 12 -736 -1z" />
    <glyph glyph-name="grave" unicode="`" horiz-adv-x="390" 
d="M196 1405q-18 26 -48 34q-31 8 -58 -8q-18 -10 -28 -29q-11 -19 -11 -40t12 -38q59 -85 136 -154q38 -34 89 -10t44 76q-4 28 -24 46q-69 62 -112 123z" />
    <glyph glyph-name="a" unicode="a" 
d="M259 530q14 187 39 349q16 98 35 178l4 19l5 20q5 24 11 41q15 47 37 72l1 -1l3 -2q10 -10 22 -27q24 -37 45 -91q77 -206 104 -558h-306zM767 371q23 30 20 71t-31 66q-9 108 -18 185l-9 74l-10 76q-12 85 -27 151q-38 170 -109 282q-100 159 -254 117
q-87 -24 -138 -138q-19 -42 -35 -101q-5 -22 -12 -50l-5 -23l-5 -23q-83 -384 -84 -964q0 -45 30 -71q27 -23 67 -23q39 0 66 23q31 26 31 71q0 122 5 243h329q9 -146 19 -234q5 -44 38 -69q30 -24 69 -24q40 0 64 23q28 26 23 70q-11 93 -24 268z" />
    <glyph glyph-name="b" unicode="b" horiz-adv-x="1011" 
d="M267 631q163 -77 269 -163q68 -55 101 -99q36 -47 46 -89q-2 9 -3 8t-1 -7t1 -9q1 -5 2 -2l-2 -7q2 5 -1 1l-2 -5l-2 -5q0 1 -5 -3q-3 -3 -6 -5l-7 -5q-18 -11 -49 -21q-126 -41 -341 -23v434zM267 1198q218 38 384 -56q63 -35 88 -95q29 -68 -20 -116q-37 -37 -114 -54
q-28 -7 -66 -12l-32 -4l-15 -1l-14 -2q-36 -4 -105 -8l-53 -3l-53 -5v356zM73 162q-19 -44 3 -91q25 -51 82 -57q49 -5 89 -8q58 -4 110 -6q137 -3 239 16q285 52 280 266q-2 78 -52 158q-39 62 -109 128q-60 57 -137 110l17 2q245 41 319 193q56 116 7 239
q-45 112 -156 188q-130 88 -310 101q-159 12 -326 -35q-50 -14 -64 -59q-13 -42 8 -82v-1063z" />
    <glyph glyph-name="c" unicode="c" horiz-adv-x="809" 
d="M570 303l-37 -31q-49 -41 -77 -59q-66 -45 -120 41q-49 77 -67 215q-7 51 -10 118q-1 24 -2 56l-1 27l-1 26q-10 295 117 440q69 79 146 60q25 -6 33 -53q2 -16 2 -38l1 -30q0 -44 31 -70q27 -24 67 -24q39 0 66 23q30 27 29 71q-2 167 -82 253q-48 51 -131 63
q-74 10 -146 -14q-158 -53 -244 -235q-67 -142 -81 -338q-10 -137 25 -383q25 -176 91 -281q45 -71 114 -109q75 -41 153 -28q67 11 139 65l31 24l30 25q37 32 61 48q36 25 42 66q5 37 -14 71q-20 34 -53 44q-37 12 -73 -14q-18 -12 -39 -29z" />
    <glyph glyph-name="d" unicode="d" horiz-adv-x="1093" 
d="M264 1154q156 -45 289 -115q107 -57 173 -117q86 -80 110 -173q25 -100 -44 -216q-58 -98 -152 -166q-141 -100 -376 -153v940zM769 223q132 100 204 241q79 156 55 307q-39 240 -319 409q-209 125 -507 190q-23 5 -45 -1q-37 -3 -61 -26q-26 -26 -26 -67v-1129
q-24 -49 11 -101q37 -55 102 -44q379 64 586 221z" />
    <glyph glyph-name="e" unicode="e" horiz-adv-x="910" 
d="M164 1361q-50 -5 -76 -46q-23 -38 -15 -81q-10 -389 -12 -602q-2 -156 0 -321l2 -146v-34q0 -20 2 -34q5 -38 28 -60q39 -39 127 -37q29 1 72 6l17 3l17 2q19 3 30 4q79 8 186 22l186 25q42 5 68 29q28 26 28 68q0 38 -28 69q-31 33 -68 28l-160 -21l-159 -20
q-82 -10 -147 -15l-8 -1q2 18 1 25l-1 146q-1 113 1 273q64 -1 167 6l84 5l83 4q45 2 71 33q23 28 23 67t-23 66q-26 30 -71 28l-83 -4l-82 -5q-103 -7 -166 -6l8 340q268 22 464 -6q42 -6 74 10q35 18 46 57q10 37 -10 75q-20 39 -58 45q-275 39 -618 3z" />
    <glyph glyph-name="f" unicode="f" horiz-adv-x="794" 
d="M254 635q60 13 149 23l76 7l75 9q42 5 68 29q29 26 29 68q0 37 -29 69q-30 32 -68 28l-75 -9l-75 -7q-92 -10 -150 -20v328q200 28 393 13q44 -4 70 25q23 25 23 64q0 40 -24 69q-26 32 -69 36q-237 19 -515 -31q-76 -13 -70 -89q-2 -10 -2 -21v-1132q0 -45 30 -71
q28 -23 67 -23t67 23q30 26 30 71v541z" />
    <glyph glyph-name="g" unicode="g" horiz-adv-x="930" 
d="M832 273q65 193 18 377q-12 49 -55 64q-40 13 -80 -7q-71 -7 -181 3q-39 3 -69 -29q-28 -30 -28 -68q0 -41 29 -68q27 -26 68 -29q70 -6 141 -3q4 -106 -28 -190q-38 -101 -116 -127q-43 -14 -92 26q-18 16 -37 39q-14 16 -30 38q-65 92 -100 241q-30 133 -16 266
q16 141 80 252q52 89 132 124q95 42 128 -66q13 -43 50 -60q34 -15 72 -4q38 10 57 40q21 33 8 75q-64 208 -253 223q-78 6 -163 -39q-73 -40 -132 -106q-128 -140 -162 -358q-31 -190 12 -398q43 -205 164 -349q148 -176 334 -131q176 44 249 264z" />
    <glyph glyph-name="h" unicode="h" horiz-adv-x="913" 
d="M254 637q164 9 411 9v-552q0 -45 30 -71q27 -23 67 -23q39 0 66 23q31 26 31 71v1219q0 45 -31 71q-27 23 -66 23q-40 0 -67 -23q-30 -26 -30 -71v-473q-247 0 -411 -9v460q0 45 -30 71q-28 23 -67 23t-67 -23q-30 -26 -30 -71v-1184q0 -44 30 -70q28 -24 67 -24t67 24
q30 26 30 70v530z" />
    <glyph glyph-name="i" unicode="i" horiz-adv-x="420" 
d="M114 94q0 -45 30 -71q28 -23 67 -23t67 23q30 26 30 71v780q0 44 -30 70q-28 24 -67 24t-67 -24q-30 -26 -30 -70v-780zM334 1196q42 63 47 107q7 54 -45 76q-24 10 -48 1q-20 -7 -38 -26q-20 -21 -31 -46q-19 27 -46 49q-55 44 -102 14q-41 -26 -28 -81q11 -44 57 -103
q52 -68 119 -127q67 64 115 136z" />
    <glyph glyph-name="j" unicode="j" horiz-adv-x="763" 
d="M648 1354q-27 23 -66 23t-67 -23q-30 -26 -30 -71q-1 -83 5 -199l5 -100l5 -99q13 -245 -2 -399q-6 -60 -23 -118q-20 -70 -49 -113q-78 -112 -196 -18q-34 28 -75 22q-38 -4 -66 -32t-29 -62q-1 -37 33 -65q160 -128 318 -92q86 19 152 100q52 65 88 164q37 103 46 245
q6 90 2 251q-1 55 -5 129l-7 129q-9 160 -9 257q1 45 -30 71z" />
    <glyph glyph-name="k" unicode="k" horiz-adv-x="935" 
d="M254 386q26 -27 61 -68l30 -36l31 -37q77 -93 128 -139q157 -143 324 -92q43 13 60 50q15 33 4 71q-10 38 -40 57q-33 22 -75 9q-61 -18 -133 40q-26 20 -57 54q-10 10 -25 27l-11 13l-11 12l-40 46l-40 46q-49 58 -81 91q258 250 463 711q18 40 3 79q-14 35 -48 55
t-67 12q-37 -8 -55 -49q-192 -430 -421 -660v615q0 44 -30 70q-28 24 -67 24t-67 -24q-30 -26 -30 -70v-1198q0 -44 30 -71q28 -23 67 -23t67 23q30 27 30 71v291z" />
    <glyph glyph-name="l" unicode="l" horiz-adv-x="827" 
d="M249 204q-21 192 12 553l12 138q7 79 10 139q8 155 -1 277q-3 43 -35 69q-29 24 -68 24q-40 0 -65 -23q-29 -26 -26 -70q10 -135 1 -311q-4 -65 -11 -155l-12 -154q-31 -393 7 -619q5 -29 34 -52q30 -23 59 -20l60 8l61 8q71 8 122 12q139 10 243 -10q44 -8 77 16
q30 22 41 60t-5 69q-18 34 -61 42q-172 33 -455 -1z" />
    <glyph glyph-name="m" unicode="m" horiz-adv-x="1416" 
d="M814 424q45 15 61 63q81 256 193 462q-14 -273 8 -451q29 -243 128 -420q22 -39 61 -46q35 -7 69 13t46 54q13 38 -8 76q-105 187 -112 551q-2 118 7 293l8 146l7 147q1 41 -24 66q-23 23 -59 27q-35 3 -65 -14q-32 -18 -42 -53q-201 -263 -334 -600q-98 144 -260 331
l-69 79l-70 79q-93 104 -140 158q-23 27 -56 30t-62 -17q-39 -29 -48 -91q-3 -22 -3 -54v-26l1 -26v-135v-135v-837q0 -45 30 -71q27 -23 67 -23q39 0 66 23q30 26 30 71v971q318 -356 442 -581q6 -19 20 -34q41 -54 108 -26z" />
    <glyph glyph-name="n" unicode="n" horiz-adv-x="905" 
d="M254 998q106 -175 214 -454l45 -118l43 -119q55 -148 90 -233q8 -39 43 -58q35 -24 77 -12q17 5 33 17q23 15 32 41q11 25 6 49v1193q0 44 -30 71q-28 23 -67 23t-67 -23q-30 -27 -30 -71v-683q-182 464 -393 713q-11 34 -42 51q-29 16 -64 12t-58 -27q-26 -25 -26 -66
v-1210q0 -44 30 -70q28 -23 67 -23t67 23q30 26 30 70v904z" />
    <glyph glyph-name="o" unicode="o" horiz-adv-x="1006" 
d="M514 1191q34 1 68 -19q67 -38 113 -166q98 -274 13 -575q-47 -165 -161 -226q-97 -51 -175 60q-29 41 -53 101q-19 45 -31 93q-52 200 -34 381q22 239 167 322q51 27 93 29zM633 34q112 53 186 169q174 273 97 721q-31 181 -120 303q-107 149 -271 158q-83 4 -191 -49
l-11 -6q-7 -3 -14 -9q-188 -117 -235 -393q-35 -213 17 -476q30 -151 94 -257q79 -134 201 -177q123 -43 247 16z" />
    <glyph glyph-name="p" unicode="p" horiz-adv-x="637" 
d="M256 1174q125 -43 128 -153q5 -123 -128 -235v388zM256 551q147 85 233 205q100 140 88 291q-14 159 -147 252q-116 81 -286 89q-59 4 -83 -47q-23 -46 2 -94v-1153q0 -45 30 -71q27 -23 67 -23q39 0 66 23q30 26 30 71v457z" />
    <glyph glyph-name="q" unicode="q" horiz-adv-x="1011" 
d="M703 414q-56 82 -88 141q-22 39 -61 46q-35 7 -69 -13t-46 -54q-13 -38 8 -77q28 -49 70 -112l38 -55l38 -54q-21 -18 -46 -31q-97 -52 -175 59q-29 41 -53 101q-19 45 -31 93q-52 200 -34 382q22 239 167 322q51 26 93 28q34 2 68 -18q67 -39 113 -166q98 -274 13 -575z
M916 923q-31 182 -120 304q-107 149 -271 157q-83 4 -191 -49l-11 -6q-7 -3 -14 -8q-188 -117 -235 -393q-35 -214 17 -477q30 -151 94 -257q79 -133 201 -176q160 -56 312 54q62 -111 81 -212q8 -43 42 -61q30 -15 68 -5q38 11 60 41q25 34 17 77q-27 141 -135 312
q159 271 85 699z" />
    <glyph glyph-name="r" unicode="r" horiz-adv-x="758" 
d="M264 1207q125 -43 128 -154q4 -122 -128 -233v387zM656 3q32 10 52 44t15 71q-6 42 -41 68q-98 74 -166 236q-26 62 -50 145q-10 32 -20 72l-10 35l-9 34q174 173 158 372q-13 158 -146 251q-116 81 -285 91q-58 3 -82 -45q-23 -45 -2 -93v-1157q0 -44 31 -70
q27 -24 66 -24q40 0 67 24q30 26 30 70v445q118 -402 320 -553q36 -27 72 -16z" />
    <glyph glyph-name="s" unicode="s" horiz-adv-x="920" 
d="M485 780l-34 22l-33 22q-79 53 -118 106q-24 32 -35 59q-16 36 -10 65q8 41 59 67q41 22 89 26q101 8 171 -91q22 -30 54 -91l25 -46q14 -26 25 -43q24 -37 64 -44q36 -6 70 14t45 53q12 37 -12 74q-19 30 -50 86l-24 42l-25 41q-60 94 -131 143q-99 68 -234 55
q-131 -14 -222 -94q-150 -132 -73 -320q65 -157 234 -268q10 -7 44 -28q19 -11 30 -18q17 -11 32 -20q84 -54 137 -99q162 -137 87 -228q-37 -45 -104 -62q-65 -17 -131 -4q-69 14 -110 54q-46 46 -44 112q2 45 -27 71q-26 23 -65 23q-40 0 -68 -23q-32 -26 -33 -71
q-8 -174 142 -281q139 -98 316 -82q90 9 167 54t122 113q47 72 49 152q2 87 -49 170q-42 68 -119 136q-50 44 -144 110q-23 16 -67 43z" />
    <glyph glyph-name="t" unicode="t" horiz-adv-x="910" 
d="M154 1389q-45 0 -71 -31q-23 -27 -23 -67q0 -39 23 -66q26 -30 71 -30q130 1 197 0v-1101q0 -45 30 -71q28 -23 67 -23t67 23q30 26 30 71v1093q102 -7 185 -20q43 -7 77 18q30 23 41 61q10 38 -6 68q-17 33 -61 40q-229 37 -627 35z" />
    <glyph glyph-name="u" unicode="u" horiz-adv-x="849" 
d="M757 1327q-9 44 -43 61q-32 16 -70 5q-38 -10 -59 -40q-24 -34 -15 -77q58 -271 -11 -670q-35 -202 -100 -319l-3 -6l-3 -6l-10 -16q-13 -21 -26 -34q-36 -41 -58 -16q-10 10 -18 28l-6 16l-6 15q-10 29 -21 75q-29 114 -43 315q-10 137 -11 318v159l1 159q0 44 -30 70
q-27 24 -67 24q-39 0 -66 -24q-31 -26 -31 -70l-1 -179l1 -180q2 -202 16 -358l3 -35l4 -38q4 -46 8 -81q13 -98 34 -170q57 -195 191 -243q67 -25 145 13q66 31 115 93q97 123 152 354q100 430 35 825z" />
    <glyph glyph-name="v" unicode="v" horiz-adv-x="1107" 
d="M902 1391q-40 -20 -46 -58q-68 -461 -386 -998q-22 95 -53 252l-25 127l-26 126q-64 298 -149 493q-18 40 -55 49q-32 7 -66 -13t-49 -55q-15 -39 2 -79q91 -206 161 -578l28 -148q17 -88 29 -148q35 -168 75 -291q19 -61 81 -69q61 -8 96 46q173 264 314 578
q169 375 210 657q7 41 -10 73q-18 35 -57 46q-37 10 -74 -10z" />
    <glyph glyph-name="w" unicode="w" horiz-adv-x="1562" 
d="M368 4q52 -15 93 24q102 97 170 264q45 109 93 303q18 72 37 166l15 -82q76 -389 202 -575q23 -33 60 -45q41 -13 73 10q119 85 199 249q57 116 106 304q94 360 82 681q-2 44 -33 70q-28 23 -67 23q-40 0 -66 -23q-29 -26 -28 -70q10 -258 -61 -573l-6 -24l-6 -26
q-7 -29 -13 -53q-15 -62 -32 -112q-42 -130 -101 -206q-42 88 -74 207q-21 77 -48 215q-24 117 -50 298l-22 150l-23 149q-6 39 -32 57q-25 17 -58 13q-32 -3 -58 -24q-28 -22 -37 -54q-4 -9 -6 -17q-30 -114 -68 -308l-30 -154q-17 -89 -32 -154l-11 -47l-11 -47
q-13 -55 -26 -97q-32 -111 -72 -189q-114 400 -173 985q-4 44 -37 70q-29 23 -69 23q-39 0 -64 -23q-28 -26 -23 -70q75 -754 238 -1221q18 -53 69 -67z" />
    <glyph glyph-name="x" unicode="x" horiz-adv-x="951" 
d="M699 465l-92 135q-55 79 -92 135q154 270 343 492q29 33 24 74q-4 38 -32 65q-28 28 -62 30q-38 1 -67 -32q-173 -204 -319 -441q-111 201 -152 384q-10 43 -45 60q-31 16 -69 5q-38 -10 -59 -40q-24 -34 -14 -77q54 -240 228 -524q-185 -343 -228 -619q-7 -43 18 -77
q23 -30 61 -41q38 -10 68 5q33 18 40 61q35 222 163 484l76 -112l76 -111q85 -128 141 -226q22 -39 61 -46q35 -7 69 13t46 54q13 38 -9 77q-62 109 -174 272z" />
    <glyph glyph-name="y" unicode="y" horiz-adv-x="915" 
d="M232 737q48 -74 107 -105v-538q0 -45 31 -71q27 -23 66 -23q40 0 67 23q30 26 30 71v545q63 37 120 124q22 33 45 76q14 28 35 72q110 227 131 398q5 38 -28 68q-31 29 -69 29q-41 0 -68 -29q-24 -26 -29 -68q2 16 -2 -3l-1 -8l-2 -8q-2 -9 -2 -11q-7 -28 -22 -76
q-26 -83 -61 -163q-38 -89 -86 -163q-13 -20 -29 -38l-11 -14q-7 -8 -13 -13q-26 -21 -62 48q-11 23 -24 55q-3 10 -8 22l-1 5l-2 4q-1 4 -2 6l-14 40q-22 67 -47 168l-20 85l-20 85q-11 43 -47 60q-32 15 -70 5t-59 -40q-22 -34 -11 -77l24 -101l25 -101q30 -118 61 -199
q32 -84 68 -140z" />
    <glyph glyph-name="z" unicode="z" horiz-adv-x="915" 
d="M51 165q8 -115 126 -155q43 -15 106 -7q24 2 55 9l26 5l25 6q162 35 342 -16q43 -12 76 10q30 20 40 58q11 38 -5 70q-17 37 -59 49q-206 58 -503 4q-22 -4 -39 -3l1 4q9 39 35 87q10 17 25 41l12 20l13 19q47 76 131 203l67 100l67 101q154 240 237 422l3 9q28 42 16 86
q-13 49 -66 60q-127 28 -304 17q-61 -3 -154 -13l-76 -9l-75 -8q-43 -4 -69 -37q-23 -29 -24 -69q0 -39 23 -64q26 -28 70 -24q38 4 105 12l54 7l55 6q130 14 218 11q-53 -102 -134 -234l-71 -114l-73 -114q-22 -36 -56 -85l-57 -84q-71 -103 -108 -172q-62 -115 -55 -208z
" />
    <glyph glyph-name="braceleft" unicode="{" horiz-adv-x="813" 
d="M480 -152q-18 4 -27 12l-4 4l-2 3l-2 2l-3 6l-3 5l-3 6q-16 46 -14 123q1 27 4 68l3 34l2 34q11 152 -7 253q-25 135 -104 208q85 73 119 159q22 55 7 130q-6 29 -18 64l-12 31l-11 30q-43 109 -56 170q-20 96 0 176q23 86 95 123q69 36 157 17q43 -9 77 15q30 21 40 59
q11 38 -5 69q-17 35 -60 44q-243 51 -393 -101q-72 -73 -99 -183q-25 -100 -10 -209q9 -67 44 -164l15 -40l15 -40q17 -47 27 -81q5 -19 6 -36q0 -11 -10 -29q-20 -36 -68 -72q-17 -13 -43 -30l-21 -13l-20 -13q-46 -30 -44 -84q-7 -36 9 -64q18 -31 59 -40q64 -15 92 -53
q24 -33 30 -101q5 -64 -1 -161l-6 -80q-4 -48 -5 -80q-6 -193 80 -291q61 -69 177 -77q81 -6 197 20q43 10 61 44q15 32 5 70q-11 38 -41 59q-33 23 -76 14q-101 -22 -153 -10z" />
    <glyph glyph-name="bar" unicode="|" horiz-adv-x="319" 
d="M60 -226q0 -45 30 -71q28 -23 67 -23t67 23q30 26 30 71v1944q0 45 -30 71q-28 23 -67 23t-67 -23q-30 -26 -30 -71v-1944z" />
    <glyph glyph-name="braceright" unicode="}" horiz-adv-x="775" 
d="M669 766q-64 62 -75 139q-9 60 13 160q51 233 24 351q-38 169 -186 256q-75 45 -170 36q-84 -7 -167 -54q-39 -22 -46 -60q-7 -34 13 -68q20 -33 54 -45q38 -13 76 8q124 69 197 -29q70 -95 36 -264l-15 -69l-15 -69q-15 -80 -14 -140q2 -108 71 -208q-92 -52 -119 -154
q-21 -78 -1 -179q14 -71 54 -172l16 -38l17 -39q20 -47 31 -77q31 -90 16 -163q-18 -90 -110 -107q-68 -13 -168 16q-42 12 -75 -10q-30 -19 -41 -57q-10 -37 5 -69q17 -36 60 -48q265 -76 424 61q74 64 94 176q17 92 -4 203q-12 61 -57 165l-18 40l-17 41q-19 46 -29 83
q-21 80 -9 122q16 56 91 63q70 7 89 75q18 65 -27 100q-7 13 -18 24z" />
    <glyph glyph-name="asciitilde" unicode="~" horiz-adv-x="1402" 
d="M1114 791l-7 -17l-6 -18q-9 -24 -15 -38q-19 -43 -46 -61q-41 -28 -69 -19q-23 8 -54 50q-13 18 -28 42l-26 43q-34 57 -54 85q-61 82 -156 108q-91 24 -192 -10q-81 -27 -168 -113l-36 -37l-35 -37q-43 -45 -74 -71q-34 -28 -33 -66q1 -34 29 -62t65 -32q42 -5 76 23
q25 21 63 64l32 35q19 21 33 35q79 80 154 87q37 3 61 -14q18 -13 41 -49l29 -46l28 -45q34 -52 63 -89q68 -87 172 -95q98 -8 192 55q61 42 108 156l18 45q11 25 21 43q24 46 56 75q33 30 31 69q-2 35 -30 62q-28 28 -65 32q-40 4 -73 -26q-62 -55 -105 -164z" />
    <glyph glyph-name="exclamdown" unicode="&#xa1;" horiz-adv-x="318" 
d="M64 -316q0 -45 31 -71q27 -23 66 -23q40 0 67 23q30 26 30 71v809q0 45 -30 71q-27 23 -67 23q-39 0 -66 -23q-31 -26 -31 -71v-809zM225 767q29 29 29 68v77q0 40 -29 68q-28 29 -68 29t-68 -29q-29 -28 -29 -68v-77q0 -39 29 -68q28 -29 68 -29t68 29z" />
    <glyph glyph-name="cent" unicode="&#xa2;" horiz-adv-x="738" 
d="M504 27q102 54 156 161q19 39 5 78q-13 35 -47 55q-34 19 -68 12q-38 -8 -58 -47q-33 -66 -89 -97q-29 -17 -57 8q-10 9 -20 25q-8 11 -16 26q-33 63 -46 171q-4 40 -7 92l-1 44l-1 21v20q-8 237 94 353q21 25 47 40q33 18 58 7q15 -7 19 -40q1 -11 1 -26v-12v-9
q1 -44 31 -70q28 -24 67 -24q40 0 67 23q29 27 29 71q-2 142 -73 222q-34 39 -93 53q3 49 3 81q0 40 -29 68q-29 29 -68 29q-40 0 -68 -29q-29 -28 -29 -68q0 -38 -4 -103q-118 -56 -183 -209q-51 -120 -62 -277q-8 -114 23 -327q26 -181 104 -268q53 -59 121 -79l-4 -85
q-2 -39 28 -68t69 -29q40 0 68 29q26 27 29 68q4 68 4 110z" />
    <glyph glyph-name="sterling" unicode="&#xa3;" horiz-adv-x="1014" 
d="M468 235q54 52 89 107q87 133 38 268q56 3 101 1t71 28q23 26 23 65q0 40 -24 68q-26 31 -70 33q-54 2 -121 -2l-60 -6l-60 -6q-38 41 -52 83q-24 80 32 175q51 87 145 120q99 34 183 -17q37 -23 75 -10q34 11 53 45q20 34 14 70q-7 40 -45 63q-109 66 -238 54
q-120 -12 -224 -87q-103 -75 -155 -186q-56 -119 -34 -243q8 -42 25 -82h-18q-44 2 -70 -27q-23 -26 -23 -66q0 -39 23 -67q26 -32 70 -33q70 -3 173 7q37 -38 33 -67q-12 -83 -88 -158q-29 -29 -71 -61l-38 -28l-37 -25l-30 -21l-30 -22q-33 -24 -57 -45q-32 -29 -31 -67
q1 -34 28 -62q26 -28 62 -33q40 -6 73 20q146 23 332 23q74 1 167 -2l167 -6q44 -2 70 27q24 26 24 66q-1 39 -24 67q-26 32 -70 33q-247 11 -401 6z" />
    <glyph glyph-name="section" unicode="&#xa7;" horiz-adv-x="989" 
d="M523 622l50 -20q28 -11 49 -22q71 -34 91 -90q22 -61 -34 -113q-47 -45 -132 -73q-58 -19 -150 -35l-27 17q-112 70 -105 182q3 58 54 115q45 51 106 81q32 -15 98 -42zM261 1310q-95 -116 -91 -253q4 -120 98 -236q-92 -65 -144 -153q-56 -94 -54 -202q2 -116 96 -214
q72 -75 201 -137q39 -18 103 -44l52 -21l52 -21l8 -4l8 -3l17 -8q21 -10 33 -18q35 -26 20 -59q-33 -74 -159 -118q-122 -43 -202 -16q-42 15 -74 -5q-29 -17 -40 -54q-10 -37 5 -71q16 -37 58 -51q101 -35 240 -1q117 30 221 98q112 72 141 185q31 124 -63 214
q-41 41 -118 75q216 91 243 254q14 83 -24 165q-37 78 -109 130q-50 35 -151 74l-39 15l-39 15q-43 19 -75 37q-105 64 -107 172q-2 103 87 179q78 66 165 57q92 -9 126 -102q15 -40 53 -56q34 -15 72 -4q38 10 56 38q21 32 6 73q-52 140 -173 202q-122 62 -269 20
q-138 -40 -230 -152z" />
    <glyph glyph-name="acute" unicode="&#xb4;" horiz-adv-x="380" 
d="M290 1439q-22 12 -44 8q-17 -3 -29 -10q-17 -10 -29 -27q-43 -60 -112 -122q-28 -25 -23 -62q4 -36 35 -57q49 -32 100 9q21 18 46 44l21 24l21 24q21 25 45 59q12 17 12 39q0 21 -11 40q-11 20 -32 31z" />
    <glyph glyph-name="questiondown" unicode="&#xbf;" horiz-adv-x="727" 
d="M504 -372q85 43 152 142q25 37 13 73q-10 34 -44 53q-34 20 -71 14q-41 -6 -66 -42q-48 -72 -98 -69q-44 3 -80 60q-33 51 -48 123q-16 71 -5 122q16 71 74 161l26 38l26 37q34 49 49 73q114 179 112 353q0 44 -31 70q-27 24 -67 24q-39 0 -66 -23q-30 -27 -29 -71
q1 -98 -58 -207q-20 -39 -56 -93l-31 -45l-30 -45q-144 -221 -109 -438q17 -103 79 -190q65 -91 157 -129q101 -42 201 9zM528 1021q23 27 23 67q0 39 -23 66q-26 31 -71 31q-44 0 -70 -31q-23 -27 -23 -66q0 -40 23 -67q26 -30 70 -30q45 0 71 30z" />
    <glyph glyph-name="Agrave" unicode="&#xc0;" 
d="M259 530q14 187 39 349q16 98 35 178l4 19l5 20q5 24 11 41q15 47 37 72l1 -1l3 -2q10 -10 22 -27q24 -37 45 -91q77 -206 104 -558h-306zM767 371q23 30 20 71t-31 66q-9 108 -18 185l-9 74l-10 76q-12 85 -27 151q-38 170 -109 282q-100 159 -254 117
q-87 -24 -138 -138q-19 -42 -35 -101q-5 -22 -12 -50l-5 -23l-5 -23q-83 -384 -84 -964q0 -45 30 -71q27 -23 67 -23q39 0 66 23q31 26 31 71q0 122 5 243h329q9 -146 19 -234q5 -44 38 -69q30 -24 69 -24q40 0 64 23q28 26 23 70q-11 93 -24 268zM289 1756q-18 26 -48 34
q-31 8 -58 -8q-18 -10 -28 -29q-11 -19 -11 -40t12 -38q59 -85 136 -154q38 -34 89 -10t44 76q-4 28 -24 46q-69 62 -112 123z" />
    <glyph glyph-name="Aacute" unicode="&#xc1;" 
d="M259 530q14 187 39 349q16 98 35 178l4 19l5 20q5 24 11 41q15 47 37 72l1 -1l3 -2q10 -10 22 -27q24 -37 45 -91q77 -206 104 -558h-306zM767 371q23 30 20 71t-31 66q-9 108 -18 185l-9 74l-10 76q-12 85 -27 151q-38 170 -109 282q-100 159 -254 117
q-87 -24 -138 -138q-19 -42 -35 -101q-5 -22 -12 -50l-5 -23l-5 -23q-83 -384 -84 -964q0 -45 30 -71q27 -23 67 -23q39 0 66 23q31 26 31 71q0 122 5 243h329q9 -146 19 -234q5 -44 38 -69q30 -24 69 -24q40 0 64 23q28 26 23 70q-11 93 -24 268zM574 1784q-22 12 -44 8
q-17 -3 -29 -10q-17 -10 -29 -27q-43 -60 -112 -122q-28 -25 -23 -62q4 -36 35 -57q49 -32 100 9q21 18 46 44l21 24l21 24q21 25 45 59q12 17 12 39q0 21 -11 40q-11 20 -32 31z" />
    <glyph glyph-name="Acircumflex" unicode="&#xc2;" 
d="M259 530q14 187 39 349q16 98 35 178l4 19l5 20q5 24 11 41q15 47 37 72l1 -1l3 -2q10 -10 22 -27q24 -37 45 -91q77 -206 104 -558h-306zM767 371q23 30 20 71t-31 66q-9 108 -18 185l-9 74l-10 76q-12 85 -27 151q-38 170 -109 282q-100 159 -254 117
q-87 -24 -138 -138q-19 -42 -35 -101q-5 -22 -12 -50l-5 -23l-5 -23q-83 -384 -84 -964q0 -45 30 -71q27 -23 67 -23q39 0 66 23q31 26 31 71q0 122 5 243h329q9 -146 19 -234q5 -44 38 -69q30 -24 69 -24q40 0 64 23q28 26 23 70q-11 93 -24 268zM428 1787q-13 6 -29 6
t-31 -6q-16 -6 -27 -17q-27 -27 -62 -71l-28 -36l-29 -36q-19 -23 -19 -51q0 -33 24 -58q10 -12 24 -18q30 -15 58 -1q14 7 25 20l28 34l26 34l18 -30l18 -30q24 -35 65 -35q31 0 56 21q21 18 25 45q3 26 -12 50l-26 40l-24 40q-31 50 -55 81q-10 12 -25 18z" />
    <glyph glyph-name="Atilde" unicode="&#xc3;" 
d="M259 530q14 187 39 349q16 98 35 178l4 19l5 20q5 24 11 41q15 47 37 72l1 -1l3 -2q10 -10 22 -27q24 -37 45 -91q77 -206 104 -558h-306zM767 371q23 30 20 71t-31 66q-9 108 -18 185l-9 74l-10 76q-12 85 -27 151q-38 170 -109 282q-100 159 -254 117
q-87 -24 -138 -138q-19 -42 -35 -101q-5 -22 -12 -50l-5 -23l-5 -23q-83 -384 -84 -964q0 -45 30 -71q27 -23 67 -23q39 0 66 23q31 26 31 71q0 122 5 243h329q9 -146 19 -234q5 -44 38 -69q30 -24 69 -24q40 0 64 23q28 26 23 70q-11 93 -24 268zM595 1722q-21 14 -44 14
q-27 0 -46 -21q-15 -16 -26 -45l-2 -4l-15 17q-20 20 -36 31q-44 30 -99 22q-46 -8 -86 -61l-17 -22q-9 -12 -15 -19q-21 -23 -21 -52q0 -40 35 -66q35 -27 72 -10q14 6 25 19q16 18 35 45l19 -21q53 -57 105 -58q59 -2 109 62q23 29 39 65q7 17 7 34t-8 33q-10 22 -31 37z
" />
    <glyph glyph-name="Adieresis" unicode="&#xc4;" 
d="M259 530q14 187 39 349q16 98 35 178l4 19l5 20q5 24 11 41q15 47 37 72l1 -1l3 -2q10 -10 22 -27q24 -37 45 -91q77 -206 104 -558h-306zM767 371q23 30 20 71t-31 66q-9 108 -18 185l-9 74l-10 76q-12 85 -27 151q-38 170 -109 282q-100 159 -254 117
q-87 -24 -138 -138q-19 -42 -35 -101q-5 -22 -12 -50l-5 -23l-5 -23q-83 -384 -84 -964q0 -45 30 -71q27 -23 67 -23q39 0 66 23q31 26 31 71q0 122 5 243h329q9 -146 19 -234q5 -44 38 -69q30 -24 69 -24q40 0 64 23q28 26 23 70q-11 93 -24 268zM279 1642q-18 0 -33 -7
q-21 -9 -32 -30q-15 -26 -9 -58q6 -34 32 -49q15 -10 32 -11q53 -3 75 36q17 30 8 64q-10 35 -40 48q-15 7 -33 7zM496 1646q-18 0 -33 -7q-21 -10 -33 -30q-14 -26 -8 -58q6 -33 31 -48q37 -24 76 -7q21 10 32 31q28 49 -9 93q-22 26 -56 26z" />
    <glyph glyph-name="Aring" unicode="&#xc5;" horiz-adv-x="844" 
d="M259 530q14 187 39 349q16 99 35 178l4 19l5 20q5 24 11 41q15 47 37 72l1 -1l3 -2q10 -10 22 -27q24 -37 45 -91q77 -206 104 -558h-306zM376 1515q12 2 30 -8q17 -10 23 -20t7 -20q1 -13 -5 -26q-22 -33 -47 -33q-27 0 -38 31q-9 29 3 54q9 19 27 22zM767 371
q23 30 20 71t-31 66q-9 108 -18 185l-9 74l-10 76q-12 85 -27 151q-38 170 -109 282q-23 37 -51 64l12 15q5 6 9 14q5 7 8 16q30 69 8 137q-22 69 -87 109q-42 26 -92 26q-49 0 -91 -25q-43 -26 -67 -70q-29 -54 -25 -115q3 -60 36 -108q-43 -48 -72 -136q-11 -33 -21 -75
q-4 -16 -8 -36l-4 -17l-4 -17q-83 -384 -84 -964q0 -45 30 -71q27 -23 67 -23q39 0 66 23q31 26 31 71q0 122 5 243h329q9 -147 19 -234q5 -44 38 -69q30 -24 69 -24q40 0 64 23q28 26 23 70q-11 93 -24 268z" />
    <glyph glyph-name="AE" unicode="&#xc6;" horiz-adv-x="1426" 
d="M259 530q13 173 35 324l7 43l7 44q8 50 16 88q22 99 56 167q3 6 6 10l4 4q12 -11 20 -22q24 -34 41 -75q88 -211 115 -583h-307zM697 1385q-50 -5 -75 -47q-24 -37 -16 -81v-19q-18 32 -36 58q-51 69 -117 94q-74 29 -148 -7q-79 -38 -124 -152q-17 -43 -31 -101
q-5 -22 -11 -50l-5 -24l-5 -23q-78 -389 -79 -939q0 -45 30 -71q27 -23 67 -23q39 0 66 23q31 26 31 71q0 123 4 243h330q8 -124 15 -199q2 -17 8 -31q7 -28 25 -47q39 -38 127 -36q29 0 72 6l18 2l16 3q19 2 30 3q79 9 186 23l186 24q42 6 68 30q29 26 29 67q0 38 -29 69
q-31 33 -68 28l-160 -21l-159 -20q-82 -9 -147 -14l-8 -1q2 17 2 24l-2 146v30q1 11 0 21l1 223q64 -2 167 5l84 6l84 4q44 1 70 32q23 28 23 68q0 39 -23 66q-26 29 -70 28l-83 -4l-83 -6q-103 -7 -166 -6l8 340q269 22 464 -6q42 -6 74 10q35 18 46 58q10 36 -10 74
q-20 40 -58 45q-275 39 -618 4z" />
    <glyph glyph-name="Ccedilla" unicode="&#xc7;" horiz-adv-x="804" 
d="M570 304l-37 -31q-49 -41 -77 -59q-66 -45 -120 41q-49 77 -67 215q-7 51 -10 118q-1 24 -2 56l-1 27l-1 26q-10 295 117 440q69 79 146 60q25 -6 33 -53q2 -16 2 -38l1 -30q0 -44 31 -70q27 -24 67 -24q39 0 66 24q30 26 29 70q-2 167 -82 253q-48 51 -131 63
q-74 10 -146 -14q-158 -53 -244 -235q-67 -142 -81 -338q-10 -137 25 -383q25 -176 91 -281t174 -132q-13 -56 -17 -85q-2 -23 15 -45t39 -26q47 -9 73 -17l5 -2q-13 -9 -37 -13q-10 -2 -21 -3q-9 0 -18 -1q-34 0 -53 -24q-18 -21 -18 -51t18 -50q19 -23 53 -22q74 2 132 28
q73 33 92 93q21 67 -19 118q-33 42 -102 68l6 22l5 23q45 19 103 66l24 20l24 20q29 23 50 38q36 25 42 66q5 37 -14 71q-20 34 -53 44q-37 12 -73 -14q-18 -12 -39 -29z" />
    <glyph glyph-name="Egrave" unicode="&#xc8;" horiz-adv-x="910" 
d="M164 1361q-50 -5 -76 -46q-23 -38 -15 -81q-10 -389 -12 -602q-2 -156 0 -321l2 -146v-34q0 -20 2 -34q5 -38 28 -60q39 -39 127 -37q29 1 72 6l17 3l17 2q19 3 30 4q79 8 186 22l186 25q42 5 68 29q28 26 28 68q0 38 -28 69q-31 33 -68 28l-160 -21l-159 -20
q-82 -10 -147 -15l-8 -1q2 18 1 25l-1 146q-1 113 1 273q64 -1 167 6l84 5l83 4q45 2 71 33q23 28 23 67t-23 66q-26 30 -71 28l-83 -4l-82 -5q-103 -7 -166 -6l8 340q268 22 464 -6q42 -6 74 10q35 18 46 57q10 37 -10 75q-20 39 -58 45q-275 39 -618 3zM389 1742
q-18 26 -48 34q-31 8 -58 -8q-18 -10 -28 -29q-11 -19 -11 -40t12 -38q59 -85 136 -154q38 -34 89 -10t44 76q-4 28 -24 46q-69 62 -112 123z" />
    <glyph glyph-name="Eacute" unicode="&#xc9;" horiz-adv-x="910" 
d="M164 1361q-50 -5 -76 -46q-23 -38 -15 -81q-10 -389 -12 -602q-2 -156 0 -321l2 -146v-34q0 -20 2 -34q5 -38 28 -60q39 -39 127 -37q29 1 72 6l17 3l17 2q19 3 30 4q79 8 186 22l186 25q42 5 68 29q28 26 28 68q0 38 -28 69q-31 33 -68 28l-160 -21l-159 -20
q-82 -10 -147 -15l-8 -1q2 18 1 25l-1 146q-1 113 1 273q64 -1 167 6l84 5l83 4q45 2 71 33q23 28 23 67t-23 66q-26 30 -71 28l-83 -4l-82 -5q-103 -7 -166 -6l8 340q268 22 464 -6q42 -6 74 10q35 18 46 57q10 37 -10 75q-20 39 -58 45q-275 39 -618 3zM620 1765
q-22 12 -44 8q-17 -3 -29 -10q-17 -10 -29 -27q-43 -60 -112 -122q-28 -25 -23 -62q4 -36 35 -57q49 -32 100 9q21 18 46 44l21 24l21 24q21 25 45 59q12 17 12 39q0 21 -11 40q-11 20 -32 31z" />
    <glyph glyph-name="Ecircumflex" unicode="&#xca;" horiz-adv-x="910" 
d="M164 1361q-50 -5 -76 -46q-23 -38 -15 -81q-10 -389 -12 -602q-2 -156 0 -321l2 -146v-34q0 -20 2 -34q5 -38 28 -60q39 -39 127 -37q29 1 72 6l17 3l17 2q19 3 30 4q79 8 186 22l186 25q42 5 68 29q28 26 28 68q0 38 -28 69q-31 33 -68 28l-160 -21l-159 -20
q-82 -10 -147 -15l-8 -1q2 18 1 25l-1 146q-1 113 1 273q64 -1 167 6l84 5l83 4q45 2 71 33q23 28 23 67t-23 66q-26 30 -71 28l-83 -4l-82 -5q-103 -7 -166 -6l8 340q268 22 464 -6q42 -6 74 10q35 18 46 57q10 37 -10 75q-20 39 -58 45q-275 39 -618 3zM524 1772
q-13 6 -29 6t-31 -6q-16 -6 -27 -17q-27 -27 -62 -71l-28 -36l-29 -36q-19 -23 -19 -51q0 -33 24 -58q10 -12 24 -18q30 -15 58 -1q14 7 25 20l28 34l26 34l18 -30l18 -30q24 -35 65 -35q31 0 56 21q21 18 25 45q3 26 -12 50l-26 40l-24 40q-31 50 -55 81q-10 12 -25 18z
" />
    <glyph glyph-name="Edieresis" unicode="&#xcb;" horiz-adv-x="910" 
d="M164 1361q-50 -5 -76 -46q-23 -38 -15 -81q-10 -389 -12 -602q-2 -156 0 -321l2 -146v-34q0 -20 2 -34q5 -38 28 -60q39 -39 127 -37q29 1 72 6l17 3l17 2q19 3 30 4q79 8 186 22l186 25q42 5 68 29q28 26 28 68q0 38 -28 69q-31 33 -68 28l-160 -21l-159 -20
q-82 -10 -147 -15l-8 -1q2 18 1 25l-1 146q-1 113 1 273q64 -1 167 6l84 5l83 4q45 2 71 33q23 28 23 67t-23 66q-26 30 -71 28l-83 -4l-82 -5q-103 -7 -166 -6l8 340q268 22 464 -6q42 -6 74 10q35 18 46 57q10 37 -10 75q-20 39 -58 45q-275 39 -618 3zM365 1633
q-18 0 -33 -7q-21 -9 -32 -30q-15 -26 -9 -58q6 -34 32 -49q15 -10 32 -11q53 -3 75 36q17 30 8 64q-10 35 -40 48q-15 7 -33 7zM582 1637q-18 0 -33 -7q-21 -10 -33 -30q-14 -26 -8 -58q6 -33 31 -48q37 -24 76 -7q21 10 32 31q28 49 -9 93q-22 26 -56 26z" />
    <glyph glyph-name="Igrave" unicode="&#xcc;" horiz-adv-x="334" 
d="M253 1365q-26 23 -65 23q-40 0 -68 -23q-32 -26 -35 -70q-44 -789 0 -1202q5 -44 38 -70q30 -23 69 -23q40 0 64 23q28 26 23 70q-45 413 0 1202q3 44 -26 70zM115 1735q-18 26 -48 34q-31 8 -58 -8q-18 -10 -28 -29q-11 -19 -11 -40t12 -38q59 -85 136 -154
q38 -34 89 -10t44 76q-4 28 -24 46q-69 62 -112 123z" />
    <glyph glyph-name="Iacute" unicode="&#xcd;" horiz-adv-x="334" 
d="M253 1365q-26 23 -65 23q-40 0 -68 -23q-32 -26 -35 -70q-44 -789 0 -1202q5 -44 38 -70q30 -23 69 -23q40 0 64 23q28 26 23 70q-45 413 0 1202q3 44 -26 70zM361 1774q-22 12 -44 8q-17 -3 -29 -10q-17 -10 -29 -27q-43 -60 -112 -122q-28 -25 -23 -62q4 -36 35 -57
q49 -32 100 9q21 18 46 44l21 24l21 24q21 25 45 59q12 17 12 39q0 21 -11 40q-11 20 -32 31z" />
    <glyph glyph-name="Icircumflex" unicode="&#xce;" horiz-adv-x="334" 
d="M253 1365q-26 23 -65 23q-40 0 -68 -23q-32 -26 -35 -70q-44 -789 0 -1202q5 -44 38 -70q30 -23 69 -23q40 0 64 23q28 26 23 70q-45 413 0 1202q3 44 -26 70zM228 1778q-13 6 -29 6t-31 -6q-16 -6 -27 -17q-27 -27 -62 -71l-28 -36l-29 -36q-19 -23 -19 -51
q0 -33 24 -58q10 -12 24 -18q30 -15 58 -1q14 7 25 20l28 34l26 34l18 -30l18 -30q24 -35 65 -35q31 0 56 21q21 18 25 45q3 26 -12 50l-26 40l-24 40q-31 50 -55 81q-10 12 -25 18z" />
    <glyph glyph-name="Idieresis" unicode="&#xcf;" horiz-adv-x="334" 
d="M253 1365q-26 23 -65 23q-40 0 -68 -23q-32 -26 -35 -70q-44 -789 0 -1202q5 -44 38 -70q30 -23 69 -23q40 0 64 23q28 26 23 70q-45 413 0 1202q3 44 -26 70zM75 1642q-18 0 -33 -7q-21 -9 -32 -30q-15 -26 -9 -58q6 -34 32 -49q15 -10 32 -11q53 -3 75 36q17 30 8 64
q-10 35 -40 48q-15 7 -33 7zM292 1646q-18 0 -33 -7q-21 -10 -33 -30q-14 -26 -8 -58q6 -33 31 -48q37 -24 76 -7q21 10 32 31q28 49 -9 93q-22 26 -56 26z" />
    <glyph glyph-name="Eth" unicode="&#xd0;" horiz-adv-x="1198" 
d="M381 214v389h146q44 0 70 30q23 27 23 67q0 39 -23 66q-26 31 -70 31h-146v357q155 -45 288 -115q108 -57 173 -117q86 -80 110 -173q26 -100 -43 -216q-58 -98 -153 -166q-140 -100 -375 -153zM273 1369q-36 -3 -60 -26q-26 -26 -26 -67v-479h-43q-45 0 -71 -31
q-23 -27 -23 -66q0 -40 23 -67q26 -30 71 -30h43v-456q-25 -49 11 -101q37 -55 102 -44q379 64 585 221q132 100 204 241q80 156 56 307q-39 240 -320 409q-208 125 -506 190q-24 5 -46 -1z" />
    <glyph glyph-name="Ntilde" unicode="&#xd1;" horiz-adv-x="905" 
d="M254 998q106 -175 214 -454l45 -118l43 -119q55 -148 90 -233q8 -39 43 -58q35 -24 77 -12q17 5 33 17q23 15 32 41q11 25 6 49v1193q0 44 -30 71q-28 23 -67 23t-67 -23q-30 -27 -30 -71v-683q-182 464 -393 713q-11 34 -42 51q-29 16 -64 12t-58 -27q-26 -25 -26 -66
v-1210q0 -44 30 -70q28 -23 67 -23t67 23q30 26 30 70v904zM651 1709q-21 14 -44 14q-27 0 -46 -21q-15 -16 -26 -45l-2 -4l-15 17q-20 20 -36 31q-44 30 -99 22q-46 -8 -86 -61l-17 -22q-9 -12 -15 -19q-21 -23 -21 -52q0 -40 35 -66q35 -27 72 -10q14 6 25 19q16 18 35 45
l19 -21q53 -57 105 -58q59 -2 109 62q23 29 39 65q7 17 7 34t-8 33q-10 22 -31 37z" />
    <glyph glyph-name="Ograve" unicode="&#xd2;" horiz-adv-x="1006" 
d="M514 1191q34 1 68 -19q67 -38 113 -166q98 -274 13 -575q-47 -165 -161 -226q-97 -51 -175 60q-29 41 -53 101q-19 45 -31 93q-52 200 -34 381q22 239 167 322q51 27 93 29zM633 34q112 53 186 169q174 273 97 721q-31 181 -120 303q-107 149 -271 158q-83 4 -191 -49
l-11 -6q-7 -3 -14 -9q-188 -117 -235 -393q-35 -213 17 -476q30 -151 94 -257q79 -134 201 -177q123 -43 247 16zM427 1741q-18 26 -48 34q-31 8 -58 -8q-18 -10 -28 -29q-11 -19 -11 -40t12 -38q59 -85 136 -154q38 -34 89 -10t44 76q-4 28 -24 46q-69 62 -112 123z" />
    <glyph glyph-name="Oacute" unicode="&#xd3;" horiz-adv-x="1006" 
d="M514 1191q34 1 68 -19q67 -38 113 -166q98 -274 13 -575q-47 -165 -161 -226q-97 -51 -175 60q-29 41 -53 101q-19 45 -31 93q-52 200 -34 381q22 239 167 322q51 27 93 29zM633 34q112 53 186 169q174 273 97 721q-31 181 -120 303q-107 149 -271 158q-83 4 -191 -49
l-11 -6q-7 -3 -14 -9q-188 -117 -235 -393q-35 -213 17 -476q30 -151 94 -257q79 -134 201 -177q123 -43 247 16zM688 1766q-22 12 -44 8q-17 -3 -29 -10q-17 -10 -29 -27q-43 -60 -112 -122q-28 -25 -23 -62q4 -36 35 -57q49 -32 100 9q21 18 46 44l21 24l21 24
q21 25 45 59q12 17 12 39q0 21 -11 40q-11 20 -32 31z" />
    <glyph glyph-name="Ocircumflex" unicode="&#xd4;" horiz-adv-x="1006" 
d="M514 1191q34 1 68 -19q67 -38 113 -166q98 -274 13 -575q-47 -165 -161 -226q-97 -51 -175 60q-29 41 -53 101q-19 45 -31 93q-52 200 -34 381q22 239 167 322q51 27 93 29zM633 34q112 53 186 169q174 273 97 721q-31 181 -120 303q-107 149 -271 158q-83 4 -191 -49
l-11 -6q-7 -3 -14 -9q-188 -117 -235 -393q-35 -213 17 -476q30 -151 94 -257q79 -134 201 -177q123 -43 247 16zM560 1772q-13 6 -29 6t-31 -6q-16 -6 -27 -17q-27 -27 -62 -71l-28 -36l-29 -36q-19 -23 -19 -51q0 -33 24 -58q10 -12 24 -18q30 -15 58 -1q14 7 25 20l28 34
l26 34l18 -30l18 -30q24 -35 65 -35q31 0 56 21q21 18 25 45q3 26 -12 50l-26 40l-24 40q-31 50 -55 81q-10 12 -25 18z" />
    <glyph glyph-name="Otilde" unicode="&#xd5;" horiz-adv-x="1006" 
d="M514 1191q34 1 68 -19q67 -38 113 -166q98 -274 13 -575q-47 -165 -161 -226q-97 -51 -175 60q-29 41 -53 101q-19 45 -31 93q-52 200 -34 381q22 239 167 322q51 27 93 29zM633 34q112 53 186 169q174 273 97 721q-31 181 -120 303q-107 149 -271 158q-83 4 -191 -49
l-11 -6q-7 -3 -14 -9q-188 -117 -235 -393q-35 -213 17 -476q30 -151 94 -257q79 -134 201 -177q123 -43 247 16zM696 1713q-21 14 -44 14q-27 0 -46 -21q-15 -16 -26 -45l-2 -4l-15 17q-20 20 -36 31q-44 30 -99 22q-46 -8 -86 -61l-17 -22q-9 -12 -15 -19q-21 -23 -21 -52
q0 -40 35 -66q35 -27 72 -10q14 6 25 19q16 18 35 45l19 -21q53 -57 105 -58q59 -2 109 62q23 29 39 65q7 17 7 34t-8 33q-10 22 -31 37z" />
    <glyph glyph-name="Odieresis" unicode="&#xd6;" horiz-adv-x="1006" 
d="M514 1191q34 1 68 -19q67 -38 113 -166q98 -274 13 -575q-47 -165 -161 -226q-97 -51 -175 60q-29 41 -53 101q-19 45 -31 93q-52 200 -34 381q22 239 167 322q51 27 93 29zM633 34q112 53 186 169q174 273 97 721q-31 181 -120 303q-107 149 -271 158q-83 4 -191 -49
l-11 -6q-7 -3 -14 -9q-188 -117 -235 -393q-35 -213 17 -476q30 -151 94 -257q79 -134 201 -177q123 -43 247 16zM402 1633q-18 0 -33 -7q-21 -9 -32 -30q-15 -26 -9 -58q6 -34 32 -49q15 -10 32 -11q53 -3 75 36q17 30 8 64q-10 35 -40 48q-15 7 -33 7zM619 1637
q-18 0 -33 -7q-21 -10 -33 -30q-14 -26 -8 -58q6 -33 31 -48q37 -24 76 -7q21 10 32 31q28 49 -9 93q-22 26 -56 26z" />
    <glyph glyph-name="multiply" unicode="&#xd7;" horiz-adv-x="789" 
d="M686 944q35 28 33 66q-1 34 -29 62t-65 32q-42 5 -76 -23q-97 -80 -187 -202q-79 105 -144 176q-30 32 -68 30q-36 -2 -63 -30q-28 -28 -32 -64q-3 -41 26 -74q72 -78 169 -208l-38 -64l-37 -64q-48 -81 -76 -126q-23 -38 -11 -75q11 -34 45 -54t70 -14q40 7 63 45
q24 38 55 91l54 92q100 -133 181 -216q31 -32 71 -29q35 3 63 31q28 27 31 63q3 40 -28 72q-89 91 -210 254q98 142 203 229z" />
    <glyph glyph-name="Oslash" unicode="&#xd8;" horiz-adv-x="1021" 
d="M561 218q-106 -56 -189 80l85 172l84 172q100 200 181 337q77 -260 0 -535q-47 -165 -161 -226zM528 1203q34 2 68 -18q8 -5 17 -12q-83 -131 -173 -304q-36 -68 -79 -156l-77 -157q-36 193 -10 348q32 198 161 271q51 27 93 28zM915 1270q23 30 10 73q-12 40 -45 60
q-35 20 -73 9q-34 -11 -59 -44l-14 -18l-13 -18q-81 60 -182 65q-83 5 -191 -49l-11 -5q-7 -4 -14 -9q-189 -117 -235 -393q-35 -214 17 -477q18 -90 49 -167q-43 -83 -81 -151q-21 -39 -8 -77q12 -34 46 -54t69 -13q39 7 61 46l34 62q56 -55 125 -79q123 -43 247 16
q112 53 186 169q174 273 97 720q-23 136 -81 242q36 53 66 92z" />
    <glyph glyph-name="Ugrave" unicode="&#xd9;" horiz-adv-x="849" 
d="M757 1327q-9 44 -43 61q-32 16 -70 5q-38 -10 -59 -40q-24 -34 -15 -77q58 -271 -11 -670q-35 -202 -100 -319l-3 -6l-3 -6l-10 -16q-13 -21 -26 -34q-36 -41 -58 -16q-10 10 -18 28l-6 16l-6 15q-10 29 -21 75q-29 114 -43 315q-10 137 -11 318v159l1 159q0 44 -30 70
q-27 24 -67 24q-39 0 -66 -24q-31 -26 -31 -70l-1 -179l1 -180q2 -202 16 -358l3 -35l4 -38q4 -46 8 -81q13 -98 34 -170q57 -195 191 -243q67 -25 145 13q66 31 115 93q97 123 152 354q100 430 35 825zM346 1748q-18 26 -48 34q-31 8 -58 -8q-18 -10 -28 -29
q-11 -19 -11 -40t12 -38q59 -85 136 -154q38 -34 89 -10t44 76q-4 28 -24 46q-69 62 -112 123z" />
    <glyph glyph-name="Uacute" unicode="&#xda;" horiz-adv-x="849" 
d="M757 1327q-9 44 -43 61q-32 16 -70 5q-38 -10 -59 -40q-24 -34 -15 -77q58 -271 -11 -670q-35 -202 -100 -319l-3 -6l-3 -6l-10 -16q-13 -21 -26 -34q-36 -41 -58 -16q-10 10 -18 28l-6 16l-6 15q-10 29 -21 75q-29 114 -43 315q-10 137 -11 318v159l1 159q0 44 -30 70
q-27 24 -67 24q-39 0 -66 -24q-31 -26 -31 -70l-1 -179l1 -180q2 -202 16 -358l3 -35l4 -38q4 -46 8 -81q13 -98 34 -170q57 -195 191 -243q67 -25 145 13q66 31 115 93q97 123 152 354q100 430 35 825zM578 1780q-22 12 -44 8q-17 -3 -29 -10q-17 -10 -29 -27
q-43 -60 -112 -122q-28 -25 -23 -62q4 -36 35 -57q49 -32 100 9q21 18 46 44l21 24l21 24q21 25 45 59q12 17 12 39q0 21 -11 40q-11 20 -32 31z" />
    <glyph glyph-name="Ucircumflex" unicode="&#xdb;" horiz-adv-x="849" 
d="M757 1327q-9 44 -43 61q-32 16 -70 5q-38 -10 -59 -40q-24 -34 -15 -77q58 -271 -11 -670q-35 -202 -100 -319l-3 -6l-3 -6l-10 -16q-13 -21 -26 -34q-36 -41 -58 -16q-10 10 -18 28l-6 16l-6 15q-10 29 -21 75q-29 114 -43 315q-10 137 -11 318v159l1 159q0 44 -30 70
q-27 24 -67 24q-39 0 -66 -24q-31 -26 -31 -70l-1 -179l1 -180q2 -202 16 -358l3 -35l4 -38q4 -46 8 -81q13 -98 34 -170q57 -195 191 -243q67 -25 145 13q66 31 115 93q97 123 152 354q100 430 35 825zM448 1792q-13 6 -29 6t-31 -6q-16 -6 -27 -17q-27 -27 -62 -71
l-28 -36l-29 -36q-19 -23 -19 -51q0 -33 24 -58q10 -12 24 -18q30 -15 58 -1q14 7 25 20l28 34l26 34l18 -30l18 -30q24 -35 65 -35q31 0 56 21q21 18 25 45q3 26 -12 50l-26 40l-24 40q-31 50 -55 81q-10 12 -25 18z" />
    <glyph glyph-name="Udieresis" unicode="&#xdc;" horiz-adv-x="849" 
d="M757 1327q-9 44 -43 61q-32 16 -70 5q-38 -10 -59 -40q-24 -34 -15 -77q58 -271 -11 -670q-35 -202 -100 -319l-3 -6l-3 -6l-10 -16q-13 -21 -26 -34q-36 -41 -58 -16q-10 10 -18 28l-6 16l-6 15q-10 29 -21 75q-29 114 -43 315q-10 137 -11 318v159l1 159q0 44 -30 70
q-27 24 -67 24q-39 0 -66 -24q-31 -26 -31 -70l-1 -179l1 -180q2 -202 16 -358l3 -35l4 -38q4 -46 8 -81q13 -98 34 -170q57 -195 191 -243q67 -25 145 13q66 31 115 93q97 123 152 354q100 430 35 825zM300 1647q-18 0 -33 -7q-21 -9 -32 -30q-15 -26 -9 -58q6 -34 32 -49
q15 -10 32 -11q53 -3 75 36q17 30 8 64q-10 35 -40 48q-15 7 -33 7zM517 1651q-18 0 -33 -7q-21 -10 -33 -30q-14 -26 -8 -58q6 -33 31 -48q37 -24 76 -7q21 10 32 31q28 49 -9 93q-22 26 -56 26z" />
    <glyph glyph-name="Yacute" unicode="&#xdd;" horiz-adv-x="915" 
d="M232 737q48 -74 107 -105v-538q0 -45 31 -71q27 -23 66 -23q40 0 67 23q30 26 30 71v545q63 37 120 124q22 33 45 76q14 28 35 72q110 227 131 398q5 38 -28 68q-31 29 -69 29q-41 0 -68 -29q-24 -26 -29 -68q2 16 -2 -3l-1 -8l-2 -8q-2 -9 -2 -11q-7 -28 -22 -76
q-26 -83 -61 -163q-38 -89 -86 -163q-13 -20 -29 -38l-11 -14q-7 -8 -13 -13q-26 -21 -62 48q-11 23 -24 55q-3 10 -8 22l-1 5l-2 4q-1 4 -2 6l-14 40q-22 67 -47 168l-20 85l-20 85q-11 43 -47 60q-32 15 -70 5t-59 -40q-22 -34 -11 -77l24 -101l25 -101q30 -118 61 -199
q32 -84 68 -140zM619 1784q-22 12 -44 8q-17 -3 -29 -10q-17 -10 -29 -27q-43 -60 -112 -122q-28 -25 -23 -62q4 -36 35 -57q49 -32 100 9q21 18 46 44l21 24l21 24q21 25 45 59q12 17 12 39q0 21 -11 40q-11 20 -32 31z" />
    <glyph glyph-name="Thorn" unicode="&#xde;" horiz-adv-x="647" 
d="M254 980q123 -43 128 -151q5 -124 -128 -236v387zM254 1284q0 44 -30 70q-28 24 -67 24t-67 -24q-30 -26 -30 -70v-1190q0 -45 30 -71q28 -23 67 -23t67 23q30 26 30 71v263q144 83 229 201q98 135 92 284q-6 134 -101 225q-84 80 -220 112v105z" />
    <glyph glyph-name="germandbls" unicode="&#xdf;" horiz-adv-x="1027" 
d="M738 779l-39 20l-38 21q125 113 168 192q66 119 16 250q-52 138 -208 190q-134 44 -292 14q-287 -53 -285 -463q1 -201 6 -455l10 -454q1 -45 32 -71q28 -23 67 -23t66 23q30 26 29 71l-5 192l-4 193q-4 218 -4 385q0 18 -2 48l-1 26l-2 28q-5 73 -2 118q8 141 89 180
q71 34 169 23q106 -12 147 -74q55 -83 -48 -191q-33 -33 -93 -81l-22 -17q-14 -11 -22 -17q-23 -18 -35 -30q-27 -26 -28 -68q-1 -44 28 -69q65 -53 179 -113l41 -22q22 -12 39 -24q41 -29 62 -66q26 -48 15 -117q-10 -60 -43 -110q-28 -42 -88 -58q-48 -12 -108 -6
q-44 4 -70 -23q-23 -25 -23 -65q0 -39 23 -69q26 -33 70 -37q192 -20 320 114q125 131 111 324q-11 164 -150 265q-29 22 -75 46z" />
    <glyph glyph-name="agrave" unicode="&#xe0;" 
d="M259 530q14 187 39 349q16 98 35 178l4 19l5 20q5 24 11 41q15 47 37 72l1 -1l3 -2q10 -10 22 -27q24 -37 45 -91q77 -206 104 -558h-306zM767 371q23 30 20 71t-31 66q-9 108 -18 185l-9 74l-10 76q-12 85 -27 151q-38 170 -109 282q-100 159 -254 117
q-87 -24 -138 -138q-19 -42 -35 -101q-5 -22 -12 -50l-5 -23l-5 -23q-83 -384 -84 -964q0 -45 30 -71q27 -23 67 -23q39 0 66 23q31 26 31 71q0 122 5 243h329q9 -146 19 -234q5 -44 38 -69q30 -24 69 -24q40 0 64 23q28 26 23 70q-11 93 -24 268zM289 1756q-18 26 -48 34
q-31 8 -58 -8q-18 -10 -28 -29q-11 -19 -11 -40t12 -38q59 -85 136 -154q38 -34 89 -10t44 76q-4 28 -24 46q-69 62 -112 123z" />
    <glyph glyph-name="aacute" unicode="&#xe1;" 
d="M259 530q14 187 39 349q16 98 35 178l4 19l5 20q5 24 11 41q15 47 37 72l1 -1l3 -2q10 -10 22 -27q24 -37 45 -91q77 -206 104 -558h-306zM767 371q23 30 20 71t-31 66q-9 108 -18 185l-9 74l-10 76q-12 85 -27 151q-38 170 -109 282q-100 159 -254 117
q-87 -24 -138 -138q-19 -42 -35 -101q-5 -22 -12 -50l-5 -23l-5 -23q-83 -384 -84 -964q0 -45 30 -71q27 -23 67 -23q39 0 66 23q31 26 31 71q0 122 5 243h329q9 -146 19 -234q5 -44 38 -69q30 -24 69 -24q40 0 64 23q28 26 23 70q-11 93 -24 268zM574 1784q-22 12 -44 8
q-17 -3 -29 -10q-17 -10 -29 -27q-43 -60 -112 -122q-28 -25 -23 -62q4 -36 35 -57q49 -32 100 9q21 18 46 44l21 24l21 24q21 25 45 59q12 17 12 39q0 21 -11 40q-11 20 -32 31z" />
    <glyph glyph-name="acircumflex" unicode="&#xe2;" 
d="M259 530q14 187 39 349q16 98 35 178l4 19l5 20q5 24 11 41q15 47 37 72l1 -1l3 -2q10 -10 22 -27q24 -37 45 -91q77 -206 104 -558h-306zM767 371q23 30 20 71t-31 66q-9 108 -18 185l-9 74l-10 76q-12 85 -27 151q-38 170 -109 282q-100 159 -254 117
q-87 -24 -138 -138q-19 -42 -35 -101q-5 -22 -12 -50l-5 -23l-5 -23q-83 -384 -84 -964q0 -45 30 -71q27 -23 67 -23q39 0 66 23q31 26 31 71q0 122 5 243h329q9 -146 19 -234q5 -44 38 -69q30 -24 69 -24q40 0 64 23q28 26 23 70q-11 93 -24 268zM428 1787q-13 6 -29 6
t-31 -6q-16 -6 -27 -17q-27 -27 -62 -71l-28 -36l-29 -36q-19 -23 -19 -51q0 -33 24 -58q10 -12 24 -18q30 -15 58 -1q14 7 25 20l28 34l26 34l18 -30l18 -30q24 -35 65 -35q31 0 56 21q21 18 25 45q3 26 -12 50l-26 40l-24 40q-31 50 -55 81q-10 12 -25 18z" />
    <glyph glyph-name="atilde" unicode="&#xe3;" 
d="M259 530q14 187 39 349q16 98 35 178l4 19l5 20q5 24 11 41q15 47 37 72l1 -1l3 -2q10 -10 22 -27q24 -37 45 -91q77 -206 104 -558h-306zM767 371q23 30 20 71t-31 66q-9 108 -18 185l-9 74l-10 76q-12 85 -27 151q-38 170 -109 282q-100 159 -254 117
q-87 -24 -138 -138q-19 -42 -35 -101q-5 -22 -12 -50l-5 -23l-5 -23q-83 -384 -84 -964q0 -45 30 -71q27 -23 67 -23q39 0 66 23q31 26 31 71q0 122 5 243h329q9 -146 19 -234q5 -44 38 -69q30 -24 69 -24q40 0 64 23q28 26 23 70q-11 93 -24 268zM595 1722q-21 14 -44 14
q-27 0 -46 -21q-15 -16 -26 -45l-2 -4l-15 17q-20 20 -36 31q-44 30 -99 22q-46 -8 -86 -61l-17 -22q-9 -12 -15 -19q-21 -23 -21 -52q0 -40 35 -66q35 -27 72 -10q14 6 25 19q16 18 35 45l19 -21q53 -57 105 -58q59 -2 109 62q23 29 39 65q7 17 7 34t-8 33q-10 22 -31 37z
" />
    <glyph glyph-name="adieresis" unicode="&#xe4;" 
d="M259 530q14 187 39 349q16 98 35 178l4 19l5 20q5 24 11 41q15 47 37 72l1 -1l3 -2q10 -10 22 -27q24 -37 45 -91q77 -206 104 -558h-306zM767 371q23 30 20 71t-31 66q-9 108 -18 185l-9 74l-10 76q-12 85 -27 151q-38 170 -109 282q-100 159 -254 117
q-87 -24 -138 -138q-19 -42 -35 -101q-5 -22 -12 -50l-5 -23l-5 -23q-83 -384 -84 -964q0 -45 30 -71q27 -23 67 -23q39 0 66 23q31 26 31 71q0 122 5 243h329q9 -146 19 -234q5 -44 38 -69q30 -24 69 -24q40 0 64 23q28 26 23 70q-11 93 -24 268zM279 1642q-18 0 -33 -7
q-21 -9 -32 -30q-15 -26 -9 -58q6 -34 32 -49q15 -10 32 -11q53 -3 75 36q17 30 8 64q-10 35 -40 48q-15 7 -33 7zM496 1646q-18 0 -33 -7q-21 -10 -33 -30q-14 -26 -8 -58q6 -33 31 -48q37 -24 76 -7q21 10 32 31q28 49 -9 93q-22 26 -56 26z" />
    <glyph glyph-name="aring" unicode="&#xe5;" horiz-adv-x="844" 
d="M259 530q14 187 39 349q16 99 35 178l4 19l5 20q5 24 11 41q15 47 37 72l1 -1l3 -2q10 -10 22 -27q24 -37 45 -91q77 -206 104 -558h-306zM376 1515q12 2 30 -8q17 -10 23 -20t7 -20q1 -13 -5 -26q-22 -33 -47 -33q-27 0 -38 31q-9 29 3 54q9 19 27 22zM767 371
q23 30 20 71t-31 66q-9 108 -18 185l-9 74l-10 76q-12 85 -27 151q-38 170 -109 282q-23 37 -51 64l12 15q5 6 9 14q5 7 8 16q30 69 8 137q-22 69 -87 109q-42 26 -92 26q-49 0 -91 -25q-43 -26 -67 -70q-29 -54 -25 -115q3 -60 36 -108q-43 -48 -72 -136q-11 -33 -21 -75
q-4 -16 -8 -36l-4 -17l-4 -17q-83 -384 -84 -964q0 -45 30 -71q27 -23 67 -23q39 0 66 23q31 26 31 71q0 122 5 243h329q9 -147 19 -234q5 -44 38 -69q30 -24 69 -24q40 0 64 23q28 26 23 70q-11 93 -24 268z" />
    <glyph glyph-name="ae" unicode="&#xe6;" horiz-adv-x="1426" 
d="M259 530q13 173 35 324l7 43l7 44q8 50 16 88q22 99 56 167q3 6 6 10l4 4q12 -11 20 -22q24 -34 41 -75q88 -211 115 -583h-307zM697 1385q-50 -5 -75 -47q-24 -37 -16 -81v-19q-18 32 -36 58q-51 69 -117 94q-74 29 -148 -7q-79 -38 -124 -152q-17 -43 -31 -101
q-5 -22 -11 -50l-5 -24l-5 -23q-78 -389 -79 -939q0 -45 30 -71q27 -23 67 -23q39 0 66 23q31 26 31 71q0 123 4 243h330q8 -124 15 -199q2 -17 8 -31q7 -28 25 -47q39 -38 127 -36q29 0 72 6l18 2l16 3q19 2 30 3q79 9 186 23l186 24q42 6 68 30q29 26 29 67q0 38 -29 69
q-31 33 -68 28l-160 -21l-159 -20q-82 -9 -147 -14l-8 -1q2 17 2 24l-2 146v30q1 11 0 21l1 223q64 -2 167 5l84 6l84 4q44 1 70 32q23 28 23 68q0 39 -23 66q-26 29 -70 28l-83 -4l-83 -6q-103 -7 -166 -6l8 340q269 22 464 -6q42 -6 74 10q35 18 46 58q10 36 -10 74
q-20 40 -58 45q-275 39 -618 4z" />
    <glyph glyph-name="ccedilla" unicode="&#xe7;" horiz-adv-x="804" 
d="M570 304l-37 -31q-49 -41 -77 -59q-66 -45 -120 41q-49 77 -67 215q-7 51 -10 118q-1 24 -2 56l-1 27l-1 26q-10 295 117 440q69 79 146 60q25 -6 33 -53q2 -16 2 -38l1 -30q0 -44 31 -70q27 -24 67 -24q39 0 66 24q30 26 29 70q-2 167 -82 253q-48 51 -131 63
q-74 10 -146 -14q-158 -53 -244 -235q-67 -142 -81 -338q-10 -137 25 -383q25 -176 91 -281t174 -132q-13 -56 -17 -85q-2 -23 15 -45t39 -26q47 -9 73 -17l5 -2q-13 -9 -37 -13q-10 -2 -21 -3q-9 0 -18 -1q-34 0 -53 -24q-18 -21 -18 -51t18 -50q19 -23 53 -22q74 2 132 28
q73 33 92 93q21 67 -19 118q-33 42 -102 68l6 22l5 23q45 19 103 66l24 20l24 20q29 23 50 38q36 25 42 66q5 37 -14 71q-20 34 -53 44q-37 12 -73 -14q-18 -12 -39 -29z" />
    <glyph glyph-name="egrave" unicode="&#xe8;" horiz-adv-x="910" 
d="M164 1361q-50 -5 -76 -46q-23 -38 -15 -81q-10 -389 -12 -602q-2 -156 0 -321l2 -146v-34q0 -20 2 -34q5 -38 28 -60q39 -39 127 -37q29 1 72 6l17 3l17 2q19 3 30 4q79 8 186 22l186 25q42 5 68 29q28 26 28 68q0 38 -28 69q-31 33 -68 28l-160 -21l-159 -20
q-82 -10 -147 -15l-8 -1q2 18 1 25l-1 146q-1 113 1 273q64 -1 167 6l84 5l83 4q45 2 71 33q23 28 23 67t-23 66q-26 30 -71 28l-83 -4l-82 -5q-103 -7 -166 -6l8 340q268 22 464 -6q42 -6 74 10q35 18 46 57q10 37 -10 75q-20 39 -58 45q-275 39 -618 3zM389 1742
q-18 26 -48 34q-31 8 -58 -8q-18 -10 -28 -29q-11 -19 -11 -40t12 -38q59 -85 136 -154q38 -34 89 -10t44 76q-4 28 -24 46q-69 62 -112 123z" />
    <glyph glyph-name="eacute" unicode="&#xe9;" horiz-adv-x="910" 
d="M164 1361q-50 -5 -76 -46q-23 -38 -15 -81q-10 -389 -12 -602q-2 -156 0 -321l2 -146v-34q0 -20 2 -34q5 -38 28 -60q39 -39 127 -37q29 1 72 6l17 3l17 2q19 3 30 4q79 8 186 22l186 25q42 5 68 29q28 26 28 68q0 38 -28 69q-31 33 -68 28l-160 -21l-159 -20
q-82 -10 -147 -15l-8 -1q2 18 1 25l-1 146q-1 113 1 273q64 -1 167 6l84 5l83 4q45 2 71 33q23 28 23 67t-23 66q-26 30 -71 28l-83 -4l-82 -5q-103 -7 -166 -6l8 340q268 22 464 -6q42 -6 74 10q35 18 46 57q10 37 -10 75q-20 39 -58 45q-275 39 -618 3zM620 1765
q-22 12 -44 8q-17 -3 -29 -10q-17 -10 -29 -27q-43 -60 -112 -122q-28 -25 -23 -62q4 -36 35 -57q49 -32 100 9q21 18 46 44l21 24l21 24q21 25 45 59q12 17 12 39q0 21 -11 40q-11 20 -32 31z" />
    <glyph glyph-name="ecircumflex" unicode="&#xea;" horiz-adv-x="910" 
d="M164 1361q-50 -5 -76 -46q-23 -38 -15 -81q-10 -389 -12 -602q-2 -156 0 -321l2 -146v-34q0 -20 2 -34q5 -38 28 -60q39 -39 127 -37q29 1 72 6l17 3l17 2q19 3 30 4q79 8 186 22l186 25q42 5 68 29q28 26 28 68q0 38 -28 69q-31 33 -68 28l-160 -21l-159 -20
q-82 -10 -147 -15l-8 -1q2 18 1 25l-1 146q-1 113 1 273q64 -1 167 6l84 5l83 4q45 2 71 33q23 28 23 67t-23 66q-26 30 -71 28l-83 -4l-82 -5q-103 -7 -166 -6l8 340q268 22 464 -6q42 -6 74 10q35 18 46 57q10 37 -10 75q-20 39 -58 45q-275 39 -618 3zM524 1772
q-13 6 -29 6t-31 -6q-16 -6 -27 -17q-27 -27 -62 -71l-28 -36l-29 -36q-19 -23 -19 -51q0 -33 24 -58q10 -12 24 -18q30 -15 58 -1q14 7 25 20l28 34l26 34l18 -30l18 -30q24 -35 65 -35q31 0 56 21q21 18 25 45q3 26 -12 50l-26 40l-24 40q-31 50 -55 81q-10 12 -25 18z
" />
    <glyph glyph-name="edieresis" unicode="&#xeb;" horiz-adv-x="910" 
d="M164 1361q-50 -5 -76 -46q-23 -38 -15 -81q-10 -389 -12 -602q-2 -156 0 -321l2 -146v-34q0 -20 2 -34q5 -38 28 -60q39 -39 127 -37q29 1 72 6l17 3l17 2q19 3 30 4q79 8 186 22l186 25q42 5 68 29q28 26 28 68q0 38 -28 69q-31 33 -68 28l-160 -21l-159 -20
q-82 -10 -147 -15l-8 -1q2 18 1 25l-1 146q-1 113 1 273q64 -1 167 6l84 5l83 4q45 2 71 33q23 28 23 67t-23 66q-26 30 -71 28l-83 -4l-82 -5q-103 -7 -166 -6l8 340q268 22 464 -6q42 -6 74 10q35 18 46 57q10 37 -10 75q-20 39 -58 45q-275 39 -618 3zM365 1633
q-18 0 -33 -7q-21 -9 -32 -30q-15 -26 -9 -58q6 -34 32 -49q15 -10 32 -11q53 -3 75 36q17 30 8 64q-10 35 -40 48q-15 7 -33 7zM582 1637q-18 0 -33 -7q-21 -10 -33 -30q-14 -26 -8 -58q6 -33 31 -48q37 -24 76 -7q21 10 32 31q28 49 -9 93q-22 26 -56 26z" />
    <glyph glyph-name="igrave" unicode="&#xec;" horiz-adv-x="332" 
d="M64 94q0 -45 30 -71q28 -23 67 -23t67 23q30 26 30 71v780q0 44 -30 70q-28 24 -67 24t-67 -24q-30 -26 -30 -70v-780zM95 1320q-18 26 -48 34q-31 8 -58 -8q-18 -10 -28 -29q-11 -19 -11 -40t12 -38q59 -85 136 -154q38 -34 89 -10t44 76q-4 28 -24 46q-69 62 -112 123z
" />
    <glyph glyph-name="iacute" unicode="&#xed;" horiz-adv-x="332" 
d="M64 94q0 -45 30 -71q28 -23 67 -23t67 23q30 26 30 71v780q0 44 -30 70q-28 24 -67 24t-67 -24q-30 -26 -30 -70v-780zM331 1354q-22 12 -44 8q-17 -3 -29 -10q-17 -10 -29 -27q-43 -60 -112 -122q-28 -25 -23 -62q4 -36 35 -57q49 -32 100 9q21 18 46 44l21 24l21 24
q21 25 45 59q12 17 12 39q0 21 -11 40q-11 20 -32 31z" />
    <glyph glyph-name="icircumflex" unicode="&#xee;" horiz-adv-x="332" 
d="M64 94q0 -45 30 -71q28 -23 67 -23t67 23q30 26 30 71v780q0 44 -30 70q-28 24 -67 24t-67 -24q-30 -26 -30 -70v-780zM203 1332q-13 6 -29 6t-31 -6q-16 -6 -27 -17q-27 -27 -62 -71l-28 -36l-29 -36q-19 -23 -19 -51q0 -33 24 -58q10 -12 24 -18q30 -15 58 -1
q14 7 25 20l28 34l26 34l18 -30l18 -30q24 -35 65 -35q31 0 56 21q21 18 25 45q3 26 -12 50l-26 40l-24 40q-31 50 -55 81q-10 12 -25 18z" />
    <glyph glyph-name="idieresis" unicode="&#xef;" horiz-adv-x="332" 
d="M64 94q0 -45 30 -71q28 -23 67 -23t67 23q30 26 30 71v780q0 44 -30 70q-28 24 -67 24t-67 -24q-30 -26 -30 -70v-780zM54 1216q-18 0 -33 -7q-21 -9 -32 -30q-15 -26 -9 -58q6 -34 32 -49q15 -10 32 -11q53 -3 75 36q17 30 8 64q-10 35 -40 48q-15 7 -33 7zM271 1220
q-18 0 -33 -7q-21 -10 -33 -30q-14 -26 -8 -58q6 -33 31 -48q37 -24 76 -7q21 10 32 31q28 49 -9 93q-22 26 -56 26z" />
    <glyph glyph-name="eth" unicode="&#xf0;" horiz-adv-x="1198" 
d="M381 214v389h146q44 0 70 30q23 27 23 67q0 39 -23 66q-26 31 -70 31h-146v357q155 -45 288 -115q108 -57 173 -117q86 -80 110 -173q26 -100 -43 -216q-58 -98 -153 -166q-140 -100 -375 -153zM273 1369q-36 -3 -60 -26q-26 -26 -26 -67v-479h-43q-45 0 -71 -31
q-23 -27 -23 -66q0 -40 23 -67q26 -30 71 -30h43v-456q-25 -49 11 -101q37 -55 102 -44q379 64 585 221q132 100 204 241q80 156 56 307q-39 240 -320 409q-208 125 -506 190q-24 5 -46 -1z" />
    <glyph glyph-name="ntilde" unicode="&#xf1;" horiz-adv-x="905" 
d="M254 998q106 -175 214 -454l45 -118l43 -119q55 -148 90 -233q8 -39 43 -58q35 -24 77 -12q17 5 33 17q23 15 32 41q11 25 6 49v1193q0 44 -30 71q-28 23 -67 23t-67 -23q-30 -27 -30 -71v-683q-182 464 -393 713q-11 34 -42 51q-29 16 -64 12t-58 -27q-26 -25 -26 -66
v-1210q0 -44 30 -70q28 -23 67 -23t67 23q30 26 30 70v904zM651 1709q-21 14 -44 14q-27 0 -46 -21q-15 -16 -26 -45l-2 -4l-15 17q-20 20 -36 31q-44 30 -99 22q-46 -8 -86 -61l-17 -22q-9 -12 -15 -19q-21 -23 -21 -52q0 -40 35 -66q35 -27 72 -10q14 6 25 19q16 18 35 45
l19 -21q53 -57 105 -58q59 -2 109 62q23 29 39 65q7 17 7 34t-8 33q-10 22 -31 37z" />
    <glyph glyph-name="ograve" unicode="&#xf2;" horiz-adv-x="1006" 
d="M514 1191q34 1 68 -19q67 -38 113 -166q98 -274 13 -575q-47 -165 -161 -226q-97 -51 -175 60q-29 41 -53 101q-19 45 -31 93q-52 200 -34 381q22 239 167 322q51 27 93 29zM633 34q112 53 186 169q174 273 97 721q-31 181 -120 303q-107 149 -271 158q-83 4 -191 -49
l-11 -6q-7 -3 -14 -9q-188 -117 -235 -393q-35 -213 17 -476q30 -151 94 -257q79 -134 201 -177q123 -43 247 16zM427 1741q-18 26 -48 34q-31 8 -58 -8q-18 -10 -28 -29q-11 -19 -11 -40t12 -38q59 -85 136 -154q38 -34 89 -10t44 76q-4 28 -24 46q-69 62 -112 123z" />
    <glyph glyph-name="oacute" unicode="&#xf3;" horiz-adv-x="1006" 
d="M514 1191q34 1 68 -19q67 -38 113 -166q98 -274 13 -575q-47 -165 -161 -226q-97 -51 -175 60q-29 41 -53 101q-19 45 -31 93q-52 200 -34 381q22 239 167 322q51 27 93 29zM633 34q112 53 186 169q174 273 97 721q-31 181 -120 303q-107 149 -271 158q-83 4 -191 -49
l-11 -6q-7 -3 -14 -9q-188 -117 -235 -393q-35 -213 17 -476q30 -151 94 -257q79 -134 201 -177q123 -43 247 16zM688 1766q-22 12 -44 8q-17 -3 -29 -10q-17 -10 -29 -27q-43 -60 -112 -122q-28 -25 -23 -62q4 -36 35 -57q49 -32 100 9q21 18 46 44l21 24l21 24
q21 25 45 59q12 17 12 39q0 21 -11 40q-11 20 -32 31z" />
    <glyph glyph-name="ocircumflex" unicode="&#xf4;" horiz-adv-x="1006" 
d="M514 1191q34 1 68 -19q67 -38 113 -166q98 -274 13 -575q-47 -165 -161 -226q-97 -51 -175 60q-29 41 -53 101q-19 45 -31 93q-52 200 -34 381q22 239 167 322q51 27 93 29zM633 34q112 53 186 169q174 273 97 721q-31 181 -120 303q-107 149 -271 158q-83 4 -191 -49
l-11 -6q-7 -3 -14 -9q-188 -117 -235 -393q-35 -213 17 -476q30 -151 94 -257q79 -134 201 -177q123 -43 247 16zM560 1772q-13 6 -29 6t-31 -6q-16 -6 -27 -17q-27 -27 -62 -71l-28 -36l-29 -36q-19 -23 -19 -51q0 -33 24 -58q10 -12 24 -18q30 -15 58 -1q14 7 25 20l28 34
l26 34l18 -30l18 -30q24 -35 65 -35q31 0 56 21q21 18 25 45q3 26 -12 50l-26 40l-24 40q-31 50 -55 81q-10 12 -25 18z" />
    <glyph glyph-name="otilde" unicode="&#xf5;" horiz-adv-x="1006" 
d="M514 1191q34 1 68 -19q67 -38 113 -166q98 -274 13 -575q-47 -165 -161 -226q-97 -51 -175 60q-29 41 -53 101q-19 45 -31 93q-52 200 -34 381q22 239 167 322q51 27 93 29zM633 34q112 53 186 169q174 273 97 721q-31 181 -120 303q-107 149 -271 158q-83 4 -191 -49
l-11 -6q-7 -3 -14 -9q-188 -117 -235 -393q-35 -213 17 -476q30 -151 94 -257q79 -134 201 -177q123 -43 247 16zM696 1713q-21 14 -44 14q-27 0 -46 -21q-15 -16 -26 -45l-2 -4l-15 17q-20 20 -36 31q-44 30 -99 22q-46 -8 -86 -61l-17 -22q-9 -12 -15 -19q-21 -23 -21 -52
q0 -40 35 -66q35 -27 72 -10q14 6 25 19q16 18 35 45l19 -21q53 -57 105 -58q59 -2 109 62q23 29 39 65q7 17 7 34t-8 33q-10 22 -31 37z" />
    <glyph glyph-name="odieresis" unicode="&#xf6;" horiz-adv-x="1006" 
d="M514 1191q34 1 68 -19q67 -38 113 -166q98 -274 13 -575q-47 -165 -161 -226q-97 -51 -175 60q-29 41 -53 101q-19 45 -31 93q-52 200 -34 381q22 239 167 322q51 27 93 29zM633 34q112 53 186 169q174 273 97 721q-31 181 -120 303q-107 149 -271 158q-83 4 -191 -49
l-11 -6q-7 -3 -14 -9q-188 -117 -235 -393q-35 -213 17 -476q30 -151 94 -257q79 -134 201 -177q123 -43 247 16zM402 1633q-18 0 -33 -7q-21 -9 -32 -30q-15 -26 -9 -58q6 -34 32 -49q15 -10 32 -11q53 -3 75 36q17 30 8 64q-10 35 -40 48q-15 7 -33 7zM619 1637
q-18 0 -33 -7q-21 -10 -33 -30q-14 -26 -8 -58q6 -33 31 -48q37 -24 76 -7q21 10 32 31q28 49 -9 93q-22 26 -56 26z" />
    <glyph glyph-name="divide" unicode="&#xf7;" horiz-adv-x="1014" 
d="M674 814l-90 4l-91 4q-214 6 -361 -16q-38 -6 -58 -45q-20 -38 -10 -74q11 -40 46 -58q32 -16 74 -10q133 20 335 11l84 -4l84 -5q102 -5 168 -6q45 0 71 30q23 27 23 67q0 39 -23 66q-26 31 -71 31q-70 1 -181 5zM436 463q-23 -28 -23 -67t23 -67q26 -30 71 -30
q44 0 70 30q23 28 23 67t-23 67q-26 30 -70 30q-45 0 -71 -30zM577 1006q23 27 23 67q0 39 -23 66q-26 31 -70 31q-45 0 -71 -31q-23 -27 -23 -66q0 -40 23 -67q26 -30 71 -30q44 0 70 30z" />
    <glyph glyph-name="oslash" unicode="&#xf8;" horiz-adv-x="1021" 
d="M561 218q-106 -56 -189 80l85 172l84 172q100 200 181 337q77 -260 0 -535q-47 -165 -161 -226zM528 1203q34 2 68 -18q8 -5 17 -12q-83 -131 -173 -304q-36 -68 -79 -156l-77 -157q-36 193 -10 348q32 198 161 271q51 27 93 28zM915 1270q23 30 10 73q-12 40 -45 60
q-35 20 -73 9q-34 -11 -59 -44l-14 -18l-13 -18q-81 60 -182 65q-83 5 -191 -49l-11 -5q-7 -4 -14 -9q-189 -117 -235 -393q-35 -214 17 -477q18 -90 49 -167q-43 -83 -81 -151q-21 -39 -8 -77q12 -34 46 -54t69 -13q39 7 61 46l34 62q56 -55 125 -79q123 -43 247 16
q112 53 186 169q174 273 97 720q-23 136 -81 242q36 53 66 92z" />
    <glyph glyph-name="ugrave" unicode="&#xf9;" horiz-adv-x="849" 
d="M757 1327q-9 44 -43 61q-32 16 -70 5q-38 -10 -59 -40q-24 -34 -15 -77q58 -271 -11 -670q-35 -202 -100 -319l-3 -6l-3 -6l-10 -16q-13 -21 -26 -34q-36 -41 -58 -16q-10 10 -18 28l-6 16l-6 15q-10 29 -21 75q-29 114 -43 315q-10 137 -11 318v159l1 159q0 44 -30 70
q-27 24 -67 24q-39 0 -66 -24q-31 -26 -31 -70l-1 -179l1 -180q2 -202 16 -358l3 -35l4 -38q4 -46 8 -81q13 -98 34 -170q57 -195 191 -243q67 -25 145 13q66 31 115 93q97 123 152 354q100 430 35 825zM346 1748q-18 26 -48 34q-31 8 -58 -8q-18 -10 -28 -29
q-11 -19 -11 -40t12 -38q59 -85 136 -154q38 -34 89 -10t44 76q-4 28 -24 46q-69 62 -112 123z" />
    <glyph glyph-name="uacute" unicode="&#xfa;" horiz-adv-x="849" 
d="M757 1327q-9 44 -43 61q-32 16 -70 5q-38 -10 -59 -40q-24 -34 -15 -77q58 -271 -11 -670q-35 -202 -100 -319l-3 -6l-3 -6l-10 -16q-13 -21 -26 -34q-36 -41 -58 -16q-10 10 -18 28l-6 16l-6 15q-10 29 -21 75q-29 114 -43 315q-10 137 -11 318v159l1 159q0 44 -30 70
q-27 24 -67 24q-39 0 -66 -24q-31 -26 -31 -70l-1 -179l1 -180q2 -202 16 -358l3 -35l4 -38q4 -46 8 -81q13 -98 34 -170q57 -195 191 -243q67 -25 145 13q66 31 115 93q97 123 152 354q100 430 35 825zM578 1780q-22 12 -44 8q-17 -3 -29 -10q-17 -10 -29 -27
q-43 -60 -112 -122q-28 -25 -23 -62q4 -36 35 -57q49 -32 100 9q21 18 46 44l21 24l21 24q21 25 45 59q12 17 12 39q0 21 -11 40q-11 20 -32 31z" />
    <glyph glyph-name="ucircumflex" unicode="&#xfb;" horiz-adv-x="849" 
d="M757 1327q-9 44 -43 61q-32 16 -70 5q-38 -10 -59 -40q-24 -34 -15 -77q58 -271 -11 -670q-35 -202 -100 -319l-3 -6l-3 -6l-10 -16q-13 -21 -26 -34q-36 -41 -58 -16q-10 10 -18 28l-6 16l-6 15q-10 29 -21 75q-29 114 -43 315q-10 137 -11 318v159l1 159q0 44 -30 70
q-27 24 -67 24q-39 0 -66 -24q-31 -26 -31 -70l-1 -179l1 -180q2 -202 16 -358l3 -35l4 -38q4 -46 8 -81q13 -98 34 -170q57 -195 191 -243q67 -25 145 13q66 31 115 93q97 123 152 354q100 430 35 825zM448 1792q-13 6 -29 6t-31 -6q-16 -6 -27 -17q-27 -27 -62 -71
l-28 -36l-29 -36q-19 -23 -19 -51q0 -33 24 -58q10 -12 24 -18q30 -15 58 -1q14 7 25 20l28 34l26 34l18 -30l18 -30q24 -35 65 -35q31 0 56 21q21 18 25 45q3 26 -12 50l-26 40l-24 40q-31 50 -55 81q-10 12 -25 18z" />
    <glyph glyph-name="udieresis" unicode="&#xfc;" horiz-adv-x="849" 
d="M757 1327q-9 44 -43 61q-32 16 -70 5q-38 -10 -59 -40q-24 -34 -15 -77q58 -271 -11 -670q-35 -202 -100 -319l-3 -6l-3 -6l-10 -16q-13 -21 -26 -34q-36 -41 -58 -16q-10 10 -18 28l-6 16l-6 15q-10 29 -21 75q-29 114 -43 315q-10 137 -11 318v159l1 159q0 44 -30 70
q-27 24 -67 24q-39 0 -66 -24q-31 -26 -31 -70l-1 -179l1 -180q2 -202 16 -358l3 -35l4 -38q4 -46 8 -81q13 -98 34 -170q57 -195 191 -243q67 -25 145 13q66 31 115 93q97 123 152 354q100 430 35 825zM300 1647q-18 0 -33 -7q-21 -9 -32 -30q-15 -26 -9 -58q6 -34 32 -49
q15 -10 32 -11q53 -3 75 36q17 30 8 64q-10 35 -40 48q-15 7 -33 7zM517 1651q-18 0 -33 -7q-21 -10 -33 -30q-14 -26 -8 -58q6 -33 31 -48q37 -24 76 -7q21 10 32 31q28 49 -9 93q-22 26 -56 26z" />
    <glyph glyph-name="yacute" unicode="&#xfd;" horiz-adv-x="915" 
d="M232 737q48 -74 107 -105v-538q0 -45 31 -71q27 -23 66 -23q40 0 67 23q30 26 30 71v545q63 37 120 124q22 33 45 76q14 28 35 72q110 227 131 398q5 38 -28 68q-31 29 -69 29q-41 0 -68 -29q-24 -26 -29 -68q2 16 -2 -3l-1 -8l-2 -8q-2 -9 -2 -11q-7 -28 -22 -76
q-26 -83 -61 -163q-38 -89 -86 -163q-13 -20 -29 -38l-11 -14q-7 -8 -13 -13q-26 -21 -62 48q-11 23 -24 55q-3 10 -8 22l-1 5l-2 4q-1 4 -2 6l-14 40q-22 67 -47 168l-20 85l-20 85q-11 43 -47 60q-32 15 -70 5t-59 -40q-22 -34 -11 -77l24 -101l25 -101q30 -118 61 -199
q32 -84 68 -140zM619 1784q-22 12 -44 8q-17 -3 -29 -10q-17 -10 -29 -27q-43 -60 -112 -122q-28 -25 -23 -62q4 -36 35 -57q49 -32 100 9q21 18 46 44l21 24l21 24q21 25 45 59q12 17 12 39q0 21 -11 40q-11 20 -32 31z" />
    <glyph glyph-name="thorn" unicode="&#xfe;" horiz-adv-x="846" 
d="M423 667q-71 -35 -145 -37q-7 0 -16 -2q-8 206 -8 358q94 21 172 14q96 -9 147 -58q30 -30 13 -92q-14 -50 -46 -89q-46 -58 -117 -94zM261 1272q2 44 -27 70q-26 24 -65 24t-68 -24q-31 -26 -34 -70q-5 -93 -6 -200q-2 -11 -1 -22q-1 -191 11 -478l10 -239
q6 -143 9 -239q1 -45 32 -71q28 -23 68 -23q39 0 66 23q29 26 28 71l-6 171l-8 171h8q105 3 211 52q106 50 182 130q80 86 104 185q26 109 -22 217q-52 115 -207 155q-128 32 -289 8z" />
    <glyph glyph-name="ydieresis" unicode="&#xff;" horiz-adv-x="915" 
d="M232 737q48 -74 107 -105v-538q0 -45 31 -71q27 -23 66 -23q40 0 67 23q30 26 30 71v545q63 37 120 124q22 33 45 76q14 28 35 72q110 227 131 398q5 38 -28 68q-31 29 -69 29q-41 0 -68 -29q-24 -26 -29 -68q2 16 -2 -3l-1 -8l-2 -8q-2 -9 -2 -11q-7 -28 -22 -76
q-26 -83 -61 -163q-38 -89 -86 -163q-13 -20 -29 -38l-11 -14q-7 -8 -13 -13q-26 -21 -62 48q-11 23 -24 55q-3 10 -8 22l-1 5l-2 4q-1 4 -2 6l-14 40q-22 67 -47 168l-20 85l-20 85q-11 43 -47 60q-32 15 -70 5t-59 -40q-22 -34 -11 -77l24 -101l25 -101q30 -118 61 -199
q32 -84 68 -140zM350 1647q-18 0 -33 -7q-21 -9 -32 -30q-15 -26 -9 -58q6 -34 32 -49q15 -10 32 -11q53 -3 75 36q17 30 8 64q-10 35 -40 48q-15 7 -33 7zM567 1651q-18 0 -33 -7q-21 -10 -33 -30q-14 -26 -8 -58q6 -33 31 -48q37 -24 76 -7q21 10 32 31q28 49 -9 93
q-22 26 -56 26z" />
    <glyph glyph-name="quoteleft" unicode="&#x2018;" horiz-adv-x="299" 
d="M217 1099q20 80 93 171q26 33 29 68q2 39 -27 69q-26 27 -68 29q-45 3 -69 -27q-279 -348 -63 -628q27 -36 64 -35q34 1 62 28q29 27 34 65q6 42 -21 76q-61 80 -34 184z" />
    <glyph glyph-name="quoteright" unicode="&#x2019;" horiz-adv-x="299" 
d="M79 1084q-21 -81 -93 -171q-27 -33 -29 -69q-2 -39 27 -68q26 -27 68 -30q45 -2 69 27q278 349 63 629q-27 35 -65 35q-33 -1 -62 -28q-28 -28 -33 -65q-6 -42 21 -77q61 -79 34 -183z" />
    <glyph glyph-name="quotesinglbase" unicode="&#x201a;" horiz-adv-x="299" 
d="M69 -156q-21 -81 -93 -171q-27 -33 -29 -69q-2 -39 27 -68q26 -27 68 -30q45 -2 69 27q278 349 63 629q-27 35 -65 35q-33 -1 -62 -28q-28 -28 -33 -65q-6 -42 21 -77q61 -79 34 -183z" />
    <glyph glyph-name="quotedblleft" unicode="&#x201c;" horiz-adv-x="606" 
d="M517 1109q20 80 93 171q26 33 29 68q2 39 -27 69q-26 27 -68 29q-45 3 -69 -27q-279 -348 -63 -628q27 -36 64 -35q34 1 62 28q29 27 34 65q6 42 -21 76q-61 80 -34 184zM207 1109q20 80 93 171q26 33 29 68q2 39 -27 69q-26 27 -68 29q-45 3 -69 -27q-279 -348 -63 -628
q27 -36 64 -35q34 1 62 28q29 27 34 65q6 42 -21 76q-61 80 -34 184z" />
    <glyph glyph-name="quotedblright" unicode="&#x201d;" horiz-adv-x="606" 
d="M69 1094q-21 -81 -93 -171q-27 -33 -29 -69q-2 -39 27 -68q26 -27 68 -30q45 -2 69 27q278 349 63 629q-27 35 -65 35q-33 -1 -62 -28q-28 -28 -33 -65q-6 -42 21 -77q61 -79 34 -183zM379 1094q-21 -81 -93 -171q-27 -33 -29 -69q-2 -39 27 -68q26 -27 68 -30
q45 -2 69 27q278 349 63 629q-27 35 -65 35q-33 -1 -62 -28q-28 -28 -33 -65q-6 -42 21 -77q61 -79 34 -183z" />
    <glyph glyph-name="quotedblbase" unicode="&#x201e;" horiz-adv-x="606" 
d="M69 -156q-21 -81 -93 -171q-27 -33 -29 -69q-2 -39 27 -68q26 -27 68 -30q45 -2 69 27q278 349 63 629q-27 35 -65 35q-33 -1 -62 -28q-28 -28 -33 -65q-6 -42 21 -77q61 -79 34 -183zM379 -156q-21 -81 -93 -171q-27 -33 -29 -69q-2 -39 27 -68q26 -27 68 -30
q45 -2 69 27q278 349 63 629q-27 35 -65 35q-33 -1 -62 -28q-28 -28 -33 -65q-6 -42 21 -77q61 -79 34 -183z" />
    <glyph glyph-name="uniF001" unicode="&#xf001;" horiz-adv-x="727" 
d="M229 1557q-85 -44 -152 -142q-25 -37 -13 -74q10 -33 44 -53q34 -19 71 -14q41 6 65 43q49 72 99 68q43 -3 80 -59q33 -51 48 -123t4 -122q-15 -71 -74 -161l-25 -38l-26 -37q-34 -49 -50 -73q-114 -179 -112 -354q1 -44 31 -70q28 -23 67 -23q40 0 67 23q30 26 29 70
q-1 99 57 207q21 39 57 93l31 46l30 45q144 221 109 438q-17 103 -79 190q-65 91 -157 129q-101 42 -201 -9zM205 164q-23 -28 -23 -67t23 -67q26 -30 70 -30q45 0 71 30q23 28 23 67t-23 67q-26 30 -71 30q-44 0 -70 -30z" />
    <glyph glyph-name="uniF001" unicode="&#xfb01;" horiz-adv-x="727" 
d="M229 1557q-85 -44 -152 -142q-25 -37 -13 -74q10 -33 44 -53q34 -19 71 -14q41 6 65 43q49 72 99 68q43 -3 80 -59q33 -51 48 -123t4 -122q-15 -71 -74 -161l-25 -38l-26 -37q-34 -49 -50 -73q-114 -179 -112 -354q1 -44 31 -70q28 -23 67 -23q40 0 67 23q30 26 29 70
q-1 99 57 207q21 39 57 93l31 46l30 45q144 221 109 438q-17 103 -79 190q-65 91 -157 129q-101 42 -201 -9zM205 164q-23 -28 -23 -67t23 -67q26 -30 70 -30q45 0 71 30q23 28 23 67t-23 67q-26 30 -71 30q-44 0 -70 -30z" />
    <glyph glyph-name="uniF002" unicode="&#xf002;" horiz-adv-x="727" 
d="M229 1557q-85 -44 -152 -142q-25 -37 -13 -74q10 -33 44 -53q34 -19 71 -14q41 6 65 43q49 72 99 68q43 -3 80 -59q33 -51 48 -123t4 -122q-15 -71 -74 -161l-25 -38l-26 -37q-34 -49 -50 -73q-114 -179 -112 -354q1 -44 31 -70q28 -23 67 -23q40 0 67 23q30 26 29 70
q-1 99 57 207q21 39 57 93l31 46l30 45q144 221 109 438q-17 103 -79 190q-65 91 -157 129q-101 42 -201 -9zM205 164q-23 -28 -23 -67t23 -67q26 -30 70 -30q45 0 71 30q23 28 23 67t-23 67q-26 30 -71 30q-44 0 -70 -30z" />
    <glyph glyph-name="uniF002" unicode="&#xfb02;" horiz-adv-x="727" 
d="M229 1557q-85 -44 -152 -142q-25 -37 -13 -74q10 -33 44 -53q34 -19 71 -14q41 6 65 43q49 72 99 68q43 -3 80 -59q33 -51 48 -123t4 -122q-15 -71 -74 -161l-25 -38l-26 -37q-34 -49 -50 -73q-114 -179 -112 -354q1 -44 31 -70q28 -23 67 -23q40 0 67 23q30 26 29 70
q-1 99 57 207q21 39 57 93l31 46l30 45q144 221 109 438q-17 103 -79 190q-65 91 -157 129q-101 42 -201 -9zM205 164q-23 -28 -23 -67t23 -67q26 -30 70 -30q45 0 71 30q23 28 23 67t-23 67q-26 30 -71 30q-44 0 -70 -30z" />
    </font>
</defs>
</svg>
